<?xml version="1.0" encoding="iso-8859-1"?>
<!-- Generator: Adobe Illustrator 19.0.0, SVG Export Plug-In . SVG Version: 6.00 Build 0)  -->
<svg version="1.1" id="Capa_1" xmlns="http://www.w3.org/2000/svg" xmlns:xlink="http://www.w3.org/1999/xlink" x="0px" y="0px"
	 viewBox="0 0 489.3 489.3" style="enable-background:new 0 0 489.3 489.3;" xml:space="preserve">
<g>
	<path d="M95.55,489.3h298.2c21.4,0,38.8-17.4,38.8-38.8V236.8c0-21.4-17.4-38.8-38.8-38.8h-1v-51.1c0-81-65.9-146.9-146.9-146.9
		S98.95,65.9,98.95,146.9V198h-3.4c-21.4,0-38.8,17.4-38.8,38.8v213.7C56.75,472,74.15,489.3,95.55,489.3z M262.25,349.3v14.4
		c0,1.7-0.7,3.3-1.9,4.5l-13.1,13.1c-0.4,0.4-0.4,1,0,1.4l9.8,9.8c0.6,0.6,0.6,1.5,0,2.1l-10.9,10.9c-0.4,0.4-0.4,1,0,1.4l9.2,9.2
		c0.9,0.9,1.4,2.1,1.4,3.4v3.6l-12.8,12.5c-1.1,1.1-2.8,1.1-4,0.1l-11-9.5c-1.8-1.6-2.9-3.9-2.9-6.4v-71l0,0
		c-10.7-6.3-17.9-18-17.9-31.3c0-20.1,16.3-36.3,36.3-36.3s36.3,16.3,36.3,36.3C280.95,331.1,273.45,343.1,262.25,349.3z
		 M163.25,147c0-45.6,37.1-82.6,82.6-82.6c45.6,0,82.6,37.1,82.6,82.6v51.1h-165.2V147z"/>
</g>
<g>
</g>
<g>
</g>
<g>
</g>
<g>
</g>
<g>
</g>
<g>
</g>
<g>
</g>
<g>
</g>
<g>
</g>
<g>
</g>
<g>
</g>
<g>
</g>
<g>
</g>
<g>
</g>
<g>
</g>
</svg>
