<?xml version="1.0" encoding="utf-8"?>
<!-- Generator: Adobe Illustrator 16.0.3, SVG Export Plug-In . SVG Version: 6.00 Build 0)  -->
<!DOCTYPE svg PUBLIC "-//W3C//DTD SVG 1.1//EN" "http://www.w3.org/Graphics/SVG/1.1/DTD/svg11.dtd">
<svg version="1.1" id="Layer_1" xmlns="http://www.w3.org/2000/svg" xmlns:xlink="http://www.w3.org/1999/xlink" x="0px" y="0px"
	 width="320px" height="320px" viewBox="0 0 320 320" enable-background="new 0 0 320 320" xml:space="preserve">
<g>
	<path fill="#00AEEF" d="M320.13,152.158c0.212,0.014,0.424,0.027,0.636,0.037c0,5.476,0,10.952,0,16.429
		c-0.208,0.024-0.417,0.038-0.627,0.039C320.137,163.161,320.133,157.659,320.13,152.158z"/>
	<path fill="#00AEEF" d="M150.766,320.766c2.857-1.435,5.714-0.912,8.571,0C156.48,320.766,153.623,320.766,150.766,320.766z"/>
	<path fill="#00AEEF" d="M161.479,320.766c2.621-0.896,5.238-1.475,7.857,0C166.718,320.766,164.1,320.766,161.479,320.766z"/>
	<path fill="#00AEEF" d="M319.868,140.847c-1.789-17.946-7.025-34.964-14.997-51.058c-13.387-27.025-32.783-48.785-58.334-64.955
		C228.738,13.57,209.461,6.115,188.766,2.257c-5.486-1.022-11.078-0.665-16.57-1.493c-8.334,0-16.667,0-25,0
		c-0.72,0.627-1.588,0.32-2.392,0.357c-6.532,0.305-13.013,0.926-19.398,2.452C92.219,11.503,63.888,27.61,40.92,53.065
		c-17.395,19.279-29.271,41.43-36.062,66.431c-2.153,7.927-3.184,16.006-4.091,24.125c0,11.667,0,23.333,0,35
		c1.226,3.169,0.564,6.553,1.138,9.814c2.757,15.688,7.633,30.695,14.842,44.861c8.582,16.864,19.877,31.717,33.717,44.727
		c19.832,18.645,42.856,31.256,69.082,38.326c9.093,2.449,18.327,3.604,27.649,4.414c1.19,0,2.38,0,3.571,0
		c2.857-0.604,5.714-0.604,8.571,0c0.714,0,1.431,0,2.144,0c2.621-0.58,5.237-0.58,7.856,0c0.952,0,1.905,0,2.856,0
		c0.277-0.234,0.592-0.363,0.966-0.361c9.694,0.041,19.108-1.709,28.462-4.153c27.938-7.306,52.014-21.394,72.422-41.632
		c14.039-13.926,25.199-29.979,33.212-48.159c8.243-18.707,13.329-38.089,13.146-58.664c0-4.948,0-9.901-0.001-14.858
		C320.53,148.891,320.267,144.848,319.868,140.847z M160.362,298.404c-75.811,0.041-137.688-61.947-137.583-137.829
		c0.104-75.817,61.387-137.56,137.505-137.524c77.674,0.038,137.709,62.958,137.76,137.615
		C298.096,236.475,236.277,298.364,160.362,298.404z"/>
</g>
<path fill="#00AEEF" d="M161.109,36.975C91.099,36.598,34.956,96.117,37.194,160.619C34.869,224.326,89.65,284.55,160.232,284.361
	c68.361-0.182,123.809-55.182,123.881-123.397C284.188,90.186,225.691,37.323,161.109,36.975z M222.015,237.518
	c-8.166,3.071-16.327,6.156-24.503,9.201c-1.808,0.674-3.668,1.205-5.504,1.802c-4.001,0-8.002,0-12.003,0
	c-9.694-2.771-19.401-5.501-29.08-8.325c-9.13-2.665-18.049-2.428-26.813,1.496c-3.768,1.688-7.622,3.183-11.79,4.913
	c-4.236-7.554-8.361-14.909-12.441-22.184c4.034-3.222,7.93-6.071,11.527-9.256c15.121-13.383,18.324-26.276,10.853-44.143
	c-0.664-1.586-2.792-3.541-4.321-3.613c-6.635-0.315-13.3,0.004-19.954,0.093c0-4.668,0-9.335,0-14.003c4.583,0,9.165,0,14.638,0
	c-2.234-5.27-4.131-9.448-5.796-13.718c-11.482-29.436,3.09-57.607,33.764-65.327c4.124-1.038,8.271-1.984,12.407-2.975
	c4.668,0,9.336,0,14.004,0c5.25,1.353,10.549,2.537,15.741,4.084c24.88,7.415,35.519,30.378,34.191,51.442
	c-7.069,0-14.193,0.001-21.316,0c-8.468-0.001-8.587,0.024-10.38-8.146c-2.244-10.233-7.08-18.016-18.271-19.858
	c-9.615-1.583-18.834-0.882-25.657,7.162c-6.767,7.976-6.893,16.934-2.815,26.238c2.471,5.638,4.928,11.286,7.199,17.007
	c1.132,2.851,2.755,4.131,5.979,3.977c5.485-0.263,10.993-0.074,16.491-0.074c4.401,0,8.803,0,13.079,0c0,4.975,0,9.031,0,13.646
	c-9.485,0-18.573,0-28.434,0c5.693,23.358-4.879,39.508-22.368,52.787c1.342,0.258,1.947,0.106,2.519-0.127
	c15.61-6.376,31.338-7.189,47.199-0.963c5.533,2.173,11.085,2.152,16.575,0.042c5.049-1.94,10.008-4.113,15.273-6.293
	c1.469,3.893,2.829,7.812,4.421,11.636c1.752,4.205,3.715,8.323,5.586,12.479C222.015,236.851,222.015,237.185,222.015,237.518z"/>
</svg>
