<?xml version="1.0" encoding="utf-8"?>
<!-- Generator: Adobe Illustrator 16.0.3, SVG Export Plug-In . SVG Version: 6.00 Build 0)  -->
<!DOCTYPE svg PUBLIC "-//W3C//DTD SVG 1.1//EN" "http://www.w3.org/Graphics/SVG/1.1/DTD/svg11.dtd">
<svg version="1.1" id="Layer_1" xmlns="http://www.w3.org/2000/svg" xmlns:xlink="http://www.w3.org/1999/xlink" x="0px" y="0px"
	 width="320px" height="320px" viewBox="0 0 320 320" enable-background="new 0 0 320 320" xml:space="preserve">
<g>
	<path fill="#00AEEF" d="M320.13,152.158c0.212,0.014,0.424,0.027,0.636,0.037c0,5.476,0,10.952,0,16.429
		c-0.208,0.024-0.417,0.038-0.627,0.039C320.137,163.161,320.133,157.659,320.13,152.158z"/>
	<path fill="#00AEEF" d="M150.766,320.766c2.857-1.435,5.714-0.912,8.571,0C156.48,320.766,153.623,320.766,150.766,320.766z"/>
	<path fill="#00AEEF" d="M161.479,320.766c2.621-0.896,5.238-1.475,7.857,0C166.718,320.766,164.1,320.766,161.479,320.766z"/>
	<path fill="#00AEEF" d="M319.868,140.847c-1.789-17.946-7.025-34.964-14.997-51.058c-13.387-27.025-32.783-48.785-58.334-64.955
		C228.738,13.57,209.461,6.115,188.766,2.257c-5.486-1.022-11.078-0.665-16.57-1.493c-8.334,0-16.667,0-25,0
		c-0.72,0.627-1.588,0.32-2.392,0.357c-6.532,0.305-13.013,0.926-19.398,2.452C92.219,11.503,63.888,27.61,40.92,53.065
		c-17.395,19.279-29.271,41.43-36.062,66.431c-2.153,7.927-3.184,16.006-4.091,24.125c0,11.667,0,23.333,0,35
		c1.226,3.169,0.564,6.553,1.138,9.814c2.757,15.688,7.633,30.695,14.842,44.861c8.582,16.864,19.877,31.717,33.717,44.727
		c19.832,18.645,42.856,31.256,69.082,38.326c9.093,2.449,18.327,3.604,27.649,4.414c1.19,0,2.38,0,3.571,0
		c2.857-0.604,5.714-0.604,8.571,0c0.714,0,1.431,0,2.144,0c2.621-0.58,5.237-0.58,7.856,0c0.952,0,1.905,0,2.856,0
		c0.277-0.234,0.592-0.363,0.966-0.361c9.694,0.041,19.108-1.709,28.462-4.153c27.938-7.306,52.014-21.394,72.422-41.632
		c14.039-13.926,25.199-29.979,33.212-48.159c8.243-18.707,13.329-38.089,13.146-58.664c0-4.948,0-9.901-0.001-14.858
		C320.53,148.891,320.267,144.848,319.868,140.847z M160.362,298.404c-75.811,0.041-137.688-61.947-137.583-137.829
		c0.104-75.817,61.387-137.56,137.505-137.524c77.674,0.038,137.709,62.958,137.76,137.615
		C298.096,236.475,236.277,298.364,160.362,298.404z"/>
</g>
<path fill="#00AEEF" d="M161.109,36.975C91.099,36.598,34.956,96.117,37.194,160.619C34.869,224.326,89.65,284.55,160.232,284.361
	c68.361-0.182,123.809-55.182,123.881-123.397C284.188,90.186,225.691,37.323,161.109,36.975z M238.265,154.789
	c-6.76,0-13.066,0-19.373,0c-6.949,0-6.891,0.002-7.032,6.762c-0.072,3.481-0.396,6.957-0.64,10.979
	c7.263,0,14.374-0.005,21.486,0.001c5.552,0.005,5.552,0.011,5.558,5.502c0.013,9.47,0.013,9.47-9.556,9.47
	c-6.75,0-13.504,0.132-20.247-0.063c-2.854-0.083-4.575,0.75-6.272,3.188c-11.37,16.344-26.492,28.218-44.4,36.73
	c-8.284,3.938-16.871,4.269-25.729,2.93c-17.666-2.672-33.803-10.013-50.323-16c0.788-5.807,1.068-6.015,6.202-5.055
	c6.5,1.214,13.002,2.419,19.506,3.617c19.224,3.543,36.722-1.116,52.869-11.49c5.947-3.82,11.491-8.269,17.218-12.43
	c-0.246-0.477-0.492-0.953-0.738-1.429c-3.883,0-7.768,0-11.65,0c-13.905,0-27.811-0.083-41.713,0.06
	c-3.208,0.033-4.5-0.692-4.464-4.223c0.112-10.809-0.036-10.81,10.902-10.81c19.304,0,38.609-0.055,57.913,0.06
	c2.763,0.017,4.619-0.721,5.87-3.201c2.28-4.521,4.663-8.989,7.439-14.319c-2.687-0.131-4.222-0.27-5.758-0.271
	c-23.759-0.014-47.519-0.083-71.277,0.065c-3.725,0.023-5.207-0.76-5.103-4.848c0.261-10.237,0.063-10.243,10.233-10.243
	c22.139,0,44.278,0,66.418,0c1.601,0,3.202,0,5.748,0c-1.427-4.348-2.074-8.435-4.007-11.78
	c-4.369-7.558-9.154-14.904-14.236-22.003c-1.803-2.52-2.37-4.315-1.177-7.2c2.355-5.691,4.285-11.558,6.552-17.791
	c18.374,15.583,25.379,35.158,23.088,58.774c6.521,0,12.282,0,18.044,0c8.652,0,8.652,0,8.651,8.859
	C238.264,150.488,238.265,152.344,238.265,154.789z"/>
</svg>
