<?xml version="1.0" encoding="utf-8"?>
<!-- Generator: Adobe Illustrator 24.1.1, SVG Export Plug-In . SVG Version: 6.00 Build 0)  -->
<svg version="1.1" id="Layer_1" xmlns="http://www.w3.org/2000/svg" xmlns:xlink="http://www.w3.org/1999/xlink" x="0px" y="0px"
	 viewBox="0 0 1024 1024" style="enable-background:new 0 0 1024 1024;" xml:space="preserve">
<style type="text/css">
	.st0{fill:#00B7FA;}
</style>
<g>
	<path class="st0" d="M512,75c59.03,0,116.25,11.54,170.08,34.31c52.03,22.01,98.77,53.53,138.93,93.68
		c40.16,40.16,71.68,86.9,93.68,138.93C937.46,395.75,949,452.97,949,512s-11.54,116.25-34.31,170.08
		c-22.01,52.03-53.53,98.77-93.68,138.93c-40.16,40.16-86.9,71.68-138.93,93.68C628.25,937.46,571.03,949,512,949
		s-116.25-11.54-170.08-34.31c-52.03-22.01-98.77-53.53-138.93-93.68c-40.16-40.16-71.68-86.9-93.68-138.93
		C86.54,628.25,75,571.03,75,512s11.54-116.25,34.31-170.08c22.01-52.03,53.53-98.77,93.68-138.93s86.9-71.68,138.93-93.68
		C395.75,86.54,452.97,75,512,75 M512,0C229.23,0,0,229.23,0,512s229.23,512,512,512s512-229.23,512-512S794.77,0,512,0L512,0z"/>
</g>
<g>
	<g>
		<path class="st0" d="M586.55,414.47c0-27.34-22.29-49.64-49.64-49.64h-92.18v99.29h92.18
			C564.26,464.12,586.55,441.81,586.55,414.47z"/>
	</g>
	<g>
		<path class="st0" d="M565.28,549.22H444.73v99.28h120.55c27.34,0,49.64-22.29,49.64-49.64
			C614.92,571.51,592.62,549.22,565.28,549.22z"/>
	</g>
	<g>
		<path class="st0" d="M512,122c-215.39,0-390,174.61-390,390s174.61,390,390,390s390-174.61,390-390S727.39,122,512,122z
			 M565.28,733.59h-7.1v14.18c0,23.49-19.06,42.55-42.55,42.55c-23.49,0-42.55-19.06-42.55-42.55v-14.18h-70.91
			c-23.49,0-42.55-19.06-42.55-42.55V322.28c0-23.49,19.06-42.55,42.55-42.55h70.91v-14.18c0-23.49,19.06-42.55,42.55-42.55
			c23.49,0,42.55,19.06,42.55,42.55v16.34c64.17,10.26,113.47,65.58,113.47,132.58c0,28.93-9.36,55.66-25.01,77.67
			c32.22,24.67,53.38,63.09,53.38,106.71C700.02,673.18,639.6,733.59,565.28,733.59z"/>
	</g>
</g>
</svg>
