<?xml version="1.0" encoding="utf-8"?>
<!-- Generator: Adobe Illustrator 24.1.1, SVG Export Plug-In . SVG Version: 6.00 Build 0)  -->
<svg version="1.1" id="Layer_1" xmlns="http://www.w3.org/2000/svg" xmlns:xlink="http://www.w3.org/1999/xlink" x="0px" y="0px"
	 viewBox="0 0 1024 1024" style="enable-background:new 0 0 1024 1024;" xml:space="preserve">
<style type="text/css">
	.st0{fill:#00B7FA;}
</style>
<g>
	<path class="st0" d="M512,75c59.03,0,116.25,11.54,170.08,34.31c52.03,22.01,98.77,53.53,138.93,93.68
		c40.16,40.16,71.68,86.9,93.68,138.93C937.46,395.75,949,452.97,949,512s-11.54,116.25-34.31,170.08
		c-22.01,52.03-53.53,98.77-93.68,138.93c-40.16,40.16-86.9,71.68-138.93,93.68C628.25,937.46,571.03,949,512,949
		s-116.25-11.54-170.08-34.31c-52.03-22.01-98.77-53.53-138.93-93.68c-40.16-40.16-71.68-86.9-93.68-138.93
		C86.54,628.25,75,571.03,75,512s11.54-116.25,34.31-170.08c22.01-52.03,53.53-98.77,93.68-138.93s86.9-71.68,138.93-93.68
		C395.75,86.54,452.97,75,512,75 M512,0C229.23,0,0,229.23,0,512s229.23,512,512,512s512-229.23,512-512S794.77,0,512,0L512,0z"/>
</g>
<g>
	<g>
		<path class="st0" d="M512,122c-215.39,0-390,174.61-390,390s174.61,390,390,390s390-174.61,390-390S727.39,122,512,122z
			 M625.07,799H346.75c-14.41,0-26.09-11.68-26.09-26.09c0-14.41,11.68-26.09,26.09-26.09h278.31c14.41,0,26.09,11.68,26.09,26.09
			C651.16,787.32,639.47,799,625.07,799z M677.25,311.95h-26.09v356.59c0,14.41-11.68,26.09-26.09,26.09
			c-14.41,0-26.09-11.68-26.09-26.09v-18.76c-29.58,27.8-69.37,44.86-113.07,44.86c-91.12,0-165.25-74.13-165.25-165.25
			s74.13-165.25,165.25-165.25c43.7,0,83.48,17.06,113.07,44.86v-97.04h-26.09c-14.41,0-26.09-11.68-26.09-26.09
			c0-14.41,11.68-26.09,26.09-26.09h26.09v-8.67c0-14.41,11.68-26.09,26.09-26.09c14.41,0,26.09,11.68,26.09,26.09v8.67h26.09
			c14.41,0,26.09,11.68,26.09,26.09C703.34,300.27,691.66,311.95,677.25,311.95z"/>
	</g>
	<g>
		<circle class="st0" cx="485.91" cy="529.38" r="113.07"/>
	</g>
</g>
</svg>
