<?xml version="1.0" encoding="utf-8"?>
<!-- Generator: Adobe Illustrator 16.0.3, SVG Export Plug-In . SVG Version: 6.00 Build 0)  -->
<!DOCTYPE svg PUBLIC "-//W3C//DTD SVG 1.1//EN" "http://www.w3.org/Graphics/SVG/1.1/DTD/svg11.dtd">
<svg version="1.1" id="Layer_1" xmlns="http://www.w3.org/2000/svg" xmlns:xlink="http://www.w3.org/1999/xlink" x="0px" y="0px"
	 width="320px" height="320px" viewBox="0 0 320 320" enable-background="new 0 0 320 320" xml:space="preserve">
<g>
	<path fill="#00AEEF" d="M320.13,152.158c0.212,0.014,0.424,0.027,0.636,0.037c0,5.476,0,10.952,0,16.429
		c-0.208,0.024-0.417,0.038-0.627,0.039C320.137,163.161,320.133,157.659,320.13,152.158z"/>
	<path fill="#00AEEF" d="M150.766,320.766c2.857-1.435,5.714-0.912,8.571,0C156.48,320.766,153.623,320.766,150.766,320.766z"/>
	<path fill="#00AEEF" d="M161.479,320.766c2.621-0.896,5.238-1.475,7.857,0C166.718,320.766,164.1,320.766,161.479,320.766z"/>
	<path fill="#00AEEF" d="M319.868,140.847c-1.789-17.946-7.025-34.964-14.997-51.058c-13.387-27.025-32.783-48.785-58.334-64.955
		C228.738,13.57,209.461,6.115,188.766,2.257c-5.486-1.022-11.078-0.665-16.57-1.493c-8.334,0-16.667,0-25,0
		c-0.72,0.627-1.588,0.32-2.392,0.357c-6.532,0.305-13.013,0.926-19.398,2.452C92.219,11.503,63.888,27.61,40.92,53.065
		c-17.395,19.279-29.271,41.43-36.062,66.431c-2.153,7.927-3.184,16.006-4.091,24.125c0,11.667,0,23.333,0,35
		c1.226,3.169,0.564,6.553,1.138,9.814c2.757,15.688,7.633,30.695,14.842,44.861c8.582,16.864,19.877,31.717,33.717,44.727
		c19.832,18.645,42.856,31.256,69.082,38.326c9.093,2.449,18.327,3.604,27.649,4.414c1.19,0,2.38,0,3.571,0
		c2.857-0.604,5.714-0.604,8.571,0c0.714,0,1.431,0,2.144,0c2.621-0.58,5.237-0.58,7.856,0c0.952,0,1.905,0,2.856,0
		c0.277-0.234,0.592-0.363,0.966-0.361c9.694,0.041,19.108-1.709,28.462-4.153c27.938-7.306,52.014-21.394,72.422-41.632
		c14.039-13.926,25.199-29.979,33.212-48.159c8.243-18.707,13.329-38.089,13.146-58.664c0-4.948,0-9.901-0.001-14.858
		C320.53,148.891,320.267,144.848,319.868,140.847z M160.362,298.404c-75.811,0.041-137.688-61.947-137.583-137.829
		c0.104-75.817,61.387-137.56,137.505-137.524c77.674,0.038,137.709,62.958,137.76,137.615
		C298.096,236.475,236.277,298.364,160.362,298.404z"/>
</g>
<g>
	<path fill="#00AEEF" d="M162.479,97.089c-10.335-2.473-20.861-1.553-31.331-1.55c-0.099,0-0.197,0.134-0.32,0.223
		c0,18.42,0,36.854,0,55.502c2.566,0,5.017,0.048,7.465-0.009c6.874-0.163,13.775,0.515,20.611-0.842
		c11.95-2.372,23.062-9.85,24.297-24.773c0.561-6.781-0.522-13.245-4.669-18.886C174.534,101.313,168.823,98.607,162.479,97.089z"/>
	<path fill="#00AEEF" d="M161.109,36.975C91.099,36.598,34.956,96.117,37.194,160.619C34.869,224.326,89.65,284.55,160.232,284.361
		c68.361-0.182,123.809-55.182,123.881-123.397C284.188,90.186,225.691,37.323,161.109,36.975z M218.449,249.309
		c-0.132,0.134-0.073,0.457-0.103,0.691c-9.367,0-18.734,0-28.102,0c-0.602-1.219-1.324-2.395-1.786-3.664
		c-8.259-22.733-16.492-45.476-24.699-68.229c-0.416-1.154-0.902-1.666-2.254-1.656c-9.618,0.075-19.237,0.041-28.856,0.05
		c-0.61,0.001-1.221,0.065-1.939,0.106c0,0.885,0,1.576,0,2.267c-0.001,21.327-0.016,42.653,0.015,63.979
		c0.003,2.533,0.123,5.035-1.62,7.146c-9.114,0-18.228,0-27.342,0c-2.258-3.617-1.375-7.644-1.379-11.508
		c-0.047-53.503-0.023-107.006-0.054-160.51c-0.001-2.926-0.236-5.824,2.542-7.799c0.035-0.025,0.021-0.121,0.03-0.183
		c18.987,0,37.975,0,56.962,0c0.646,0.268,1.276,0.716,1.941,0.776c6.755,0.609,13.393,1.818,19.774,4.13
		c12.8,4.638,22.688,12.568,28.226,25.334c3.939,9.083,4.465,18.602,3.606,28.279c-0.647,7.302-2.491,14.287-5.986,20.785
		c-3.771,7.008-8.986,12.829-14.914,18.042c-1.082,0.951-1.252,1.751-0.743,3.078c3.076,8.021,6.067,16.074,9.08,24.12
		c6.113,16.325,12.211,32.657,18.348,48.974C219.991,245.629,220.18,247.56,218.449,249.309z"/>
</g>
</svg>
