<?xml version="1.0" encoding="utf-8"?>
<!-- Generator: Adobe Illustrator 16.0.3, SVG Export Plug-In . SVG Version: 6.00 Build 0)  -->
<!DOCTYPE svg PUBLIC "-//W3C//DTD SVG 1.1//EN" "http://www.w3.org/Graphics/SVG/1.1/DTD/svg11.dtd">
<svg version="1.1" id="Layer_1" xmlns="http://www.w3.org/2000/svg" xmlns:xlink="http://www.w3.org/1999/xlink" x="0px" y="0px"
	 width="320px" height="320px" viewBox="0 0 320 320" enable-background="new 0 0 320 320" xml:space="preserve">
<g>
	<path fill="#00AEEF" d="M320.13,152.158c0.212,0.014,0.424,0.027,0.636,0.037c0,5.476,0,10.952,0,16.429
		c-0.208,0.024-0.417,0.038-0.627,0.039C320.137,163.161,320.133,157.659,320.13,152.158z"/>
	<path fill="#00AEEF" d="M150.766,320.766c2.857-1.435,5.714-0.912,8.571,0C156.48,320.766,153.623,320.766,150.766,320.766z"/>
	<path fill="#00AEEF" d="M161.479,320.766c2.621-0.896,5.238-1.475,7.857,0C166.718,320.766,164.1,320.766,161.479,320.766z"/>
	<path fill="#00AEEF" d="M319.868,140.847c-1.789-17.946-7.025-34.964-14.997-51.058c-13.387-27.025-32.783-48.785-58.334-64.955
		C228.738,13.57,209.461,6.115,188.766,2.257c-5.486-1.022-11.078-0.665-16.57-1.493c-8.334,0-16.667,0-25,0
		c-0.72,0.627-1.588,0.32-2.392,0.357c-6.532,0.305-13.013,0.926-19.398,2.452C92.219,11.503,63.888,27.61,40.92,53.065
		c-17.395,19.279-29.271,41.43-36.062,66.431c-2.153,7.927-3.184,16.006-4.091,24.125c0,11.667,0,23.333,0,35
		c1.226,3.169,0.564,6.553,1.138,9.814c2.757,15.688,7.633,30.695,14.842,44.861c8.582,16.864,19.877,31.717,33.717,44.727
		c19.832,18.645,42.856,31.256,69.082,38.326c9.093,2.449,18.327,3.604,27.649,4.414c1.19,0,2.38,0,3.571,0
		c2.857-0.604,5.714-0.604,8.571,0c0.714,0,1.431,0,2.144,0c2.621-0.58,5.237-0.58,7.856,0c0.952,0,1.905,0,2.856,0
		c0.277-0.234,0.592-0.363,0.966-0.361c9.694,0.041,19.108-1.709,28.462-4.153c27.938-7.306,52.014-21.394,72.422-41.632
		c14.039-13.926,25.199-29.979,33.212-48.159c8.243-18.707,13.329-38.089,13.146-58.664c0-4.948,0-9.901-0.001-14.858
		C320.53,148.891,320.267,144.848,319.868,140.847z M160.362,298.404c-75.811,0.041-137.688-61.947-137.583-137.829
		c0.104-75.817,61.387-137.56,137.505-137.524c77.674,0.038,137.709,62.958,137.76,137.615
		C298.096,236.475,236.277,298.364,160.362,298.404z"/>
</g>
<g>
	<path fill="#00AEEF" d="M173.963,99.676c-3.995-0.763-8.105-1.192-12.171-1.253c-11.146-0.165-22.294-0.057-33.599-0.057
		c0,3.824,0,7.172,0,10.726c19.991,0,39.558,0,59.383,0C183.353,103.638,179.438,100.723,173.963,99.676z"/>
	<path fill="#00AEEF" d="M128.24,156.114c12.207,0,24.117,0.189,36.015-0.111c3.741-0.094,7.545-1.212,11.148-2.384
		c4.483-1.458,8.679-3.604,11.278-8.171c-19.672,0-38.952,0-58.441,0C128.24,149,128.24,152.355,128.24,156.114z"/>
	<path fill="#00AEEF" d="M128.374,121.665c0,4.327,0,8.349,0,12.494c18.079,0,35.813,0,53.548,0c11.744,0,11.744,0,10.605-12.494
		C170.925,121.665,149.594,121.665,128.374,121.665z"/>
	<path fill="#00AEEF" d="M161.109,36.975C91.099,36.598,34.956,96.117,37.194,160.619C34.869,224.326,89.65,284.55,160.232,284.361
		c68.361-0.182,123.809-55.182,123.881-123.397C284.188,90.186,225.691,37.323,161.109,36.975z M235.248,121.205
		c-6.976,0-13.999,0-20.988,0c-0.207,4.475-0.392,8.479-0.594,12.851c6.847,0,13.615,0,20.663,0c0,3.812,0,7.266,0,11.188
		c-6.848,0-13.628-0.112-20.397,0.095c-1.362,0.042-3.463,0.968-3.912,2.039c-7.073,16.782-20.265,25.277-37.749,26.912
		c-13.521,1.263-27.171,1.154-40.765,1.647c-0.974,0.034-1.951,0.004-3.389,0.004c0,21.913,0,43.562,0,65.432
		c-7.231,0-13.996,0-21.385,0c0-32.042,0-63.819,0-96.066c-7.463,0-14.622,0-21.98,0c0-3.819,0-7.174,0-11.002
		c7.14,0,14.301,0,21.705,0c0-4.381,0-8.306,0-12.706c-7.015,0-14.172,0-21.62,0c0-4.204,0-7.943,0-12.006
		c7.097,0,14.149,0,21.671,0c0-10.301,0-20.3,0-30.583c1.672-0.111,2.896-0.263,4.121-0.264c15.206-0.017,30.422-0.315,45.615,0.109
		c8.44,0.236,17.013,0.939,25.235,2.75c14.991,3.302,24.782,12.975,29.903,27.819c7.859,0,15.759,0,23.865,0
		C235.248,113.455,235.248,117.095,235.248,121.205z"/>
</g>
</svg>
