<?xml version="1.0" encoding="utf-8"?>
<!-- Generator: Adobe Illustrator 16.0.3, SVG Export Plug-In . SVG Version: 6.00 Build 0)  -->
<!DOCTYPE svg PUBLIC "-//W3C//DTD SVG 1.1//EN" "http://www.w3.org/Graphics/SVG/1.1/DTD/svg11.dtd">
<svg version="1.1" id="Layer_1" xmlns="http://www.w3.org/2000/svg" xmlns:xlink="http://www.w3.org/1999/xlink" x="0px" y="0px"
	 width="320px" height="320px" viewBox="0 0 320 320" enable-background="new 0 0 320 320" xml:space="preserve">
<g>
	<path fill="#00AEEF" d="M320.13,152.158c0.212,0.014,0.424,0.027,0.636,0.037c0,5.476,0,10.952,0,16.429
		c-0.208,0.024-0.417,0.038-0.627,0.039C320.137,163.161,320.133,157.659,320.13,152.158z"/>
	<path fill="#00AEEF" d="M150.766,320.766c2.857-1.435,5.714-0.912,8.571,0C156.48,320.766,153.623,320.766,150.766,320.766z"/>
	<path fill="#00AEEF" d="M161.479,320.766c2.621-0.896,5.238-1.475,7.857,0C166.718,320.766,164.1,320.766,161.479,320.766z"/>
	<path fill="#00AEEF" d="M319.868,140.847c-1.789-17.946-7.025-34.964-14.997-51.058c-13.387-27.025-32.783-48.785-58.334-64.955
		C228.738,13.57,209.461,6.115,188.766,2.257c-5.486-1.022-11.078-0.665-16.57-1.493c-8.334,0-16.667,0-25,0
		c-0.72,0.627-1.588,0.32-2.392,0.357c-6.532,0.305-13.013,0.926-19.398,2.452C92.219,11.503,63.888,27.61,40.92,53.065
		c-17.395,19.279-29.271,41.43-36.062,66.431c-2.153,7.927-3.184,16.006-4.091,24.125c0,11.667,0,23.333,0,35
		c1.226,3.169,0.564,6.553,1.138,9.814c2.757,15.688,7.633,30.695,14.842,44.861c8.582,16.864,19.877,31.717,33.717,44.727
		c19.832,18.645,42.856,31.256,69.082,38.326c9.093,2.449,18.327,3.604,27.649,4.414c1.19,0,2.38,0,3.571,0
		c2.857-0.604,5.714-0.604,8.571,0c0.714,0,1.431,0,2.144,0c2.621-0.58,5.237-0.58,7.856,0c0.952,0,1.905,0,2.856,0
		c0.277-0.234,0.592-0.363,0.966-0.361c9.694,0.041,19.108-1.709,28.462-4.153c27.938-7.306,52.014-21.394,72.422-41.632
		c14.039-13.926,25.199-29.979,33.212-48.159c8.243-18.707,13.329-38.089,13.146-58.664c0-4.948,0-9.901-0.001-14.858
		C320.53,148.891,320.267,144.848,319.868,140.847z M160.362,298.404c-75.811,0.041-137.688-61.947-137.583-137.829
		c0.104-75.817,61.387-137.56,137.505-137.524c77.674,0.038,137.709,62.958,137.76,137.615
		C298.096,236.475,236.277,298.364,160.362,298.404z"/>
</g>
<g>
	<path fill="#00AEEF" d="M159.413,151.805c-5.229-0.008-5.434,0.579-5.746,7.444c-0.2,4.408,2.604,3.328,4.96,3.416
		c2.717-0.029,6.276,0.762,6.871-2.892C166.242,155.196,163.227,151.81,159.413,151.805z"/>
	<path fill="#00AEEF" d="M194.565,177.195c-2.881-0.232-3.655,0.984-3.153,3.628c0.954,5.034,1.735,10.102,2.793,15.112
		c0.171,0.812,1.683,2.109,2.08,1.95c0.946-0.38,1.946-1.376,2.284-2.346c0.536-1.536,0.445-3.277,0.805-4.891
		c0.949-4.266,1.998-8.509,3.162-13.414C199.357,177.235,196.947,177.388,194.565,177.195z"/>
	<path fill="#00AEEF" d="M133.169,151.846c-3.273-0.089-6.55-0.025-9.825-0.025c0-0.005,0-0.011,0-0.017c-1.456,0-2.912,0-4.367,0
		c-7.66,0-7.515-0.003-7.33,7.614c0.065,2.737,1.203,3.295,3.526,3.255c4.486-0.077,8.976-0.032,13.464-0.017
		c3.556,0.014,5.371-1.647,5.758-5.243c0.1-0.93,0.14-1.984,0.604-2.735C136.483,152.279,134.964,151.895,133.169,151.846z"/>
	<path fill="#00AEEF" d="M185.828,158.521c0.676,1.65,2.373,3.899,3.798,4.037c4.814,0.465,9.709,0.187,14.566-0.004
		c0.915-0.036,2.372-0.795,2.589-1.518c0.847-2.818,1.295-5.754,1.961-8.984c-7.997,0-15.466,0-23.516,0
		C185.402,154.507,185.094,156.728,185.828,158.521z"/>
	<path fill="#00AEEF" d="M119.497,177.339c-0.746,0.059-2.076,1.24-2.011,1.769c0.827,6.651,1.86,13.276,2.84,19.909
		c0.753,0.051,1.506,0.103,2.259,0.153c3.651-6.654,3.584-14.362,6.086-21.916C125.023,177.254,122.247,177.124,119.497,177.339z"/>
	<path fill="#00AEEF" d="M161.109,36.975C91.099,36.598,34.956,96.117,37.194,160.619C34.869,224.326,89.65,284.55,160.232,284.361
		c68.361-0.182,123.809-55.182,123.881-123.397C284.188,90.186,225.691,37.323,161.109,36.975z M231.298,162.522
		c4.36,0.284,8.753,0.187,13.132,0.089c2.629-0.059,3.836,1.139,3.814,3.672c-0.095,10.912,1.245,9.908-9.213,9.933
		c-3.65,0.008-7.334,0.304-10.94-0.091c-3.686-0.403-5.203,1.652-6.008,4.474c-3.368,11.797-6.583,23.637-9.851,35.462
		c-1.669,6.039-3.3,12.088-5.008,18.114c-0.661,2.336-1.692,4.022-4.753,3.807c-4.236-0.298-8.511-0.058-12.77-0.063
		c-5.78-0.009-5.614-0.054-6.858-5.502c-1.771-7.75-3.893-15.417-5.698-23.158c-0.726-3.112-0.83-6.37-1.545-9.486
		c-0.812-3.536-2.06-6.969-2.987-10.48c-0.731-2.77-1.455-5.565-1.834-8.396c-0.403-3.014-1.837-4.637-4.881-4.668
		c-4.38-0.045-8.792,0.3-13.131-0.122c-3.568-0.347-5.037,1.645-5.771,4.266c-3.006,10.737-5.796,21.536-8.639,32.318
		c-2.03,7.697-3.959,15.421-6.102,23.086c-0.238,0.851-1.573,1.958-2.426,1.983c-5.955,0.176-11.922,0.22-17.872-0.016
		c-1.032-0.041-2.637-1.451-2.903-2.5c-2.224-8.762-4.066-17.62-6.283-26.384c-2.124-8.396-4.572-16.708-6.84-25.068
		c-0.251-0.926-0.341-1.919-0.358-2.883c-0.055-3.165-1.863-4.609-4.783-4.67c-4.986-0.104-9.978-0.099-14.964,0
		c-2.888,0.057-4.23-1.011-4.181-4.054c0.156-9.634-1.218-9.936,9.25-9.527c3.155,0.122,6.322-0.074,9.897-0.131
		c-1.067-3.993-1.529-6.738-2.588-9.228c-0.489-1.15-2.044-2.32-3.296-2.568c-2.106-0.416-4.373,0.058-6.543-0.146
		c-2.083-0.195-4.129-0.777-6.437-1.238c0-3.802,0-7.616,0-11.877c2.528,0,4.913,0.003,7.298-0.001
		c3.603-0.005,5.127-2.302,4.106-5.738c-2.066-6.954-3.995-13.948-5.921-20.942c-0.667-2.422-1.008-4.94-1.765-7.33
		c-1.293-4.084-0.158-5.665,4.033-5.436c5.057,0.276,10.119,0.616,15.177,0.598c2.356-0.008,3.082,0.83,3.536,3.003
		c1.372,6.561,3.007,13.068,4.541,19.595c0.838,3.569,2.149,7.106,2.391,10.714c0.275,4.085,2.779,5.349,5.889,5.446
		c8.266,0.257,16.554,0.296,24.81-0.087c1.494-0.07,3.652-2.305,4.18-3.962c2.645-8.296,4.867-16.729,7.194-25.125
		c0.564-2.037,1.305-4.112,1.353-6.184c0.073-3.096,1.611-3.459,4.2-3.37c5.226,0.18,10.467,0.203,15.691,0.002
		c2.425-0.093,3.334,0.643,3.859,3.032c1.733,7.892,3.761,15.72,5.668,23.574c0.487,2.012,0.822,4.069,1.434,6.042
		c1.462,4.717,3.043,6.074,8.17,6.111c7.356,0.054,14.729-0.04,22.06-0.577c1.551-0.113,3.766-2.147,4.266-3.739
		c1.979-6.301,3.414-12.774,5.021-19.191c1.051-4.199,2.049-8.411,3.072-12.617c0.507-2.083,1.663-2.766,3.935-2.659
		c5.221,0.245,10.475,0.311,15.687-0.014c3.16-0.197,3.679,0.956,2.926,3.541c-1.257,4.317-2.533,8.629-3.823,12.936
		c-1.788,5.967-3.781,11.886-5.217,17.937c-0.244,1.027,1.604,3.246,2.942,3.79c1.878,0.763,4.278,0.153,6.272,0.747
		c1.282,0.382,3.002,1.747,3.188,2.888c0.46,2.823,0.151,5.772,0.151,9.421c-4.646,0.265-9.009,0.723-13.367,0.688
		c-2.799-0.022-4.348,1.021-5.061,3.593c-0.547,1.969-1.467,3.939-1.463,5.907C228.364,160.924,230.212,162.451,231.298,162.522z"/>
</g>
</svg>
