<?xml version="1.0" encoding="utf-8"?>
<!-- Generator: Adobe Illustrator 23.0.3, SVG Export Plug-In . SVG Version: 6.00 Build 0)  -->
<svg version="1.1" id="Layer_1" xmlns="http://www.w3.org/2000/svg" xmlns:xlink="http://www.w3.org/1999/xlink" x="0px" y="0px"
	 viewBox="0 0 320 320" style="enable-background:new 0 0 320 320;" xml:space="preserve">
<style type="text/css">
	.st0{fill:#00AEEF;}
</style>
<g>
	<path class="st0" d="M319.9,140.8c-1.8-17.9-7-35-15-51.1c-13.4-27-32.8-48.8-58.3-65c-17.8-11.3-37.1-18.7-57.8-22.6
		c-5.5-1-11.1-0.7-16.6-1.5c-8.3,0-16.7,0-25,0c-0.7,0.6-1.6,0.3-2.4,0.4c-6.5,0.3-13,0.9-19.4,2.5c-33.2,7.9-61.5,24-84.5,49.5
		C23.5,72.3,11.6,94.5,4.9,119.5c-2.2,7.9-3.2,16-4.1,24.1c0,11.7,0,23.3,0,35c1.2,3.2,0.6,6.6,1.1,9.8c2.8,15.7,7.6,30.7,14.8,44.9
		c8.6,16.9,19.9,31.7,33.7,44.7c19.8,18.6,42.9,31.3,69.1,38.3c9.1,2.4,18.3,3.6,27.6,4.4c1.2,0,2.4,0,3.6,0c2.9-0.6,5.7-0.6,8.6,0
		c0.7,0,1.4,0,2.1,0c2.6-0.6,5.2-0.6,7.9,0c1,0,1.9,0,2.9,0c0.3-0.2,0.6-0.4,1-0.4c9.7,0,19.1-1.7,28.5-4.2
		c27.9-7.3,52-21.4,72.4-41.6c14-13.9,25.2-30,33.2-48.2c8.2-18.7,13.3-38.1,13.1-58.7c0-4.9,0-9.9,0-14.9
		C320.5,148.9,320.3,144.8,319.9,140.8z M160.4,298.4c-75.8,0-137.7-61.9-137.6-137.8C22.9,84.8,84.2,23,160.3,23.1
		C238,23.1,298,86,298,160.7C298.1,236.5,236.3,298.4,160.4,298.4z"/>
</g>
<g>
	<path class="st0" d="M190.8,174.8c-1.6-1.3-3.6-2.4-6.2-3.3c-2.5-0.9-4.9-1.6-7-2c-2.1-0.4-4.8-0.7-7.9-1c-3.1-0.2-5.6-0.3-7.4-0.3
		c-1.8,0-4.1,0-6.9,0.1c-2.8,0.1-4.5,0.1-5.1,0.1v36.2c0.6,0,1.9,0,4,0.1c2.1,0,3.8,0.1,5.1,0.1c1.4,0,3.2-0.1,5.7-0.2
		c2.4-0.1,4.5-0.2,6.3-0.4c1.7-0.2,3.8-0.5,6.1-0.9c2.3-0.4,4.3-0.9,5.9-1.5c1.6-0.6,3.3-1.3,5.1-2.2c1.7-0.9,3.2-2,4.2-3.2
		c1.1-1.2,1.9-2.6,2.6-4.3c0.7-1.6,1-3.5,1-5.5c0-2.6-0.5-4.9-1.6-6.8C193.7,177.7,192.4,176.1,190.8,174.8z"/>
	<path class="st0" d="M150.4,152c0.4,0,1.6,0,3.7,0.1c2.1,0,3.8,0,5,0c1.2,0,3-0.1,5.3-0.2c2.4-0.1,4.3-0.3,5.9-0.6
		c1.6-0.3,3.4-0.7,5.5-1.2c2.1-0.5,3.8-1.2,5.2-2c1.4-0.8,2.7-1.8,4-2.9c1.3-1.1,2.2-2.5,2.9-4.1c0.6-1.6,1-3.5,1-5.5
		c0-2.4-0.4-4.4-1.3-6.3c-0.9-1.8-2-3.3-3.3-4.5c-1.3-1.2-3-2.2-5.1-3c-2.1-0.8-4.1-1.4-5.9-1.8c-1.8-0.4-4-0.6-6.6-0.9
		c-2.6-0.2-4.7-0.3-6.2-0.3c-1.5,0-3.5,0.1-5.8,0.1c-2.3,0-3.7,0.1-4.2,0.1V152z"/>
	<path class="st0" d="M161.1,37C91.1,36.6,35,96.1,37.2,160.6c-2.3,63.7,52.5,123.9,123,123.7c68.4-0.2,123.8-55.2,123.9-123.4
		C284.2,90.2,225.7,37.3,161.1,37z M228.9,189.8c-0.5,5.1-1.7,9.5-3.5,13.4c-1.8,3.9-4.1,7-6.9,9.5c-2.8,2.5-6.2,4.6-10.4,6.3
		c-4.1,1.7-8.5,2.9-13,3.7c-4.5,0.8-9.7,1.3-15.6,1.6v27.3h-16.5v-26.9c-5.7,0-10.1,0-13.1-0.1v27h-16.5v-27.3c-1.3,0-3.2,0-5.8-0.1
		c-2.6,0-4.5-0.1-5.9-0.1h-21.4l3.3-19.6h11.9c3.6,0,5.6-1.8,6.2-5.5v-43h1.7c-0.4-0.1-1-0.1-1.7-0.1v-30.7
		c-0.9-4.8-4.1-7.3-9.5-7.3h-11.9v-17.5l22.7,0.1c4.6,0,8,0,10.4-0.1v-27h16.5v26.4c5.8-0.1,10.2-0.2,13.1-0.2V73.5h16.5v27
		c5.6,0.5,10.6,1.3,15,2.4c4.3,1.1,8.4,2.7,12.1,4.8c3.7,2.1,6.6,4.9,8.8,8.3c2.2,3.5,3.5,7.5,3.9,12.2c1.3,13-3.4,22.2-14,27.6
		c8.3,2,14.6,5.7,18.7,11C228.2,172.2,229.8,179.9,228.9,189.8z"/>
</g>
</svg>
