<?xml version="1.0" encoding="utf-8"?>
<!-- Generator: Adobe Illustrator 16.0.3, SVG Export Plug-In . SVG Version: 6.00 Build 0)  -->
<!DOCTYPE svg PUBLIC "-//W3C//DTD SVG 1.1//EN" "http://www.w3.org/Graphics/SVG/1.1/DTD/svg11.dtd">
<svg version="1.1" id="Layer_1" xmlns="http://www.w3.org/2000/svg" xmlns:xlink="http://www.w3.org/1999/xlink" x="0px" y="0px"
	 width="320px" height="320px" viewBox="0 0 320 320" enable-background="new 0 0 320 320" xml:space="preserve">
<g>
	<path fill="#00AEEF" d="M320.13,152.158c0.212,0.014,0.424,0.027,0.636,0.037c0,5.476,0,10.952,0,16.429
		c-0.208,0.024-0.417,0.038-0.627,0.039C320.137,163.161,320.133,157.659,320.13,152.158z"/>
	<path fill="#00AEEF" d="M150.766,320.766c2.857-1.435,5.714-0.912,8.571,0C156.48,320.766,153.623,320.766,150.766,320.766z"/>
	<path fill="#00AEEF" d="M161.479,320.766c2.621-0.896,5.238-1.475,7.857,0C166.718,320.766,164.1,320.766,161.479,320.766z"/>
	<path fill="#00AEEF" d="M319.868,140.847c-1.789-17.946-7.025-34.964-14.997-51.058c-13.387-27.025-32.783-48.785-58.334-64.955
		C228.738,13.57,209.461,6.115,188.766,2.257c-5.486-1.022-11.078-0.665-16.57-1.493c-8.334,0-16.667,0-25,0
		c-0.72,0.627-1.588,0.32-2.392,0.357c-6.532,0.305-13.013,0.926-19.398,2.452C92.219,11.503,63.888,27.61,40.92,53.065
		c-17.395,19.279-29.271,41.43-36.062,66.431c-2.153,7.927-3.184,16.006-4.091,24.125c0,11.667,0,23.333,0,35
		c1.226,3.169,0.564,6.553,1.138,9.814c2.757,15.688,7.633,30.695,14.842,44.861c8.582,16.864,19.877,31.717,33.717,44.727
		c19.832,18.645,42.856,31.256,69.082,38.326c9.093,2.449,18.327,3.604,27.649,4.414c1.19,0,2.38,0,3.571,0
		c2.857-0.604,5.714-0.604,8.571,0c0.714,0,1.431,0,2.144,0c2.621-0.58,5.237-0.58,7.856,0c0.952,0,1.905,0,2.856,0
		c0.277-0.234,0.592-0.363,0.966-0.361c9.694,0.041,19.108-1.709,28.462-4.153c27.938-7.306,52.014-21.394,72.422-41.632
		c14.039-13.926,25.199-29.979,33.212-48.159c8.243-18.707,13.329-38.089,13.146-58.664c0-4.948,0-9.901-0.001-14.858
		C320.53,148.891,320.267,144.848,319.868,140.847z M160.362,298.404c-75.811,0.041-137.688-61.947-137.583-137.829
		c0.104-75.817,61.387-137.56,137.505-137.524c77.674,0.038,137.709,62.958,137.76,137.615
		C298.096,236.475,236.277,298.364,160.362,298.404z"/>
</g>
<path fill="#00AEEF" d="M161.109,36.975C91.099,36.598,34.956,96.117,37.194,160.619C34.869,224.326,89.65,284.55,160.232,284.361
	c68.361-0.182,123.809-55.182,123.881-123.397C284.188,90.186,225.691,37.323,161.109,36.975z M227.916,110.768
	c-25.68,0-50.807,0-76.103,0c0,9.407,0,18.499,0,28c22.328,0,44.46,0,66.592,0c0,9.499,0,18.586,0,27.953
	c-22.284,0-44.342,0-66.558,0c0,6.167,0,12.051,0,18.404c12.145,0,24.064,0,36.034,0c0,7.528,0,14.583,0,21.96
	c-12.118,0-23.972,0-36.304,0c0,11.183,0,22.047,0,32.915c-12.108,0-23.73,0-35.81,0c0-11.098,0-21.956,0-33.096
	c-8.199,0-15.942,0-23.685,0c0-7.228,0-14.455,0-21.683c7.827,0,15.653,0,23.873,0c0-1.888,0.001-3.239,0-4.592
	c-0.016-28.148-0.053-56.297-0.029-84.447c0.005-5.395,0.253-10.789,0.389-16.183c37.199,0,74.4,0,111.599,0
	C227.916,90.153,227.916,100.306,227.916,110.768z"/>
</svg>
