<?xml version="1.0" encoding="utf-8"?>
<!-- Generator: Adobe Illustrator 16.0.3, SVG Export Plug-In . SVG Version: 6.00 Build 0)  -->
<!DOCTYPE svg PUBLIC "-//W3C//DTD SVG 1.1//EN" "http://www.w3.org/Graphics/SVG/1.1/DTD/svg11.dtd">
<svg version="1.1" id="Layer_1" xmlns="http://www.w3.org/2000/svg" xmlns:xlink="http://www.w3.org/1999/xlink" x="0px" y="0px"
	 width="320px" height="320px" viewBox="0 0 320 320" enable-background="new 0 0 320 320" xml:space="preserve">
<g>
	<path fill="#00AEEF" d="M320.13,152.158c0.212,0.014,0.424,0.027,0.636,0.037c0,5.476,0,10.952,0,16.429
		c-0.208,0.024-0.417,0.038-0.627,0.039C320.137,163.161,320.133,157.659,320.13,152.158z"/>
	<path fill="#00AEEF" d="M150.766,320.766c2.857-1.435,5.714-0.912,8.571,0C156.48,320.766,153.623,320.766,150.766,320.766z"/>
	<path fill="#00AEEF" d="M161.479,320.766c2.621-0.896,5.238-1.475,7.857,0C166.718,320.766,164.1,320.766,161.479,320.766z"/>
	<path fill="#00AEEF" d="M319.868,140.847c-1.789-17.946-7.025-34.964-14.997-51.058c-13.387-27.025-32.783-48.785-58.334-64.955
		C228.738,13.57,209.461,6.115,188.766,2.257c-5.486-1.022-11.078-0.665-16.57-1.493c-8.334,0-16.667,0-25,0
		c-0.72,0.627-1.588,0.32-2.392,0.357c-6.532,0.305-13.013,0.926-19.398,2.452C92.219,11.503,63.888,27.61,40.92,53.065
		c-17.395,19.279-29.271,41.43-36.062,66.431c-2.153,7.927-3.184,16.006-4.091,24.125c0,11.667,0,23.333,0,35
		c1.226,3.169,0.564,6.553,1.138,9.814c2.757,15.688,7.633,30.695,14.842,44.861c8.582,16.864,19.877,31.717,33.717,44.727
		c19.832,18.645,42.856,31.256,69.082,38.326c9.093,2.449,18.327,3.604,27.649,4.414c1.19,0,2.38,0,3.571,0
		c2.857-0.604,5.714-0.604,8.571,0c0.714,0,1.431,0,2.144,0c2.621-0.58,5.237-0.58,7.856,0c0.952,0,1.905,0,2.856,0
		c0.277-0.234,0.592-0.363,0.966-0.361c9.694,0.041,19.108-1.709,28.462-4.153c27.938-7.306,52.014-21.394,72.422-41.632
		c14.039-13.926,25.199-29.979,33.212-48.159c8.243-18.707,13.329-38.089,13.146-58.664c0-4.948,0-9.901-0.001-14.858
		C320.53,148.891,320.267,144.848,319.868,140.847z M160.362,298.404c-75.811,0.041-137.688-61.947-137.583-137.829
		c0.104-75.817,61.387-137.56,137.505-137.524c77.674,0.038,137.709,62.958,137.76,137.615
		C298.096,236.475,236.277,298.364,160.362,298.404z"/>
</g>
<path fill="#00AEEF" d="M161.109,36.975C91.099,36.598,34.956,96.117,37.194,160.619C34.869,224.326,89.65,284.55,160.232,284.361
	c68.361-0.182,123.809-55.182,123.881-123.397C284.188,90.186,225.691,37.323,161.109,36.975z M211.188,88.069
	c-2.32,5.479-4.65,10.954-6.97,16.433c-3.135,7.398-6.256,14.802-9.396,22.198c-0.925,2.179-1.921,4.328-2.835,6.511
	c-1.038,2.48-2.078,4.961-3.008,7.483c-0.579,1.573,0.059,2.515,1.723,2.795c0.591,0.099,1.201,0.097,1.804,0.099
	c4.119,0.012,8.239-0.006,12.358,0.024c2.674,0.02,3.637,1.028,3.641,3.697c0.005,3.906,0.015,7.813,0.015,11.72
	c0,2.894-0.922,3.874-3.802,3.889c-7.138,0.032-14.276,0.024-21.414,0.038c-1.459,0.003-3.127-0.17-3.986,1.231
	c-1.25,2.042-2.315,4.219-3.241,6.43c-0.477,1.139,0.343,2.179,1.602,2.403c0.762,0.136,1.552,0.156,2.329,0.158
	c8.025,0.016,16.051,0.016,24.078,0.021c0.355,0,0.711,0,1.064,0.016c2.589,0.117,3.52,1.02,3.541,3.597
	c0.035,4.12,0.038,8.24-0.005,12.359c-0.025,2.532-1,3.445-3.542,3.451c-8.274,0.022-16.549,0.028-24.823,0.053
	c-0.993,0.003-1.987,0.06-2.978,0.139c-1.218,0.099-2.113,0.92-2.305,2.137c-0.116,0.732-0.172,1.482-0.174,2.224
	c-0.014,11.47-0.01,22.941-0.025,34.411c-0.003,2.568-0.659,3.252-3.222,3.503c-0.247,0.024-0.495,0.068-0.742,0.068
	c-7.387,0.002-14.774,0.03-22.161-0.021c-2.569-0.019-3.47-0.954-3.487-3.521c-0.041-5.966-0.014-11.932-0.014-17.898
	c-0.009,0-0.02,0-0.028,0c0-5.788,0.015-11.578-0.007-17.366c-0.01-2.674-0.904-3.573-3.604-3.581
	c-8.522-0.027-17.045-0.019-25.568-0.031c-0.602-0.002-1.208-0.028-1.805-0.105c-1.845-0.237-2.589-0.88-2.619-2.722
	c-0.075-4.687-0.069-9.375,0.003-14.061c0.027-1.719,0.993-2.581,2.732-2.627c2.626-0.067,5.255-0.05,7.883-0.051
	c6.002-0.001,12.003,0.01,18.005,0.01c0.603,0,1.21-0.001,1.809-0.063c1.484-0.153,2.259-1.216,1.777-2.618
	c-0.585-1.708-1.283-3.38-1.999-5.038c-0.876-2.031-2.58-2.684-4.665-2.681c-6.25,0.01-12.501,0.001-18.751-0.002
	c-1.243-0.001-2.488,0.046-3.729-0.02c-2.236-0.116-3.028-0.942-3.12-3.186c-0.044-1.1-0.03-2.201-0.029-3.302
	c0.002-3.02,0.003-6.037,0.021-9.056c0.016-2.743,0.872-3.627,3.646-3.648c4.262-0.033,8.523-0.013,12.785-0.021
	c0.497-0.001,1.001,0.01,1.487-0.071c1.577-0.263,2.248-1.248,1.705-2.757c-0.707-1.965-1.562-3.876-2.374-5.802
	c-1.872-4.438-3.743-8.877-5.64-13.306c-1.562-3.647-3.169-7.276-4.742-10.92c-2.555-5.92-5.115-11.84-7.637-17.775
	c-0.76-1.791-1.5-3.602-2.062-5.459c-0.475-1.568,0.182-2.462,1.807-2.495c4.895-0.098,9.792-0.113,14.689-0.128
	c3.123-0.009,6.246,0.029,9.369,0.072c0.777,0.011,1.558,0.09,2.329,0.192c1.223,0.163,2.123,0.833,2.585,1.965
	c1.288,3.15,2.536,6.316,3.789,9.479c1.162,2.933,2.313,5.871,3.461,8.809c2.205,5.64,4.407,11.281,6.607,16.924
	c1.649,4.229,3.293,8.46,4.939,12.691c0.038,0.099,0.075,0.201,0.132,0.289c0.471,0.719,0.718,1.782,1.839,1.664
	c1.055-0.112,1.269-1.104,1.595-1.923c1.824-4.573,3.678-9.134,5.467-13.721c1.918-4.919,3.754-9.871,5.667-14.793
	c1.899-4.887,3.852-9.754,5.778-14.632c0.547-1.382,1.04-2.787,1.637-4.146c0.814-1.854,1.977-2.821,4.511-2.798
	c6.925,0.063,13.852,0.028,20.776,0.036c1.207,0.001,2.416-0.029,3.621,0.033C211.153,85.073,211.919,86.341,211.188,88.069z"/>
</svg>
