<?xml version="1.0" encoding="utf-8"?>
<!-- Generator: Adobe Illustrator 16.0.3, SVG Export Plug-In . SVG Version: 6.00 Build 0)  -->
<!DOCTYPE svg PUBLIC "-//W3C//DTD SVG 1.1//EN" "http://www.w3.org/Graphics/SVG/1.1/DTD/svg11.dtd">
<svg version="1.1" id="Layer_1" xmlns="http://www.w3.org/2000/svg" xmlns:xlink="http://www.w3.org/1999/xlink" x="0px" y="0px"
	 width="320px" height="320px" viewBox="0 0 320 320" enable-background="new 0 0 320 320" xml:space="preserve">
<g>
	<path fill="#00AEEF" d="M320.13,152.158c0.212,0.014,0.424,0.027,0.636,0.037c0,5.476,0,10.952,0,16.429
		c-0.208,0.024-0.417,0.038-0.627,0.039C320.137,163.161,320.133,157.659,320.13,152.158z"/>
	<path fill="#00AEEF" d="M150.766,320.766c2.857-1.435,5.714-0.912,8.571,0C156.48,320.766,153.623,320.766,150.766,320.766z"/>
	<path fill="#00AEEF" d="M161.479,320.766c2.621-0.896,5.238-1.475,7.857,0C166.718,320.766,164.1,320.766,161.479,320.766z"/>
	<path fill="#00AEEF" d="M319.868,140.847c-1.789-17.946-7.025-34.964-14.997-51.058c-13.387-27.025-32.783-48.785-58.334-64.955
		C228.738,13.57,209.461,6.115,188.766,2.257c-5.486-1.022-11.078-0.665-16.57-1.493c-8.334,0-16.667,0-25,0
		c-0.72,0.627-1.588,0.32-2.392,0.357c-6.532,0.305-13.013,0.926-19.398,2.452C92.219,11.503,63.888,27.61,40.92,53.065
		c-17.395,19.279-29.271,41.43-36.062,66.431c-2.153,7.927-3.184,16.006-4.091,24.125c0,11.667,0,23.333,0,35
		c1.226,3.169,0.564,6.553,1.138,9.814c2.757,15.688,7.633,30.695,14.842,44.861c8.582,16.864,19.877,31.717,33.717,44.727
		c19.832,18.645,42.856,31.256,69.082,38.326c9.093,2.449,18.327,3.604,27.649,4.414c1.19,0,2.38,0,3.571,0
		c2.857-0.604,5.714-0.604,8.571,0c0.714,0,1.431,0,2.144,0c2.621-0.58,5.237-0.58,7.856,0c0.952,0,1.905,0,2.856,0
		c0.277-0.234,0.592-0.363,0.966-0.361c9.694,0.041,19.108-1.709,28.462-4.153c27.938-7.306,52.014-21.394,72.422-41.632
		c14.039-13.926,25.199-29.979,33.212-48.159c8.243-18.707,13.329-38.089,13.146-58.664c0-4.948,0-9.901-0.001-14.858
		C320.53,148.891,320.267,144.848,319.868,140.847z M160.362,298.404c-75.811,0.041-137.688-61.947-137.583-137.829
		c0.104-75.817,61.387-137.56,137.505-137.524c77.674,0.038,137.709,62.958,137.76,137.615
		C298.096,236.475,236.277,298.364,160.362,298.404z"/>
</g>
<path fill="#00AEEF" d="M161.109,36.975C91.099,36.598,34.956,96.117,37.194,160.619C34.869,224.326,89.65,284.55,160.232,284.361
	c68.361-0.182,123.809-55.182,123.881-123.397C284.188,90.186,225.691,37.323,161.109,36.975z M212.23,238.799
	c-0.191,0.118-0.463,0.19-0.561,0.363c-0.635,1.114-1.6,1.664-2.811,2.049c-5.287,1.683-10.721,2.598-16.207,3.279
	c-0.463,0.058-0.9,0.335-1.348,0.51c-5.512,0-11.023,0-16.535,0c-0.322-0.164-0.627-0.425-0.965-0.477
	c-1.871-0.283-3.758-0.46-5.621-0.773c-18.178-3.056-33.468-11.433-45.822-25.095c-7.862-8.695-13.214-18.826-16.555-30.023
	c-0.426-1.428-1.021-1.863-2.473-1.784c-2.487,0.136-4.992-0.049-7.482,0.063c-2.403,0.107-4.563-0.127-5.854-2.515
	c-0.032-0.061-0.15-0.074-0.229-0.11c0-5.426,0-10.851,0-16.276c0.212-0.17,0.488-0.299,0.627-0.516
	c0.895-1.399,2.176-2.01,3.81-1.981c1.031,0.018,2.063,0.002,3.095,0.002c1.442,0,2.884,0,4.427,0c0-4.314,0-8.418,0-12.662
	c-2.053,0-4.065-0.066-6.071,0.018c-2.284,0.096-4.396-0.065-5.642-2.378c-0.025-0.048-0.161-0.035-0.245-0.051
	c0-5.598,0-11.195,0-16.793c0.173-0.07,0.437-0.091,0.504-0.217c0.921-1.71,2.428-2.135,4.237-2.107
	c3.226,0.05,6.454-0.032,9.679,0.04c1.078,0.024,1.535-0.311,1.882-1.352c4.337-13.035,11.454-24.307,21.669-33.531
	c13.519-12.207,29.301-19.361,47.508-21.002c0.369-0.033,0.715-0.313,1.07-0.479c4.824,0,9.646,0,14.469,0
	c0.402,0.163,0.793,0.411,1.211,0.479c4.625,0.749,9.273,1.363,13.875,2.235c3.313,0.629,4.33,2.521,3.459,5.753
	c-1.625,6.021-3.254,12.041-4.889,18.061c-0.684,2.522-2.299,3.417-4.873,2.857c-7.994-1.736-16.059-2.709-24.213-1.467
	c-16.996,2.589-29.442,11.545-37.195,26.938c-0.219,0.435-0.388,0.894-0.641,1.481c0.826,0,1.426,0,2.025,0
	c17.865,0,35.73,0.06,53.596-0.057c3.031-0.021,5.443,2.155,4.557,5.601c-1.016,3.954-1.73,7.986-2.566,11.986
	c-0.672,3.208-1.547,3.929-4.836,3.929c-18.814,0.001-37.627,0-56.438,0c-0.543,0-1.084,0-1.728,0c0,4.306,0,8.415,0,12.671
	c0.701,0,1.25,0,1.798,0c17.692,0,35.386-0.001,53.081,0c3.176,0,4.869,2.042,4.219,5.133c-0.867,4.126-1.76,8.246-2.662,12.365
	c-0.643,2.936-1.838,3.882-4.836,3.883c-14.68,0.001-29.361,0-44.04,0c-0.506,0-1.011,0-1.497,0
	c-0.033,0.202-0.08,0.297-0.055,0.365c0.134,0.362,0.277,0.722,0.434,1.075c4.4,9.927,11.29,17.623,20.748,22.96
	c13.807,7.79,28.309,7.482,43.072,3.485c2.908-0.788,4.801,0.168,5.449,3.114c1.246,5.671,2.492,11.343,3.768,17.008
	c0.088,0.394,0.408,0.735,0.621,1.102C212.23,236.904,212.23,237.852,212.23,238.799z"/>
</svg>
