<?xml version="1.0" encoding="utf-8"?>
<!-- Generator: Adobe Illustrator 16.0.3, SVG Export Plug-In . SVG Version: 6.00 Build 0)  -->
<!DOCTYPE svg PUBLIC "-//W3C//DTD SVG 1.1//EN" "http://www.w3.org/Graphics/SVG/1.1/DTD/svg11.dtd">
<svg version="1.1" id="Layer_1" xmlns="http://www.w3.org/2000/svg" xmlns:xlink="http://www.w3.org/1999/xlink" x="0px" y="0px"
	 width="320px" height="320px" viewBox="0 0 320 320" enable-background="new 0 0 320 320" xml:space="preserve">
<g>
	<path fill="#00AEEF" d="M320.13,152.158c0.212,0.014,0.424,0.027,0.636,0.037c0,5.476,0,10.952,0,16.429
		c-0.208,0.024-0.417,0.038-0.627,0.039C320.137,163.161,320.133,157.659,320.13,152.158z"/>
	<path fill="#00AEEF" d="M150.766,320.766c2.857-1.435,5.714-0.912,8.571,0C156.48,320.766,153.623,320.766,150.766,320.766z"/>
	<path fill="#00AEEF" d="M161.479,320.766c2.621-0.896,5.238-1.475,7.857,0C166.718,320.766,164.1,320.766,161.479,320.766z"/>
	<path fill="#00AEEF" d="M319.868,140.847c-1.789-17.946-7.025-34.964-14.997-51.058c-13.387-27.025-32.783-48.785-58.334-64.955
		C228.738,13.57,209.461,6.115,188.766,2.257c-5.486-1.022-11.078-0.665-16.57-1.493c-8.334,0-16.667,0-25,0
		c-0.72,0.627-1.588,0.32-2.392,0.357c-6.532,0.305-13.013,0.926-19.398,2.452C92.219,11.503,63.888,27.61,40.92,53.065
		c-17.395,19.279-29.271,41.43-36.062,66.431c-2.153,7.927-3.184,16.006-4.091,24.125c0,11.667,0,23.333,0,35
		c1.226,3.169,0.564,6.553,1.138,9.814c2.757,15.688,7.633,30.695,14.842,44.861c8.582,16.864,19.877,31.717,33.717,44.727
		c19.832,18.645,42.856,31.256,69.082,38.326c9.093,2.449,18.327,3.604,27.649,4.414c1.19,0,2.38,0,3.571,0
		c2.857-0.604,5.714-0.604,8.571,0c0.714,0,1.431,0,2.144,0c2.621-0.58,5.237-0.58,7.856,0c0.952,0,1.905,0,2.856,0
		c0.277-0.234,0.592-0.363,0.966-0.361c9.694,0.041,19.108-1.709,28.462-4.153c27.938-7.306,52.014-21.394,72.422-41.632
		c14.039-13.926,25.199-29.979,33.212-48.159c8.243-18.707,13.329-38.089,13.146-58.664c0-4.948,0-9.901-0.001-14.858
		C320.53,148.891,320.267,144.848,319.868,140.847z M160.362,298.404c-75.811,0.041-137.688-61.947-137.583-137.829
		c0.104-75.817,61.387-137.56,137.505-137.524c77.674,0.038,137.709,62.958,137.76,137.615
		C298.096,236.475,236.277,298.364,160.362,298.404z"/>
</g>
<path fill="#00AEEF" d="M161.109,36.975C91.099,36.598,34.956,96.117,37.194,160.619C34.869,224.326,89.65,284.55,160.232,284.361
	c68.361-0.182,123.809-55.182,123.881-123.397C284.188,90.186,225.691,37.323,161.109,36.975z M103.897,116.292
	c-0.514,0-1.027,0-1.751,0c0,0.672,0.001,1.25,0,1.829c-0.021,31.029-0.049,62.058-0.053,93.087c0,2.475-0.424,4.764-2.143,6.655
	c-4.48,4.932-12.166,3.415-14.446-2.846c-0.163-0.448-0.336-0.893-0.505-1.338c0-35.623,0-71.246,0-106.869
	c0.501-1.947,1.184-3.802,2.695-5.225c1.776-1.672,3.916-2.391,6.329-2.391c17.491,0.002,34.982-0.007,52.474,0.006
	c7.931,0.006,15.486,1.751,22.386,5.648c3.339,1.886,6.478,4.238,9.381,6.755c4.845,4.202,8.418,9.426,11.038,15.293
	c2.729,6.11,3.995,12.52,3.999,19.191c0.008,14.257-0.042,28.513,0.023,42.769c0.023,5.047-3.242,8.338-7.13,9.004
	c-4.826,0.826-9.312-2.604-9.847-7.49c-0.073-0.673-0.084-1.354-0.085-2.032c-0.004-13.698-0.026-27.396,0.01-41.093
	c0.014-5.275-0.86-10.331-3.339-15.032c-2.548-4.83-6.136-8.703-10.797-11.574c-5.004-3.082-10.465-4.375-16.309-4.36
	C131.853,116.314,117.875,116.292,103.897,116.292z M235,213.199c-0.585,1.378-0.974,2.887-1.795,4.105
	c-1.687,2.502-4.249,3.498-7.224,3.498c-17.532,0-35.064,0.01-52.597-0.004c-7.891-0.006-15.35-1.86-22.289-5.596
	c-4.591-2.47-8.643-5.683-12.174-9.545c-4.622-5.056-7.968-10.852-10.064-17.354c-1.492-4.628-2.155-9.406-2.157-14.269
	c-0.006-14.337,0.03-28.674-0.02-43.011c-0.017-4.882,3.238-8.275,7.248-8.897c4.749-0.736,9.146,2.613,9.707,7.385
	c0.089,0.751,0.101,1.514,0.101,2.272c0.006,13.778,0.021,27.556-0.005,41.333c-0.011,5.241,0.938,10.258,3.439,14.889
	c3.042,5.63,7.437,9.902,13.206,12.741c4.396,2.163,9.055,2.982,13.915,2.975c13.938-0.021,27.875-0.007,41.813-0.007
	c0.514,0,1.027,0,1.747,0c0-0.636,0-1.174,0.001-1.712c0.021-31.07,0.05-62.14,0.052-93.21c0-2.522,0.461-4.838,2.225-6.747
	c4.461-4.827,12.14-3.249,14.369,2.949c0.16,0.447,0.334,0.891,0.501,1.335C235,141.954,235,177.576,235,213.199z"/>
</svg>
