<?xml version="1.0" encoding="utf-8"?>
<!-- Generator: Adobe Illustrator 16.0.3, SVG Export Plug-In . SVG Version: 6.00 Build 0)  -->
<!DOCTYPE svg PUBLIC "-//W3C//DTD SVG 1.1//EN" "http://www.w3.org/Graphics/SVG/1.1/DTD/svg11.dtd">
<svg version="1.1" id="Layer_1" xmlns="http://www.w3.org/2000/svg" xmlns:xlink="http://www.w3.org/1999/xlink" x="0px" y="0px"
	 width="320px" height="320px" viewBox="0 0 320 320" enable-background="new 0 0 320 320" xml:space="preserve">
<g>
	<path fill="#00AEEF" d="M314.773,211.703c-4.828-0.153-9.658-0.068-14.487-0.082c-11.129-0.03-11.787-0.676-11.789-11.973
		c-0.011-61.62-0.002-123.237-0.008-184.855c0-2.831,0.022-5.662-0.126-8.491c-0.107-2.065-0.559-3.957-2.299-5.302
		C248.723,1,211.38,1,174.04,1c-2.84,2.167-2.349,5.325-2.354,8.265c-0.054,24.962-0.004,49.925-0.063,74.887
		c-0.004,1.808,0.664,3.901-1.232,5.653c-5.381-5.355-9.767-11.197-14.482-16.75c-15.819-18.624-31.424-37.429-47.35-55.958
		C103.562,11.283,99.962,3.852,92.021,1c-0.667,0-1.334,0-2,0c-2.012,1.436-4.668,1.704-6.353,3.794
		c-9.068,11.252-18.574,22.14-27.87,33.203C42.23,54.145,28.52,70.173,15.031,86.386C9.895,92.559,3.499,97.931,1,106.024
		c0,0.334,0,0.667,0,1c1.471,1.93,3.588,2.236,5.8,2.324c4.329,0.172,8.659,0.089,12.988,0.102
		c11.131,0.033,11.785,0.671,11.787,11.976c0.01,61.952,0.001,123.903,0.007,185.855c0,2.83-0.021,5.66,0.126,8.49
		c0.108,2.064,0.558,3.957,2.298,5.302c37.342,0,74.684,0,112.025,0c2.831-2.177,2.339-5.335,2.344-8.278
		c0.047-26.314,0.011-52.63,0.047-78.945c0.002-1.779-0.427-3.631,0.446-5.428c1.817,0.477,2.586,2.035,3.608,3.266
		c6.059,7.293,12.129,14.576,18.273,21.793c17.47,20.52,34.819,41.139,52.14,61.783c5.68,6.771,10.62,6.789,16.299,0.002
		c20.487-24.5,41.32-48.713,61.679-73.32c7.141-8.629,15.962-16.065,20.205-26.896c0-0.333,0-0.667,0-1
		C319.47,211.936,317.13,211.777,314.773,211.703z M119.19,226.913c-24,0-48-0.067-71.999,0.067
		c-3.873,0.022-5.234-0.574-4.416-4.98c2.328-12.532,8.327-23,16.542-32.475c10.396-11.986,22.566-22.185,33.575-33.55
		c4.681-4.833,8.789-9.925,10.464-16.689c2.5-10.092-1.914-19.045-10.637-21.063c-10.51-2.431-18.398,2.553-20.841,13.167
		c-1.537,6.678-1.532,6.631-8.806,5.84c-4.633-0.504-9.277-0.968-13.928-1.215c-3.103-0.164-4.41-1.022-3.842-4.542
		c3.615-22.424,17.206-34.588,39.995-35.557c10.694-0.455,20.995,0.848,30.006,7.199c14.936,10.525,19.159,30.269,10.879,48.381
		c-6.517,14.255-18.024,24.143-29.065,34.498c-5.158,4.838-10.594,9.418-15.2,16.189c12.085,0,23.184-0.082,34.279,0.041
		c4.45,0.049,10.154-1.91,13.019,0.854c2.9,2.798,0.867,8.535,0.926,12.975C130.289,226.912,130.19,226.913,119.19,226.913z
		 M264.215,200.807c-4.098-0.098-5.542,0.893-5.254,5.164c0.393,5.803,0.003,11.656,0.139,17.483c0.06,2.585-0.839,3.55-3.451,3.496
		c-6.162-0.128-12.33-0.168-18.488,0.017c-2.963,0.09-3.73-1.179-3.686-3.845c0.103-5.828-0.178-11.67,0.103-17.487
		c0.175-3.648-0.82-4.883-4.679-4.82c-14.322,0.234-28.653-0.056-42.977,0.188c-4.046,0.067-4.704-1.287-5.029-5.071
		c-0.998-11.572,1.82-21.303,8.861-30.965c15.473-21.231,29.775-43.317,44.419-65.147c1.978-2.947,4.074-4.33,7.695-4.036
		c4.137,0.336,8.339,0.304,12.481,0.01c3.631-0.257,4.895,0.737,4.808,4.629c-0.271,12.155-0.099,24.319-0.099,36.48
		c0,12.161,0.106,24.324-0.07,36.481c-0.049,3.339,0.684,4.603,4.336,4.591c11.736-0.043,11.738,0.115,11.738,11.92
		C275.063,200.863,275.059,201.063,264.215,200.807z"/>
	<path fill="#00AEEF" d="M173.777,161.023c0,16.168-0.104,32.338,0.08,48.504c0.041,3.666-0.865,5.019-4.717,4.828
		c-6.317-0.314-12.666-0.188-18.997-0.043c-2.799,0.064-4.149-0.422-4.137-3.758c0.122-33.338,0.12-66.674,0.001-100.011
		c-0.012-3.3,1.274-3.854,4.109-3.788c6.497,0.152,13.006,0.221,19.499-0.024c3.364-0.127,4.245,1.07,4.221,4.286
		C173.708,127.686,173.777,144.355,173.777,161.023z"/>
	<path fill="#00AEEF" d="M233.451,139.432c0,12.044,0.004,24.087-0.006,36.132c0,2.063-1.383,2.324-3.033,2.318
		c-6.973-0.021-13.941-0.054-20.913,0.016c-2.804,0.027-2.64-1.088-1.401-2.922c8.039-11.938,16.063-23.89,24.094-35.835
		C232.611,139.238,233.031,139.335,233.451,139.432z"/>
</g>
</svg>
