<?xml version="1.0" encoding="iso-8859-1"?>
<!-- Generator: Adobe Illustrator 16.0.0, SVG Export Plug-In . SVG Version: 6.00 Build 0)  -->
<!DOCTYPE svg PUBLIC "-//W3C//DTD SVG 1.1//EN" "http://www.w3.org/Graphics/SVG/1.1/DTD/svg11.dtd">
<svg version="1.1" id="Capa_1" xmlns="http://www.w3.org/2000/svg" xmlns:xlink="http://www.w3.org/1999/xlink" x="0px" y="0px"
	 width="356.96px" height="356.961px" viewBox="0 0 356.96 356.961" style="enable-background:new 0 0 356.96 356.961;"
	 xml:space="preserve">
<g>
	<g>
		<g>
			<path d="M326.772,33.258c0-6.227-5.08-11.301-11.312-11.301h-23.101c-0.421,0-0.865,0.036-1.304,0.099V0H30.471v301.934
				c-0.291,2.798-2.435,27.935,11.49,43.475c6.864,7.662,16.345,11.553,28.169,11.553h209.624c6.227,0,11.307-5.08,11.307-11.307
				v-24.95l-222-0.168v10.004h212.003v15.114c0,0.732-0.577,1.303-1.304,1.303H70.124c-8.848,0-15.826-2.75-20.708-8.196
				c-9.599-10.694-9.392-29.069-9.064-34.642h250.709v-28.091c0.438,0.061,0.883,0.097,1.304,0.097h23.101
				c6.232,0,11.312-5.068,11.312-11.302V198.05c0-2.918-1.135-5.668-3.11-7.758c1.976-2.077,3.11-4.852,3.11-7.746v-66.771
				c0-2.969-1.171-5.785-3.219-7.875c2.048-2.084,3.219-4.906,3.219-7.896V33.258H326.772z M199.356,192.184
				c-8.299,0-15.963-5.578-15.33-18.219h-0.816c-7.263,12.22-16.78,18.219-29.201,18.219c-12.016,0-22.359-9.733-22.359-26.079
				c0-25.67,20.293-49.068,49.071-49.068c8.908,0,16.78,1.859,22.167,4.354l-7.044,37.455c-3.11,15.754-0.618,22.992,6.209,23.197
				c10.574,0.216,22.356-13.868,22.356-37.894c0-30.024-18.009-51.558-50.104-51.558c-33.738,0-62.113,26.728-62.113,68.743
				c0,34.579,22.572,55.907,53.205,55.907c11.8,0,22.785-2.485,31.271-7.241l3.314,8.911c-11.385,5.992-22.975,8.274-36.849,8.274
				c-33.966,0-62.75-24.848-62.75-64.603c0-42.649,29.601-79.513,75.57-79.513c36.044,0,60.261,25.271,60.261,59.853
				C236.208,173.965,218.83,192.184,199.356,192.184z M316.768,264.823c0,0.709-0.576,1.298-1.309,1.298h-23.101
				c-0.733,0-1.304-0.589-1.304-1.298V198.05c0-0.727,0.57-1.303,1.304-1.303h23.101c0.732,0,1.309,0.576,1.309,1.303V264.823z
				 M316.768,182.546c0,0.709-0.576,1.309-1.309,1.309h-23.101c-0.733,0-1.304-0.6-1.304-1.309v-66.771
				c0-0.729,0.57-1.303,1.304-1.303h23.101c0.732,0,1.309,0.573,1.309,1.303V182.546z M316.768,100.013
				c0,0.723-0.576,1.321-1.309,1.321h-23.101c-0.733,0-1.304-0.598-1.304-1.321V33.258c0-0.724,0.57-1.303,1.304-1.303h23.101
				c0.732,0,1.309,0.579,1.309,1.303V100.013z"/>
		</g>
		<g>
			<path d="M145.307,165.282c0,9.101,4.558,15.738,13.664,15.738c12.016,0,22.989-15.333,25.271-28.171l4.354-23.398
				c-2.072-0.633-5.597-1.457-10.368-1.457C160.004,128.001,145.307,145.188,145.307,165.282z"/>
		</g>
	</g>
</g>
<g>
</g>
<g>
</g>
<g>
</g>
<g>
</g>
<g>
</g>
<g>
</g>
<g>
</g>
<g>
</g>
<g>
</g>
<g>
</g>
<g>
</g>
<g>
</g>
<g>
</g>
<g>
</g>
<g>
</g>
</svg>
