<?xml version="1.0" encoding="utf-8"?>
<!-- Generator: Adobe Illustrator 16.0.3, SVG Export Plug-In . SVG Version: 6.00 Build 0)  -->
<!DOCTYPE svg PUBLIC "-//W3C//DTD SVG 1.1//EN" "http://www.w3.org/Graphics/SVG/1.1/DTD/svg11.dtd">
<svg version="1.1" id="Layer_1" xmlns="http://www.w3.org/2000/svg" xmlns:xlink="http://www.w3.org/1999/xlink" x="0px" y="0px"
	 width="320px" height="320px" viewBox="0 0 320 320" enable-background="new 0 0 320 320" xml:space="preserve">
<g>
	<g>
		<path fill-rule="evenodd" clip-rule="evenodd" fill="#00AEEF" d="M159.058,62.106c-54.084,0.448-97.371,46.076-97.026,98.843
			c0.338,51.595,43.896,98.55,98.865,96.661c51.872,1.477,97.672-44.395,97.008-98.532
			C257.257,106.458,213.499,61.654,159.058,62.106z M159.307,227.783c-36.111-3.02-65.313-26.458-66.35-66.417
			c-0.965-37.152,25.401-67.938,67.332-68.43c36.435-0.427,67.018,26.929,66.869,68.056
			C227.02,199.479,197.903,225.394,159.307,227.783z"/>
		<path fill-rule="evenodd" clip-rule="evenodd" fill="#00AEEF" d="M159.455,0C71.205,0.094-0.015,71.602,0,160.099
			c0.016,88.979,71.299,159.987,160.514,159.899c87.353,0.458,159.868-71.789,159.484-160.049
			C319.612,70.956,248.581-0.093,159.455,0z M159.935,288.831c-69.731,1.842-129.149-58.704-129.119-128.414
			C30.848,89.948,89.499,31.342,159.151,30.758c69.272-0.581,130.174,57.992,129.99,129.799
			C288.956,232.504,227.63,290.887,159.935,288.831z"/>
	</g>
	<path fill-rule="evenodd" clip-rule="evenodd" fill="#00AEEF" d="M196.32,160.6c0.219,17.919-16.906,36.194-35.194,35.537
		c-21.902-0.786-36.042-13.376-37.088-36.146c-0.88-19.133,15.844-36.269,35.361-35.873
		C180.706,124.549,194.196,137.321,196.32,160.6z"/>
</g>
</svg>
