<?xml version="1.0" encoding="iso-8859-1"?>
<!-- Generator: Adobe Illustrator 19.1.0, SVG Export Plug-In . SVG Version: 6.00 Build 0)  -->
<svg version="1.1" id="Capa_1" xmlns="http://www.w3.org/2000/svg" xmlns:xlink="http://www.w3.org/1999/xlink" x="0px" y="0px"
	 viewBox="0 0 440.125 440.125" style="enable-background:new 0 0 440.125 440.125;" xml:space="preserve">
<g>
	<g>
		<path d="M313.938,187.702L212.563,86.327c-3.079-3.958-7.836-6.37-12.85-6.301c-0.746,0.023-1.49,0.099-2.225,0.099H55.963
			c-8.836,0-15.999,7.415-16,16.251v328c0.001,8.836,7.164,15.749,16,15.749h248c8.836,0,15.999-6.913,16-15.749v-221.4
			C320.92,197.164,318.605,191.296,313.938,187.702L313.938,187.702z M215.963,135.002l49.375,49.124h-49.375L215.963,135.002
			L215.963,135.002z M287.963,408.126h-216v-296h112v85.676c-0.843,5.145,0.873,10.379,4.6,14.025
			c0.041,0.042,0.083,0.084,0.125,0.125c0.074,0.067,0.149,0.008,0.225,0.074c3.639,3.482,8.706,5.099,13.675,4.099h85.375V408.126z
			"/>
		<path d="M393.932,107.689L292.557,6.314c-3.02-3.891-7.919-6.376-12.844-6.313c-0.744,0.032-1.486,0.124-2.219,0.124H135.963
			c-4.189,0-8.351,1.851-11.313,4.812c-2.962,2.962-4.686,7.25-4.687,11.439v43.749h32v-28h112V97.72l38.656,38.405h65.344v192h-28
			v32h44c4.189,0,8.351-1.599,11.313-4.561c2.962-2.962,4.686-6.999,4.687-11.188V122.971
			C400.897,117.296,398.49,111.196,393.932,107.689z M295.963,104.126V55.002l49.375,49.124H295.963z"/>
	</g>
	<g>
	</g>
	<g>
	</g>
	<g>
	</g>
	<g>
	</g>
	<g>
	</g>
	<g>
	</g>
	<g>
	</g>
	<g>
	</g>
	<g>
	</g>
	<g>
	</g>
	<g>
	</g>
	<g>
	</g>
	<g>
	</g>
	<g>
	</g>
	<g>
	</g>
</g>
<g>
</g>
<g>
</g>
<g>
</g>
<g>
</g>
<g>
</g>
<g>
</g>
<g>
</g>
<g>
</g>
<g>
</g>
<g>
</g>
<g>
</g>
<g>
</g>
<g>
</g>
<g>
</g>
<g>
</g>
</svg>
