<?xml version="1.0" encoding="utf-8"?>
<!-- Generator: Adobe Illustrator 16.0.3, SVG Export Plug-In . SVG Version: 6.00 Build 0)  -->
<!DOCTYPE svg PUBLIC "-//W3C//DTD SVG 1.1//EN" "http://www.w3.org/Graphics/SVG/1.1/DTD/svg11.dtd">
<svg version="1.1" id="Layer_1" xmlns="http://www.w3.org/2000/svg" xmlns:xlink="http://www.w3.org/1999/xlink" x="0px" y="0px"
	 width="320px" height="320px" viewBox="0 0 320 320" enable-background="new 0 0 320 320" xml:space="preserve">
<path fill="#00ADEF" d="M270,140h-15V95c0-52.375-42.625-95-95-95S65,42.625,65,95v45H50c-16.563,0-30,13.438-30,30v120
	c0,16.563,13.438,30,30,30h220c16.563,0,30-13.438,30-30V170C300,153.438,286.563,140,270,140z M205,140h-90V95
	c0-24.813,20.188-45,45-45s45,20.188,45,45V140z"/>
</svg>
