<svg xmlns="http://www.w3.org/2000/svg" viewBox="0 0 210 31"><style type="text/css">  
	.st0{fill:#425968;}
	.st1{fill:#00AEEF;}
</style><path class="st0" d="M16.2 31V17.5l-5.8 8.9h-0.1l-5.8-8.8V31H0V10.3h4.9l5.5 8.8 5.5-8.8h4.9V31H16.2z"/><path class="st0" d="M51.5 31l-1.9-4.6h-8.8L38.8 31h-4.7l8.9-20.9h4.2L56.2 31H51.5zM45.1 15.6l-2.7 6.7h5.5L45.1 15.6z"/><path class="st0" d="M82.1 31l-4.7-7.1L72.7 31h-5.2l7.2-10.5 -7-10.2h5.3l4.4 6.7 4.4-6.7h5.2l-7 10.1L87.4 31H82.1z"/><path class="st1" d="M117.2 31V17.5l-5.8 8.9h-0.1l-5.8-8.8V31H101V10.3h4.9l5.5 8.8 5.5-8.8h4.9V31H117.2z"/><path class="st1" d="M137.2 31V10.3h4.6V31H137.2z"/><path class="st1" d="M171.8 31l-10.1-13.2V31h-4.5V10.3h4.2l9.7 12.8V10.3h4.5V31H171.8z"/><path class="st1" d="M198.9 31h-8.1V10.3h8.1c6.6 0 11.1 4.5 11.1 10.3v0.1C210 26.4 205.5 31 198.9 31zM205.3 20.6c0-3.6-2.5-6.2-6.2-6.2h-3.6v12.5h3.6C202.7 26.9 205.3 24.4 205.3 20.6L205.3 20.6z"/><path class="st1" d="M137.2 4.6V0h4.6v4.6L137.2 4.6 137.2 4.6z"/></svg>