<?xml version="1.0" encoding="utf-8"?>
<!-- Generator: Adobe Illustrator 16.0.3, SVG Export Plug-In . SVG Version: 6.00 Build 0)  -->
<!DOCTYPE svg PUBLIC "-//W3C//DTD SVG 1.1//EN" "http://www.w3.org/Graphics/SVG/1.1/DTD/svg11.dtd">
<svg version="1.1" id="Layer_1" xmlns="http://www.w3.org/2000/svg" xmlns:xlink="http://www.w3.org/1999/xlink" x="0px" y="0px"
	 width="320px" height="320px" viewBox="0 0 320 320" enable-background="new 0 0 320 320" xml:space="preserve">
<g>
	<path fill-rule="evenodd" clip-rule="evenodd" fill="#00AEEF" d="M-0.037,201.991c0-28.673,0-57.347,0-86.02
		c38.93,0,77.858,0,117.242,0c0-34.153,0-67.422,0-101.005c28.683,0,56.906,0,85.783,0c0,33.689,0,67.066,0,101.005
		c39.451,0,78.25,0,117.049,0c0,28.673,0,57.347,0,86.02c-0.988-0.104-1.979-0.299-2.967-0.3c-36.816-0.016-73.635-0.016-110.453,0
		c-1.109,0.001-2.217,0.194-3.867,0.348c0,34.522,0,68.745,0,102.994c-28.793,0-57.005,0-85.81,0c0-34.646,0-68.861,0-103.358
		c-2.58,0-4.568,0-6.556,0c-34.819,0-69.637-0.005-104.456,0.014C3.939,201.689,1.952,201.886-0.037,201.991z"/>
</g>
</svg>
