<?xml version="1.0" encoding="utf-8"?>
<!-- Generator: Adobe Illustrator 16.0.3, SVG Export Plug-In . SVG Version: 6.00 Build 0)  -->
<!DOCTYPE svg PUBLIC "-//W3C//DTD SVG 1.1//EN" "http://www.w3.org/Graphics/SVG/1.1/DTD/svg11.dtd">
<svg version="1.1" id="Layer_1" xmlns="http://www.w3.org/2000/svg" xmlns:xlink="http://www.w3.org/1999/xlink" x="0px" y="0px"
	 width="320px" height="320px" viewBox="0 0 320 320" enable-background="new 0 0 320 320" xml:space="preserve">
<g>
	<g>
		<path fill-rule="evenodd" clip-rule="evenodd" fill="#00ADEF" d="M220.697,86.317c-2.696-22.864-0.428-45.818-1.289-68.708
			c-0.245-6.544,3.187-7.118,8.345-7.056c16.526,0.201,33.07,0.443,49.585-0.084c9.439-0.303,11.254,4.862,5.403,9.663
			c-15.73,12.911-3.271,21.747,3.552,30.554c21.9,28.28,31.625,60.296,33.414,95.825c2.062,40.988-6.59,78.717-30.782,111.841
			c-23.901,32.725-55.143,54.437-96.274,59.467c-6.952,0.849-13.563,3.769-20.854,2.835c-4.625-0.591-7.518-2.308-8.014-7.184
			c-0.52-5.083,4.189-5.807,6.9-6.912c6.614-2.704,13.944,0.02,21.037-2.28c49.43-16.036,76.957-52.008,87.831-101.043
			c11.132-50.205-1.514-95.1-36.494-133.129c-0.843-0.917-1.962-1.579-2.887-2.307c-7.356,5.379-11.649,13.906-19.792,18.208
			C220.391,86.018,220.697,86.317,220.697,86.317z"/>
		<path fill-rule="evenodd" clip-rule="evenodd" fill="#00ADEF" d="M2.397,193.79c-1.901-17.995-4.274-35.212-0.005-54.142
			c5.528-23.242,12.303-45.839,25.091-66.482C53.312,31.477,91.159,9.272,138.449,2.46c6.438-0.928,19.046-5.593,19.2,6.851
			c0.117,9.582-11.101,6.803-18.211,7.809c-28.18,3.982-50.333,19.038-67.847,40.626c-23.514,28.982-33.814,62.93-32.5,100.233
			c1.326,37.645,16.176,69.536,41.995,97.063c8.455-4.826,12.185-14.514,20.859-18.291c-0.01-0.008-0.332-0.306-0.34-0.316
			c2.36,22.855,0.44,45.794,1.111,68.684c0.152,5.17-1.724,7.086-7.007,7.006c-17.409-0.256-34.824-0.16-52.235-0.042
			c-7.042,0.048-10.01-1.878-4.25-8.155c8.632-9.413,9.846-17.183-0.05-27.875C17.921,253.088,9.154,223.726,2.397,193.79z"/>
		<g>
			<path fill="#00ADEF" d="M101.934,236.744c-0.08-0.09-0.16-0.177-0.24-0.267c-0.033-0.018-0.066-0.034-0.1-0.052L101.934,236.744z
				"/>
			<path fill="#00ADEF" d="M252.624,140.257c-4.222-21.976-17.682-38.186-31.997-53.978c-3.864-2.083-7.753-4.125-11.596-6.251
				c-35.423-19.606-70.445-18.815-103.076,5.178c-32.625,23.987-44.107,57.244-36.383,97.292
				c4.243,22.009,17.83,38.158,32.122,53.979c3.855,2.057,7.733,4.07,11.558,6.183c35.399,19.559,70.384,18.726,102.972-5.232
				C248.803,213.474,260.312,180.263,252.624,140.257z M178.176,219.402c-6.691,2.222-8.297,5.643-7.616,11.635
				c0.852,7.527-0.958,11.522-9.972,11.182c-7.603-0.287-12.291-1.313-10.662-10.22c1.311-7.171-2.358-9.495-8.761-9.778
				c-3.09-0.145-6.176-0.93-9.206-1.663c-15.775-3.816-18.936-12.013-11.189-26.823c2.867-5.478,5.725-2.305,8.646-1.17
				c9.626,3.741,19.41,6.761,29.856,5.338c6.288-0.852,13.09-2.452,13.854-10.228c0.661-6.688-4.429-10.393-9.983-12.837
				c-7.739-3.403-15.706-6.291-23.359-9.867c-13.99-6.541-22.829-16.455-22.184-33.323c0.64-16.757,9.923-26.512,24.366-31.806
				c5.885-2.159,9.485-4.293,8.41-11.073c-1.148-7.233,1.234-10.787,9.26-10.062c6.262,0.567,13.294-0.981,11.75,9.194
				c-1.401,9.254,5.314,7.835,10.872,9.135c8.83,2.069,20.394,1.236,14.926,17.78c-3.2,9.68-5.393,12.585-14.761,7.926
				c-4.23-2.104-9.453-2.183-13.772-3.084c-4.111,0.424-7.675,0.583-11.158,1.199c-4.301,0.767-7.302,3.398-8.199,7.771
				c-0.858,4.179,1.98,6.573,4.95,8.744c7.329,5.36,16.164,7.332,24.264,10.951c15.753,7.038,26.738,17.062,26.118,36.46
				C204.034,203.174,194.32,214.045,178.176,219.402z"/>
			<path fill="#00ADEF" d="M220.391,86.018c0.079,0.087,0.157,0.174,0.236,0.261c0.024,0.013,0.047,0.025,0.07,0.039L220.391,86.018
				z"/>
		</g>
	</g>
</g>
</svg>
