<svg height="479pt" viewBox="0 0 479.96913 479" width="479pt" xmlns="http://www.w3.org/2000/svg"><path d="m468.121094 165.613281c-1.460938-4.078125-5.902344-6.25-10.019532-4.902343-4.117187 1.347656-6.414062 5.726562-5.179687 9.878906 31.359375 96.039062-5.398437 201.191406-89.761719 256.773437-84.367187 55.585938-195.488281 47.867188-271.359375-18.84375l41.558594-38.402343c69.488281 56.917968 171.457031 49.085937 231.441406-17.773438 59.980469-66.855469 56.742188-169.074219-7.351562-232h82.535156v-96l-8 7.382812-32.128906 29.65625c-80.984375-72.21875-200.34375-81.140624-291.160157-21.761718-90.820312 59.382812-130.519531 172.300781-96.839843 275.449218 1.074219 3.292969 4.144531 5.519532 7.609375 5.519532.847656 0 1.6875-.136719 2.488281-.40625 4.195313-1.375 6.484375-5.890625 5.113281-10.089844-31.363281-96.039062 5.394532-201.1875 89.761719-256.773438 84.363281-55.585937 195.484375-47.867187 271.355469 18.847657l-41.558594 38.398437c-69.480469-56.996094-171.515625-49.203125-231.53125 17.6875s-56.742188 169.171875 7.425781 232.089844h-82.535156v96l8-7.386719 32.128906-29.65625c80.984375 72.222657 200.34375 81.140625 291.160157 21.761719 90.820312-59.382812 130.519531-172.296875 96.839843-275.449219zm-228.136719 82.730469c-38.121094-.121094-69.539063-29.933594-71.660156-67.996094-2.121094-38.058594 25.789062-71.175781 63.660156-75.535156v-24.46875h16v24.46875c36.414063 4.113281 63.945313 34.886719 64 71.53125h-16c0-30.929688-25.070313-56-56-56s-56 25.070312-56 56c0 30.925781 25.070313 56 56 56 38.121094.117188 69.539063 29.929688 71.660156 67.992188 2.121094 38.058593-25.789062 71.179687-63.660156 75.535156v24.472656h-16v-24.472656c-36.410156-4.113282-63.945313-34.886719-64-71.527344h16c0 30.925781 25.070313 56 56 56s56-25.074219 56-56c0-30.929688-25.070313-56-56-56zm0 0"/></svg>