<?xml version="1.0" encoding="utf-8"?>
<!-- Generator: Adobe Illustrator 16.0.3, SVG Export Plug-In . SVG Version: 6.00 Build 0)  -->
<!DOCTYPE svg PUBLIC "-//W3C//DTD SVG 1.1//EN" "http://www.w3.org/Graphics/SVG/1.1/DTD/svg11.dtd">
<svg version="1.1" id="Layer_1" xmlns="http://www.w3.org/2000/svg" xmlns:xlink="http://www.w3.org/1999/xlink" x="0px" y="0px"
	 width="320px" height="320px" viewBox="0 0 320 320" enable-background="new 0 0 320 320" xml:space="preserve">
<g>
	<path fill="#00AEEF" d="M320.13,152.158c0.212,0.014,0.424,0.027,0.636,0.037c0,5.476,0,10.952,0,16.429
		c-0.208,0.024-0.417,0.038-0.627,0.039C320.137,163.161,320.133,157.659,320.13,152.158z"/>
	<path fill="#00AEEF" d="M150.766,320.766c2.857-1.435,5.714-0.912,8.571,0C156.48,320.766,153.623,320.766,150.766,320.766z"/>
	<path fill="#00AEEF" d="M161.479,320.766c2.621-0.896,5.238-1.475,7.857,0C166.718,320.766,164.1,320.766,161.479,320.766z"/>
	<path fill="#00AEEF" d="M319.868,140.847c-1.789-17.946-7.025-34.964-14.997-51.058c-13.387-27.025-32.783-48.785-58.334-64.955
		C228.738,13.57,209.461,6.115,188.766,2.257c-5.486-1.022-11.078-0.665-16.57-1.493c-8.334,0-16.667,0-25,0
		c-0.72,0.627-1.588,0.32-2.392,0.357c-6.532,0.305-13.013,0.926-19.398,2.452C92.219,11.503,63.888,27.61,40.92,53.065
		c-17.395,19.279-29.271,41.43-36.062,66.431c-2.153,7.927-3.184,16.006-4.091,24.125c0,11.667,0,23.333,0,35
		c1.226,3.169,0.564,6.553,1.138,9.814c2.757,15.688,7.633,30.695,14.842,44.861c8.582,16.864,19.877,31.717,33.717,44.727
		c19.832,18.645,42.856,31.256,69.082,38.326c9.093,2.449,18.327,3.604,27.649,4.414c1.19,0,2.38,0,3.571,0
		c2.857-0.604,5.714-0.604,8.571,0c0.714,0,1.431,0,2.144,0c2.621-0.58,5.237-0.58,7.856,0c0.952,0,1.905,0,2.856,0
		c0.277-0.234,0.592-0.363,0.966-0.361c9.694,0.041,19.108-1.709,28.462-4.153c27.938-7.306,52.014-21.394,72.422-41.632
		c14.039-13.926,25.199-29.979,33.212-48.159c8.243-18.707,13.329-38.089,13.146-58.664c0-4.948,0-9.901-0.001-14.858
		C320.53,148.891,320.267,144.848,319.868,140.847z M160.362,298.404c-75.811,0.041-137.688-61.947-137.583-137.829
		c0.104-75.817,61.387-137.56,137.505-137.524c77.674,0.038,137.709,62.958,137.76,137.615
		C298.096,236.475,236.277,298.364,160.362,298.404z"/>
</g>
<path fill="#00AEEF" d="M161.109,36.975C91.099,36.598,34.956,96.117,37.194,160.619C34.869,224.326,89.65,284.55,160.232,284.361
	c68.361-0.182,123.809-55.182,123.881-123.397C284.188,90.186,225.691,37.323,161.109,36.975z M104.449,72.486
	c1.87-0.491,3.746-0.963,6.285-1.615c0,2.646,0.001,4.606,0,6.567c-0.028,37.632-0.056,75.263-0.086,112.895
	c-0.008,9.484-2.583,11.563-13.416,10.181c0-1.842,0-3.782,0-5.723c0-37.633-0.023-75.265,0.016-112.896
	C97.257,72.599,96.42,74.597,104.449,72.486z M91.284,249.035c-2.477,0.15-5.022,0.6-5.083-3.445
	c-0.048-3.253,0.195-5.628,4.164-5.689c0.972-0.015,1.94-0.278,3.45-0.51c-2.938-8.234-5.182-16.096,2.036-22.64
	c4.967-4.503,15.594-4.342,22.853-0.026c-0.723,2.542-1.474,5.184-2.282,8.024c-2.305-0.595-4.182-1.247-6.113-1.539
	c-3.447-0.521-7.417-0.367-8.52,3.284c-0.948,3.14-0.634,7.093,0.388,10.28c1.114,3.479,4.676,2.864,7.768,2.426
	c3.604-0.51,7.251-0.703,11.469-1.088c0.175,2.927,0.336,5.637,0.534,8.955C111.444,247.748,101.366,248.427,91.284,249.035z
	 M142.438,202.519c-6.567,0.201-12.047-4.864-12.108-11.194c-0.059-6.037,5.14-11.404,11.248-11.612
	c6.409-0.219,11.924,4.943,12.035,11.266C153.722,197.202,148.762,202.324,142.438,202.519z M219.568,196.383
	c-11.172,5.12-23.153,5.689-35.172,5.269c-5.449-0.19-10.872-1.124-17.222-1.82c0.643-4.727,1.241-9.131,1.788-13.152
	c12.533,0,24.281,0.27,36.006-0.144c4.21-0.147,8.403-1.796,12.529-3.017c4.525-1.339,5.696-4.301,4.205-8.838
	c-4.097-12.458-11.587-22.775-20.166-32.383c-2.532-2.837-5.716-5.093-8.885-7.863c3.14-5.376,5.623-9.627,8.68-14.859
	c4.809,5.538,9.27,10.35,13.361,15.458c8.04,10.037,15.438,20.442,18.334,33.367C235.803,180.791,231.091,191.102,219.568,196.383z"
	/>
</svg>
