<?xml version="1.0" encoding="utf-8"?>
<!-- Generator: Adobe Illustrator 16.0.3, SVG Export Plug-In . SVG Version: 6.00 Build 0)  -->
<!DOCTYPE svg PUBLIC "-//W3C//DTD SVG 1.1//EN" "http://www.w3.org/Graphics/SVG/1.1/DTD/svg11.dtd">
<svg version="1.1" id="Layer_1" xmlns="http://www.w3.org/2000/svg" xmlns:xlink="http://www.w3.org/1999/xlink" x="0px" y="0px"
	 width="320px" height="320px" viewBox="0 0 320 320" enable-background="new 0 0 320 320" xml:space="preserve">
<g>
	<path fill="#00AEEF" d="M320.13,152.158c0.212,0.014,0.424,0.027,0.636,0.037c0,5.476,0,10.952,0,16.429
		c-0.208,0.024-0.417,0.038-0.627,0.039C320.137,163.161,320.133,157.659,320.13,152.158z"/>
	<path fill="#00AEEF" d="M150.766,320.766c2.857-1.435,5.714-0.912,8.571,0C156.48,320.766,153.623,320.766,150.766,320.766z"/>
	<path fill="#00AEEF" d="M161.479,320.766c2.621-0.896,5.238-1.475,7.857,0C166.718,320.766,164.1,320.766,161.479,320.766z"/>
	<path fill="#00AEEF" d="M319.868,140.847c-1.789-17.946-7.025-34.964-14.997-51.058c-13.387-27.025-32.783-48.785-58.334-64.955
		C228.738,13.57,209.461,6.115,188.766,2.257c-5.486-1.022-11.078-0.665-16.57-1.493c-8.334,0-16.667,0-25,0
		c-0.72,0.627-1.588,0.32-2.392,0.357c-6.532,0.305-13.013,0.926-19.398,2.452C92.219,11.503,63.888,27.61,40.92,53.065
		c-17.395,19.279-29.271,41.43-36.062,66.431c-2.153,7.927-3.184,16.006-4.091,24.125c0,11.667,0,23.333,0,35
		c1.226,3.169,0.564,6.553,1.138,9.814c2.757,15.688,7.633,30.695,14.842,44.861c8.582,16.864,19.877,31.717,33.717,44.727
		c19.832,18.645,42.856,31.256,69.082,38.326c9.093,2.449,18.327,3.604,27.649,4.414c1.19,0,2.38,0,3.571,0
		c2.857-0.604,5.714-0.604,8.571,0c0.714,0,1.431,0,2.144,0c2.621-0.58,5.237-0.58,7.856,0c0.952,0,1.905,0,2.856,0
		c0.277-0.234,0.592-0.363,0.966-0.361c9.694,0.041,19.108-1.709,28.462-4.153c27.938-7.306,52.014-21.394,72.422-41.632
		c14.039-13.926,25.199-29.979,33.212-48.159c8.243-18.707,13.329-38.089,13.146-58.664c0-4.948,0-9.901-0.001-14.858
		C320.53,148.891,320.267,144.848,319.868,140.847z M160.362,298.404c-75.811,0.041-137.688-61.947-137.583-137.829
		c0.104-75.817,61.387-137.56,137.505-137.524c77.674,0.038,137.709,62.958,137.76,137.615
		C298.096,236.475,236.277,298.364,160.362,298.404z"/>
</g>
<path fill="#00AEEF" d="M161.109,36.975C91.099,36.598,34.956,96.117,37.194,160.619C34.869,224.326,89.65,284.55,160.232,284.361
	c68.361-0.182,123.809-55.182,123.881-123.397C284.188,90.186,225.691,37.323,161.109,36.975z M204.316,107.894
	c6.614-17.564,19.592-11.6,31.222-11.576c-7.457,7.012-14.655,14.328-22.481,20.9c-3.646,3.062-18.015,0.367-21.691-3.1
	c-6.237-5.879-12.468-11.769-19.908-18.795C184.273,95.947,196.972,90.557,204.316,107.894z M132.811,223.271
	c-1.426-0.067-2.989-2.35-4.067-3.901c-9.645-13.89-19.187-27.849-28.783-41.77c-1.194-1.733-2.533-3.369-4.846-6.424
	c0,18.34,0,34.899,0,51.9c-7.563,0-14.582,0-22.139,0c0-39.594,0-79.284,0-119.404c7.082,0,14.082,0,21.933,0
	c0,13.132,0,26.281,0,39.43c0.481,0.151,0.963,0.3,1.445,0.448c7.529-9.789,15.717-19.155,22.384-29.5
	c5.591-8.677,12.195-12.598,22.409-10.9c3.667,0.609,7.521,0.098,12.672,0.098c-1.937,2.693-3.231,4.581-4.615,6.401
	c-11.05,14.523-22.013,29.115-33.262,43.482c-2.506,3.202-2.504,5.347-0.209,8.648c13.958,20.071,27.682,40.306,42.297,61.675
	C148.926,223.454,140.855,223.649,132.811,223.271z M179.728,184.585c2.107,14.592,17.168,23.536,33.799,19.467
	c5.437-1.33,10.418-4.521,16.977-7.478c4.109,2.752,9.574,6.41,15.483,10.366c-8.542,11.205-19.824,15.87-32.831,17.568
	c-24.336,3.177-46.337-9.291-53.417-30.446c-10.906-32.586,17.083-64.241,52.804-59.792c13.811,1.72,25.575,6.992,34.481,19.161
	c-2.923,1.64-5.353,2.77-7.527,4.27c-6.025,4.155-10.819,5.249-18.061,0.197c-9.723-6.781-21.33-5.642-31.448,0.988
	C180.805,164.904,178.209,174.071,179.728,184.585z"/>
</svg>
