<?xml version="1.0" encoding="utf-8"?>
<!-- Generator: Adobe Illustrator 16.0.3, SVG Export Plug-In . SVG Version: 6.00 Build 0)  -->
<!DOCTYPE svg PUBLIC "-//W3C//DTD SVG 1.1//EN" "http://www.w3.org/Graphics/SVG/1.1/DTD/svg11.dtd">
<svg version="1.1" id="Layer_1" xmlns="http://www.w3.org/2000/svg" xmlns:xlink="http://www.w3.org/1999/xlink" x="0px" y="0px"
	 width="320px" height="320px" viewBox="0 0 320 320" enable-background="new 0 0 320 320" xml:space="preserve">
<g>
	<path fill="#00AEEF" d="M320.13,152.158c0.212,0.014,0.424,0.027,0.636,0.037c0,5.476,0,10.952,0,16.429
		c-0.208,0.024-0.417,0.038-0.627,0.039C320.137,163.161,320.133,157.659,320.13,152.158z"/>
	<path fill="#00AEEF" d="M150.766,320.766c2.857-1.435,5.714-0.912,8.571,0C156.48,320.766,153.623,320.766,150.766,320.766z"/>
	<path fill="#00AEEF" d="M161.479,320.766c2.621-0.896,5.238-1.475,7.857,0C166.718,320.766,164.1,320.766,161.479,320.766z"/>
	<path fill="#00AEEF" d="M319.868,140.847c-1.789-17.946-7.025-34.964-14.997-51.058c-13.387-27.025-32.783-48.785-58.334-64.955
		C228.738,13.57,209.461,6.115,188.766,2.257c-5.486-1.022-11.078-0.665-16.57-1.493c-8.334,0-16.667,0-25,0
		c-0.72,0.627-1.588,0.32-2.392,0.357c-6.532,0.305-13.013,0.926-19.398,2.452C92.219,11.503,63.888,27.61,40.92,53.065
		c-17.395,19.279-29.271,41.43-36.062,66.431c-2.153,7.927-3.184,16.006-4.091,24.125c0,11.667,0,23.333,0,35
		c1.226,3.169,0.564,6.553,1.138,9.814c2.757,15.688,7.633,30.695,14.842,44.861c8.582,16.864,19.877,31.717,33.717,44.727
		c19.832,18.645,42.856,31.256,69.082,38.326c9.093,2.449,18.327,3.604,27.649,4.414c1.19,0,2.38,0,3.571,0
		c2.857-0.604,5.714-0.604,8.571,0c0.714,0,1.431,0,2.144,0c2.621-0.58,5.237-0.58,7.856,0c0.952,0,1.905,0,2.856,0
		c0.277-0.234,0.592-0.363,0.966-0.361c9.694,0.041,19.108-1.709,28.462-4.153c27.938-7.306,52.014-21.394,72.422-41.632
		c14.039-13.926,25.199-29.979,33.212-48.159c8.243-18.707,13.329-38.089,13.146-58.664c0-4.948,0-9.901-0.001-14.858
		C320.53,148.891,320.267,144.848,319.868,140.847z M160.362,298.404c-75.811,0.041-137.688-61.947-137.583-137.829
		c0.104-75.817,61.387-137.56,137.505-137.524c77.674,0.038,137.709,62.958,137.76,137.615
		C298.096,236.475,236.277,298.364,160.362,298.404z"/>
</g>
<path fill="#00AEEF" d="M161.109,36.975C91.099,36.598,34.956,96.117,37.194,160.619C34.869,224.326,89.65,284.55,160.232,284.361
	c68.361-0.182,123.809-55.182,123.881-123.397C284.188,90.186,225.691,37.323,161.109,36.975z M131.329,115.936
	c0.398,3.419,0.708,6.85,1.096,10.27c1.179,10.394,2.419,20.783,3.55,31.183c0.651,6,1.477,12.013,1.586,18.031
	c0.081,4.439-0.349,9.032-1.463,13.32c-2.859,11.002-10.483,17.479-21.363,19.802c-11.495,2.453-23.192,2.669-34.766,0.604
	c-9.714-1.731-16.315-7.449-19.147-17.139c-0.11-0.38-0.54-0.666-0.821-0.994c0-3.516,0-7.033,0-10.55
	c0.361-0.663,0.881-1.286,1.057-1.996c1.768-7.129,4.224-13.982,7.953-20.34c0.568-0.968,1.17-1.928,1.857-2.813
	c1.533-1.979,4.248-2.469,6.215-1.188c2.12,1.379,2.583,3.896,1.449,6.31c-2.352,5.007-4.908,9.957-6.749,15.153
	c-2.342,6.611-0.228,11.752,6.078,14.966c3.125,1.593,6.681,2.746,10.155,3.168c8.267,0.999,16.555,0.654,24.681-1.472
	c9.24-2.418,13.628-7.321,14.344-16.861c0.339-4.516-0.032-9.117-0.435-13.648c-0.788-8.882-1.495-17.793-2.845-26.599
	c-1.594-10.393-3.816-20.691-5.801-31.024c-1.086-5.651-1.067-11.175,1.62-16.447c1.455-2.854,2.579-2.999,4.97-0.888
	c2.415,2.134,4.826,4.313,7.469,6.141c6.61,4.573,7.538,9.883,2.493,16.211C132.883,111.176,130.985,112.988,131.329,115.936z
	 M154.169,182.37c-1.299-4.113-2.108-8.464-2.501-12.766c-1.401-15.399-3.796-30.642-6.619-45.831
	c-0.705-3.793-1.338-7.646-1.444-11.485c-0.067-2.441,0.735-4.96,1.453-7.353c0.621-2.072,1.566-4.071,2.582-5.989
	c0.395-0.745,1.379-1.634,2.085-1.626c0.703,0.008,1.776,0.927,2.034,1.672c3.386,9.78,6.022,19.71,6.626,30.135
	c0.574,9.887,1.536,19.75,2.35,29.621c0.271,3.288,0.484,6.588,0.953,9.85c0.46,3.2,2.039,4.622,5.229,5.156
	c0.967,0.16,1.951,0.302,2.927,0.297c10.757-0.054,21.511-0.136,32.267-0.219c0.547-0.005,1.094-0.074,1.903-0.133
	c-1.398-5.464-1.719-11.021-5.205-15.719c-4.659-6.277-4.678-12.132-0.481-18.343c1.518-2.244,2.587-2.384,4.569-0.614
	c4.211,3.762,6.445,8.619,7.651,14.006c1.654,7.395,1.841,14.912,1.615,22.443c-0.126,4.213-0.396,8.425-0.61,12.635
	c-0.111,2.219-0.743,2.867-2.977,2.867c-14.273-0.005-28.547,0-42.82-0.063C160.479,190.892,155.87,187.753,154.169,182.37z
	 M174.264,214.658c-2.646,2.435-3.322,2.41-5.594-0.235c-2.242-2.61-4.452-5.25-6.742-7.818c-1.33-1.492-1.398-2.763,0.167-4.135
	c2.537-2.222,5.026-4.497,7.495-6.792c1.461-1.357,2.675-1.19,3.915,0.31c2.275,2.75,4.612,5.451,7.023,8.289
	c2.881-2.657,5.659-5.216,8.433-7.783c1.863-1.727,2.703-1.74,4.373,0.137c2.473,2.78,4.883,5.619,7.334,8.42
	c1.192,1.362,1.157,2.594-0.204,3.836c-2.492,2.273-4.933,4.602-7.417,6.882c-1.781,1.635-2.628,1.579-4.199-0.214
	c-2.265-2.579-4.518-5.165-6.918-7.913C179.3,210.048,176.776,212.347,174.264,214.658z M259.232,195.593
	c-1.127,4.896-3.592,9.063-6.575,13.063c-4.629,6.204-9.26,12.371-15.232,17.393c-9.256,7.781-19.737,10.547-31.445,7.221
	c-7.352-2.087-14.568-4.671-21.786-7.194c-0.748-0.261-1.668-1.74-1.525-2.462c0.278-1.419,1.61-2.034,3.138-1.719
	c2.749,0.565,5.491,1.164,8.241,1.733c13.921,2.886,25.935-1.04,36.467-10.233c5.332-4.653,9.789-10.073,13.685-15.951
	c4.82-7.272,4.141-15.034-1.914-22.522c-4.77-5.901-9.62-11.735-14.378-17.642c-3.612-4.484-1.633-10.667,3.832-12.012
	c2.91-0.717,5.532,0.098,7.426,2.364c5.18,6.198,10.448,12.343,15.225,18.844c2.104,2.867,3.091,6.551,4.612,9.852
	c0.262,0.567,0.663,1.072,0.999,1.606c0,5.626,0,11.253,0,16.878C259.734,195.069,259.301,195.289,259.232,195.593z"/>
</svg>
