<?xml version="1.0" encoding="utf-8"?>
<!-- Generator: Adobe Illustrator 16.0.3, SVG Export Plug-In . SVG Version: 6.00 Build 0)  -->
<!DOCTYPE svg PUBLIC "-//W3C//DTD SVG 1.1//EN" "http://www.w3.org/Graphics/SVG/1.1/DTD/svg11.dtd">
<svg version="1.1" id="Layer_1" xmlns="http://www.w3.org/2000/svg" xmlns:xlink="http://www.w3.org/1999/xlink" x="0px" y="0px"
	 width="320px" height="320px" viewBox="0 0 320 320" enable-background="new 0 0 320 320" xml:space="preserve">
<g>
	<path fill="#00AEEF" d="M321.073,4.001c-2.522,9.471-3.38,19.231-4.967,28.863c-3.179,19.292-6.165,38.615-9.382,58.871
		c-5.752-5.369-11.138-9.984-16.002-15.095c-2.875-3.023-4.431-2.312-6.992,0.292c-38.775,39.419-77.476,78.917-116.549,118.039
		c-29.779,29.813-60.021,59.166-90.178,88.6c-2.803,2.734-2.851,4.182-0.016,6.908c5.01,4.817,9.512,10.164,14.363,15.438
		c-9.696,1.659-19.878,3.439-30.074,5.139c-18.676,3.107-37.361,6.166-56.038,9.272C4.797,320.4,4.411,320.816,4,321.074
		c-2.5,0.499-3.5-0.501-3.001-3.001c2.942-10.214,3.977-20.794,5.888-31.201c3.328-18.123,6.292-36.313,9.635-55.795
		c3.93,3.851,7.276,7.12,10.612,10.399c8.373,8.233,8.35,8.215,16.845-0.143c66.857-65.777,133.32-131.949,198.876-199.027
		c5.451-5.579,5.467-5.589-0.17-10.944c-4.336-4.118-8.707-8.198-13.763-12.953c9.752-1.895,18.722-3.69,27.712-5.375
		c20.081-3.765,40.174-7.472,60.254-11.233c0.43-0.08,0.789-0.526,1.183-0.801C320.572,0.501,321.572,1.501,321.073,4.001z"/>
	<path fill="#00AEEF" d="M67.968,13.004C37.682,13.01,13.031,37.366,13.004,67.313c-0.028,30.332,24.515,54.72,55.059,54.714
		C98.35,122.021,123,97.665,123.027,67.718C123.055,37.387,98.512,12.999,67.968,13.004z M67.659,95.095
		c-15.439-0.096-27.84-12.686-27.641-28.061c0.197-15.193,12.936-27.259,28.604-27.094C83.793,40.1,96.107,52.6,96.014,67.748
		C95.919,82.988,83.266,95.191,67.659,95.095z"/>
	<path fill="#00AEEF" d="M252.988,200.047c-30.276,0.01-54.918,24.375-54.942,54.33c-0.024,30.322,24.527,54.701,55.081,54.691
		c30.275-0.008,54.918-24.375,54.942-54.33C308.095,224.416,283.542,200.038,252.988,200.047z M252.846,282.139
		c-15.484-0.058-27.925-12.556-27.785-27.918c0.138-15.217,12.832-27.367,28.459-27.242c15.211,0.123,27.571,12.543,27.537,27.668
		C281.021,269.919,268.425,282.195,252.846,282.139z"/>
</g>
</svg>
