<?xml version="1.0" encoding="utf-8"?>
<!-- Generator: Adobe Illustrator 16.0.3, SVG Export Plug-In . SVG Version: 6.00 Build 0)  -->
<!DOCTYPE svg PUBLIC "-//W3C//DTD SVG 1.1//EN" "http://www.w3.org/Graphics/SVG/1.1/DTD/svg11.dtd">
<svg version="1.1" id="Layer_1" xmlns="http://www.w3.org/2000/svg" xmlns:xlink="http://www.w3.org/1999/xlink" x="0px" y="0px"
	 width="320px" height="320px" viewBox="0 0 320 320" enable-background="new 0 0 320 320" xml:space="preserve">
<g>
	<path fill-rule="evenodd" clip-rule="evenodd" fill="#FFFFFF" d="M321.073,4.001c-2.522,9.471-3.38,19.231-4.967,28.863
		c-3.178,19.292-6.165,38.615-9.381,58.871c-5.752-5.369-11.138-9.984-16.002-15.095c-2.876-3.023-4.431-2.312-6.992,0.292
		c-38.776,39.419-77.476,78.917-116.55,118.039c-29.778,29.813-60.02,59.165-90.177,88.599c-2.803,2.735-2.851,4.182-0.016,6.909
		c5.01,4.817,9.512,10.164,14.363,15.437c-9.696,1.659-19.878,3.439-30.074,5.138c-18.676,3.108-37.361,6.166-56.038,9.273
		c-0.442,0.074-0.828,0.49-1.239,0.747c-2.5,0.499-3.5-0.501-3.001-3.001c2.942-10.214,3.977-20.794,5.888-31.201
		c3.328-18.123,6.292-36.314,9.635-55.795c3.93,3.851,7.276,7.12,10.612,10.399c8.373,8.234,8.35,8.216,16.845-0.142
		c66.857-65.777,133.32-131.949,198.876-199.027c5.452-5.579,5.467-5.589-0.17-10.944c-4.335-4.118-8.706-8.198-13.762-12.953
		c9.752-1.895,18.722-3.69,27.712-5.375c20.081-3.765,40.173-7.472,60.254-11.233c0.429-0.08,0.789-0.526,1.182-0.801
		C320.572,0.501,321.572,1.501,321.073,4.001z"/>
	<path fill-rule="evenodd" clip-rule="evenodd" fill="#FFFFFF" d="M67.968,13.004C37.682,13.01,13.031,37.366,13.004,67.313
		c-0.028,30.332,24.515,54.72,55.059,54.714C98.35,122.021,123,97.665,123.027,67.718C123.055,37.387,98.512,12.999,67.968,13.004z
		 M67.659,95.095c-15.439-0.096-27.84-12.686-27.641-28.061c0.197-15.193,12.936-27.259,28.604-27.094
		C83.793,40.1,96.107,52.6,96.014,67.748C95.919,82.988,83.266,95.191,67.659,95.095z"/>
	<path fill-rule="evenodd" clip-rule="evenodd" fill="#FFFFFF" d="M252.988,200.047c-30.276,0.009-54.918,24.375-54.942,54.33
		c-0.025,30.322,24.527,54.701,55.081,54.692c30.276-0.009,54.918-24.376,54.942-54.331
		C308.095,224.416,283.542,200.038,252.988,200.047z M252.845,282.138c-15.484-0.057-27.924-12.555-27.784-27.917
		c0.137-15.217,12.831-27.367,28.459-27.242c15.211,0.122,27.571,12.542,27.537,27.667
		C281.021,269.919,268.425,282.195,252.845,282.138z"/>
</g>
</svg>
