<?xml version="1.0" encoding="utf-8"?>
<!-- Generator: Adobe Illustrator 16.0.3, SVG Export Plug-In . SVG Version: 6.00 Build 0)  -->
<!DOCTYPE svg PUBLIC "-//W3C//DTD SVG 1.1//EN" "http://www.w3.org/Graphics/SVG/1.1/DTD/svg11.dtd">
<svg version="1.1" id="Layer_1" xmlns="http://www.w3.org/2000/svg" xmlns:xlink="http://www.w3.org/1999/xlink" x="0px" y="0px"
	 width="320px" height="320px" viewBox="0 0 320 320" enable-background="new 0 0 320 320" xml:space="preserve">
<g>
	<path fill-rule="evenodd" clip-rule="evenodd" fill="#FFFFFF" d="M314.773,211.703c-4.828-0.153-9.658-0.068-14.487-0.082
		c-11.129-0.03-11.787-0.675-11.789-11.972c-0.01-61.62-0.002-123.238-0.008-184.856c0-2.831,0.022-5.662-0.126-8.491
		c-0.107-2.065-0.558-3.957-2.298-5.302c-37.342,0-74.685,0-112.025,0c-2.84,2.167-2.348,5.325-2.354,8.265
		c-0.054,24.962-0.005,49.925-0.063,74.887c-0.004,1.808,0.664,3.901-1.232,5.653c-5.381-5.355-9.767-11.197-14.483-16.75
		c-15.819-18.624-31.424-37.429-47.35-55.958C103.562,11.283,99.962,3.852,92.021,1c-0.667,0-1.334,0-2,0
		c-2.012,1.436-4.668,1.704-6.353,3.794C74.6,16.046,65.094,26.934,55.798,37.997C42.23,54.145,28.52,70.173,15.031,86.386
		C9.895,92.559,3.499,97.931,1,106.024c0,0.334,0,0.667,0,1c1.471,1.93,3.588,2.236,5.8,2.324c4.329,0.172,8.659,0.089,12.988,0.102
		c11.131,0.033,11.785,0.671,11.787,11.976c0.01,61.952,0.001,123.903,0.007,185.855c0,2.83-0.021,5.661,0.126,8.491
		c0.108,2.064,0.558,3.956,2.298,5.301c37.342,0,74.684,0,112.025,0c2.831-2.177,2.339-5.334,2.344-8.278
		c0.047-26.315,0.011-52.63,0.047-78.945c0.002-1.78-0.427-3.631,0.446-5.428c1.817,0.476,2.586,2.035,3.608,3.266
		c6.059,7.292,12.13,14.575,18.273,21.792c17.47,20.52,34.819,41.139,52.139,61.784c5.681,6.771,10.621,6.789,16.299,0.001
		c20.488-24.5,41.321-48.712,61.679-73.319c7.141-8.63,15.962-16.066,20.205-26.896c0-0.333,0-0.667,0-1
		C319.47,211.935,317.13,211.778,314.773,211.703z M119.19,226.913c-24,0-48-0.067-71.999,0.068
		c-3.873,0.022-5.234-0.575-4.416-4.981c2.328-12.532,8.327-23,16.542-32.474c10.396-11.987,22.566-22.185,33.575-33.551
		c4.681-4.833,8.789-9.925,10.464-16.689c2.5-10.092-1.914-19.045-10.637-21.063c-10.51-2.431-18.398,2.553-20.841,13.167
		c-1.537,6.678-1.532,6.631-8.806,5.84c-4.633-0.504-9.277-0.968-13.928-1.215c-3.103-0.164-4.41-1.022-3.842-4.542
		c3.615-22.424,17.206-34.588,39.995-35.557c10.694-0.455,20.995,0.848,30.006,7.199c14.936,10.525,19.159,30.269,10.879,48.381
		c-6.517,14.255-18.024,24.143-29.065,34.498c-5.158,4.838-10.594,9.418-15.2,16.19c12.085,0,23.184-0.083,34.279,0.04
		c4.45,0.049,10.154-1.91,13.019,0.854c2.9,2.798,0.867,8.536,0.926,12.975C130.289,226.912,130.19,226.913,119.19,226.913z
		 M264.215,200.806c-4.098-0.097-5.542,0.893-5.254,5.164c0.393,5.804,0.003,11.657,0.138,17.484c0.06,2.585-0.838,3.55-3.45,3.496
		c-6.162-0.128-12.331-0.168-18.489,0.017c-2.963,0.089-3.731-1.179-3.685-3.845c0.102-5.828-0.178-11.67,0.102-17.487
		c0.175-3.649-0.82-4.883-4.679-4.82c-14.322,0.234-28.653-0.056-42.976,0.188c-4.046,0.068-4.704-1.287-5.03-5.071
		c-0.997-11.572,1.821-21.303,8.862-30.965c15.473-21.231,29.776-43.317,44.419-65.147c1.977-2.947,4.074-4.33,7.695-4.036
		c4.137,0.336,8.339,0.304,12.482,0.01c3.63-0.257,4.894,0.737,4.807,4.629c-0.27,12.155-0.099,24.319-0.099,36.48
		s0.107,24.324-0.07,36.481c-0.048,3.339,0.684,4.603,4.336,4.59c11.737-0.043,11.738,0.116,11.738,11.921
		C275.063,200.863,275.058,201.063,264.215,200.806z"/>
	<path fill-rule="evenodd" clip-rule="evenodd" fill="#FFFFFF" d="M173.778,161.023c0,16.168-0.104,32.338,0.08,48.504
		c0.041,3.666-0.866,5.019-4.717,4.828c-6.318-0.314-12.666-0.187-18.997-0.042c-2.799,0.064-4.149-0.422-4.137-3.759
		c0.122-33.337,0.12-66.673,0.001-100.01c-0.012-3.3,1.274-3.854,4.109-3.788c6.497,0.152,13.006,0.221,19.499-0.024
		c3.365-0.127,4.246,1.07,4.221,4.286C173.708,127.686,173.777,144.355,173.778,161.023z"/>
	<path fill-rule="evenodd" clip-rule="evenodd" fill="#FFFFFF" d="M233.451,139.432c0,12.044,0.004,24.088-0.005,36.133
		c-0.001,2.062-1.384,2.324-3.034,2.318c-6.972-0.022-13.942-0.054-20.913,0.015c-2.804,0.028-2.639-1.088-1.402-2.921
		c8.04-11.939,16.064-23.89,24.095-35.836C232.611,139.238,233.031,139.335,233.451,139.432z"/>
</g>
</svg>
