<?xml version="1.0" encoding="utf-8"?>
<!-- Generator: Adobe Illustrator 16.0.3, SVG Export Plug-In . SVG Version: 6.00 Build 0)  -->
<!DOCTYPE svg PUBLIC "-//W3C//DTD SVG 1.1//EN" "http://www.w3.org/Graphics/SVG/1.1/DTD/svg11.dtd">
<svg version="1.1" id="Layer_1" xmlns="http://www.w3.org/2000/svg" xmlns:xlink="http://www.w3.org/1999/xlink" x="0px" y="0px"
	 width="320px" height="320px" viewBox="0 0 320 320" enable-background="new 0 0 320 320" xml:space="preserve">
<g>
	<path fill-rule="evenodd" clip-rule="evenodd" fill="#00AEEF" d="M319.509,18.677c-0.225-10.022-7.274-17.664-16.748-17.913
		C300.9,0.715,298.797,1.092,297,0C214.999,0,133,0,51,0c-9.395,1.002-13.767,7.204-15.508,15.611
		c-1.712,8.276-2.041,16.758-2.123,25.183c-0.058,5.987-0.49,6.948-6.567,7.062c-6.631,0.124-13.265,0.033-19.897,0.048
		C4.084,47.909,1.652,48.518,0,51c0,10,0,20,0,30c1.648,2.505,4.086,3.115,6.923,3.126c6.497,0.025,12.995-0.106,19.489,0.072
		c5.897,0.161,7.252,1.565,7.401,7.556c0.12,4.829,0.12,9.663,0,14.492c-0.149,5.99-1.504,7.395-7.401,7.556
		c-6.494,0.179-12.992,0.048-19.489,0.073C4.086,113.886,1.648,114.495,0,117c0,10,0,20,0,30c1.648,2.505,4.086,3.115,6.923,3.126
		c6.497,0.025,12.995-0.106,19.49,0.072c5.896,0.162,7.251,1.565,7.4,7.556c0.12,4.828,0.12,9.662,0,14.491
		c-0.149,5.991-1.504,7.394-7.401,7.556c-6.494,0.179-12.992,0.048-19.489,0.072C4.086,179.885,1.648,180.494,0,183
		c0,9.999,0,20,0,30c1.648,2.505,4.086,3.115,6.922,3.126c6.497,0.025,12.996-0.105,19.489,0.072c5.896,0.162,7.258,1.564,7.4,7.555
		c0.124,5.163,0.124,10.331,0,15.492c-0.143,5.99-1.504,7.395-7.4,7.557c-6.493,0.178-12.992,0.047-19.489,0.072
		C4.086,246.885,1.648,247.494,0,250c0,10,0,19.999,0,30c1.658,2.491,4.103,3.092,6.929,3.095
		c6.485,0.008,12.972-0.053,19.456,0.035c6.506,0.088,7.359,0.991,7.49,7.641c0.043,2.162,0.17,4.335,0.023,6.484
		c-0.64,9.369,9.171,22.251,19.787,21.9c1.693-0.057,3.648-0.071,5.314,0.845c80.333,0,160.666,0,240.999,0
		c1.638-0.961,3.533-0.707,5.27-0.879c6.276-0.619,10.31-4.135,12.869-9.524c1.265-2.657,1.055-5.767,1.862-8.598
		C320,208,320,115,320,22C319.148,20.996,319.534,19.792,319.509,18.677z M72.009,206.774c-1.632-0.104-1.838-2.156-2.461-3.433
		C40.656,144.12,73.899,73.661,137.901,58.059c43.799-10.678,89.6,8.431,112.078,46.293c0.649,1.094,1.188,2.252,2.158,4.109
		c-4.183-1.295-7.616-2.371-11.057-3.422c-14.127-4.316-28.027-1.878-41.842,1.563c-31.358,7.814-58.319,23.88-82.78,44.524
		c-3.395,2.865-6.219,5.081-11.403,3.352c-6.073-2.027-12.297,4.788-10.578,11.231c1.083,4.059,0.325,6.97-2.377,9.982
		c-7.41,8.266-12.115,18.265-17.448,27.857C73.97,204.777,73.751,206.884,72.009,206.774z M91.62,228.041
		c-10.089-3.597-14.853-11.739-13.043-22.274c2.152-12.532,10.271-21.791,17.165-31.72c1.382-1.992,3.613-1.265,5.565-0.996
		c8.095,1.115,12.929-3.525,11.583-11.539c-0.413-2.46-0.09-3.839,1.931-5.413c19.334-15.067,40.418-26.215,65.055-29.573
		c2.302-0.314,4.622-0.478,6.936-0.711c3.563-0.128,7.008,0.642,10.392,1.432c10.685,2.497,16.294,11.274,14.454,22.113
		c-2.364,13.921-10.36,24.712-19.497,34.768c-20.638,22.717-45.988,37.517-75.938,44.256
		C108.063,230.219,99.816,230.964,91.62,228.041z M224.708,239.352c-30.65,22.967-64.27,27.31-100.978,14.474
		c60.961-19.428,110.975-51.284,139.525-110.5C269.469,169.88,259.22,213.491,224.708,239.352z M309.995,286.465
		c-0.242,14.854-6.1,20.913-20.846,21.491c-2.825,0.111-5.658,0.017-8.749-0.233c11.274-2.904,13.621-11.251,13.617-21.224
		c-0.032-82.333-0.009-164.666-0.027-246.999c-0.003-15.497-6-21.486-21.502-21.49c-66.334-0.021-132.667-0.005-198.999-0.014
		c-9.612-0.001-17.995,1.986-21.005,13.958c-1.383-6.954,1.622-10.099,2.14-15.592c0.174-1.842,2.692-4.785,4.625-5.435
		c5.069-1.7,10.218-2.938,15.622-2.937c70.666,0.015,141.333,0.003,211.999,0.036c2.316,0.001,4.66,0.236,6.943,0.639
		c10.225,1.804,13.976,5.549,15.707,15.838c0.44,2.606,0.461,5.306,0.461,7.963C310.004,116.133,310,199.8,310,283.465
		C310,284.466,310.011,285.466,309.995,286.465z"/>
</g>
</svg>
