<?xml version="1.0" encoding="utf-8"?>
<!-- Generator: Adobe Illustrator 16.0.3, SVG Export Plug-In . SVG Version: 6.00 Build 0)  -->
<!DOCTYPE svg PUBLIC "-//W3C//DTD SVG 1.1//EN" "http://www.w3.org/Graphics/SVG/1.1/DTD/svg11.dtd">
<svg version="1.1" id="Layer_1" xmlns="http://www.w3.org/2000/svg" xmlns:xlink="http://www.w3.org/1999/xlink" x="0px" y="0px"
	 width="320px" height="320px" viewBox="0 0 320 320" enable-background="new 0 0 320 320" xml:space="preserve">
<g>
	<path fill-rule="evenodd" clip-rule="evenodd" fill="#FFFFFF" d="M160.558,0c6.343,4.495,14.087,6.486,21.206,9.567
		c13.707,5.934,27.649,11.422,41.484,17.117c0.785,0.323,1.476,0.835,3.006,1.718c-6.815,3.119-12.966,6.002-19.183,8.766
		c-14.478,6.433-28.986,12.81-43.486,19.204c-2.147,0.947-4.104,1.972-6.774,0.793c-21.313-9.405-42.689-18.69-64.966-28.413
		c9.706-4.126,18.633-7.946,27.582-11.72c11.929-5.031,23.879-10.024,35.815-15.041c1.161-0.487,2.475-0.799,3.086-1.992
		C159.07,0,159.813,0,160.558,0z"/>
	<path fill-rule="evenodd" clip-rule="evenodd" fill="#FFFFFF" d="M316.668,86.832c0.765-1.256,2.07-1.091,3.332-1.04
		c0,24.56,0,49.12,0,73.679c-0.378,0.002-0.757,0.004-1.135,0.006c-2.406-2.405-1.672-5.391-1.714-8.174
		C316.834,129.813,317.664,108.317,316.668,86.832z"/>
	<path fill-rule="evenodd" clip-rule="evenodd" fill="#FFFFFF" d="M320,252.328c-0.404-0.02-0.807-0.038-1.211-0.057
		c-1.98-1.938-1.645-4.379-1.65-6.69c-0.053-20.135-0.018-40.27-0.054-60.404c-0.003-2.197,0.621-4.304,0.718-6.472
		c0.438-0.854,1.315-0.965,2.197-1.067C320,202.535,320,227.431,320,252.328z"/>
	<path fill-rule="evenodd" clip-rule="evenodd" fill="#FFFFFF" d="M0.867,159.67l-0.482,0.073L0,159.471c0-24.56,0-49.12,0-73.679
		c0.903,0.016,1.791,0.066,2.34,0.867c0.721,3.151,0.568,6.345,0.567,9.532c-0.009,18.646,0.034,37.291-0.042,55.936
		C2.854,154.733,3.482,157.583,0.867,159.67z"/>
	<path fill-rule="evenodd" clip-rule="evenodd" fill="#FFFFFF" d="M1.165,252.292c-0.389,0.012-0.776,0.023-1.165,0.036
		c0-24.897,0-49.793,0-74.69c0.375,0.362,0.75,0.725,1.124,1.087c1.58,2.022,1.782,4.336,1.783,6.709
		c0.007,20.239,0.037,40.478-0.032,60.716C2.868,248.294,3.064,250.55,1.165,252.292z"/>
	<path fill-rule="evenodd" clip-rule="evenodd" fill="#FFFFFF" d="M83.708,124.434c2.742,0.082,4.667,1.525,6.773,2.479
		c18.412,8.336,36.783,16.745,55.198,25.075c2.266,1.024,3.819,1.942,3.801,4.738c-0.153,22.866-0.088,45.733-0.107,68.599
		c0,0.45-0.217,0.902-0.462,1.859c-3.652-1.635-7.107-3.159-10.544-4.722c-17.076-7.764-34.138-15.555-51.231-23.287
		c-2.244-1.015-3.912-1.906-3.895-4.721c0.141-22.697,0.078-45.396,0.099-68.095C83.341,125.736,83.573,125.112,83.708,124.434z"/>
	<path fill-rule="evenodd" clip-rule="evenodd" fill="#FFFFFF" d="M316.668,86.832c3.747,0.436,2.09,3.105,2.098,4.728
		c0.123,22.639,0.093,45.278,0.1,67.917c-21.748,10.035-43.495,20.069-65.82,30.37c0-24.216,0.055-47.71-0.07-71.204
		c-0.016-2.889,1.932-3.646,4.104-4.635C276.948,104.961,296.806,95.894,316.668,86.832z"/>
	<path fill-rule="evenodd" clip-rule="evenodd" fill="#FFFFFF" d="M236.393,216.061c0,24.075-0.031,47.573,0.05,71.072
		c0.009,2.237-1.094,3.272-3.103,4.182c-19.729,8.922-39.454,17.853-59.11,26.906c-3.293,1.516-3.986,0.886-3.972-2.288
		c0.102-22.017,0.125-44.034-0.035-66.05c-0.021-3.087,1.438-4.448,4.187-5.686C194.815,235.003,215.168,225.709,236.393,216.061z"
		/>
	<path fill-rule="evenodd" clip-rule="evenodd" fill="#FFFFFF" d="M149.407,320c-21.776-9.922-42.617-19.455-63.514-28.888
		c-2.28-1.03-2.605-2.495-2.603-4.477c0.037-22.197,0.07-44.393-0.029-66.588c-0.014-3.151,0.623-3.774,3.939-2.245
		c19.644,9.045,39.367,17.947,59.092,26.849c1.994,0.899,3.171,1.892,3.164,4.15C149.377,272.308,149.407,295.814,149.407,320z"/>
	<path fill-rule="evenodd" clip-rule="evenodd" fill="#FFFFFF" d="M0.867,159.67c0.082-22.452,0.143-44.904,0.29-67.357
		c0.013-1.901-0.899-4.067,1.183-5.654c19.992,9.074,39.979,18.155,59.984,27.209c2.147,0.973,4.281,1.575,4.269,4.493
		c-0.104,23.477-0.058,46.954-0.058,71.52C44.177,179.596,22.521,169.632,0.867,159.67z"/>
	<path fill-rule="evenodd" clip-rule="evenodd" fill="#FFFFFF" d="M170.326,227.461c0-24.448,0.028-47.964-0.047-71.481
		c-0.006-2.128,1.307-2.902,3.026-3.688c19.679-8.99,39.38-17.941,58.988-27.053c3.802-1.766,4.172-0.574,4.157,2.584
		c-0.099,22.184-0.058,44.368-0.034,66.552c0.002,1.716,0.006,3.139-2.147,4.107C213.25,207.939,192.281,217.494,170.326,227.461z"
		/>
	<path fill-rule="evenodd" clip-rule="evenodd" fill="#FFFFFF" d="M1.165,252.292c-0.014-24.522-0.027-49.045-0.041-73.567
		c20.848,9.451,41.682,18.927,62.566,28.311c2.123,0.954,2.886,2.095,2.879,4.24c-0.078,22.334-0.063,44.669-0.009,67.004
		c0.006,2.478-0.085,3.971-3.547,2.371C42.433,271.135,21.788,261.732,1.165,252.292z"/>
	<path fill-rule="evenodd" clip-rule="evenodd" fill="#FFFFFF" d="M317.803,178.705c1.735,1.1,1.013,2.756,1.015,4.16
		c0.027,23.135-0.008,46.271-0.028,69.406c-20.322,9.288-40.675,18.524-60.938,27.912c-3.628,1.681-4.917,1.703-4.882-2.566
		c0.181-21.818,0.147-43.638,0.006-65.456c-0.019-2.932,1.036-4.392,3.918-5.688C277.25,197.316,297.51,187.982,317.803,178.705z"/>
	<path fill-rule="evenodd" clip-rule="evenodd" fill="#FFFFFF" d="M87.516,106.297c23.172-10.413,45.931-20.624,68.663-30.883
		c1.938-0.875,3.631-1.268,5.753-0.317c22.744,10.188,45.526,20.308,68.291,30.457c0.318,0.142,0.558,0.434,1.292,1.026
		c-12.784,6.085-25.31,12.05-37.838,18.008c-10.334,4.915-20.713,9.757-30.979,14.786c-2.184,1.07-3.878,1.332-6.162,0.241
		c-22.605-10.795-45.267-21.498-67.903-32.241C88.325,107.229,88.126,106.898,87.516,106.297z"/>
	<path fill-rule="evenodd" clip-rule="evenodd" fill="#FFFFFF" d="M177.724,65.731c8.601-3.875,17.031-7.685,25.472-11.473
		c12.607-5.66,25.235-11.284,37.826-16.975c2.224-1.006,4.167-1.665,6.769-0.574c22.2,9.312,44.466,18.493,66.71,27.716
		c0.637,0.264,1.489,0.313,1.59,1.826c-8.668,4.158-17.589,8.462-26.534,12.724c-11.974,5.704-23.978,11.354-35.939,17.078
		c-2.215,1.06-4.113,1.677-6.73,0.516c-22.641-10.041-45.361-19.933-68.049-29.882C178.541,66.557,178.334,66.264,177.724,65.731z"
		/>
	<path fill-rule="evenodd" clip-rule="evenodd" fill="#FFFFFF" d="M1.912,66.562c13.041-5.537,24.898-10.584,36.768-15.608
		c10.581-4.479,21.175-8.933,31.763-13.401c1.826-0.771,3.41-1.54,5.684-0.512c21.396,9.67,42.864,19.207,64.307,28.792
		c0.109,0.049,0.14,0.24,0.342,0.615c-23.136,10.259-46.283,20.5-69.389,30.816c-1.747,0.78-3.078,0.585-4.664-0.164
		C45.546,87.097,24.352,77.127,1.912,66.562z"/>
</g>
</svg>
