<?xml version="1.0" encoding="utf-8"?>
<!-- Generator: Adobe Illustrator 16.0.3, SVG Export Plug-In . SVG Version: 6.00 Build 0)  -->
<!DOCTYPE svg PUBLIC "-//W3C//DTD SVG 1.1//EN" "http://www.w3.org/Graphics/SVG/1.1/DTD/svg11.dtd">
<svg version="1.1" id="Layer_1" xmlns="http://www.w3.org/2000/svg" xmlns:xlink="http://www.w3.org/1999/xlink" x="0px" y="0px"
	 width="320px" height="320px" viewBox="0 0 320 320" enable-background="new 0 0 320 320" xml:space="preserve">
<g>
	<path fill-rule="evenodd" clip-rule="evenodd" fill="#424242" d="M143.368,0.896c-0.187-0.404-0.373-0.809-0.56-1.213
		c5,0,10,0,15,0c-0.013,0.197,0.012,0.388,0.077,0.574c-3.734,0.017-7.468,0.055-11.202,0.04
		C145.528,0.292,144.412,0.356,143.368,0.896z"/>
	<path fill-rule="evenodd" clip-rule="evenodd" fill="#E4E4E4" d="M-0.317,155.933c1.957,1.458,1.915,2.917,0,4.375
		C-0.317,158.85-0.317,157.391-0.317,155.933z"/>
	<path fill-rule="evenodd" clip-rule="evenodd" fill="#FFFFFF" d="M315.614,131.092c-1.128-7.374-3.216-14.604-5.564-21.738
		c-3.959-12.025-9.268-23.414-15.878-34.165c-9.18-14.928-20.772-27.804-34.129-39.125c-7.16-6.069-14.575-11.765-22.835-16.287
		c-8.41-4.606-17.147-8.424-26.132-11.809c-4.994-1.881-10.199-2.803-15.241-4.395c-2.599-0.82-5.349-1.646-8.138-1.998
		c-10.125-1.279-20.287-1.816-30.487-1.572c-4.456,0.12-8.922-0.247-13.38,0.199c-1.957,0.259-3.976-0.001-5.88,0.5
		c-7.802,2.051-15.925,2.362-23.683,4.87c-7.024,2.271-14.057,4.559-20.703,7.668c-13.216,6.185-25.672,13.583-36.571,23.553
		c-8.47,7.748-16.511,15.837-23.634,24.809C24.641,72.583,17.823,84.73,12.245,97.565c-3.739,8.603-6.485,17.567-8.66,26.671
		c-1.857,7.775-2.734,15.732-3.278,23.716c-0.138,2.039,0.562,4.173-0.624,6.105c0,0.625,0,1.25,0,1.875
		c0.908,1.458,0.908,2.917,0,4.375c0,0.833,0,1.666,0,2.5c1.248,4.14,0.599,8.435,0.989,12.649c0.703,7.576,1.656,15.101,3.71,22.43
		c2.104,7.507,4.27,14.99,7.279,22.222c3.529,8.48,7.584,16.724,12.503,24.416c8.671,13.559,19.268,25.533,31.32,36.284
		c8.448,7.536,17.645,13.859,27.431,19.45c11.379,6.502,23.646,10.74,36.172,14.284c6.095,1.725,12.319,2.931,18.656,3.551
		c5.982,0.586,11.949,1.055,17.975,1.046c6.413-0.01,12.842,0.144,19.224-0.379c16.315-1.335,31.973-5.617,46.881-12.198
		c13.057-5.763,25.543-12.63,36.31-22.296c11.021-9.894,21.633-20.088,30.185-32.313c7.018-10.031,12.955-20.601,17.647-31.883
		c2.475-5.949,4.423-12.072,6.237-18.266c1.58-5.399,3.014-10.847,3.738-16.363c0.633-4.825,1.176-9.699,1.646-14.564
		C318.876,157.5,317.629,144.252,315.614,131.092z M262.489,243.632c-22.834,28.281-52.937,44.603-88.713,48.835
		c-36.063,4.268-69.306-5.003-98.043-27.517c-31.068-24.339-47.751-57.123-50.189-96.133c-2.405-38.479,9.84-72.725,36.426-101.101
		c22.063-23.549,49.602-37.63,81.473-41.147c38.76-4.277,74.204,5.454,103.888,31.634c29.959,26.421,44.54,60.133,45.103,96.234
		C292.32,190.172,282.528,218.811,262.489,243.632z"/>
	<path fill-rule="evenodd" clip-rule="evenodd" fill="#FFFFFF" d="M266.198,122.867c6.962,0,12.427,3.393,13.814,8.401
		c2.188,7.901-2.04,14.797-9.958,17.396c-5.244,1.722-10.671,2.411-15.994,3.138c-6.554,0.896-12.375-5.1-13.052-11.91
		c-0.752-7.563,3.177-12.488,10.739-14.497C256.598,124.107,261.36,122.502,266.198,122.867z"/>
	<path fill-rule="evenodd" clip-rule="evenodd" fill="#FFFFFF" d="M250.828,83.333c5.109,0.011,10.166,3.409,11.854,7.965
		c1.848,4.985,0.314,11.747-3.743,14.902c-4.141,3.22-8.341,6.443-12.859,9.073c-5.002,2.911-11.977,2.821-15.887-1.077
		c-5.387-5.369-5.36-12.235-1.854-17.518c1.855-2.796,4.295-4.538,6.836-6.332c2.34-1.653,4.589-3.415,6.878-5.129
		C244.605,83.303,247.747,83.254,250.828,83.333z"/>
	<path fill-rule="evenodd" clip-rule="evenodd" fill="#FFFFFF" d="M242.169,176.117c0.026-6.404,2.998-11.538,7.863-12.686
		c3.214-0.757,6.614-0.48,9.903-0.037c3.315,0.446,6.584,1.229,9.894,1.732c6.557,0.996,14.155,9.359,10.86,17.43
		c-1.61,3.943-4.623,6.173-7.577,8.63c-1.608,1.338-3.841,1.129-5.682,0.729c-5.081-1.105-10.326-1.258-15.328-2.796
		c-3.199-0.984-5.736-2.946-8.123-5.147C241.617,181.794,242.224,178.864,242.169,176.117z"/>
	<path fill-rule="evenodd" clip-rule="evenodd" fill="#FFFFFF" d="M39.08,181.355c-0.825-5.227,2.099-9.203,6.491-11.465
		c3.363-1.731,7.36-2.844,11.327-2.863c2.997-0.015,5.613-1.454,8.716-1.403c8.384,0.137,15.805,9.086,10.6,18.818
		c-2.717,5.08-6.985,7.664-12.815,8.297c-2.305,0.25-4.685,1.307-7.057,1.661c-3.288,0.49-6.572,1.222-9.938-0.487
		C41.278,191.31,38.678,187.474,39.08,181.355z"/>
	<path fill-rule="evenodd" clip-rule="evenodd" fill="#FFFFFF" d="M180.548,38.612c8.354,0.004,14.49,7.06,12.613,15.422
		c-1.219,5.425-1.99,10.96-3.818,16.333c-2.533,7.442-14.207,10.47-19.673,5.076c-4.318-4.261-5.917-8.826-4.403-14.741
		c1.059-4.136,1.044-8.465,2.514-12.603c1.477-4.157,3.876-7.008,7.825-8.88C177.366,38.386,179.064,38.851,180.548,38.612z"/>
	<path fill-rule="evenodd" clip-rule="evenodd" fill="#FFFFFF" d="M52.919,125.977c6.259,0.26,12.36,1.356,18.002,3.566
		c3.209,1.256,5.444,4.775,6.619,8.252c2.008,5.945-1.859,13.595-7.73,16.01c-3.692,1.519-7.572,0.963-11.078,0.091
		c-3.803-0.946-7.76-1.087-11.494-2.709c-4.522-1.965-8.256-5.796-8.353-10.462c-0.137-6.625,1.702-11.426,8.015-14.15
		C48.948,125.69,50.991,126.25,52.919,125.977z"/>
	<path fill-rule="evenodd" clip-rule="evenodd" fill="#FFFFFF" d="M98.654,55.648c5.334-0.655,8.234,2.855,10.952,6.528
		c1.955,2.641,3.548,5.556,5.578,8.132c7.103,9.016,2.775,19.343-7.07,22.805c-4.316,1.517-10.312-1.294-13.798-6.314
		c-2.566-3.693-5.188-7.372-7.417-11.269c-2.331-4.078-2.735-8.818-0.441-12.779C88.988,58.382,91.012,55.099,98.654,55.648z"/>
	<path fill-rule="evenodd" clip-rule="evenodd" fill="#FFFFFF" d="M79.238,119.9c-5.52,0.618-8.822-3.598-12.888-5.912
		c-2.878-1.637-5.53-3.783-7.99-6.023c-4.228-3.85-4.044-12.903-0.59-17.44c4.257-5.592,13.768-5.995,19.407-1.181
		c2.63,2.246,5.828,3.654,8.535,5.677c4.11,3.072,7.295,7.359,6.843,12.741c-0.391,4.653-3.511,8.25-7.493,10.641
		C83.416,119.392,81.197,119.43,79.238,119.9z"/>
	<path fill-rule="evenodd" clip-rule="evenodd" fill="#FFFFFF" d="M137.916,39.23c8.184-1.082,11.632,5.817,12.91,11.635
		c0.812,3.695,1.356,7.449,2.034,11.175c1.702,9.367-5.561,18.841-16.646,16.02c-3.874-0.986-6.599-4.385-8.003-8.146
		c-2.084-5.582-3.299-11.464-3.469-17.424C124.493,43.824,129.251,39.219,137.916,39.23z"/>
	<path fill-rule="evenodd" clip-rule="evenodd" fill="#FFFFFF" d="M199.833,79.71c-0.853-4.221,0.893-7.299,3.306-10.328
		c2.487-3.122,4.268-6.748,6.757-9.923c5.831-7.438,16.329-6.74,21.13,1.41c2.645,4.488,2.836,8.748-0.006,13.102
		c-2.81,4.302-5.563,8.646-8.523,12.844c-2.295,3.255-5.92,4.687-9.551,5.746c-2.9,0.847-5.46-1.026-7.701-2.4
		C201.451,87.833,198.425,84.666,199.833,79.71z"/>
	<path fill-rule="evenodd" clip-rule="evenodd" fill="#FE0000" d="M182.279,162.631c0.169-10.384-3.871-17.378-11.999-21.754
		c-4.786-2.578-10.229-3.336-15.46-1.927c-4.242,1.144-8.259,3.271-12.356,4.935c-8.315,3.375-16.743,6.524-25.135,9.738
		c-6.543,2.505-12.893,5.491-19.578,7.647c-4.056,1.307-5.438,3.517-5.568,8.12c-0.117,4.17,2.002,8.155,5.277,9.341
		c1.211,0.438,2.681,0.117,4.021,0.254c7.743,0.79,15.473,2.146,23.227,2.293c9.871,0.188,19.646,1.147,29.461,1.901
		c5.414,0.415,10.951,0.943,16.136-2.288C177.598,176.345,182.914,170.905,182.279,162.631z M159.896,166.896
		c-3.592,0.028-7.223-0.158-10.771-0.686c-3.613-0.536-7.207-0.495-10.818-0.516c-1.051-0.006-2.333-0.067-2.503-1.144
		c-0.117-0.735,0.949-1.653,1.847-1.838c7.295-1.503,13.75-5.323,20.811-7.456c0.583-0.176,1.187-0.275,1.356-0.314
		c3.125-0.034,6.499,2.962,6.655,5.508C166.694,164.098,164.07,166.863,159.896,166.896z"/>
</g>
</svg>
