<?xml version="1.0" encoding="utf-8"?>
<!-- Generator: Adobe Illustrator 16.0.3, SVG Export Plug-In . SVG Version: 6.00 Build 0)  -->
<!DOCTYPE svg PUBLIC "-//W3C//DTD SVG 1.1//EN" "http://www.w3.org/Graphics/SVG/1.1/DTD/svg11.dtd">
<svg version="1.1" id="Layer_1" xmlns="http://www.w3.org/2000/svg" xmlns:xlink="http://www.w3.org/1999/xlink" x="0px" y="0px"
	 width="320px" height="320px" viewBox="0 0 320 320" enable-background="new 0 0 320 320" xml:space="preserve">
<g>
	<path fill="#00AEEF" d="M143.368,0.896c-0.187-0.404-0.373-0.809-0.56-1.213c5,0,10,0,15,0c-0.013,0.197,0.012,0.388,0.077,0.574
		c-3.734,0.017-7.468,0.055-11.202,0.04C145.528,0.292,144.412,0.356,143.368,0.896z"/>
	<path fill="#00AEEF" d="M-0.317,155.933c1.957,1.458,1.915,2.917,0,4.375C-0.317,158.85-0.317,157.391-0.317,155.933z"/>
	<path fill="#00AEEF" d="M315.614,131.092c-1.128-7.374-3.216-14.604-5.564-21.738c-3.959-12.025-9.268-23.414-15.878-34.165
		c-9.18-14.928-20.771-27.804-34.129-39.125c-7.16-6.069-14.574-11.765-22.835-16.287c-8.41-4.606-17.147-8.424-26.132-11.809
		c-4.994-1.881-10.199-2.803-15.241-4.395c-2.599-0.82-5.349-1.646-8.138-1.998c-10.125-1.279-20.287-1.816-30.487-1.572
		c-4.456,0.12-8.922-0.247-13.38,0.199c-1.957,0.259-3.976-0.001-5.88,0.5c-7.802,2.051-15.925,2.362-23.683,4.87
		c-7.024,2.271-14.057,4.559-20.703,7.668c-13.216,6.185-25.672,13.583-36.571,23.553c-8.47,7.748-16.511,15.837-23.634,24.809
		C24.641,72.583,17.823,84.73,12.245,97.565c-3.739,8.603-6.485,17.567-8.66,26.671c-1.857,7.775-2.734,15.732-3.278,23.716
		c-0.138,2.039,0.562,4.173-0.624,6.105c0,0.625,0,1.25,0,1.875c0.908,1.458,0.908,2.917,0,4.375c0,0.833,0,1.666,0,2.5
		c1.248,4.142,0.599,8.437,0.989,12.649c0.703,7.576,1.656,15.101,3.71,22.43c2.104,7.507,4.27,14.99,7.279,22.222
		c3.529,8.48,7.584,16.726,12.503,24.416c8.671,13.561,19.268,25.533,31.32,36.285c8.448,7.535,17.645,13.858,27.431,19.449
		c11.379,6.502,23.646,10.74,36.172,14.284c6.095,1.726,12.319,2.931,18.656,3.551c5.982,0.587,11.949,1.056,17.975,1.046
		c6.413-0.01,12.843,0.146,19.224-0.379c16.315-1.335,31.975-5.617,46.883-12.197c13.057-5.764,25.543-12.631,36.31-22.297
		c11.021-9.894,21.634-20.088,30.187-32.313c7.018-10.031,12.955-20.602,17.646-31.883c2.477-5.949,4.423-12.072,6.237-18.266
		c1.58-5.4,3.014-10.849,3.738-16.363c0.633-4.825,1.176-9.699,1.646-14.564C318.876,157.5,317.629,144.252,315.614,131.092z
		 M262.489,243.632c-22.835,28.281-52.938,44.603-88.714,48.835c-36.063,4.268-69.306-5.003-98.042-27.517
		c-31.068-24.339-47.751-57.123-50.189-96.134c-2.405-38.479,9.84-72.726,36.426-101.102c22.063-23.549,49.603-37.63,81.473-41.147
		c38.76-4.277,74.204,5.454,103.888,31.634c29.959,26.421,44.54,60.133,45.103,96.234
		C292.32,190.172,282.527,218.811,262.489,243.632z"/>
	<path fill="#00AEEF" d="M266.198,122.867c6.962,0,12.427,3.393,13.813,8.401c2.188,7.901-2.039,14.797-9.957,17.396
		c-5.243,1.722-10.672,2.411-15.993,3.138c-6.556,0.896-12.375-5.1-13.054-11.91c-0.752-7.563,3.179-12.488,10.739-14.497
		C256.598,124.107,261.359,122.502,266.198,122.867z"/>
	<path fill="#00AEEF" d="M250.828,83.333c5.109,0.011,10.166,3.409,11.854,7.965c1.849,4.985,0.314,11.747-3.742,14.902
		c-4.142,3.22-8.342,6.443-12.858,9.073c-5.002,2.911-11.978,2.821-15.888-1.077c-5.387-5.369-5.359-12.235-1.854-17.518
		c1.854-2.796,4.295-4.538,6.836-6.332c2.342-1.653,4.59-3.415,6.878-5.129C244.605,83.303,247.747,83.254,250.828,83.333z"/>
	<path fill="#00AEEF" d="M242.169,176.117c0.026-6.404,2.998-11.538,7.863-12.686c3.214-0.759,6.614-0.48,9.903-0.037
		c3.313,0.444,6.584,1.229,9.894,1.73c6.558,0.996,14.155,9.357,10.86,17.432c-1.61,3.941-4.623,6.172-7.578,8.629
		c-1.607,1.338-3.84,1.129-5.683,0.729c-5.079-1.104-10.325-1.258-15.327-2.796c-3.199-0.984-5.735-2.946-8.123-5.146
		C241.617,181.794,242.225,178.863,242.169,176.117z"/>
	<path fill="#00AEEF" d="M39.08,181.355c-0.825-5.229,2.099-9.203,6.491-11.465c3.363-1.731,7.36-2.846,11.327-2.863
		c2.997-0.017,5.613-1.454,8.716-1.403c8.384,0.137,15.805,9.086,10.6,18.817c-2.717,5.08-6.985,7.664-12.815,8.297
		c-2.305,0.25-4.685,1.308-7.057,1.662c-3.288,0.49-6.572,1.222-9.938-0.487C41.278,191.311,38.678,187.475,39.08,181.355z"/>
	<path fill="#00AEEF" d="M180.548,38.612c8.354,0.004,14.49,7.06,12.613,15.422c-1.22,5.425-1.99,10.96-3.818,16.333
		c-2.532,7.442-14.206,10.47-19.673,5.076c-4.318-4.261-5.917-8.826-4.402-14.741c1.06-4.136,1.043-8.465,2.515-12.603
		c1.477-4.157,3.876-7.008,7.823-8.88C177.366,38.386,179.064,38.851,180.548,38.612z"/>
	<path fill="#00AEEF" d="M52.919,125.977c6.259,0.26,12.36,1.356,18.002,3.566c3.209,1.256,5.444,4.775,6.619,8.252
		c2.008,5.945-1.859,13.595-7.73,16.01c-3.692,1.519-7.572,0.963-11.078,0.091c-3.803-0.946-7.76-1.087-11.494-2.709
		c-4.522-1.965-8.256-5.796-8.354-10.462c-0.137-6.625,1.702-11.426,8.015-14.15C48.948,125.69,50.991,126.25,52.919,125.977z"/>
	<path fill="#00AEEF" d="M98.654,55.648c5.334-0.655,8.233,2.855,10.952,6.528c1.955,2.641,3.548,5.556,5.578,8.132
		c7.103,9.016,2.775,19.343-7.07,22.805c-4.316,1.517-10.313-1.294-13.798-6.314c-2.566-3.693-5.188-7.372-7.417-11.269
		c-2.331-4.078-2.735-8.818-0.441-12.779C88.988,58.382,91.012,55.099,98.654,55.648z"/>
	<path fill="#00AEEF" d="M79.238,119.9c-5.521,0.618-8.822-3.598-12.888-5.912c-2.878-1.637-5.53-3.783-7.99-6.023
		c-4.228-3.85-4.044-12.903-0.59-17.44c4.257-5.592,13.768-5.995,19.407-1.181c2.63,2.246,5.828,3.654,8.535,5.677
		c4.11,3.072,7.295,7.359,6.843,12.741c-0.391,4.653-3.511,8.25-7.493,10.641C83.416,119.392,81.197,119.43,79.238,119.9z"/>
	<path fill="#00AEEF" d="M137.916,39.23c8.184-1.082,11.632,5.817,12.91,11.635c0.812,3.695,1.356,7.449,2.034,11.175
		c1.702,9.367-5.561,18.841-16.646,16.02c-3.874-0.986-6.599-4.385-8.003-8.146c-2.084-5.582-3.299-11.464-3.469-17.424
		C124.493,43.824,129.251,39.219,137.916,39.23z"/>
	<path fill="#00AEEF" d="M199.833,79.71c-0.853-4.221,0.894-7.299,3.306-10.328c2.487-3.122,4.27-6.748,6.758-9.923
		c5.83-7.438,16.328-6.74,21.129,1.41c2.646,4.488,2.836,8.748-0.006,13.102c-2.81,4.302-5.563,8.646-8.521,12.844
		c-2.295,3.255-5.92,4.687-9.552,5.746c-2.899,0.847-5.46-1.026-7.7-2.4C201.451,87.833,198.425,84.666,199.833,79.71z"/>
	<path fill="#00ADEF" d="M157.468,202.421c10.378-0.43,17.128-4.864,21.026-13.231c2.301-4.924,2.746-10.4,1.041-15.541
		c-1.389-4.172-3.743-8.062-5.639-12.053c-3.85-8.111-7.478-16.343-11.166-24.536c-2.876-6.389-6.224-12.557-8.758-19.108
		c-1.539-3.974-3.825-5.226-8.428-5.091c-4.169,0.121-8.026,2.468-9.021,5.805c-0.37,1.234,0.036,2.684-0.024,4.029
		c-0.343,7.777-1.253,15.57-0.956,23.321c0.38,9.862-0.014,19.675-0.205,29.52c-0.104,5.431-0.313,10.987,3.211,15.979
		C143.508,198.535,149.244,203.527,157.468,202.421z M151.924,180.318c-0.235-3.584-0.258-7.219,0.065-10.795
		c0.327-3.635,0.077-7.224-0.107-10.829c-0.053-1.051-0.069-2.332,0.998-2.566c0.727-0.159,1.706,0.853,1.94,1.737
		c1.92,7.194,6.104,13.423,8.639,20.349c0.213,0.573,0.346,1.174,0.393,1.34c0.215,3.113-2.584,6.655-5.117,6.957
		C155.108,186.943,152.198,184.482,151.924,180.318z"/>
</g>
</svg>
