<?xml version="1.0" encoding="utf-8"?>
<!-- Generator: Adobe Illustrator 16.0.3, SVG Export Plug-In . SVG Version: 6.00 Build 0)  -->
<!DOCTYPE svg PUBLIC "-//W3C//DTD SVG 1.1//EN" "http://www.w3.org/Graphics/SVG/1.1/DTD/svg11.dtd">
<svg version="1.1" id="Layer_1" xmlns="http://www.w3.org/2000/svg" xmlns:xlink="http://www.w3.org/1999/xlink" x="0px" y="0px"
	 width="320px" height="320px" viewBox="0 0 320 320" enable-background="new 0 0 320 320" xml:space="preserve">
<g>
	<path fill="#FFFFFF" d="M304.945,62.772c-32.687-14.498-65.338-29.074-98.127-43.333C191.604,12.821,176.881,5.024,161-0.037
		c-1,0-2,0-3,0c-3.396,1.295-6.958,2.029-10.315,3.541c-9.553,4.302-19.126,8.563-28.713,12.792
		C80.928,33.073,42.964,50.03,4.83,66.601c-1.853,0.805-3.567,1.787-4.867,3.378c0,60.014,0,120.028,0,180.042
		c1.013,1.117,2.128,2.076,3.555,2.668c6.605,2.744,13.085,5.771,19.625,8.662c30.27,13.379,60.514,26.817,90.825,40.104
		c14.588,6.393,28.813,13.674,44.031,18.582c1,0,2.001,0,3,0c6.338-1.516,12.137-4.428,18.033-7.055
		c45.118-20.103,90.321-40.01,135.537-59.896c2.147-0.945,4.315-1.805,5.467-4.066c0-59.346,0-118.692,0-178.04
		C316.215,66.045,310.15,65.081,304.945,62.772z M301.518,101.006c0.002,17.977-0.063,35.955,0.066,53.932
		c0.023,3.267-0.906,4.862-4.121,6.25c-17.008,7.334-33.883,14.984-50.725,22.695c-3.029,1.387-3.924,1.238-3.852-2.359
		c0.19-9.651,0.063-19.309,0.067-28.961c0.004-9.489,0.088-18.978-0.05-28.464c-0.038-2.689,0.724-3.995,3.365-5.141
		c16.398-7.108,32.672-14.502,48.994-21.786C300.793,94.704,301.518,95.163,301.518,101.006z M102.186,43.146
		c18.056-7.38,36.117-14.745,54.17-22.131c1.348-0.551,2.418-1.267,4.154-0.552c19.102,7.868,38.264,15.596,57.405,23.377
		c0.271,0.111,0.469,0.413,1.069,0.965c-9.1,4-18.004,7.944-26.932,11.832c-9.99,4.351-20.027,8.601-29.99,13.014
		c-2.081,0.921-3.731,1.244-6.036,0.238c-17.715-7.738-35.525-15.257-53.292-22.877c-1.088-0.466-2.88-0.222-2.736-2.243
		C100.098,43.386,101.329,43.496,102.186,43.146z M17.792,99.97c-0.055-4.51,1.641-4.666,4.907-3.197
		c17.054,7.67,34.082,15.401,51.182,22.967c2.35,1.04,2.601,2.551,2.585,4.697c-0.068,9.501-0.029,19.003-0.034,28.504
		c-0.005,9.667-0.1,19.336,0.048,29.004c0.051,3.308-0.546,4.052-3.835,2.537c-16.687-7.67-33.429-15.227-50.261-22.573
		c-3.367-1.468-4.637-3.176-4.593-6.933C18.001,136.643,18.016,118.304,17.792,99.97z M71.651,264.555
		c-16.937-7.568-33.88-15.123-50.865-22.582c-2.118-0.932-2.968-2.057-2.956-4.44c0.101-19.152,0.109-38.304,0.035-57.455
		c-0.021-5.236,2.988-3.068,5.133-2.147c8.509,3.646,16.943,7.469,25.398,11.239c8.17,3.646,16.258,7.49,24.538,10.865
		c2.912,1.188,3.586,2.795,3.546,5.629c-0.133,9.323-0.05,18.649-0.047,27.978c0.003,9.325-0.185,18.655,0.083,27.975
		C76.649,266.18,74.81,265.967,71.651,264.555z M74.871,104.343c-17.303-8.3-34.793-16.208-52.206-24.28
		c-0.959-0.445-2.6-0.198-2.607-1.81c-0.007-1.447,1.363-1.658,2.426-2.096C41.28,68.4,60.077,60.648,78.855,52.85
		c2.432-1.01,4.704-1.189,7.195-0.111c18.8,8.143,37.63,16.218,57.617,24.815c-9.7,4.219-18.316,7.947-26.916,11.711
		c-11.354,4.969-22.694,9.97-34.042,14.95C80.123,105.349,77.884,105.788,74.871,104.343z M149.976,186.471
		c0,9.164-0.233,18.336,0.101,27.488c0.162,4.451-1.074,4.535-4.601,2.936c-17.29-7.848-34.653-15.535-52.01-23.237
		c-1.914-0.849-2.548-2.048-2.537-4.187c0.095-18.826,0.105-37.655,0.012-56.48c-0.019-3.826,1.372-4.888,4.816-3.356
		c16.964,7.546,33.91,15.135,50.908,22.604c2.466,1.083,3.417,2.509,3.373,5.244C149.88,167.143,149.976,176.807,149.976,186.471z
		 M149.979,265.947c0,9.156,0.023,18.313-0.009,27.471c-0.018,5.172-0.731,5.705-5.307,3.697
		c-17.085-7.504-34.129-15.1-51.222-22.584c-1.993-0.871-2.515-2.086-2.506-4.172c0.079-19.146,0.132-38.293-0.023-57.438
		c-0.032-3.93,0.913-4.521,4.426-2.91c13.032,5.982,26.158,11.757,39.247,17.611c3.465,1.553,6.854,3.301,10.401,4.631
		c3.708,1.396,5.329,3.438,5.12,7.728C149.685,248.617,149.979,257.289,149.979,265.947z M154.715,141.246
		c-18.702-8.83-37.558-17.335-56.336-26.005c-0.947-0.438-2.354-0.576-2.439-2.156c-0.09-1.646,1.335-1.833,2.278-2.251
		c18.962-8.398,37.953-16.732,56.93-25.098c1.911-0.842,3.978-1.28,5.833-0.48c20.681,8.917,41.313,17.935,62.414,27.122
		c-6.979,4.932-14.64,7.386-21.756,10.859c-12.634,6.165-25.556,11.732-38.229,17.816
		C160.313,142.538,157.966,142.781,154.715,141.246z M227.963,188.965c0.012,2.318-0.725,3.734-2.797,4.652
		c-18.604,8.232-37.195,16.492-56.281,24.963c0-7.258,0-14.033,0-20.809c0-13.486,0.051-26.974-0.049-40.458
		c-0.018-2.382,0.361-3.975,2.809-5.04c17.717-7.719,35.418-15.483,53.031-23.436c3.008-1.359,3.279-0.513,3.271,2.187
		C227.885,150.337,227.875,169.652,227.963,188.965z M227.938,269.523c0.006,2.145-0.246,3.606-2.58,4.631
		c-18.733,8.227-37.396,16.607-56.477,25.117c0-21.088,0.035-41.728-0.049-62.365c-0.01-2.32,1.172-3.172,2.969-3.967
		c17.443-7.715,34.879-15.441,52.283-23.244c3.23-1.447,3.902-0.428,3.883,2.818C227.852,231.516,227.885,250.521,227.938,269.523z
		 M237.215,104.737c-20.484-8.901-41.037-17.643-61.561-26.449c-0.248-0.106-0.379-0.491-0.805-1.076
		c10.405-4.654,20.717-9.295,31.053-13.875c7.68-3.403,15.436-6.64,23.076-10.126c3.379-1.542,6.867-2.019,10.164-0.699
		c19.485,7.802,38.893,15.8,58.317,23.754c0.438,0.18,0.776,0.605,1.785,1.417c-12.517,5.815-24.66,11.457-36.806,17.101
		c-6.887,3.201-13.78,6.393-20.653,9.622C240.279,105.114,239.049,105.535,237.215,104.737z M301.539,236.432
		c0.004,2.082-0.018,3.699-2.443,4.769c-18.156,7.983-36.242,16.133-54.356,24.215c-0.423,0.188-0.921,0.207-1.777,0.387
		c0-14.973,0-29.762,0-44.547c-0.002-5,0.347-10.032-0.116-14.991c-0.386-4.125,1.364-5.791,4.868-7.312
		c16.386-7.104,32.681-14.423,48.938-21.806c3.32-1.508,4.984-2.002,4.938,2.783C301.398,198.762,301.498,217.598,301.539,236.432z"
		/>
</g>
</svg>
