<?xml version="1.0" encoding="utf-8"?>
<!-- Generator: Adobe Illustrator 16.0.3, SVG Export Plug-In . SVG Version: 6.00 Build 0)  -->
<!DOCTYPE svg PUBLIC "-//W3C//DTD SVG 1.1//EN" "http://www.w3.org/Graphics/SVG/1.1/DTD/svg11.dtd">
<svg version="1.1" id="Layer_1" xmlns="http://www.w3.org/2000/svg" xmlns:xlink="http://www.w3.org/1999/xlink" x="0px" y="0px"
	 width="320px" height="320px" viewBox="0 0 320 320" enable-background="new 0 0 320 320" xml:space="preserve">
<g>
	<path fill="#00AEEF" d="M160.559,0c6.342,4.495,14.086,6.486,21.205,9.567c13.707,5.934,27.649,11.422,41.484,17.117
		c0.785,0.323,1.477,0.835,3.006,1.718c-6.814,3.119-12.966,6.002-19.184,8.766c-14.478,6.433-28.985,12.81-43.485,19.204
		c-2.147,0.947-4.104,1.972-6.774,0.793c-21.313-9.405-42.689-18.69-64.966-28.413c9.706-4.126,18.633-7.946,27.582-11.72
		c11.929-5.031,23.879-10.024,35.815-15.041c1.161-0.487,2.475-0.799,3.086-1.992C159.07,0,159.813,0,160.559,0z"/>
	<path fill="#00AEEF" d="M316.668,86.832c0.765-1.256,2.07-1.091,3.332-1.04c0,24.56,0,49.12,0,73.679
		c-0.378,0.002-0.757,0.004-1.135,0.006c-2.406-2.405-1.672-5.391-1.714-8.174C316.834,129.813,317.664,108.317,316.668,86.832z"/>
	<path fill="#00AEEF" d="M320,252.328c-0.404-0.02-0.807-0.038-1.211-0.057c-1.98-1.938-1.646-4.379-1.65-6.69
		c-0.053-20.136-0.018-40.271-0.054-60.404c-0.003-2.196,0.621-4.304,0.718-6.472c0.438-0.854,1.315-0.965,2.197-1.066
		C320,202.535,320,227.432,320,252.328z"/>
	<path fill="#00AEEF" d="M0.867,159.67l-0.482,0.073L0,159.471c0-24.56,0-49.12,0-73.679c0.903,0.016,1.791,0.066,2.34,0.867
		c0.721,3.151,0.568,6.345,0.567,9.532c-0.009,18.646,0.034,37.291-0.042,55.936C2.854,154.733,3.482,157.583,0.867,159.67z"/>
	<path fill="#00AEEF" d="M1.165,252.292c-0.389,0.013-0.776,0.022-1.165,0.036c0-24.896,0-49.793,0-74.689
		c0.375,0.361,0.75,0.725,1.124,1.086c1.58,2.022,1.782,4.336,1.783,6.709c0.007,20.239,0.037,40.479-0.032,60.717
		C2.868,248.294,3.064,250.55,1.165,252.292z"/>
	<path fill="#00AEEF" d="M83.708,124.434c2.742,0.082,4.667,1.525,6.773,2.479c18.412,8.336,36.783,16.745,55.198,25.075
		c2.266,1.024,3.819,1.942,3.801,4.738c-0.153,22.866-0.088,45.733-0.107,68.599c0,0.45-0.217,0.901-0.462,1.858
		c-3.652-1.635-7.107-3.158-10.544-4.722c-17.076-7.764-34.138-15.555-51.231-23.287c-2.244-1.015-3.912-1.905-3.895-4.721
		c0.141-22.697,0.078-45.396,0.099-68.095C83.341,125.736,83.573,125.112,83.708,124.434z"/>
	<path fill="#00AEEF" d="M316.668,86.832c3.747,0.436,2.09,3.105,2.098,4.728c0.123,22.639,0.094,45.278,0.101,67.917
		c-21.748,10.035-43.495,20.069-65.82,30.371c0-24.217,0.056-47.71-0.069-71.205c-0.017-2.889,1.932-3.646,4.104-4.635
		C276.948,104.961,296.807,95.894,316.668,86.832z"/>
	<path fill="#00AEEF" d="M236.393,216.061c0,24.075-0.031,47.573,0.051,71.072c0.009,2.237-1.094,3.271-3.104,4.182
		c-19.729,8.922-39.453,17.854-59.109,26.906c-3.293,1.516-3.986,0.887-3.973-2.287c0.102-22.018,0.125-44.035-0.035-66.051
		c-0.021-3.087,1.438-4.447,4.188-5.686C194.814,235.003,215.168,225.709,236.393,216.061z"/>
	<path fill="#00AEEF" d="M149.407,320c-21.776-9.922-42.617-19.455-63.514-28.889c-2.28-1.029-2.605-2.494-2.603-4.477
		c0.037-22.197,0.07-44.393-0.029-66.588c-0.014-3.15,0.623-3.773,3.939-2.245c19.644,9.046,39.367,17.947,59.092,26.849
		c1.994,0.899,3.171,1.893,3.164,4.15C149.377,272.309,149.407,295.814,149.407,320z"/>
	<path fill="#00AEEF" d="M0.867,159.67c0.082-22.452,0.143-44.904,0.29-67.357c0.013-1.901-0.899-4.067,1.183-5.654
		c19.992,9.074,39.979,18.155,59.984,27.209c2.147,0.973,4.281,1.575,4.269,4.493c-0.104,23.477-0.058,46.954-0.058,71.52
		C44.177,179.596,22.521,169.632,0.867,159.67z"/>
	<path fill="#00AEEF" d="M170.326,227.461c0-24.447,0.027-47.964-0.047-71.481c-0.006-2.128,1.307-2.902,3.025-3.688
		c19.68-8.99,39.381-17.941,58.988-27.053c3.803-1.766,4.172-0.574,4.157,2.584c-0.099,22.184-0.058,44.368-0.034,66.552
		c0.002,1.716,0.006,3.139-2.146,4.107C213.25,207.939,192.281,217.494,170.326,227.461z"/>
	<path fill="#00AEEF" d="M1.165,252.292c-0.014-24.522-0.027-49.045-0.041-73.567c20.848,9.451,41.682,18.928,62.566,28.312
		c2.123,0.954,2.886,2.095,2.879,4.239c-0.078,22.334-0.063,44.67-0.009,67.005c0.006,2.478-0.085,3.971-3.547,2.37
		C42.433,271.135,21.788,261.732,1.165,252.292z"/>
	<path fill="#00AEEF" d="M317.803,178.705c1.735,1.1,1.014,2.756,1.016,4.16c0.026,23.135-0.009,46.271-0.028,69.406
		c-20.322,9.287-40.675,18.523-60.938,27.912c-3.627,1.68-4.916,1.702-4.881-2.566c0.18-21.818,0.146-43.639,0.006-65.456
		c-0.02-2.933,1.035-4.392,3.918-5.688C277.25,197.316,297.51,187.982,317.803,178.705z"/>
	<path fill="#00AEEF" d="M87.516,106.297c23.172-10.413,45.931-20.624,68.663-30.883c1.938-0.875,3.631-1.268,5.752-0.317
		c22.744,10.188,45.526,20.308,68.291,30.457c0.318,0.142,0.559,0.434,1.293,1.026c-12.785,6.085-25.311,12.05-37.838,18.008
		c-10.335,4.915-20.714,9.757-30.979,14.786c-2.185,1.07-3.878,1.332-6.162,0.241c-22.605-10.795-45.267-21.498-67.903-32.241
		C88.325,107.229,88.126,106.898,87.516,106.297z"/>
	<path fill="#00AEEF" d="M177.725,65.731c8.601-3.875,17.03-7.685,25.471-11.473c12.607-5.66,25.236-11.284,37.826-16.975
		c2.225-1.006,4.168-1.665,6.77-0.574c22.2,9.312,44.466,18.493,66.71,27.716c0.637,0.264,1.489,0.313,1.59,1.826
		c-8.668,4.158-17.589,8.462-26.534,12.724c-11.974,5.704-23.978,11.354-35.938,17.078c-2.216,1.06-4.113,1.677-6.729,0.516
		c-22.642-10.041-45.361-19.933-68.05-29.882C178.541,66.557,178.334,66.264,177.725,65.731z"/>
	<path fill="#00AEEF" d="M1.912,66.562C14.953,61.025,26.81,55.978,38.68,50.954c10.581-4.479,21.175-8.933,31.763-13.401
		c1.826-0.771,3.41-1.54,5.684-0.512c21.396,9.67,42.864,19.207,64.307,28.792c0.109,0.049,0.14,0.24,0.342,0.615
		c-23.136,10.259-46.283,20.5-69.389,30.816c-1.747,0.78-3.078,0.585-4.664-0.164C45.546,87.097,24.352,77.127,1.912,66.562z"/>
</g>
</svg>
