<?xml version="1.0" encoding="utf-8"?>
<!-- Generator: Adobe Illustrator 16.0.3, SVG Export Plug-In . SVG Version: 6.00 Build 0)  -->
<!DOCTYPE svg PUBLIC "-//W3C//DTD SVG 1.1//EN" "http://www.w3.org/Graphics/SVG/1.1/DTD/svg11.dtd">
<svg version="1.1" id="Layer_1" xmlns="http://www.w3.org/2000/svg" xmlns:xlink="http://www.w3.org/1999/xlink" x="0px" y="0px"
	 width="320px" height="320px" viewBox="0 0 320 320" enable-background="new 0 0 320 320" xml:space="preserve">
<g>
	<path fill-rule="evenodd" clip-rule="evenodd" fill="#7EC242" d="M3.067,133.639c0.554-31.33,15.437-66.991,46.69-95.608
		c4.574-4.189,7.373-5.029,11.523,0.343c5.119,6.628,14.435,12.042,15.655,19.071c1.168,6.728-9.619,11.379-14.687,17.39
		c-38.902,46.135-31.454,116.701,16.834,152.971c6.271,4.71,7.799,7.911,2.505,13.741c-1.622,1.786-2.693,4.076-3.989,6.154
		c-10.127,16.225-10.125,16.226-25.134,3.689C21,225.106,3.071,186.248,3.067,133.639z"/>
	<path fill-rule="evenodd" clip-rule="evenodd" fill="#7EC242" d="M316.934,144.783c-2.006,46.237-19.801,84.132-57.129,112.302
		c-5.787,4.367-8.52,3.783-11.869-2.306c-3.873-7.046-11.596-13.395-12.129-20.462c-0.533-7.047,10.111-10.077,15.42-15.363
		c42.873-42.675,41.025-114.28-4.73-154.913c-5.551-4.93-6.699-8.034-0.873-12.791c1.344-1.098,2.406-2.543,3.592-3.835
		c14.93-16.263,14.961-16.292,30.449,0.618C304.775,75.447,315.887,108.256,316.934,144.783z"/>
	<path fill-rule="evenodd" clip-rule="evenodd" fill="#7EC242" d="M159.35,285.386c-19.961,0-19.909,0.004-18.385-19.545
		c2.177-27.928,4.182-55.871,6.482-83.79c0.384-4.674-0.828-7.314-4.897-10.142c-12.129-8.426-16.171-21.808-11.587-35.101
		c4.181-12.131,14.899-19.743,28.03-19.908c13.539-0.169,24.826,7.647,28.978,20.068c4.492,13.437,0.582,26.17-11.859,34.978
		c-4.172,2.953-4.977,5.801-4.615,10.337c2.363,29.677,4.395,59.38,6.814,89.051c1.146,14.075,1.428,14.053-12.652,14.052
		C163.557,285.386,161.453,285.386,159.35,285.386z"/>
	<path fill-rule="evenodd" clip-rule="evenodd" fill="#7EC242" d="M62.389,145.832c0.484-25.044,9.075-46.542,26.208-64.725
		c4.443-4.716,7.739-5.328,11.53,0.156c0.394,0.57,0.956,1.02,1.421,1.543c4.88,5.481,12.02,10.261,14.01,16.646
		c2.074,6.651-7.066,10.742-10.462,16.588c-13.248,22.813-10.515,49.784,8.286,68.479c5.044,5.018,5.921,8.348,0.79,13.522
		c-3.663,3.693-6.971,7.985-9.459,12.544c-4.603,8.436-8.738,6.061-14.12,0.764C72.185,193.234,62.952,171.312,62.389,145.832z"/>
	<path fill-rule="evenodd" clip-rule="evenodd" fill="#7EC242" d="M257.127,145.536c-0.396,25.363-9.408,47.037-27.346,65.046
		c-3.979,3.994-7.318,5.219-10.65-0.44c-0.176-0.299-0.451-0.535-0.674-0.806c-4.91-5.938-11.789-11.18-14.199-18
		c-2.691-7.614,7.32-11.127,10.736-17.236c12.156-21.742,9.74-48.344-7.951-67.084c-5.148-5.454-5.266-8.756,0.18-13.358
		c2.91-2.46,5.156-5.701,7.738-8.558c9.924-10.981,9.969-11.012,19.943,0.689C249.57,102.99,256.77,122.988,257.127,145.536z"/>
</g>
</svg>
