<?xml version="1.0" encoding="utf-8"?>
<!-- Generator: Adobe Illustrator 16.0.3, SVG Export Plug-In . SVG Version: 6.00 Build 0)  -->
<!DOCTYPE svg PUBLIC "-//W3C//DTD SVG 1.1//EN" "http://www.w3.org/Graphics/SVG/1.1/DTD/svg11.dtd">
<svg version="1.1" id="Layer_1" xmlns="http://www.w3.org/2000/svg" xmlns:xlink="http://www.w3.org/1999/xlink" x="0px" y="0px"
	 width="320px" height="320px" viewBox="0 0 320 320" enable-background="new 0 0 320 320" xml:space="preserve">
<g>
	<path fill-rule="evenodd" clip-rule="evenodd" fill="#00AEEF" d="M310.98,12.431c-6.754-7.567-14.703-12.172-24.951-12.467
		c-84.02,0-168.038,0-252.058,0C23.436,0.507,15.16,5.166,8.345,13.18C3.155,19.28,0.848,26.273-0.036,33.972
		c0,84.02,0,168.038,0,252.058c1.467,4.357,0.9,9.158,3.385,13.349c6.771,11.422,15.689,19.589,29.623,20.658
		c84.353,0,168.705,0,253.058,0c10.535-0.543,18.812-5.202,25.626-13.216c5.189-6.101,7.497-13.093,8.381-20.791
		c0-83.687,0-167.372,0-251.058C319.416,26.496,316.809,18.959,310.98,12.431z M303.897,287.225
		c-0.826,9.337-3.771,12.627-12.973,14.208c-2.606,0.448-5.299,0.575-7.95,0.576c-82.502,0.018-165.004,0.002-247.506-0.012
		c-1.333,0-2.672,0.03-3.998-0.079c-11.12-0.919-15.425-5.44-15.446-16.673C15.96,252.079,16,218.911,16,185.743
		c-0.001-49.168-0.01-98.335,0.025-147.503c0.001-2.649,0.119-5.346,0.616-7.938c1.271-6.628,4.138-9.19,10.855-10.607
		c3.144-0.663,6.288-0.685,9.449-0.686c41-0.014,82.001-0.009,123.002-0.01c40.501,0,81.002,0,121.502,0
		c1.334,0,2.668-0.011,4,0.003c14.016,0.145,18.534,4.644,18.54,18.72c0.031,81.502,0.031,163.004,0.036,244.506
		C304.026,283.896,304.044,285.567,303.897,287.225z"/>
	<path fill-rule="evenodd" clip-rule="evenodd" fill="#00AEEF" d="M61.917,80.905c7.335,0,14.673,0.122,22.003-0.055
		c3.294-0.079,5.649,0.996,7.771,3.518c16.419,19.507,32.891,38.97,49.445,58.36c2.774,3.25,2.911,6.107,0.132,9.274
		c-16.706,19.046-32.945,38.485-48.993,58.086c-2.257,2.757-5.042,4.097-8.681,4.07c-14.835-0.107-29.672-0.072-44.508-0.139
		c-1.237-0.006-2.944,0.675-3.568-0.901c-0.592-1.491,1.025-2.308,1.834-3.26c16.728-19.68,33.424-39.388,50.32-58.922
		c2.482-2.869,2.033-4.536-0.194-7.115C70.92,124.653,54.47,105.391,38.07,86.084c-1.068-1.259-3.461-2.46-2.337-4.448
		c0.854-1.508,3.08-0.639,4.68-0.655c7.168-0.071,14.336-0.03,21.504-0.03C61.917,80.936,61.917,80.921,61.917,80.905z"/>
	<path fill-rule="evenodd" clip-rule="evenodd" fill="#00AEEF" d="M222.979,170.923c19.977,0.003,39.956,0.126,59.933-0.085
		c4.833-0.052,6.387,1.567,6.25,6.345c-0.296,10.313-0.229,20.645-0.029,30.962c0.08,4.153-1.068,6.022-5.598,6.012
		c-40.287-0.1-80.577-0.074-120.865,0.044c-4.525,0.013-6.287-1.728-6.202-6.187c0.193-10.149,0.153-20.304,0.202-30.456
		c0.031-6.359,0.325-6.641,6.875-6.64C183.356,170.921,203.167,170.919,222.979,170.923z"/>
</g>
</svg>
