<?xml version="1.0" encoding="utf-8"?>
<!-- Generator: Adobe Illustrator 16.0.3, SVG Export Plug-In . SVG Version: 6.00 Build 0)  -->
<!DOCTYPE svg PUBLIC "-//W3C//DTD SVG 1.1//EN" "http://www.w3.org/Graphics/SVG/1.1/DTD/svg11.dtd">
<svg version="1.1" id="Layer_1" xmlns="http://www.w3.org/2000/svg" xmlns:xlink="http://www.w3.org/1999/xlink" x="0px" y="0px"
	 width="320px" height="320px" viewBox="0 0 320 320" enable-background="new 0 0 320 320" xml:space="preserve">
<g>
	<path fill-rule="evenodd" clip-rule="evenodd" fill="#00AEEF" d="M1,148.034c1.897-8.896,2.63-17.991,4.948-26.829
		c7.161-27.311,20.6-51.032,39.957-71.533c2.779-2.943,4.237-2.862,6.767,0.215c6.661,8.106,13.571,16.016,20.584,23.821
		c2.029,2.258,1.89,3.481-0.139,5.695c-22.697,24.768-33.108,54.065-32.09,87.585c1.645,54.16,45.24,102.998,98.598,112.282
		c64.09,11.152,125.867-30.152,138.798-93.444c8.214-40.201-2.046-75.8-29.425-106.348c-2.404-2.683-3.057-4.172-0.381-7.16
		c7.109-7.938,13.872-16.191,20.604-24.457c1.759-2.161,2.695-2.463,4.818-0.307c22.8,23.15,37.632,50.525,44.009,82.41
		c1.197,5.985,2.026,12.044,3.024,18.069c0,8.668,0,17.337,0,26.006c-1.062,6.354-0.648,12.844-1.962,19.196
		c-5.746,27.814-17.854,52.425-36.559,73.827c-23.818,27.255-53.52,44.346-88.827,51.949c-6.51,1.402-13.166,0.993-19.686,2.061
		c-8.669,0-17.338,0-26.006,0c-6.355-1.062-12.844-0.648-19.197-1.962c-27.814-5.746-52.425-17.854-73.827-36.559
		c-27.254-23.818-44.346-53.52-51.95-88.827C1.658,187.216,2.068,180.56,1,174.04C1,165.371,1,156.702,1,148.034z"/>
	<path fill-rule="evenodd" clip-rule="evenodd" fill="#00AEEF" d="M161.598,176.074c11.619-13.83,23.083-27.472,34.544-41.116
		c9.537-11.355,19.127-22.667,28.557-34.11c1.962-2.38,2.913-2.655,5.045-0.028c44.299,54.586,16.452,138.584-53.448,151.972
		c-44.964,8.611-90.934-21.712-102.211-67.641c-7.393-30.106-1.677-57.678,16.84-82.646c2.804-3.78,4.244-3.491,7.147-0.088
		c19.792,23.197,39.789,46.219,59.722,69.296C158.984,173.094,160.19,174.463,161.598,176.074z"/>
	<path fill-rule="evenodd" clip-rule="evenodd" fill="#00AEEF" d="M185.096,59.057c6.958,0.532,8.304-6.393,13.468-9.038
		c-5.15-2.538-11.586-2.282-13.607-6.051c-2.005-3.742-0.449-9.393-0.456-14.134c7.079,0.546,8.865-6.349,14.151-9.824
		c-13.273-0.508-16.066-8.248-14.609-19.01c-3.001,0-6.001,0-9.002,0c-0.062,0.657-0.165,1.312-0.178,1.969
		c-0.171,8.859-0.221,8.997-8.665,5.736C159.484,6.114,152.464,4.323,146.033,1c-7.335,0-14.67,0-22.005,0
		c0.543,2.701-1.044,6.689,3.19,7.356c7.765,1.223,9.09,6.059,8.116,12.693c-0.261,1.779-0.04,3.628-0.04,5.874
		c-3.531-1.25-6.623-2.362-9.728-3.435c-0.988-0.341-2.606-1.319-2.444,0.758c0.31,3.963,0.725,7.985,1.767,11.8
		c0.685,2.504,3.891,2.051,5.87,3.109c1.855,0.993,4.795,0.628,4.588,4.183c-0.241,4.13-0.056,8.284-0.056,12.959
		c-4.286-1.458-8.105-2.757-12.604-4.288c0.788,5.02,0.842,9.667,2.396,13.741c1.019,2.67,5.136,2.412,7.806,3.601
		c1.445,0.644,2.518,1.229,2.451,3.167c-0.149,4.295-0.046,8.599-0.046,13.222c-4.271-1.403-8.076-2.653-12.473-4.097
		c0.596,4.568,1.117,8.331,1.566,12.102c0.234,1.968,1.535,2.652,3.206,3.31c7.72,3.042,7.701,3.089,7.697,11.36
		c0,1.167,0.148,2.355-0.025,3.495c-0.61,4.022,1.044,6.835,3.978,9.545c6.24,5.762,12.327,11.716,18.116,17.926
		c2.308,2.475,3.129,1.518,5.267-0.131c9.037-6.973,13.916-18.725,26.376-21.989c3.477-0.911,6.021-5.377,9.387-8.588
		c-3.993-1.412-7.406-2.518-10.731-3.849c-1.148-0.459-3.082-0.469-3.173-2.017c-0.252-4.316-0.372-8.664-0.138-12.977
		c0.194-3.571,3.117,0.398,4.64-1.448c2.66-3.225,5.989-5.898,9.378-9.125c-4.091-1.535-7.483-2.857-10.914-4.075
		c-1.575-0.559-3.275-0.771-3.175-3.09c0.186-4.27,0.264-8.544,0.408-12.816C184.686,59.196,184.959,59.046,185.096,59.057z
		 M145.057,14.889c9.486,3.436,18.432,6.755,27.445,9.88c2.022,0.701,2.404,1.855,2.367,3.7c-0.08,3.975-0.024,7.952-0.024,12.723
		c-9.723-3.495-19.069-6.876-28.438-10.196c-1.234-0.437-1.344-1.303-1.347-2.319C145.051,24.251,145.057,19.825,145.057,14.889z
		 M162.112,125.91c-1.916,2.128-3.046,1.466-4.676-0.245c-3.331-3.498-6.869-6.796-10.275-10.224
		c-0.792-0.797-1.914-1.739-1.989-2.685c-0.22-2.805-1.009-6.368,0.344-8.266c1.343-1.883,4.392,0.691,6.62,1.445
		c7.196,2.438,14.332,5.055,21.81,7.715C169.712,118.006,165.778,121.837,162.112,125.91z M174.851,100.148
		c-9.686-3.473-18.967-6.835-28.281-10.107c-1.782-0.626-1.487-1.945-1.492-3.229c-0.016-4.146-0.006-8.293-0.006-13.021
		c9.479,3.433,18.58,6.799,27.743,9.988c1.879,0.654,2.07,1.778,2.053,3.383C174.819,91.297,174.851,95.432,174.851,100.148z
		 M174.584,70.536c-9.538-3.399-18.527-6.604-27.519-9.802c-1.382-0.491-2.291-1.276-2.006-2.907
		c0.028-0.161,0.013-0.332,0.002-0.497c-0.808-13.314-0.808-13.314,11.645-8.795c1.862,0.675,3.727,1.343,5.587,2.024
		C175.624,55.446,175.624,55.447,174.584,70.536z"/>
</g>
</svg>
