<?xml version="1.0" encoding="utf-8"?>
<!-- Generator: Adobe Illustrator 16.0.3, SVG Export Plug-In . SVG Version: 6.00 Build 0)  -->
<!DOCTYPE svg PUBLIC "-//W3C//DTD SVG 1.1//EN" "http://www.w3.org/Graphics/SVG/1.1/DTD/svg11.dtd">
<svg version="1.1" id="Layer_1" xmlns="http://www.w3.org/2000/svg" xmlns:xlink="http://www.w3.org/1999/xlink" x="0px" y="0px"
	 width="320px" height="320px" viewBox="0 0 320 320" enable-background="new 0 0 320 320" xml:space="preserve">
<g>
	<path fill="#9AC6D4" d="M147,320c-0.053-0.291-0.105-0.583-0.157-0.875c0.888-1.145,2.175-1.503,3.498-1.566
		c6.417-0.31,12.837-0.303,19.255-0.004c1.322,0.061,2.608,0.418,3.514,1.543c-0.07,0.297-0.106,0.598-0.108,0.902
		C164.333,320,155.666,320,147,320z"/>
	<path fill="#97C4D3" d="M0.912,173.094C0.606,173.08,0.303,173.049,0,173c0-8.333,0-16.667,0-25c0.28-0.13,0.574-0.18,0.881-0.15
		c1.28,1.026,1.55,2.5,1.608,3.985c0.229,5.751,0.223,11.504,0.004,17.257C2.438,170.577,2.169,172.048,0.912,173.094z"/>
	<path fill="#DBE1E3" d="M151.954,0.834C151.97,0.556,151.985,0.278,152,0c5.333,0,10.666,0,15.999,0
		c0.002,0.283,0.013,0.566,0.03,0.849C162.669,3.523,157.311,3.544,151.954,0.834z"/>
	<path fill="#E1E6E7" d="M320,167.999l-0.427,0.036l-0.429-0.016c-2.649-5.021-2.671-10.038,0.017-15.053
		c0.281-0.035,0.561-0.024,0.839,0.032C320,158,320,162.999,320,167.999z"/>
	<path fill="#00ADEF" d="M317.97,140.558c-5.423-41.832-24.437-76.377-56.719-103.313c-26.894-22.44-58.255-34.229-93.222-36.396
		c-5.358-0.005-10.717-0.01-16.075-0.015c-5.777,0.622-11.597,0.983-17.324,1.91c-30.292,4.9-57.266,17.252-80.118,37.69
		C22.52,69.048,4.274,104.813,0.882,147.851c0.01,8.415,0.021,16.829,0.03,25.243c3.806,75.271,70.149,141.662,145.932,146.031
		c8.756-0.01,17.509-0.02,26.263-0.029c36.983-3.121,69.141-17.404,96.015-42.841c30.976-29.317,47.339-65.69,50.024-108.233
		c0.005-5.019,0.01-10.036,0.016-15.054C318.771,148.83,318.505,144.677,317.97,140.558z M106.277,218.854
		c-6.041,6.435-12.197,12.761-18.096,19.32c-2.168,2.41-3.284,1.443-4.994-0.376c-23.479-25-46.964-49.998-70.606-74.843
		c-2.554-2.683-0.936-3.774,0.673-5.479c20.912-22.155,41.804-44.33,62.7-66.501c2.626-2.786,5.301-5.529,7.85-8.386
		c1.321-1.481,2.214-1.995,3.865-0.193c6.298,6.871,12.691,13.658,19.215,20.314c2.184,2.229,0.248,3.114-0.893,4.325
		c-15.64,16.604-31.224,33.262-47.022,49.713c-2.725,2.837-3.102,4.313-0.137,7.383c15.845,16.398,31.404,33.076,47.055,49.663
		c0.793,0.841,1.529,1.735,2.361,2.688C107.545,217.335,106.954,218.135,106.277,218.854z M197.986,70.573
		c-10.068,32.79-19.894,65.655-29.771,98.503c-7.907,26.294-15.927,52.555-23.545,78.931c-1.463,5.066-3.61,7.347-8.873,6.377
		c-1.451-0.268-2.992-0.041-4.492-0.041c-11.567,0-11.56,0.002-8.263-10.979c17.281-57.553,34.592-115.098,51.755-172.688
		c1.027-3.449,2.371-4.93,6.099-4.637c4.475,0.351,9.008,0.285,13.49,0.019C198.104,65.837,199.277,66.374,197.986,70.573z
		 M307.415,162.885c-23.698,25.021-47.334,50.102-70.912,75.237c-1.788,1.903-2.834,2.05-4.642,0.071
		c-5.948-6.518-11.969-12.973-18.17-19.25c-2.154-2.182-1.396-3.329,0.343-5.158c15.835-16.643,31.504-33.442,47.429-49.996
		c2.618-2.721,2.428-4.04-0.064-6.641c-15.783-16.465-31.334-33.153-47.067-49.668c-2.032-2.135-2.74-3.372-0.233-5.841
		c6.162-6.07,11.961-12.51,17.866-18.836c0.669-0.714,1.101-1.648,2.177-3.303c1.354,1.9,1.926,2.935,2.713,3.769
		c23.504,24.973,47.008,49.944,70.591,74.844C309.212,159.981,309.166,161.037,307.415,162.885z"/>
</g>
</svg>
