<?xml version="1.0" encoding="utf-8"?>
<!-- Generator: Adobe Illustrator 16.0.3, SVG Export Plug-In . SVG Version: 6.00 Build 0)  -->
<!DOCTYPE svg PUBLIC "-//W3C//DTD SVG 1.1//EN" "http://www.w3.org/Graphics/SVG/1.1/DTD/svg11.dtd">
<svg version="1.1" id="Layer_1" xmlns="http://www.w3.org/2000/svg" xmlns:xlink="http://www.w3.org/1999/xlink" x="0px" y="0px"
	 width="320px" height="320px" viewBox="0 0 320 320" enable-background="new 0 0 320 320" xml:space="preserve">
<g>
	<path fill-rule="evenodd" clip-rule="evenodd" fill="#FFFFFF" d="M0.117,127.739c21.043-19.801,42.092-39.597,63.128-59.406
		c13.818-13.012,27.649-26.01,41.385-39.108c1.717-1.638,2.61-1.254,4.114,0.167c22.71,21.456,45.498,42.828,68.177,64.316
		c1.908,1.808,2.866,1.821,4.77-0.003C203.472,72.817,225.319,52,247.25,31.272c2.085-1.971,2.087-2.891-0.018-4.819
		c-8.88-8.132-17.575-16.467-26.338-24.727c-0.582-0.521-1.296-1.117-0.021-1.571c0.795-0.283,1.691-0.092,2.542-0.092
		c31.007-0.004,62.015-0.004,93.021-0.002c3.355,0,3.361,0.008,3.361,3.514c0,29.408,0.014,58.816-0.053,88.225
		c-0.004,1.047,0.953,2.557-0.811,3.248c-10.217-9.825-20.521-19.561-30.584-29.542c-2.271-2.252-3.316-1.943-5.453,0.081
		c-33.823,32.034-67.755,63.953-101.595,95.969c-1.921,1.817-2.994,1.82-4.894-0.02c-22.358-21.659-44.82-43.21-67.185-64.863
		c-1.664-1.611-2.507-1.77-4.285-0.07c-22.267,21.292-44.651,42.461-66.921,63.749c-1.838,1.758-2.751,1.663-4.547-0.045
		c-11.04-10.511-22.22-20.874-33.354-31.285C0.117,128.593,0.117,128.167,0.117,127.739z"/>
	<path fill-rule="evenodd" clip-rule="evenodd" fill="#FFFFFF" d="M279.138,20.57c-1.298,0.002-3.106-0.88-3.781,1.257
		c-0.64-0.21-1.244-0.526-1.162-1.296c0.075-0.711,0.735-0.62,1.245-0.633c0.745-0.021,1.491-0.007,2.237-0.007"/>
</g>
<path fill-rule="evenodd" clip-rule="evenodd" fill="#FFFFFF" d="M0.059,283.824c21.043-19.802,42.092-39.597,63.128-59.406
	c13.818-13.012,27.649-26.011,41.385-39.108c1.717-1.638,2.61-1.254,4.114,0.166c22.71,21.456,45.498,42.828,68.177,64.316
	c1.908,1.809,2.866,1.821,4.77-0.004c21.78-20.887,43.628-41.703,65.559-62.432c2.085-1.971,2.087-2.891-0.018-4.818
	c-8.88-8.133-17.575-16.467-26.338-24.727c-0.582-0.521-1.296-1.117-0.021-1.571c0.795-0.283,1.691-0.092,2.542-0.092
	c31.007-0.004,62.015-0.004,93.021-0.002c3.355,0,3.361,0.008,3.361,3.514c0,29.408,0.014,58.816-0.053,88.225
	c-0.004,1.047,0.953,2.557-0.811,3.248c-10.217-9.825-20.521-19.561-30.584-29.543c-2.271-2.252-3.316-1.942-5.453,0.081
	c-33.823,32.034-67.755,63.953-101.595,95.969c-1.921,1.817-2.994,1.82-4.894-0.02c-22.358-21.659-44.82-43.21-67.185-64.863
	c-1.664-1.611-2.507-1.77-4.285-0.07c-22.267,21.292-44.651,42.461-66.921,63.749c-1.838,1.758-2.751,1.663-4.547-0.045
	c-11.04-10.511-22.22-20.873-33.354-31.285C0.059,284.678,0.059,284.251,0.059,283.824z"/>
</svg>
