<?xml version="1.0" encoding="utf-8"?>
<!-- Generator: Adobe Illustrator 16.0.3, SVG Export Plug-In . SVG Version: 6.00 Build 0)  -->
<!DOCTYPE svg PUBLIC "-//W3C//DTD SVG 1.1//EN" "http://www.w3.org/Graphics/SVG/1.1/DTD/svg11.dtd">
<svg version="1.1" id="Layer_1" xmlns="http://www.w3.org/2000/svg" xmlns:xlink="http://www.w3.org/1999/xlink" x="0px" y="0px"
	 width="320px" height="320px" viewBox="0 0 320 320" enable-background="new 0 0 320 320" xml:space="preserve">
<g>
	<path fill="#00AEEF" d="M0.117,127.739c21.043-19.801,42.092-39.597,63.128-59.406c13.818-13.012,27.649-26.01,41.385-39.108
		c1.717-1.638,2.61-1.254,4.114,0.167c22.71,21.456,45.498,42.828,68.177,64.316c1.908,1.808,2.866,1.821,4.771-0.003
		C203.473,72.817,225.318,52,247.25,31.272c2.085-1.971,2.087-2.891-0.018-4.819c-8.881-8.132-17.575-16.467-26.338-24.727
		c-0.582-0.521-1.297-1.117-0.021-1.571c0.795-0.283,1.691-0.092,2.542-0.092c31.007-0.004,62.015-0.004,93.021-0.002
		c3.355,0,3.361,0.008,3.361,3.514c0,29.408,0.014,58.816-0.053,88.225c-0.004,1.047,0.953,2.557-0.812,3.248
		c-10.217-9.825-20.521-19.561-30.583-29.542c-2.271-2.252-3.316-1.943-5.453,0.081c-33.823,32.034-67.756,63.953-101.596,95.97
		c-1.921,1.816-2.994,1.819-4.894-0.021c-22.358-21.659-44.82-43.21-67.185-64.863c-1.664-1.611-2.507-1.77-4.285-0.07
		c-22.267,21.292-44.651,42.461-66.921,63.749c-1.838,1.757-2.751,1.664-4.547-0.045c-11.04-10.511-22.22-20.874-33.354-31.285
		C0.117,128.593,0.117,128.167,0.117,127.739z"/>
	<path fill="#FFFFFF" d="M279.139,20.57c-1.299,0.002-3.106-0.88-3.781,1.257c-0.641-0.21-1.244-0.526-1.162-1.296
		c0.074-0.711,0.734-0.62,1.244-0.633c0.746-0.021,1.492-0.007,2.237-0.007"/>
</g>
<path fill="#00AEEF" d="M0.059,283.824c21.043-19.803,42.092-39.598,63.128-59.406c13.818-13.012,27.649-26.011,41.385-39.107
	c1.717-1.639,2.61-1.254,4.114,0.166c22.71,21.455,45.498,42.828,68.177,64.315c1.908,1.81,2.865,1.821,4.77-0.004
	c21.78-20.888,43.628-41.703,65.559-62.433c2.086-1.971,2.088-2.891-0.018-4.817c-8.88-8.134-17.574-16.468-26.338-24.727
	c-0.582-0.521-1.296-1.117-0.021-1.571c0.795-0.283,1.691-0.092,2.543-0.092c31.006-0.004,62.015-0.004,93.021-0.002
	c3.355,0,3.361,0.008,3.361,3.514c0,29.408,0.014,58.816-0.054,88.225c-0.004,1.047,0.953,2.557-0.811,3.248
	c-10.217-9.824-20.521-19.561-30.584-29.543c-2.271-2.252-3.316-1.941-5.453,0.081c-33.822,32.034-67.755,63.953-101.595,95.97
	c-1.921,1.816-2.994,1.819-4.894-0.021c-22.359-21.659-44.821-43.21-67.186-64.863c-1.664-1.61-2.507-1.771-4.285-0.069
	c-22.267,21.291-44.651,42.461-66.921,63.748c-1.838,1.758-2.751,1.664-4.547-0.045c-11.04-10.511-22.22-20.873-33.354-31.285
	C0.059,284.678,0.059,284.251,0.059,283.824z"/>
</svg>
