<?xml version="1.0" encoding="utf-8"?>
<!-- Generator: Adobe Illustrator 16.0.3, SVG Export Plug-In . SVG Version: 6.00 Build 0)  -->
<!DOCTYPE svg PUBLIC "-//W3C//DTD SVG 1.1//EN" "http://www.w3.org/Graphics/SVG/1.1/DTD/svg11.dtd">
<svg version="1.1" id="Layer_1" xmlns="http://www.w3.org/2000/svg" xmlns:xlink="http://www.w3.org/1999/xlink" x="0px" y="0px"
	 width="1500px" height="340px" viewBox="0 0 1500 340" enable-background="new 0 0 1500 340" xml:space="preserve">
<g>
	<path fill="#00ADEF" d="M0.909,336.55C1.037,276.044,1,215.54,1,155.035"/>
	<path fill="#00ADEF" d="M1.869,155.078c-0.764-4.628-0.16-9.291-0.353-13.927"/>
	<path fill="#00ADEF" d="M1.798,139.952c-0.217,0.511-0.481,0.562-0.798,0.08C1,94.938,1.036,49.844,0.921,4.75"/>
	<path fill="#00ADEF" d="M1,140.032c0.263-0.061,0.529-0.087,0.798-0.08c0.023,5.042,0.047,10.084,0.071,15.126
		c-0.29-0.012-0.579-0.027-0.869-0.043C1,150.034,1,145.033,1,140.032z"/>
</g>
<g>
	<path fill="#00ADEF" d="M1.821,154.071c-0.669-4.312-0.143-8.652-0.313-12.97"/>
	<path fill="#00ADEF" d="M1.837,140c-0.26,0.509-0.538,0.546-0.837,0.032C1,94.938,1.036,49.844,0.921,4.75"/>
	<path fill="#00ADEF" d="M1,140.032c0.28,0,0.559-0.01,0.837-0.032c-0.006,4.691-0.011,9.381-0.017,14.071
		c-0.273-0.018-0.547-0.03-0.821-0.036C1,149.368,1,144.7,1,140.032z"/>
</g>
<g>
	<path fill="#00ADEF" d="M163.037,1c7.706,1.662,15.515,2.946,23.098,5.049c38.349,10.634,67.685,33.182,88.086,67.348
		c0.583,0.977,1.031,2.035,1.921,3.812c-8.335-2.707-15.904-5.587-23.837-7.125c-14.856-2.881-29.48-0.849-44.02,2.287
		c-44.743,9.649-83.516,31.219-118.825,59.668c-2.074,1.67-4.172,3.319-6.151,5.097c-4.589,4.123-8.596,7.19-16.076,5.151
		c-10.334-2.817-17.81,6.618-14.783,17.221c0.914,3.202,1.613,5.967-0.904,8.791c-12.535,14.057-20.844,30.791-29.72,47.163
		c-0.379,0.699-0.873,1.337-1.702,2.589c-11.11-19.927-16.92-40.785-18.255-62.971c-0.763-4.628-0.16-9.291-0.353-13.927
		c-0.362-32.77,11.539-61.13,31.624-86.341c21.668-27.198,49.916-44.018,83.684-51.825C122.168,1.751,127.692,2.172,133.03,1
		c7.001,0,14.003,0,21.005,0c2,0.819,4.001,0.819,6.001,0C161.037,1,162.037,1,163.037,1z"/>
	<path fill="#00ADEF" d="M136.031,293.066c-6.919-2.287-14.292-2.113-21.304-3.988c-6.426-1.719-12.859-3.367-19.054-5.822
		c-0.739-0.293-1.674-0.331-1.814-1.014c86.374-27.374,158.143-72.788,198.135-158.063c3.345,17.57,2.532,35.39-1.433,53.035
		c-13.392,59.595-59.024,102.856-119.555,113.65c-4.318,0.77-8.816,0.472-12.97,2.202c-1,0-2,0-3.001,0
		c-5.667-0.848-11.336-0.848-17.004,0C137.365,293.066,136.698,293.066,136.031,293.066z"/>
	<path fill="#00ADEF" d="M138.031,293.066c5.668-1.612,11.336-1.613,17.004,0C149.368,293.066,143.699,293.066,138.031,293.066z"/>
	<path fill="#00ADEF" d="M1,140.032c0.263-0.061,0.529-0.087,0.798-0.08c0.023,5.042,0.047,10.084,0.071,15.126
		c-0.29-0.012-0.579-0.026-0.869-0.043C1,150.034,1,145.033,1,140.032z"/>
	<path fill="#00ADEF" d="M160.037,1c-2,1.56-4.001,1.492-6.001,0C156.036,1,158.036,1,160.037,1z"/>
	<path fill="#00ADEF" d="M1291.404,247.057c-22.667,0-45.335,0.012-68.002-0.008c-7.579-0.006-9.087-1.982-6.607-9.035
		c3.028-8.613,8.018-16.029,14.316-22.615c2.805-2.932,6.243-3.387,10.044-3.381c36.502,0.053,73.004,0.028,109.505,0.037
		c3.168,0,6.285-0.197,9.426-0.791c12.129-2.295,18.28-9.683,17.282-21.039c-0.702-7.998-9.888-15.092-20.234-15.143
		c-25.001-0.123-50.003-0.1-75.004-0.009c-7.888,0.028-15.675-0.671-23.147-3.126c-16.265-5.343-30.867-13.601-38.559-29.559
		c-11.485-23.832-3.44-65.772,39.124-73.328c7.386-1.311,14.828-1.962,22.337-1.959c41.669,0.02,83.338,0.006,125.006,0.012
		c8.68,0.001,10.267,2.189,7.091,10.219c-2.646,6.688-6.197,12.869-10.839,18.436c-4.143,4.969-9.217,7.091-15.725,7.066
		c-36.835-0.142-73.67-0.046-110.506-0.093c-5.616-0.007-10.979,0.629-15.586,4.199c-5.981,4.634-9.32,10.583-7.744,18.236
		c1.579,7.665,7.093,11.811,14.344,13.721c3.04,0.8,6.197,1.04,9.396,1.038c27.333-0.023,54.672-0.25,81.999,0.194
		c23.726,0.385,49.025,19.159,53.964,39.921c8.023,33.743-9.196,59.88-44.951,66.015c-5.623,0.967-11.27,0.974-16.927,0.98
		C1331.407,247.072,1311.406,247.057,1291.404,247.057z"/>
	<path fill="#00ADEF" d="M601.232,175.039c3.575,12.031,8.293,22.725,17.963,30.434c5.948,4.742,12.938,6.596,20.512,6.59
		c38.008-0.029,76.016-0.016,114.024-0.013c8.784,0,9.977,1.722,6.951,10.114c-3.056,8.477-8.313,15.506-14.553,21.863
		c-2.071,2.111-4.6,3.063-7.642,3.058c-38.341-0.05-76.685,0.124-115.024-0.142c-10.961-0.076-19.993-5.818-28.317-12.422
		c-18.329-14.541-27.95-34.418-31.574-56.748c-5.008-30.859,0.008-60.142,19.526-85.633c12.544-16.382,28.712-25.422,50.105-25.167
		c40.169,0.479,80.349,0.135,120.522,0.141c8.529,0.001,10.128,2.292,7.146,10.345c-2.577,6.954-6.641,13.017-11.369,18.676
		c-4.06,4.859-9.437,6.615-15.521,6.62c-27.34,0.023-54.68,0.052-82.019-0.039c-3.969-0.013-7.929-0.301-11.918-0.311
		c-19.357-0.048-28.793,12.395-35.715,27.889c-4.231,9.471-3.939,9.601,6.493,9.601c42.009,0,84.018-0.004,126.026,0.003
		c9.951,0.002,11.173,1.867,7.269,11.204c-2.785,6.661-6.703,12.592-11.41,18.087c-3.651,4.262-7.932,5.956-13.558,5.932
		c-37.342-0.157-74.684-0.082-112.024-0.082C605.327,175.039,603.527,175.039,601.232,175.039z"/>
	<path fill="#00ADEF" d="M384.563,126.689c-1.035,1.974-0.543,3.807-0.545,5.55c-0.037,35.664-0.026,71.329-0.029,106.993
		c0,7.625-0.108,7.727-7.935,7.729c-8.166,0.002-16.335-0.118-24.498,0.051c-4.05,0.082-5.553-1.382-5.545-5.559
		c0.102-56.329,0.102-112.659,0-168.989c-0.008-4.22,1.523-5.532,5.585-5.419c8.16,0.225,16.333,0.161,24.496,0.012
		c2.561-0.047,4.344,0.817,6.133,2.566c14.887,14.559,29.837,29.051,44.796,43.535c25.607,24.792,51.233,49.565,76.858,74.34
		c0.351,0.338,0.792,0.581,1.452,1.059c1.113-1.697,0.617-3.515,0.619-5.173c0.036-36.665,0.1-73.33-0.063-109.993
		c-0.021-4.686,1.145-6.577,6.14-6.379c8.984,0.355,18,0.286,26.991,0.022c4.502-0.132,5.897,1.859,5.874,5.938
		c-0.068,12.166-0.022,24.332-0.022,36.498c0,43.164,0.002,86.328-0.002,129.492c-0.001,7.661-0.337,7.996-7.748,7.999
		c-7.833,0.002-15.669-0.127-23.497,0.064c-2.922,0.072-5.001-0.892-7.042-2.868c-21.522-20.876-43.099-41.695-64.674-62.517
		c-18.575-17.927-37.167-35.836-55.76-53.746C385.71,127.473,385.177,127.151,384.563,126.689z"/>
	<path fill="#00ADEF" d="M28.836,224.1c0.041-12.787,2.91-20.574,6.9-27.947c4.844-8.952,11.083-17.012,16.853-25.369
		c2.004-2.904,4.156-3.925,7.986-3.009c12.402,2.964,20.436-5.239,17.173-17.412c-0.722-2.695,0.042-3.946,1.888-5.409
		c26.904-21.324,56.499-36.96,90.727-42.611c8.217-1.357,16.529-1.64,24.8,0.244c19.24,4.382,27.118,17.599,22.211,36.833
		c-4.21,16.505-13.717,29.843-24.732,42.257c-29.283,33.002-65.434,54.672-108.416,64.689c-12.226,2.851-24.606,4.072-36.873-0.396
		C35.053,241.482,28.76,232.703,28.836,224.1z"/>
	<path fill="#00ADEF" d="M955.986,247.057c-5.501,0-11.017-0.229-16.499,0.08c-3.72,0.207-6.222-1.105-8.599-3.859
		c-15.128-17.523-30.396-34.926-45.582-52.4c-4.436-5.105-4.289-5.074-8.695-0.037c-15.248,17.424-30.609,34.745-45.809,52.209
		c-2.499,2.871-5.104,4.189-9.017,4.1c-11.33-0.258-22.67-0.09-34.005-0.092c-2.322,0-4.77,0.354-5.907-2.509
		c-1.042-2.621,0.929-4.106,2.262-5.632c17.316-19.816,34.7-39.574,52.073-59.342c5.499-6.258,10.933-12.573,16.567-18.705
		c2.11-2.296,2.084-3.807-0.024-6.201c-17.607-20-35.074-40.126-52.575-60.22c-5.47-6.28-10.938-12.563-16.358-18.882
		c-1.4-1.632-3.021-3.388-1.826-5.773c1.215-2.421,3.535-2.705,5.992-2.697c11.503,0.039,23.005,0.108,34.506-0.039
		c3.374-0.043,5.529,1.395,7.643,3.817c15.77,18.072,31.7,36.001,47.416,54.119c2.509,2.894,3.771,2.892,6.291-0.019
		c15.706-18.124,31.651-36.04,47.404-54.123c2.273-2.608,4.666-3.849,8.167-3.798c11.167,0.162,22.337,0.064,33.506,0.057
		c2.687-0.001,5.623-0.288,6.937,2.722c1.223,2.806-0.923,4.661-2.566,6.529c-22.781,25.878-45.52,51.796-68.423,77.565
		c-2.626,2.954-2.233,4.658,0.188,7.384c22.68,25.524,45.234,51.161,67.795,76.79c1.705,1.937,4.28,3.821,2.844,6.857
		c-1.331,2.809-4.263,2.068-6.7,2.086C967.322,247.084,961.654,247.057,955.986,247.057z"/>
	<path fill="#00ADEF" d="M1000.229,119.679c0-15.003-0.022-30.006,0.012-45.009c0.015-6.379,1.214-7.534,7.604-7.553
		c7.502-0.022,15.004-0.019,22.505-0.001c6.261,0.015,7.611,1.294,7.619,7.604c0.033,28.006-0.001,56.011,0.021,84.017
		c0.012,14.632,2.608,28.556,12.208,40.228c7.313,8.893,16.386,14.285,28.44,14.018c13.329-0.297,26.688-0.484,40.002,0.041
		c15.295,0.604,25.451-6.674,33.174-19.043c7.174-11.486,9.192-24.164,9.268-37.279c0.152-27.004,0.041-54.011,0.05-81.017
		c0.002-8.294,0.284-8.569,8.329-8.571c7.168-0.001,14.336-0.028,21.505,0.009c5.896,0.03,7.193,1.233,7.198,6.898
		c0.025,30.006,1.037,60.058-0.281,90.006c-1.282,29.109-11.427,54.988-35.607,73.47c-8.187,6.258-17.63,9.431-27.889,9.502
		c-23.505,0.164-47.016,0.387-70.513-0.063c-16.753-0.317-29.781-8.896-40.21-21.355c-15.904-19.003-23.234-41.234-23.419-65.891
		C1000.146,146.352,1000.229,133.015,1000.229,119.679z"/>
</g>
<g>
	
		<image overflow="visible" opacity="0.75" enable-background="new    " width="2092" height="721" xlink:href="D919F957.png"  transform="matrix(0.2395 0 0 0.2387 1021 219.5986)">
	</image>
	<g>
		<rect x="1029" y="242" fill="none" width="471" height="126"/>
		<text transform="matrix(1 0 0 1 1192.2031 326.3584)" fill="#FFFFFF" font-family="'MinionPro-Bold'" font-size="120">BETA</text>
	</g>
</g>
</svg>
