<?xml version="1.0" encoding="utf-8"?>
<!-- Generator: Adobe Illustrator 16.0.3, SVG Export Plug-In . SVG Version: 6.00 Build 0)  -->
<!DOCTYPE svg PUBLIC "-//W3C//DTD SVG 1.1//EN" "http://www.w3.org/Graphics/SVG/1.1/DTD/svg11.dtd">
<svg version="1.1" id="Layer_1" xmlns="http://www.w3.org/2000/svg" xmlns:xlink="http://www.w3.org/1999/xlink" x="0px" y="0px"
	 width="1430.928px" height="313.484px" viewBox="0 0 1430.928 313.484" enable-background="new 0 0 1430.928 313.484"
	 xml:space="preserve">
<g>
	<g>
		<g>
			<path fill="#0CA4FB" d="M548.011,75.147h-32.91c-1.619,0-2.933,1.313-2.933,2.933v119.325L386.047,75.147h-30.599
				c-1.619,0-2.932,1.313-2.932,2.933v173.796c0,1.619,1.313,2.933,2.932,2.933h31.807c1.619,0,2.932-1.313,2.932-2.933V133.654
				l125.708,121.154h32.117c1.62,0,2.932-1.313,2.932-2.933V78.08C550.943,76.461,549.63,75.147,548.011,75.147z"/>
			<path fill="#0CA4FB" d="M761.421,219.943c-4.048,0-109.379,0-115.542,0s-27.689,0.368-38.361-36.981
				c6.624-0.092,113.887,0,118.302,0c4.416,0,7.452,0,10.855-3.357s12.419-13.522,15.639-26.218c1.196-5.611-3.68-5.565-6.531-5.565
				s-135.827,0-136.747,0s-1.564-0.184-1.196-1.38c0.368-1.195,3.749-15.408,14.581-26.447s20.284-9.591,36.705-9.591
				c16.42,0,80.102,0,83.276,0s6.555,0.139,12.212-5.036c5.795-6.071,11.867-15.869,13.522-23.113
				c1.656-7.244-2.621-7.106-8.969-7.106c0,0-113.427,0-124.466,0s-31.737,4.278-48.848,29.943
				c-17.111,25.666-18.214,51.332-17.249,70.374c0.966,19.043,10.763,48.158,29.943,64.579
				c19.181,16.42,31.599,14.948,36.659,14.948c5.06,0,107.079,0,109.747,0s4.508-0.275,6.854-2.346
				c2.346-2.069,13.339-13.431,16.604-27.184C769.609,220.357,765.469,219.943,761.421,219.943z"/>
			<path fill="#0CA4FB" d="M985.054,82.553c2.162-2.483,1.61-4.094,0.506-5.749c-1.104-1.656-3.357-1.658-4.783-1.658
				s-34.589,0-36.935,0c-2.347,0-3.404,0.508-4.37,1.658c-0.966,1.149-52.481,59.611-52.481,59.611s-50.55-57.266-52.252-59.336
				c-1.702-2.069-3.266-1.932-5.335-1.932c-2.07,0-34.98,0-34.98,0c-2.369,0-4.944,0.139-6.095,2.208
				c-1.149,2.07,0.092,4.323,1.196,5.565c1.044,1.175,64.703,74.139,71.608,82.053c0.354,0.405,0.353,0.983-0.002,1.387
				c-6.854,7.819-69.446,79.214-71.055,80.997c-1.702,1.886-2.806,3.312-1.932,5.243s2.392,2.438,4.048,2.438
				c1.655,0,36.429,0,38.452,0c2.024,0,2.944-0.229,4.186-1.563c1.242-1.334,52.344-59.657,52.344-59.657s49.584,56.76,51.47,58.967
				c1.886,2.208,2.668,2.254,4.14,2.254s33.623,0,39.005,0s5.749-4.048,2.806-7.359c-2.221-2.656-65.196-73.985-71.872-81.548
				c-0.333-0.377-0.334-0.918-0.001-1.295C919.423,157.213,983.006,84.905,985.054,82.553z"/>
			<path fill="#0CA4FB" d="M1198.201,75.146c-2.806,0-23.137,0-26.816,0s-4.094,3.406-4.094,6.119c0,2.714,0,61.129,0,79.804
				s-1.748,25.758-5.979,34.865c-11.866,24.47-26.815,24.93-33.439,24.93c-6.623,0-34.635,0-42.017,0
				c-7.383,0-11.108-0.414-15.11-2.483c-26.079-13.109-26.815-42.639-26.815-56.023s0-79.436,0-83.023s-2.943-4.188-5.06-4.188
				c-2.115,0-26.539,0-26.539,0c-5.152,0-5.842,2.118-5.842,7.729s0,67.246,0,82.217s1.84,34.705,15.271,57.335
				c20.79,32.657,44.432,32.565,51.699,32.565s50.504,0,63.935,0s28.794-2.76,45.904-23.918s20.975-50.917,20.975-60.301
				c0-9.383,0-86.61,0-90.935C1204.272,75.516,1201.006,75.146,1198.201,75.146z"/>
			<path fill="#0CA4FB" d="M1355.898,147.799c-9.245,0-54.851,0-74.445,0c-19.594,0-26.425-16.145-19.387-27.046
				c7.037-10.901,17.938-10.35,24.217-10.35s101.56,0,112.185,0s22.078-23.319,22.906-29.392c0.828-6.071-1.932-5.726-8.832-5.726
				c-6.898,0-126.259,0-126.259,0c-34.911,0-48.434,12.648-56.438,24.976c-8.003,12.326-13.614,41.672,3.128,59.795
				c21.066,21.434,43.513,22.86,53.172,22.86s62.509,0,75.824,0c13.316,0,21.802,8.692,21.802,16.696
				c0,19.663-19.249,20.33-24.769,20.33s-103.583,0-109.701,0c-6.117,0-8.784,0.184-11.729,3.082
				c-5.979,6.025-12.833,16.328-15.179,24.93c-2.254,8.096,4.231,6.945,9.199,6.945s115.635,0,128.974,0
				c13.338,0,29.345-1.656,46.088-15.639c16.742-13.982,20.606-49.124,4.323-67.891
				C1389.176,146.626,1365.143,147.799,1355.898,147.799z"/>
		</g>
	</g>
</g>
<g>
	<path fill="#0CA4FB" d="M298.261,130.264c6.275,37.331-1.939,77.098-26.072,110.17c-40.528,55.541-112.872,74.277-173.691,49.333
		c0,0,57.138-11.571,116.466-55.967C280.145,186.579,298.261,130.264,298.261,130.264z"/>
	<path fill="#0CA4FB" d="M26.632,226.171C-0.218,178.086,1.58,116.713,36.27,69.173C83.826,3.999,175.191-10.496,240.339,36.796
		c18.353,13.323,32.668,30.129,42.699,48.854c0,0-22.064-9.655-39.822-9.151c-17.758,0.505-48.532,6.458-81.93,21.794
		c-21.996,11.301-42.68,21.794-78.095,52.266c-2.32,1.816-3.699,1.043-6.054,0.101c-2.354-0.941-8.274-2.623-13.587,1.413
		c-5.314,4.036-6.781,9.931-4.467,15.997c1.507,4.148,0.93,5.24,0.023,6.673c-0.907,1.434-10.355,13.216-12.945,16.681
		c-2.59,3.464-17.964,32.285-18.668,33.43C26.789,225.997,26.632,226.171,26.632,226.171z"/>
	<g>
		<path fill="#0CA4FB" d="M156.945,114.831c15.958-4.451,33.165-7.852,49.475-3.111c7.763,2.281,14.739,7.973,17.252,15.848
			c3.3,10.115,0.42,20.983-3.432,30.52c-4.784,11.384-12.324,21.317-20.364,30.586c-23.165,26.99-53.615,47.516-87.167,59.266
			c-9.921,3.372-19.954,6.686-30.429,7.771c-5.825,0.676-11.729,1.794-17.573,0.653c-9.313-1.206-19.223-4.449-24.827-12.462
			c-6.011-8.339-5.393-19.567-2.325-28.914c4.152-13.1,13.133-23.765,20.641-35.015c1.406-1.927,2.768-4.275,5.238-4.928
			c3.289,0.354,6.451,2.026,9.812,1.55c6.345-0.564,11.66-6.246,11.981-12.569c0.277-3.057-0.975-5.913-1.938-8.738
			C105.012,137.444,129.827,122.771,156.945,114.831"/>
	</g>
</g>
</svg>
