<?xml version="1.0" encoding="utf-8"?>
<!-- Generator: Adobe Illustrator 16.0.3, SVG Export Plug-In . SVG Version: 6.00 Build 0)  -->
<!DOCTYPE svg PUBLIC "-//W3C//DTD SVG 1.1//EN" "http://www.w3.org/Graphics/SVG/1.1/DTD/svg11.dtd">
<svg version="1.1" id="Layer_1" xmlns="http://www.w3.org/2000/svg" xmlns:xlink="http://www.w3.org/1999/xlink" x="0px" y="0px"
	 width="320px" height="320px" viewBox="0 0 320 320" enable-background="new 0 0 320 320" xml:space="preserve">
<g>
	<path fill-rule="evenodd" clip-rule="evenodd" fill="#00AEEF" d="M21.988-0.027c0,98.186,0.034,196.372-0.108,294.558
		c-0.006,4.526,1.093,5.626,5.619,5.619c97.519-0.143,195.038-0.108,292.558-0.108c0,6.002-0.088,12.005,0.055,18.003
		c0.042,1.741-0.315,2.362-2.06,2.022c-0.643-0.125-1.329-0.021-1.996-0.021c-104.023,0-208.047-0.021-312.071,0.096
		c-3.424,0.004-4.1-0.672-4.097-4.097c0.117-104.023,0.117-208.047,0-312.071c-0.003-3.424,0.646-4.309,4.103-4.101
		C9.969,0.233,15.986-0.027,21.988-0.027z"/>
	<path fill-rule="evenodd" clip-rule="evenodd" fill="#00AEEF" d="M320.056,153.008c-4.479,0.13-8.963,0.447-13.434,0.322
		c-2.822-0.079-3.735,0.747-3.646,3.627c0.205,6.661-0.174,13.344,0.158,19.996c0.185,3.683-1.741,3.422-4.233,3.511
		c-2.745,0.1-4.241-0.219-4.084-3.656c0.304-6.652-0.016-13.332,0.141-19.996c0.061-2.613-0.79-3.726-3.404-3.424
		c-0.658,0.076-1.335,0.055-1.998,0.003c-4.093-0.319-9.685,1.853-11.877-0.862c-2.067-2.562-0.757-7.931-0.761-12.066
		c-0.028-32.002,0.055-64.005-0.11-96.007c-0.02-3.735,0.851-4.883,4.622-4.622c4.272,0.296,10.056,1.494,12.516-0.696
		c2.88-2.563,0.697-8.453,0.937-12.89c0.135-2.493,0.021-5,0.025-7.5c0.008-4.774,1.965-6.11,6.653-4.95
		c2.102,0.521,1.438,1.943,1.449,3.087c0.063,6.667,0.125,13.336-0.018,20c-0.051,2.375,0.629,3.186,3.066,3.097
		c4.66-0.168,9.331-0.018,13.998,0C320.056,77.657,320.056,115.333,320.056,153.008z"/>
	<path fill-rule="evenodd" clip-rule="evenodd" fill="#00AEEF" d="M288.048-0.027c-15.828,12.039-31.651,24.085-47.5,36.098
		c-1.18,0.895-1.442,1.949-1.556,3.366c-0.917,11.376-9.527,18.184-20.882,16.271c-2.089-0.352-3.154,0.06-4.702,1.31
		c-14.685,11.861-29.552,23.496-44.177,35.428c-2.986,2.436-6.018,4.915-7.196,9.278c-1.912,7.074-8.626,11.249-16.418,11.274
		c-7.818,0.025-14.309-4.087-16.629-11.066c-0.883-2.655-2.354-4.584-4.578-5.821c-16.16-8.984-32.373-17.872-48.59-26.752
		c-1.854-1.016-3.641-1.471-6.029-0.896c-10.129,2.439-20.276-3.86-21.716-13.109c-1.368-8.78,5.609-17.279,15.043-18.326
		c10.746-1.192,19.273,5.671,19.851,16.07c0.095,1.72,0.211,2.941,2.063,3.951c15.67,8.549,31.251,17.26,46.865,25.912
		c1.518,0.841,2.671,1.511,4.768,0.302c5.493-3.167,11.438-3.277,17.145-0.302c1.966,1.025,2.956,0.617,4.624-0.754
		c11.186-9.199,22.576-18.15,33.831-27.267c3.799-3.078,7.215-6.624,11.413-9.216c1.304-0.806,0.562-2,0.479-3.122
		c-0.886-12.069,9.501-21.228,21.181-18.193c3.271,0.849,5.394,0.536,7.88-1.413c9.198-7.209,18.504-14.283,27.744-21.44
		c0.48-0.372,0.727-1.048,1.082-1.583C270.711-0.027,279.379-0.027,288.048-0.027z"/>
	<path fill-rule="evenodd" clip-rule="evenodd" fill="#00AEEF" d="M200.028,159.781c0-17.501,0.106-35.004-0.09-52.504
		c-0.039-3.503,0.81-4.682,4.355-4.341c3.469,0.333,7.005-0.1,10.49,0.128c2.662,0.174,3.378-0.738,3.307-3.334
		c-0.178-6.496,0.205-13.014-0.156-19.495c-0.221-3.976,2.148-3.126,4.369-3.272c2.432-0.16,4.017-0.043,3.869,3.27
		c-0.289,6.487,0.042,13.001-0.146,19.496c-0.077,2.649,0.74,3.496,3.346,3.327c3.153-0.205,6.355,0.197,9.491-0.114
		c3.476-0.344,4.443,0.74,4.41,4.307c-0.188,20.167-0.091,40.336-0.091,60.504c0,14.836-0.079,29.671,0.063,44.505
		c0.031,3.198-0.373,4.902-4.211,4.626c-4.109-0.296-9.692-1.458-12.041,0.647c-2.761,2.478-0.678,8.146-0.878,12.425
		c-0.141,2.993-0.284,6.026,0.036,8.992c0.42,3.892-0.841,5.252-4.86,4.973c-2.662-0.185-3.374-0.915-3.311-3.471
		c0.158-6.329-0.138-12.675,0.127-18.997c0.146-3.479-0.432-5.017-4.468-4.791c-4.4,0.247-10.331,2.051-12.878-0.827
		c-2.183-2.469-0.709-8.239-0.72-12.55C200.006,188.783,200.028,174.282,200.028,159.781z"/>
	<path fill-rule="evenodd" clip-rule="evenodd" fill="#00AEEF" d="M47.994,178.084c0-17.491,0.09-34.983-0.078-52.473
		c-0.032-3.39,0.693-4.794,4.325-4.451c3.467,0.327,7-0.098,10.485,0.125c2.641,0.168,3.407-0.696,3.333-3.325
		c-0.184-6.492,0.105-12.999-0.132-19.486c-0.112-3.073,1.139-3.659,3.772-3.41c2.203,0.209,4.655-0.728,4.444,3.266
		c-0.334,6.313,0.059,12.661-0.154,18.983c-0.099,2.936,0.5,4.122,3.763,4.015c4.273-0.14,9.951-1.94,12.501,0.688
		c2.756,2.841,0.847,8.536,0.857,12.975c0.074,31.817-0.028,63.636,0.131,95.452c0.019,3.697-0.804,4.849-4.611,4.675
		c-4.065-0.185-9.521-1.952-11.894,0.785c-2.005,2.314-0.616,7.596-0.671,11.564c-0.046,3.331-0.158,6.673,0.034,9.992
		c0.174,3.014,0.004,4.775-4.012,4.735c-3.793-0.038-4.274-1.384-4.156-4.604c0.233-6.321-0.053-12.661,0.126-18.985
		c0.076-2.687-0.498-4.137-3.471-3.616c-0.323,0.057-0.667,0.027-0.998,0.005c-4.429-0.301-10.505,1.939-12.841-0.904
		c-2.231-2.716-0.726-8.559-0.737-13.027C47.971,206.736,47.994,192.41,47.994,178.084z"/>
	<path fill-rule="evenodd" clip-rule="evenodd" fill="#00AEEF" d="M124.011,209.024c0-17.668,0.09-35.338-0.081-53.004
		c-0.032-3.289,0.855-4.25,4.112-4.08c4.458,0.234,10.48,1.639,13.018-0.619c2.944-2.62,0.688-8.751,0.933-13.349
		c0.124-2.327,0.019-4.666,0.022-7c0.006-4.876,1.8-6.122,6.556-5.016c2.131,0.496,1.456,1.916,1.468,3.053
		c0.064,6.5,0.176,13.006-0.035,19.5c-0.093,2.873,0.827,3.965,3.617,3.513c0.163-0.026,0.333-0.013,0.5-0.002
		c4.266,0.283,9.953-1.833,12.395,0.938c2.091,2.372,0.637,7.925,0.64,12.071c0.019,31.835-0.056,63.673,0.095,95.508
		c0.018,3.88-0.516,5.717-5.004,5.392c-3.888-0.281-9.283-1.896-11.407,0.733c-1.986,2.461-0.685,7.606-0.756,11.571
		c-0.061,3.333-0.178,6.679,0.036,9.999c0.2,3.113-0.204,4.711-4.104,4.745c-4.029,0.036-4.135-1.77-4.049-4.784
		c0.167-5.829-0.158-11.677,0.124-17.497c0.178-3.677-0.547-5.519-4.738-4.968c-2.95,0.388-6.014-0.161-8.985,0.136
		c-3.477,0.349-4.482-0.776-4.443-4.337C124.116,244.028,124.011,226.525,124.011,209.024z"/>
</g>
</svg>
