<?xml version="1.0" encoding="utf-8"?>
<!-- Generator: Adobe Illustrator 16.0.3, SVG Export Plug-In . SVG Version: 6.00 Build 0)  -->
<!DOCTYPE svg PUBLIC "-//W3C//DTD SVG 1.1//EN" "http://www.w3.org/Graphics/SVG/1.1/DTD/svg11.dtd">
<svg version="1.1" id="Layer_1" xmlns="http://www.w3.org/2000/svg" xmlns:xlink="http://www.w3.org/1999/xlink" x="0px" y="0px"
	 width="320px" height="320px" viewBox="0 0 320 320" enable-background="new 0 0 320 320" xml:space="preserve">
<g>
	<path fill="#00AEEF" d="M157.444,0.511c-1.022,0.75-2.045,0.813-3.067,0C155.399,0.511,156.422,0.511,157.444,0.511z"/>
	<path fill="#00AEEF" d="M151.31,320.511c1.022-0.877,2.044-0.735,3.067,0C153.354,320.511,152.332,320.511,151.31,320.511z"/>
	<path fill="#00AEEF" d="M164.09,320.511c0.852-0.733,1.703-0.793,2.557,0C165.793,320.511,164.941,320.511,164.09,320.511z"/>
	<path fill="#00AEEF" d="M150.799,0.511c-0.533,0.828-1.336,0.468-2.057,0.47c-0.165-0.109-0.217-0.215-0.159-0.318
		c0.057-0.101,0.114-0.152,0.171-0.152C149.436,0.511,150.117,0.511,150.799,0.511z"/>
	<path fill="#00AEEF" d="M173.309,0.974c-0.681-0.005-1.359-0.01-2.041-0.016c-0.187-0.091-0.25-0.188-0.193-0.29
		c0.057-0.104,0.113-0.157,0.174-0.157c0.684,0,1.361,0,2.045,0c0.168,0.096,0.229,0.197,0.176,0.302
		C173.416,0.92,173.363,0.974,173.309,0.974z"/>
	<path fill="#00AEEF" d="M169.723,0.986c-0.572,0.035-1.183,0.182-1.543-0.475c0.512,0,1.021,0,1.533,0
		c0.17,0.102,0.229,0.206,0.176,0.313C169.834,0.932,169.779,0.986,169.723,0.986z"/>
	<path fill="#00AEEF" d="M169.723,0.986c-0.009-0.158-0.012-0.316-0.01-0.475c0.512,0,1.021,0,1.533,0
		c0.001,0.15,0.008,0.299,0.02,0.448C170.752,0.967,170.236,0.977,169.723,0.986z"/>
	<path fill="#00AEEF" d="M170.225,320.511c0.349-0.715,0.974-0.501,1.545-0.46c0.164,0.107,0.217,0.21,0.158,0.313
		c-0.057,0.1-0.113,0.148-0.171,0.148C171.246,320.511,170.734,320.511,170.225,320.511z"/>
	<path fill="#00AEEF" d="M172.801,320.072c0.535,0.041,1.239-0.504,1.514,0.438c-0.513,0-1.021,0-1.535,0
		c-0.176-0.105-0.229-0.207-0.166-0.302C172.675,320.118,172.738,320.072,172.801,320.072z"/>
	<path fill="#00AEEF" d="M147.717,0.965c-0.431,0.059-0.913,0.234-1.008-0.454c0.341,0,0.681,0,1.022,0
		c0.175,0.106,0.231,0.209,0.168,0.308C147.839,0.916,147.778,0.965,147.717,0.965z"/>
	<path fill="#00AEEF" d="M147.717,0.965c0.011-0.151,0.016-0.302,0.014-0.454c0.341,0,0.682,0,1.022,0
		c0.005,0.157,0.001,0.315-0.012,0.471C148.4,0.976,148.059,0.97,147.717,0.965z"/>
	<path fill="#00AEEF" d="M173.309,0.974c-0.018-0.153-0.021-0.308-0.018-0.462c0.341,0,0.682,0,1.021,0
		C174.229,1.207,173.736,1.023,173.309,0.974z"/>
	<path fill="#00AEEF" d="M146.709,320.511c0.341-0.795,0.681-0.739,1.022,0C147.391,320.511,147.05,320.511,146.709,320.511z"/>
	<path fill="#00AEEF" d="M172.801,320.072c-0.012,0.146-0.019,0.291-0.021,0.438c-0.34,0-0.682,0-1.021,0
		c-0.001-0.152,0.005-0.308,0.015-0.461C172.113,320.059,172.457,320.064,172.801,320.072z"/>
	<path fill="#00AEEF" d="M319.262,129.791c-3.421-9.744-10.338-16.669-18.222-22.791c-6.213-4.824-13.077-8.592-20.289-11.703
		c-1.878-0.81-2.406-1.879-1.673-3.777c0.954-2.468,1.469-5.047,1.795-7.683c0.938-7.553,0.545-15.135,0.395-22.692
		c-0.16-8.115-2.889-15.473-7.802-22.004c-5.093-6.77-11.465-12.144-18.624-16.486C233.83,9.91,210.637,3.983,186.453,1.297
		c-3.698-0.411-7.445-0.064-11.117-0.786c-0.342,0-0.682,0-1.021,0c-0.377,0.388-0.863,0.222-1.311,0.262c-0.584,0-1.169,0-1.753,0
		c-0.469,0-0.937,0-1.405,0c-0.558-0.076-1.17,0.194-1.666-0.262c-3.578,0-7.156,0-10.735,0c-1.022,0.415-2.045,0.415-3.067,0
		c-1.192,0-2.386,0-3.578,0c-0.578,0.489-1.268,0.167-1.9,0.262c-0.327,0-0.654,0-0.98,0c-0.416-0.032-0.867,0.106-1.209-0.262
		c-0.682,0-1.364,0-2.045,0c-2.568,0.702-5.216,0.326-7.814,0.575c-15.99,1.532-31.651,4.661-46.763,10.178
		c-10.664,3.893-20.902,8.663-30,15.62c-8.987,6.872-16.28,14.963-19.304,26.203c-0.491,1.826-1.714,2.819-3.332,3.588
		c-7.017,3.334-13.808,7.104-19.728,12.158C9.472,75.88,2.242,83.706,0.511,95.08c0,10.053,0,20.106,0,30.16
		c0.443,3.915,1.575,7.621,3.465,11.077c4.084,7.468,9.94,13.313,16.768,18.276c6.152,4.472,12.701,8.25,19.662,11.298
		c1.757,0.771,2.219,1.709,1.552,3.563c-0.861,2.394-1.49,4.86-1.833,7.418c-0.855,6.364-0.301,12.752-0.467,19.126
		c-0.209,8.004,1.356,15.579,5.697,22.412c1.027,1.615,0.872,2.936-0.115,4.451c-1.77,2.727-3.138,5.648-3.979,8.81
		c-2.584,9.72-1.562,19.606-1.334,29.448c0.056,2.434,0.333,4.896,0.983,7.314c2.49,9.266,8.163,16.373,15.19,22.512
		c9.025,7.888,19.563,13.197,30.641,17.555c12.744,5.011,25.967,8.105,39.464,10.213c6.125,0.955,12.321,1.057,18.46,1.801
		c0.681,0,1.363,0,2.045,0c0.341-0.318,0.681-0.318,1.022,0c1.193,0,2.386,0,3.579,0c1.022-0.414,2.044-0.414,3.067,0
		c3.237,0,6.476,0,9.713,0c0.853-0.414,1.703-0.414,2.556,0c1.192,0,2.388,0,3.578,0c0.459-0.443,1.033-0.193,1.555-0.262
		c0.328,0,0.654,0,0.982,0c0.521,0.066,1.096-0.184,1.553,0.262c0.343,0,0.683,0,1.022,0c0.517-0.445,1.138-0.24,1.712-0.255
		c6.811-0.146,13.579-0.825,20.287-1.94c13.298-2.211,26.338-5.409,38.842-10.58c12.93-5.346,25.073-11.891,34.521-22.547
		c5.657-6.383,9.502-13.557,10.268-22.299c0.509-5.791,0.232-11.563,0.392-17.343c0.227-8.348-1.258-16.271-5.967-23.354
		c-0.994-1.494-0.8-2.778,0.142-4.23c1.804-2.79,3.501-5.674,4.243-8.956c0.562-2.483,2.055-3.938,4.307-4.962
		c7.557-3.433,14.623-7.705,20.839-13.214c7.824-6.937,14.354-14.749,15.595-25.719c0-9.713,0-19.425,0-29.138
		C319.884,133.959,319.977,131.827,319.262,129.791z M55.82,46.231c6.695-9.065,15.945-14.901,25.824-19.784
		c10.946-5.409,22.571-8.98,34.48-11.498c17.652-3.731,35.547-4.879,53.558-4.208c21.564,0.803,42.607,4.417,62.676,12.566
		c11.233,4.562,21.789,10.403,30.088,19.533c7.507,8.256,10.098,16.783,6.137,26.117c-2.583,6.087-7.045,10.774-12.123,14.881
		c-11.355,9.184-24.521,14.74-38.368,18.825c-13.745,4.055-27.796,6.428-42.11,7.269c-6.295,0.37-12.59,0.556-21.384,0.447
		c-14.606-0.059-31.46-2.167-47.953-6.638C91.477,99.631,76.999,93.88,64.6,83.868c-5.416-4.373-10.107-9.396-12.594-16.058
		C49.056,59.908,50.996,52.764,55.82,46.231z M18.487,118.1c-5.157-5.687-8.73-12.174-7.675-20.289
		c0.753-5.797,3.753-10.551,7.541-14.734c6.105-6.744,13.603-11.662,22.195-15.948c0,2.676-0.015,4.999,0.003,7.322
		c0.038,4.755-0.027,9.48,1.228,14.178c1.856,6.953,5.667,12.651,10.546,17.722c7.588,7.887,16.772,13.416,26.612,18.052
		c14.58,6.871,30.009,10.915,45.796,13.391c16.842,2.643,33.86,3.434,50.914,2.217c3.31-0.236,6.603-0.654,9.899-0.989
		c0.224-0.094,0.474-0.128,0.554,0.143c0.135,0.465-0.235,0.674-0.55,0.894c-27.891,9.618-56.557,11.94-85.804,9.41
		c-17.478-1.512-34.463-5.084-50.732-11.606C37.602,133.289,26.884,127.361,18.487,118.1z M52.869,171.661
		c0.632-1.197,1.157-1.274,2.34-0.892c9.306,3.017,18.776,5.359,28.477,6.717c1.29,0.18,2.289,0.681,3.093,1.904
		c5.936,9.041,14.304,15.354,23.567,20.59c18.172,10.271,37.954,15.444,58.45,18.343c18.653,2.638,37.347,2.501,56.065,0.884
		c0.562,0.016,1.385-0.717,1.517,0.529c-27.569,9.777-55.991,12.33-84.983,9.959c-14.275-1.168-28.326-3.651-41.965-8.053
		c-12.917-4.17-25.224-9.664-35.725-18.521c-5.387-4.545-10.001-9.729-12.139-16.657C49.993,181.37,50.346,176.441,52.869,171.661z
		 M265.239,254.729c-6.949,9.442-16.622,15.416-26.972,20.354c-11.164,5.327-22.951,8.821-35.061,11.281
		c-14.146,2.872-28.443,4.098-44.415,4.038c-19.958,0.141-41.073-2.625-61.485-9.477c-14.25-4.781-27.775-11.124-38.332-22.346
		c-4.065-4.321-7.178-9.168-8.114-15.266c-0.773-5.033,0.719-9.371,3.108-13.617c0.844-1.499,1.376-0.315,1.873,0.113
		c4.9,4.25,10.229,7.859,15.903,10.988c10.476,5.776,21.666,9.672,33.178,12.742c23.518,6.275,47.489,7.807,71.656,6.309
		c19.603-1.218,38.769-4.896,57.166-12.035c11.315-4.393,21.976-9.914,31.063-18.104c1.287-1.16,1.717-0.861,2.537,0.507
		C272.479,238.773,270.738,247.26,265.239,254.729z M305.086,154.873c-9.859,12.863-23.811,19.627-38.539,25.021
		c-15.673,5.737-31.959,8.576-48.563,9.896c-23.607,1.877-46.899,0.147-69.845-5.774c-4.171-1.078-8.373-2.113-12.654-4.055
		c6.034-0.705,11.777-1.292,17.497-2.059c14.357-1.928,28.34-5.322,41.864-10.604c8.426-3.291,16.453-7.316,23.84-12.505
		c8.69-6.105,15.898-13.548,19.851-23.674c0.028-0.079,0.094-0.158,0.093-0.236c-0.029-5.373,4.063-6.926,7.956-8.859
		c8.885-4.41,17.002-9.925,23.675-17.37c0.901-1.005,1.623-1.2,3.034-0.601c10.481,4.45,20.278,9.943,28.328,18.146
		c3.292,3.355,6.005,7.15,7.601,11.645C311.998,141.67,309.862,148.641,305.086,154.873z"/>
	<path fill="#00AEEF" d="M185.55,140.06c0.249-0.347,0.4-0.692-0.004-1.037c0.806-0.635,1.675-0.583,2.685-0.253
		C187.424,139.539,186.701,140.229,185.55,140.06z"/>
	<path fill="#00AEEF" d="M226.377,219.736c-0.368-0.57-1.05-0.242-1.518-0.529c0.963-0.605,2.017-0.475,3.168-0.418
		C227.697,219.623,227.023,219.658,226.377,219.736z"/>
</g>
</svg>
