<?xml version="1.0" encoding="utf-8"?>
<!-- Generator: Adobe Illustrator 16.0.3, SVG Export Plug-In . SVG Version: 6.00 Build 0)  -->
<!DOCTYPE svg PUBLIC "-//W3C//DTD SVG 1.1//EN" "http://www.w3.org/Graphics/SVG/1.1/DTD/svg11.dtd">
<svg version="1.1" id="Layer_1" xmlns="http://www.w3.org/2000/svg" xmlns:xlink="http://www.w3.org/1999/xlink" x="0px" y="0px"
	 width="320px" height="320px" viewBox="0 0 320 320" enable-background="new 0 0 320 320" xml:space="preserve">
<g>
	<path fill-rule="evenodd" clip-rule="evenodd" fill="#FFFFFF" d="M157.444,0.511c-1.022,0.75-2.045,0.811-3.067,0
		C155.399,0.511,156.422,0.511,157.444,0.511z"/>
	<path fill-rule="evenodd" clip-rule="evenodd" fill="#FFFFFF" d="M151.31,320.511c1.022-0.877,2.044-0.736,3.067,0
		C153.354,320.511,152.332,320.511,151.31,320.511z"/>
	<path fill-rule="evenodd" clip-rule="evenodd" fill="#FFFFFF" d="M164.09,320.511c0.852-0.733,1.703-0.793,2.556,0
		C165.793,320.511,164.941,320.511,164.09,320.511z"/>
	<path fill-rule="evenodd" clip-rule="evenodd" fill="#FFFFFF" d="M150.799,0.511c-0.533,0.828-1.336,0.468-2.057,0.47
		c-0.165-0.109-0.217-0.215-0.159-0.318c0.057-0.101,0.114-0.152,0.171-0.152C149.436,0.511,150.117,0.511,150.799,0.511z"/>
	<path fill-rule="evenodd" clip-rule="evenodd" fill="#FFFFFF" d="M173.309,0.974c-0.681-0.005-1.361-0.01-2.042-0.016
		c-0.186-0.091-0.25-0.188-0.194-0.29c0.057-0.104,0.114-0.157,0.174-0.157c0.682,0,1.363,0,2.045,0
		c0.168,0.096,0.227,0.197,0.176,0.302C173.416,0.92,173.363,0.974,173.309,0.974z"/>
	<path fill-rule="evenodd" clip-rule="evenodd" fill="#FFFFFF" d="M169.723,0.986c-0.573,0.035-1.183,0.182-1.544-0.475
		c0.512,0,1.022,0,1.534,0c0.17,0.102,0.229,0.206,0.175,0.313C169.834,0.932,169.779,0.986,169.723,0.986z"/>
	<path fill-rule="evenodd" clip-rule="evenodd" fill="#FFFFFF" d="M169.723,0.986c-0.009-0.158-0.012-0.316-0.01-0.475
		c0.511,0,1.021,0,1.533,0c0.001,0.15,0.008,0.299,0.02,0.448C170.752,0.967,170.237,0.977,169.723,0.986z"/>
	<path fill-rule="evenodd" clip-rule="evenodd" fill="#FFFFFF" d="M170.224,320.511c0.348-0.715,0.973-0.501,1.546-0.46
		c0.164,0.107,0.216,0.21,0.158,0.312c-0.057,0.099-0.113,0.148-0.171,0.148C171.246,320.511,170.734,320.511,170.224,320.511z"/>
	<path fill-rule="evenodd" clip-rule="evenodd" fill="#FFFFFF" d="M172.801,320.072c0.535,0.041,1.239-0.503,1.513,0.438
		c-0.512,0-1.022,0-1.534,0c-0.176-0.106-0.231-0.207-0.166-0.302C172.675,320.118,172.738,320.072,172.801,320.072z"/>
	<path fill-rule="evenodd" clip-rule="evenodd" fill="#FFFFFF" d="M147.717,0.965c-0.431,0.059-0.913,0.234-1.008-0.454
		c0.341,0,0.681,0,1.022,0c0.175,0.106,0.231,0.209,0.168,0.308C147.839,0.916,147.778,0.965,147.717,0.965z"/>
	<path fill-rule="evenodd" clip-rule="evenodd" fill="#FFFFFF" d="M147.717,0.965c0.011-0.151,0.016-0.302,0.014-0.454
		c0.341,0,0.682,0,1.022,0c0.005,0.157,0.001,0.315-0.012,0.471C148.4,0.976,148.059,0.97,147.717,0.965z"/>
	<path fill-rule="evenodd" clip-rule="evenodd" fill="#FFFFFF" d="M173.309,0.974c-0.018-0.153-0.023-0.308-0.018-0.462
		c0.341,0,0.681,0,1.022,0C174.228,1.207,173.737,1.023,173.309,0.974z"/>
	<path fill-rule="evenodd" clip-rule="evenodd" fill="#FFFFFF" d="M146.709,320.511c0.341-0.795,0.681-0.739,1.022,0
		C147.391,320.511,147.05,320.511,146.709,320.511z"/>
	<path fill-rule="evenodd" clip-rule="evenodd" fill="#FFFFFF" d="M172.801,320.072c-0.012,0.146-0.019,0.292-0.021,0.438
		c-0.341,0-0.682,0-1.022,0c-0.001-0.153,0.003-0.308,0.013-0.461C172.113,320.058,172.457,320.064,172.801,320.072z"/>
	<path fill-rule="evenodd" clip-rule="evenodd" fill="#FFFFFF" d="M319.262,129.791c-3.421-9.744-10.338-16.669-18.222-22.791
		c-6.213-4.824-13.077-8.592-20.289-11.703c-1.878-0.81-2.406-1.879-1.673-3.777c0.954-2.468,1.469-5.047,1.795-7.683
		c0.937-7.553,0.545-15.135,0.395-22.692c-0.161-8.115-2.889-15.473-7.802-22.004c-5.093-6.77-11.465-12.144-18.624-16.486
		C233.83,9.91,210.637,3.983,186.453,1.297c-3.698-0.411-7.445-0.064-11.117-0.786c-0.342,0-0.682,0-1.022,0
		c-0.377,0.388-0.864,0.222-1.31,0.262c-0.584,0-1.169,0-1.753,0c-0.469,0-0.937,0-1.405,0c-0.558-0.076-1.17,0.194-1.667-0.262
		c-3.578,0-7.156,0-10.734,0c-1.022,0.415-2.045,0.415-3.067,0c-1.192,0-2.386,0-3.578,0c-0.578,0.489-1.268,0.167-1.9,0.262
		c-0.327,0-0.654,0-0.98,0c-0.416-0.032-0.867,0.106-1.209-0.262c-0.682,0-1.364,0-2.045,0c-2.568,0.702-5.216,0.326-7.814,0.575
		c-15.99,1.532-31.651,4.661-46.763,10.178c-10.664,3.893-20.902,8.663-30,15.62c-8.987,6.872-16.28,14.963-19.304,26.203
		c-0.491,1.826-1.714,2.819-3.332,3.588c-7.017,3.334-13.808,7.104-19.728,12.158C9.472,75.88,2.242,83.706,0.511,95.08
		c0,10.053,0,20.106,0,30.16c0.443,3.915,1.575,7.621,3.465,11.077c4.084,7.468,9.94,13.313,16.768,18.276
		c6.152,4.472,12.701,8.25,19.662,11.297c1.757,0.771,2.219,1.709,1.552,3.563c-0.861,2.392-1.49,4.861-1.833,7.418
		c-0.855,6.366-0.301,12.752-0.467,19.126c-0.209,8.004,1.356,15.579,5.697,22.412c1.027,1.617,0.872,2.935-0.115,4.453
		c-1.77,2.725-3.138,5.648-3.979,8.808c-2.584,9.718-1.562,19.608-1.334,29.448c0.056,2.434,0.333,4.896,0.983,7.315
		c2.49,9.265,8.163,16.373,15.19,22.513c9.025,7.886,19.563,13.196,30.641,17.553c12.744,5.011,25.967,8.107,39.464,10.213
		c6.125,0.955,12.321,1.056,18.46,1.8c0.681,0,1.363,0,2.045,0c0.341-0.319,0.681-0.319,1.022,0c1.193,0,2.386,0,3.579,0
		c1.022-0.414,2.044-0.414,3.067,0c3.237,0,6.475,0,9.713,0c0.852-0.414,1.703-0.414,2.556,0c1.192,0,2.386,0,3.578,0
		c0.458-0.443,1.033-0.193,1.555-0.261c0.327,0,0.654,0,0.981,0c0.521,0.068,1.096-0.182,1.554,0.261c0.341,0,0.681,0,1.022,0
		c0.516-0.445,1.138-0.241,1.712-0.254c6.811-0.146,13.579-0.826,20.287-1.941c13.298-2.211,26.338-5.41,38.841-10.58
		c12.93-5.347,25.074-11.891,34.52-22.547c5.658-6.384,9.502-13.556,10.268-22.299c0.507-5.792,0.232-11.563,0.39-17.342
		c0.227-8.348-1.257-16.271-5.966-23.354c-0.994-1.495-0.799-2.779,0.141-4.231c1.804-2.79,3.501-5.674,4.243-8.956
		c0.562-2.484,2.055-3.94,4.307-4.962c7.556-3.433,14.623-7.705,20.839-13.214c7.824-6.936,14.354-14.749,15.595-25.719
		c0-9.713,0-19.425,0-29.138C319.884,133.959,319.977,131.827,319.262,129.791z M55.82,46.231
		c6.695-9.065,15.945-14.901,25.824-19.784c10.946-5.409,22.571-8.98,34.48-11.498c17.652-3.731,35.547-4.879,53.558-4.208
		c21.564,0.803,42.607,4.417,62.675,12.566c11.234,4.562,21.79,10.403,30.089,19.533c7.505,8.256,10.096,16.783,6.135,26.117
		c-2.583,6.087-7.045,10.774-12.123,14.881c-11.357,9.184-24.521,14.74-38.368,18.825c-13.746,4.055-27.796,6.428-42.111,7.269
		c-6.296,0.37-12.59,0.556-21.385,0.447c-14.606-0.059-31.46-2.167-47.953-6.638C91.477,99.631,76.999,93.88,64.6,83.868
		c-5.416-4.373-10.107-9.396-12.594-16.058C49.056,59.908,50.996,52.764,55.82,46.231z M18.487,118.1
		c-5.157-5.687-8.73-12.174-7.675-20.289c0.753-5.797,3.753-10.551,7.541-14.734c6.105-6.744,13.603-11.662,22.195-15.948
		c0,2.676-0.015,4.999,0.003,7.322c0.038,4.755-0.027,9.48,1.228,14.178c1.856,6.953,5.667,12.651,10.546,17.722
		c7.588,7.887,16.772,13.416,26.612,18.052c14.58,6.871,30.009,10.915,45.796,13.391c16.842,2.643,33.86,3.434,50.914,2.217
		c3.308-0.236,6.601-0.654,9.899-0.989c0.223-0.094,0.474-0.128,0.553,0.143c0.136,0.465-0.235,0.674-0.549,0.894
		c-27.891,9.618-56.557,11.94-85.804,9.41c-17.478-1.512-34.463-5.084-50.732-11.606C37.602,133.289,26.884,127.361,18.487,118.1z
		 M52.869,171.661c0.632-1.197,1.157-1.274,2.34-0.891c9.306,3.016,18.776,5.36,28.477,6.716c1.29,0.18,2.289,0.681,3.093,1.905
		c5.936,9.04,14.304,15.354,23.567,20.59c18.172,10.271,37.954,15.445,58.45,18.342c18.653,2.638,37.347,2.501,56.065,0.884
		c0.562,0.016,1.385-0.717,1.517,0.529c-27.57,9.777-55.992,12.33-84.983,9.959c-14.275-1.167-28.326-3.651-41.965-8.053
		c-12.917-4.169-25.224-9.663-35.725-18.521c-5.387-4.545-10.001-9.729-12.139-16.657C49.993,181.37,50.346,176.442,52.869,171.661z
		 M265.239,254.729c-6.949,9.442-16.622,15.415-26.971,20.354c-11.164,5.327-22.951,8.821-35.06,11.281
		c-14.147,2.873-28.445,4.098-44.415,4.038c-19.958,0.141-41.073-2.624-61.485-9.475c-14.25-4.783-27.775-11.124-38.332-22.346
		c-4.065-4.321-7.178-9.168-8.114-15.264c-0.773-5.035,0.719-9.372,3.108-13.619c0.844-1.499,1.376-0.315,1.873,0.115
		c4.9,4.249,10.229,7.859,15.903,10.988c10.476,5.776,21.666,9.671,33.178,12.742c23.518,6.275,47.489,7.807,71.656,6.308
		c19.601-1.217,38.768-4.895,57.166-12.035c11.316-4.392,21.975-9.914,31.064-18.104c1.288-1.16,1.717-0.862,2.538,0.507
		C272.479,238.773,270.738,247.26,265.239,254.729z M305.086,154.873c-9.859,12.863-23.81,19.627-38.539,25.021
		c-15.673,5.739-31.959,8.576-48.562,9.896c-23.608,1.877-46.9,0.148-69.846-5.775c-4.171-1.077-8.373-2.113-12.654-4.054
		c6.034-0.705,11.777-1.292,17.497-2.059c14.357-1.927,28.341-5.322,41.864-10.604c8.425-3.291,16.453-7.316,23.84-12.505
		c8.69-6.105,15.898-13.548,19.849-23.674c0.03-0.079,0.094-0.158,0.093-0.236c-0.031-5.373,4.061-6.926,7.956-8.859
		c8.885-4.41,17.002-9.925,23.675-17.37c0.901-1.005,1.623-1.2,3.034-0.601c10.483,4.45,20.28,9.943,28.328,18.146
		c3.292,3.355,6.005,7.15,7.601,11.645C311.998,141.67,309.862,148.641,305.086,154.873z"/>
	<path fill-rule="evenodd" clip-rule="evenodd" fill="#FFFFFF" d="M185.55,140.06c0.249-0.347,0.4-0.692-0.004-1.037
		c0.806-0.635,1.674-0.583,2.685-0.253C187.424,139.539,186.701,140.229,185.55,140.06z"/>
	<path fill-rule="evenodd" clip-rule="evenodd" fill="#FFFFFF" d="M226.377,219.736c-0.368-0.57-1.05-0.242-1.517-0.529
		c0.962-0.605,2.016-0.474,3.168-0.418C227.697,219.623,227.024,219.658,226.377,219.736z"/>
</g>
<g>
	<path fill="#FFFFFF" d="M199.445,52.442c1.719,10.24-0.529,21.149-7.138,30.223c-11.101,15.237-30.913,20.376-47.569,13.533
		c0,0,15.649-3.174,31.896-15.353C194.487,67.891,199.445,52.442,199.445,52.442z"/>
	<path fill="#FFFFFF" d="M125.055,78.752c-7.353-13.191-6.861-30.027,2.64-43.069c13.024-17.879,38.046-21.854,55.889-8.881
		c5.024,3.655,8.946,8.265,11.695,13.402c0,0-6.045-2.65-10.909-2.511c-4.863,0.139-13.291,1.772-22.438,5.979
		c-6.024,3.1-11.688,5.979-21.386,14.338c-0.635,0.498-1.013,0.285-1.658,0.027c-0.644-0.259-2.266-0.72-3.721,0.388
		c-1.455,1.107-1.857,2.724-1.224,4.389c0.412,1.138,0.255,1.437,0.007,1.83c-0.248,0.394-2.836,3.625-3.546,4.575
		c-0.709,0.951-4.92,8.857-5.112,9.172C125.099,78.704,125.055,78.752,125.055,78.752z"/>
	<g>
		<path fill="#FFFFFF" d="M160.745,48.209c4.37-1.222,9.083-2.154,13.548-0.854c2.126,0.625,4.038,2.187,4.727,4.348
			c0.902,2.774,0.113,5.756-0.94,8.372c-1.311,3.123-3.377,5.848-5.578,8.391c-6.344,7.404-14.683,13.035-23.872,16.258
			c-2.717,0.925-5.465,1.834-8.334,2.132c-1.595,0.186-3.211,0.492-4.813,0.18c-2.55-0.333-5.265-1.221-6.8-3.42
			c-1.646-2.287-1.477-5.367-0.636-7.932c1.137-3.593,3.597-6.519,5.652-9.604c0.385-0.527,0.759-1.172,1.435-1.352
			c0.9,0.098,1.766,0.555,2.687,0.425c1.738-0.155,3.193-1.711,3.281-3.448c0.076-0.838-0.268-1.622-0.531-2.397
			C146.522,54.413,153.317,50.387,160.745,48.209"/>
	</g>
</g>
</svg>
