<?xml version="1.0" encoding="utf-8"?>
<!-- Generator: Adobe Illustrator 16.0.3, SVG Export Plug-In . SVG Version: 6.00 Build 0)  -->
<!DOCTYPE svg PUBLIC "-//W3C//DTD SVG 1.1//EN" "http://www.w3.org/Graphics/SVG/1.1/DTD/svg11.dtd">
<svg version="1.1" id="Layer_1" xmlns="http://www.w3.org/2000/svg" xmlns:xlink="http://www.w3.org/1999/xlink" x="0px" y="0px"
	 width="300px" height="300px" viewBox="0 0 300 300" enable-background="new 0 0 300 300" xml:space="preserve">
<g>
	<path fill-rule="evenodd" clip-rule="evenodd" fill="#00AEEF" d="M268.027,107.991c-2.628,3.516-2.711,5.109-3.814,7.728
		c-6.111,14.513-17.051,24.402-29.957,32.738c-12.57,8.119-26.92,12.948-39.164,21.571c-5.559,3.915-10.279,7.973-10.41,16.203
		c-0.154,9.614-7.08,14.774-17.027,14.786c-14.662,0.017-29.328-0.226-43.983,0.068c-14.949,0.3-20.873-7.08-19.646-21.22
		c1.332-15.349,7.235-28.563,19.219-38.487c9.588-7.938,20.527-13.843,31.696-19.268c9.779-4.749,19.691-9.209,28.418-15.884
		c15.051-11.513,11.051-25.67-0.709-34.774c-14.65-11.341-31.627-13.197-49.523-10.696c-13.081,1.828-23.521,8.271-32.712,17.257
		c-3.536,3.458-6.747,7.312-10.584,10.388c-8.797,7.052-16.137,7.013-26.347,0.318c-7.326-4.803-14.518-9.812-21.875-14.565
		c-3.823-2.47-6.734-5.791-9.633-9.174c0-2.334,0-4.667,0-7.001c1.273-4.44,4.111-7.92,7.071-11.284
		c16.404-18.643,36.215-32.256,59.87-40.011c11.063-3.627,22.51-5.551,34.083-6.719c11.002,0,22.005,0,33.007,0
		c16.283,2.002,31.922,6.292,46.668,13.525c21.422,10.506,39.332,24.904,50.822,46.361c2.232,4.171,2.498,8.939,4.533,13.13
		C270.399,83.809,273.365,90.293,268.027,107.991z"/>
</g>
<circle fill-rule="evenodd" clip-rule="evenodd" fill="#00AEEF" cx="144.294" cy="260" r="40"/>
</svg>
