<?xml version="1.0" encoding="utf-8"?>
<!-- Generator: Adobe Illustrator 16.0.3, SVG Export Plug-In . SVG Version: 6.00 Build 0)  -->
<!DOCTYPE svg PUBLIC "-//W3C//DTD SVG 1.1//EN" "http://www.w3.org/Graphics/SVG/1.1/DTD/svg11.dtd">
<svg version="1.1" id="Layer_1" xmlns="http://www.w3.org/2000/svg" xmlns:xlink="http://www.w3.org/1999/xlink" x="0px" y="0px"
	 width="320px" height="320px" viewBox="0 0 320 320" enable-background="new 0 0 320 320" xml:space="preserve">
<g>
	<path fill-rule="evenodd" clip-rule="evenodd" fill="#00AEEF" d="M96.616,106.685c-9.174-12.513-12.943-26.563-12.749-42.141
		c0.277-22.178,9.66-39.187,27.161-51.795c21.365-15.393,43.888-16.649,67.212-4.838c22.734,11.514,32.951,31.056,34.732,56.001
		c1.125,15.77-3.01,29.982-12.053,42.785c-9.953-0.003-19.908-0.007-29.863-0.01c-0.49-1.991,0.916-3.12,1.982-4.361
		c13.107-15.251,9.615-34.427-7.953-44.137c-5.29-2.924-11.132-4.489-16.446-7.307c-3.401-1.803-7.45-3.427-6.507-8.367
		c0.928-4.857,5.472-4.294,8.899-4.813c4.533-0.686,8.896,0.654,13.175,2.15c5.467,1.911,8.479,0.341,10.762-5.507
		c2.66-6.817,1.408-11.493-3.777-13.791c-2.764-1.225-5.783-1.542-8.705-2.195c-3.232-0.723-5.263-2.212-5.613-5.997
		c-0.451-4.868-3.03-6.531-8.831-6.512c-5.337,0.016-8.244,2.128-8.533,7.029c-0.256,4.324-2.258,6.61-6.016,8.317
		c-10.502,4.776-17.123,12.289-17.173,24.844c-0.05,12.495,7.199,19.423,16.979,24.593c4.414,2.334,9.113,4.127,13.817,5.835
		c1.569,0.57,3.109,1.206,4.507,2.146c2.848,1.914,4.773,4.442,3.883,8.046c-0.893,3.616-3.813,4.988-7.189,5.206
		c-6.5,0.422-12.882,0.209-19.166-2.187c-8.997-3.431-12.68-0.451-12.791,9.53c-0.028,2.514,1.261,4.945,0.332,7.475
		C110,106.686,103.308,106.685,96.616,106.685z"/>
	<path fill-rule="evenodd" clip-rule="evenodd" fill="#00AEEF" d="M311.789,108.791c-4.1-2.492-8.584-3.404-13.307-3.504
		c-7.781-0.165-15.568,0.329-23.344-0.114c-15.064-0.122-30.133-0.036-45.199,0.06c-9.67-0.017-19.344-0.248-29.016,0.017
		c-9.475-0.305-18.951-0.036-28.428-0.061c-0.479,0.501-0.961,0.999-1.439,1.499c-18.121,0-36.242-0.001-54.364-0.001
		c-0.305-0.457-0.556-0.964-0.782-1.492c-6.254,0.043-12.51-0.176-18.765,0.036c-4.063,0.014-8.126,0.027-12.19,0.018
		c-4.685-0.105-9.368-0.154-14.05,0.081c-5.336-0.248-10.674-0.238-16.013-0.046c-11.223,0.432-22.442-0.392-33.67-0.044
		c-5.387,0.417-10.547,1.444-14.884,5.062c-4.618,3.852-5.729,9.2-6.28,14.809c0,58.856,0,117.709,0,176.565
		c1.879,14.033,6.525,16.867,15.994,18.264c95.965,0,191.929,0,287.894,0c9.42-1.783,13.557-5.408,15.061-12.873
		c0.361-1.793-0.039-3.721,0.934-5.391c0-58.855,0-117.709,0-176.565C319.273,118.615,317.889,112.495,311.789,108.791z
		 M253.752,202.207c-19.801,19.089-39.689,38.087-59.535,57.129c-3.42,3.281-7.23,4.814-11.82,2.781
		c-4.725-2.094-6.402-6.02-6.373-11.015c0.051-8.622-0.029-17.244,0.041-25.865c0.02-2.294-0.143-3.838-3.111-3.731
		c-16.304,0.588-32.625,1.101-48.12,7.124c-16.303,6.337-23.753,17.488-24.092,35.202c-0.199,10.434,1.951,20.455,4.751,30.367
		c1.09,3.861,0.648,6.939-2.781,9.309c-3.318,2.293-5.967,0.676-8.593-1.348c-26.357-20.299-37.379-58.872-25.688-90.187
		c6.646-17.802,19.775-28.771,36.854-35.379c20.679-8,42.333-9.733,64.195-10.074c7.584-0.117,6.457,0.813,6.549-6.881
		c0.043-3.55,0.008-7.1,0.01-10.65c0.002-4.396-0.059-8.792,0.018-13.186c0.08-4.605,1.92-8.178,6.305-9.986
		c4.309-1.778,8.102-0.823,11.451,2.385c19.992,19.133,40.031,38.215,59.973,57.4C259.531,191.131,259.51,196.657,253.752,202.207z"
		/>
	<path fill-rule="evenodd" clip-rule="evenodd" fill="#00AEEF" d="M229.611,105.688c-4.234-2.945-8.541-3.769-12.166-7.545
		c-2.322-2.419-3.205-4.816-1.893-8.175c1.141-2.919,1.65-6.091,2.523-9.478c2.789,2.478,5.203,4.761,7.766,6.862
		c2.178,1.787,1.193,3.448,0.227,5.333c-2.297,4.477-1.336,6.931,3.734,10.2c3.764,2.427,7.293,2.014,9.332-1.942
		c2.027-3.937,4.383-4.451,8.443-3.636c9.016,1.809,15.848-2.446,21.094-9.54c5.199-7.031,6.33-14.541,2.314-22.708
		c-2.564-5.22-6.588-9.301-9.738-14.044c-1.521-2.292-4.078-5.162-1.82-7.708c2.301-2.591,5.244-0.008,7.717,1.118
		c3.281,1.495,5.531,4.296,7.779,7.01c2.725,3.287,5.543,3.275,8.555,0.508c1.111-1.02,2.223-2.045,3.268-3.132
		c4.412-4.59,4.307-7.626-0.41-11.883c-1.24-1.12-2.563-2.147-3.82-3.25c-1.717-1.506-2.133-3.009-0.889-5.292
		c2.26-4.145,1.057-6.687-3.664-9.741c-3.719-2.405-7.428-3.188-9.725,1.33c-1.889,3.715-4.434,3.908-7.785,3.414
		c-9.393-1.386-16.541,2.289-21.693,10.915c-4.963,8.309-3.428,16.172,1.637,23.688c2.906,4.314,6.176,8.375,9.197,12.613
		c1.322,1.856,2.137,3.957,0.504,6.06c-1.531,1.97-3.551,1.28-5.508,0.767c-4.727-1.24-8.221-4.32-11.285-7.938
		c-6.336-7.473-6.301-7.505-14.264-1.71c-1.307-7.874-1.107-15.869-4.051-23.25c-0.123-0.313-0.275-0.629-0.322-0.957
		c-0.533-3.648-4.65-6.646-3.188-10.274c2.012-4.998,5.768-9.163,10.039-12.432c22.076-16.892,58.123-15.875,75.564,12.541
		c15.314,24.95,4.264,59.674-19.201,71.104c-0.572,0.279-1.043,0.778-1.559,1.174C260.754,105.688,245.182,105.688,229.611,105.688z
		"/>
	<path fill-rule="evenodd" clip-rule="evenodd" fill="#00AEEF" d="M50.395,106.412c1.822-0.421,3.624-3.174,4.634-0.728
		c-11.637,0.005-23.274,0.01-34.911,0.015C10.907,96.848,5.213,88.197,2.921,75.417C0.232,60.421,4.12,47.303,12.998,35.567
		c13.367-17.672,31.011-22.907,52.24-18.389c7.855,1.672,14.106,5.594,20.117,10.46c2.013,1.63,2.906,2.932,1.171,5.777
		c-5.601,9.187-7.42,19.643-8.56,31.19c-7.291-7.995-16.27-9.223-25.477-9.824c-1.148-0.075-2.294-0.415-3.409-0.743
		c-1.975-0.582-4.641-0.444-4.89-3.321c-0.258-2.972,2.521-3.293,4.369-4.078c3.408-1.447,7.009-2.016,10.75-1.518
		c5.547,0.739,8.163-1.56,8.699-7.486c0.6-6.646-2.085-10.685-7.331-10.983c-1.163-0.066-2.334-0.063-3.498-0.001
		c-3.564,0.188-6.604,0.858-8.304-4.294c-1.492-4.522-6.355-3.269-10.039-2.006c-3.524,1.208-5.954,3.781-4.46,7.702
		c1.426,3.743-0.163,5.563-2.745,7.625c-14.956,11.944-9.12,28.66-0.302,35.035c6.135,4.435,13.453,4.465,20.454,5.681
		c1.961,0.34,3.923,0.669,5.883,1.01c2.002,0.348,3.346,1.246,3.434,3.593c0.083,2.197-0.974,3.422-2.782,4.324
		c-5.144,2.567-10.655,2.645-16.126,2.127c-4.511-0.426-7.767,0.03-8.682,5.517c-0.989,5.937,0.791,10.67,5.614,12.662"/>
	<path fill-rule="evenodd" clip-rule="evenodd" fill="#00AEEF" d="M85.438,105.684c-4.798,0-9.599,0-14.4,0
		c-1.706-4.768-1.164-6.609,3.502-9.639c2.424-1.573,4.148-4.259,6.435-6.706"/>
</g>
</svg>
