<?xml version="1.0" encoding="utf-8"?>
<!-- Generator: Adobe Illustrator 16.0.3, SVG Export Plug-In . SVG Version: 6.00 Build 0)  -->
<!DOCTYPE svg PUBLIC "-//W3C//DTD SVG 1.1//EN" "http://www.w3.org/Graphics/SVG/1.1/DTD/svg11.dtd">
<svg version="1.1" id="Layer_1" xmlns="http://www.w3.org/2000/svg" xmlns:xlink="http://www.w3.org/1999/xlink" x="0px" y="0px"
	 width="320px" height="320px" viewBox="0 0 320 320" enable-background="new 0 0 320 320" xml:space="preserve">
<g>
	<path fill-rule="evenodd" clip-rule="evenodd" fill="#00AEEF" d="M0,290.857c9.528-8.367,17.586-18.181,26.394-27.253
		c14.873-15.321,29.324-31.057,43.894-46.674c14.333-15.361,28.694-30.697,42.844-46.229c7.475-8.206,10.792-18.242,11.148-29.285
		c0.108-3.344,0.487-6.774-0.061-10.028c-2.899-17.248,10.274-30.835,22.789-36.222c14.536-6.255,29.712-6.133,44.969-3.096
		c2.304,0.458,4.995,1.452,5.445,3.854c0.506,2.704-2.01,4.463-4.071,5.751c-7.465,4.667-15.331,8.68-22.28,14.187
		c-9.115,7.224-10.139,10.571-6.095,21.355c3.561,9.493,7.761,18.356,17.385,23.54c4.885,2.63,8.868,2.592,13.355-0.467
		c6.87-4.683,13.918-9.105,20.937-13.567c2.587-1.645,5.618-3.187,8.323-0.984c2.862,2.333,2.306,6.045,0.923,8.847
		c-6.91,13.993-14.887,27.304-27.61,36.868c-4.898,3.681-10.624,5.345-16.901,4.992c-8.004-0.45-15.952-0.008-23.708,2.344
		c-7.133,2.162-13.31,5.809-18.501,11.245c-33.765,35.368-67.573,70.696-101.369,106.034c-0.923,0.965-1.873,1.904-2.81,2.857
		c-1.724,1.134-3.646,0.293-5.455,0.555c-15.457-0.651-25.602-9.142-28.974-24.271c-0.11-0.497-0.249-0.948-0.57-1.339
		C0,292.868,0,291.862,0,290.857z"/>
	<path fill-rule="evenodd" clip-rule="evenodd" fill="#00AEEF" d="M320,160.22l-0.421,0.014l-0.422-0.006
		c-2.787-7.374-2.785-14.749-0.002-22.124c0.282-0.009,0.563-0.007,0.845,0.008C320,145.481,320,152.85,320,160.22z"/>
	<path fill-rule="evenodd" clip-rule="evenodd" fill="#00AEEF" d="M29,320c-0.077-0.277-0.144-0.559-0.202-0.841
		c2.066-0.076,4.134-0.154,6.2-0.231C34.999,319.285,35,319.643,35,320C33,320,31,320,29,320z"/>
	<path fill-rule="evenodd" clip-rule="evenodd" fill="#00AEEF" d="M319.155,138.104c0.001,7.375,0.002,14.75,0.002,22.124
		c-2.027,3.241-0.773,7.076-2.021,10.583c-1.576,4.435-4.47,6.358-8.729,6.689c-2.814,0.219-5.673,0.212-8.493,0.016
		c-7.056-0.492-11.767,3.473-14.73,8.973c-3.794,7.037-6.958,14.495-9.593,22.054c-1.833,5.256,0.844,9.983,4.337,14.01
		c1.093,1.26,2.344,2.381,3.533,3.553c6.894,6.8,6.982,11.624-0.101,18.501c-7.753,7.531-15.683,14.884-23.628,22.213
		c-4.151,3.828-9.792,3.48-14.302-0.433c-3.353-2.91-5.798-6.891-9.992-8.799c-6.393-2.907-12.3-0.294-17.946,2.215
		c-6.343,2.818-13.55,4.001-18.479,9.741c-2.179,2.537-3.884,5.045-3.424,8.444c0.571,4.222-0.846,8.213-1.269,12.306
		c-0.516,4.981-4.799,6.657-8.93,7.063c-7.726,0.758-15.499,2.092-23.268,1.134c-5.353-0.659-10.84-0.366-16.06-2.178
		c-4.099-1.422-6.045-4.315-6.229-8.508c-0.11-2.507-0.204-5.039,0.008-7.532c0.662-7.78-3.803-12.465-9.878-15.655
		c-5.325-2.796-11.047-4.879-16.711-6.953c-2.517-0.923-3.562-1.337-1.163-3.762c8.188-8.282,16.27-16.672,24.268-25.138
		c1.935-2.048,3.615-2.565,6.39-1.595c8.408,2.944,17.191,4.58,26.059,4.23c26.197-1.032,47.817-11.457,64.452-32.207
		c8.527-10.638,14.387-22.5,16.593-35.783c3.254-19.606,0.115-38.126-10.407-55.504C228.088,89.15,212.11,76.821,191.5,70.648
		c-18.14-5.433-36.341-4.604-54.051,2.325c-19.205,7.514-33.604,20.844-43.355,38.823c-8.366,15.425-11.019,32.13-8.085,49.675
		c0.486,2.909,0.345,6.401,1.689,8.64c4.416,7.347,1.008,11.508-4.221,16.479c-8.002,7.607-15.138,16.137-22.929,24.586
		c-2.002-9.687-6.576-17.813-10.327-26.208c-2.644-5.92-7.991-9.094-14.907-8.521c-1.158,0.097-2.332,0.009-3.499,0.008
		c-10.34-0.009-13.795-2.181-14.278-12.441c-0.516-10.918-1.563-22.009,0.832-32.907c1.582-7.192,4.697-9.563,11.968-9.819
		c5.168-0.183,10.511,1.198,15.308-2.409c3.982-2.994,5.525-7.312,7.175-11.555c2.484-6.392,6.548-12.197,7.177-19.293
		c0.431-4.861-1.381-8.793-4.982-11.852c-10.905-9.262-11.039-14.664,0.045-24.963c6.236-5.796,12.139-11.954,18.217-17.923
		c5.478-5.38,11.586-5.412,17.103-0.113c1.564,1.503,3.056,3.086,4.623,4.588c4.502,4.314,9.736,6.397,15.692,3.747
		c8.633-3.841,18.129-5.86,25.63-12.146c3.458-2.897,4.849-6.578,4.558-10.974c-0.977-14.736,3.125-17.573,17.607-18.274
		c8.117-0.392,16.069,0.294,24.097,0.333c10.043,0.048,14.455,5.803,14.224,14.212c-0.367,13.317,1.251,15.693,14.105,20.879
		c7.055,2.846,13.544,7.493,21.739,7.167c3.368-0.133,5.878-1.227,8.341-3.466c3.483-3.164,6.085-7.296,11.163-8.763
		c3.882-1.12,6.687-0.313,9.3,2.256c8.341,8.194,16.674,16.396,24.923,24.683c4.626,4.647,4.454,10.053-0.114,14.883
		c-2.39,2.527-4.995,4.791-7.028,7.74c-3.089,4.484-4.101,9.059-1.675,13.877c3.961,7.864,5.11,17.014,11.023,23.975
		c3.503,4.125,8.18,5.305,13.229,5.561c2.658,0.135,5.346-0.167,7.994,0.057c4.44,0.375,7.554,2.821,8.005,7.313
		C318.065,133.332,318.777,135.669,319.155,138.104z"/>
</g>
</svg>
