<?xml version="1.0" encoding="utf-8"?>
<!-- Generator: Adobe Illustrator 16.0.3, SVG Export Plug-In . SVG Version: 6.00 Build 0)  -->
<!DOCTYPE svg PUBLIC "-//W3C//DTD SVG 1.1//EN" "http://www.w3.org/Graphics/SVG/1.1/DTD/svg11.dtd">
<svg version="1.1" id="Layer_1" xmlns="http://www.w3.org/2000/svg" xmlns:xlink="http://www.w3.org/1999/xlink" x="0px" y="0px"
	 width="320px" height="320px" viewBox="0 0 320 320" enable-background="new 0 0 320 320" xml:space="preserve">
<g>
	<path fill="#00AEEF" d="M320.13,152.158c0.212,0.014,0.424,0.027,0.636,0.037c0,5.476,0,10.952,0,16.429
		c-0.208,0.024-0.417,0.038-0.627,0.039C320.137,163.161,320.133,157.659,320.13,152.158z"/>
	<path fill="#00AEEF" d="M150.766,320.766c2.857-1.435,5.714-0.912,8.571,0C156.48,320.766,153.623,320.766,150.766,320.766z"/>
	<path fill="#00AEEF" d="M161.479,320.766c2.621-0.896,5.238-1.475,7.857,0C166.718,320.766,164.1,320.766,161.479,320.766z"/>
	<path fill="#00AEEF" d="M319.868,140.847c-1.789-17.946-7.025-34.964-14.997-51.058c-13.387-27.025-32.783-48.785-58.334-64.955
		C228.738,13.57,209.461,6.115,188.766,2.257c-5.486-1.022-11.078-0.665-16.57-1.493c-8.334,0-16.667,0-25,0
		c-0.72,0.627-1.588,0.32-2.392,0.357c-6.532,0.305-13.013,0.926-19.398,2.452C92.219,11.503,63.888,27.61,40.92,53.065
		c-17.395,19.279-29.271,41.43-36.062,66.431c-2.153,7.927-3.184,16.006-4.091,24.125c0,11.667,0,23.333,0,35
		c1.226,3.169,0.564,6.553,1.138,9.814c2.757,15.688,7.633,30.696,14.842,44.862c8.582,16.864,19.877,31.716,33.717,44.726
		c19.832,18.645,42.856,31.256,69.082,38.326c9.093,2.45,18.327,3.605,27.649,4.414c1.19,0,2.38,0,3.571,0
		c2.857-0.604,5.714-0.604,8.571,0c0.714,0,1.431,0,2.144,0c2.621-0.58,5.237-0.58,7.856,0c0.952,0,1.905,0,2.856,0
		c0.277-0.234,0.592-0.363,0.966-0.361c9.694,0.041,19.108-1.709,28.462-4.153c27.938-7.306,52.014-21.394,72.422-41.632
		c14.039-13.926,25.199-29.979,33.212-48.159c8.243-18.707,13.329-38.089,13.146-58.664c0-4.948,0-9.901-0.001-14.858
		C320.53,148.891,320.267,144.848,319.868,140.847z M160.362,298.404c-75.811,0.041-137.688-61.947-137.583-137.829
		c0.104-75.817,61.387-137.56,137.505-137.524c77.674,0.038,137.709,62.958,137.76,137.615
		C298.096,236.475,236.277,298.364,160.362,298.404z"/>
</g>
<path fill="#00AEEF" d="M160.898,14.786C81.46,14.339,17.74,84.41,20.287,160.328c-2.641,74.994,59.529,145.902,139.621,145.671
	c77.573-0.225,140.521-64.967,140.593-145.242C300.575,77.428,234.188,15.193,160.898,14.786z M37.21,230.887
	c-25.764-48.038-24.037-109.328,9.253-156.796C92.093,9.013,179.768-5.458,242.282,41.77c17.604,13.299,31.34,30.086,40.966,48.783
	c0,0-21.166-9.652-38.208-9.137c-17.036,0.493-46.577,6.444-78.632,21.752c-21.097,11.301-40.949,21.768-74.917,52.211
	c-2.236,1.797-3.55,1.012-5.821,0.086c-2.249-0.931-7.938-2.612-13.037,1.412c-5.096,4.023-6.499,9.927-4.283,15.974
	c1.449,4.161,0.895,5.218,0.02,6.649c-0.862,1.429-9.93,13.223-12.413,16.677c-2.486,3.453-17.244,32.24-17.919,33.386
	C37.359,230.702,37.21,230.887,37.21,230.887z M73.742,261.015c-8.935-1.198-18.442-4.418-23.814-12.424
	c-5.767-8.357-5.18-19.556-2.233-28.902c3.986-13.053,12.598-23.72,19.808-34.937c1.351-1.931,2.652-4.268,5.024-4.911
	c3.153,0.347,6.19,2.018,9.413,1.532c6.089-0.564,11.193-6.236,11.5-12.551c0.267-3.063-0.941-5.919-1.867-8.741
	c20.848-17.799,44.666-32.458,70.678-40.395c15.317-4.441,31.825-7.841,47.473-3.092c7.445,2.262,14.161,7.946,16.575,15.824
	c3.152,10.087,0.387,20.936-3.293,30.466c-4.598,11.372-11.856,21.3-19.563,30.537c-22.228,26.972-51.432,47.476-83.634,59.202
	c-9.514,3.372-19.143,6.659-29.203,7.751C85.022,261.029,79.353,262.148,73.742,261.015z M272.837,245.111
	c-38.895,55.471-108.286,74.194-166.658,49.253c0,0,54.836-11.531,111.749-55.887c62.549-47.137,79.918-103.387,79.918-103.387
	C303.869,172.361,296.012,212.103,272.837,245.111z"/>
</svg>
