<?xml version="1.0" encoding="utf-8"?>
<!-- Generator: Adobe Illustrator 16.0.3, SVG Export Plug-In . SVG Version: 6.00 Build 0)  -->
<!DOCTYPE svg PUBLIC "-//W3C//DTD SVG 1.1//EN" "http://www.w3.org/Graphics/SVG/1.1/DTD/svg11.dtd">
<svg version="1.1" id="Layer_1" xmlns="http://www.w3.org/2000/svg" xmlns:xlink="http://www.w3.org/1999/xlink" x="0px" y="0px"
	 width="320px" height="320px" viewBox="0 0 320 320" enable-background="new 0 0 320 320" xml:space="preserve">
<g>
	<path fill="#00AEEF" d="M320.13,152.158c0.212,0.014,0.424,0.027,0.636,0.037c0,5.476,0,10.952,0,16.429
		c-0.208,0.024-0.417,0.038-0.627,0.039C320.137,163.161,320.133,157.659,320.13,152.158z"/>
	<path fill="#00AEEF" d="M150.766,320.766c2.857-1.435,5.714-0.912,8.571,0C156.48,320.766,153.623,320.766,150.766,320.766z"/>
	<path fill="#00AEEF" d="M161.479,320.766c2.621-0.896,5.238-1.475,7.857,0C166.718,320.766,164.1,320.766,161.479,320.766z"/>
	<path fill="#00AEEF" d="M319.868,140.847c-1.789-17.946-7.025-34.964-14.997-51.058c-13.387-27.025-32.783-48.785-58.334-64.955
		C228.738,13.57,209.461,6.115,188.766,2.257c-5.486-1.022-11.078-0.665-16.57-1.493c-8.334,0-16.667,0-25,0
		c-0.72,0.627-1.588,0.32-2.392,0.357c-6.532,0.305-13.013,0.926-19.398,2.452c-33.187,7.93-61.518,24.037-84.486,49.492
		c-17.395,19.279-29.271,41.43-36.062,66.431c-2.153,7.927-3.184,16.006-4.091,24.125c0,11.667,0,23.333,0,35
		c1.226,3.169,0.564,6.553,1.138,9.814c2.757,15.688,7.633,30.697,14.842,44.863c8.582,16.864,19.877,31.715,33.717,44.725
		c19.832,18.645,42.856,31.256,69.082,38.326c9.093,2.451,18.327,3.606,27.649,4.414c1.19,0,2.38,0,3.571,0
		c2.857-0.604,5.714-0.604,8.571,0c0.714,0,1.43,0,2.143,0c2.621-0.58,5.238-0.58,7.857,0c0.952,0,1.905,0,2.857,0
		c0.277-0.233,0.591-0.363,0.965-0.361c9.695,0.041,19.109-1.709,28.462-4.153c27.938-7.306,52.014-21.394,72.422-41.632
		c14.039-13.926,25.199-29.979,33.212-48.159c8.243-18.707,13.329-38.089,13.146-58.664c0-4.948,0-9.901-0.001-14.858
		C320.53,148.891,320.267,144.848,319.868,140.847z M160.362,298.404c-75.811,0.041-137.688-61.947-137.583-137.829
		c0.104-75.817,61.387-137.56,137.505-137.524c77.674,0.038,137.709,62.958,137.76,137.615
		C298.096,236.475,236.277,298.364,160.362,298.404z"/>
</g>
<path fill="#00AEEF" d="M161.109,36.975C91.099,36.598,34.956,96.117,37.194,160.619C34.869,224.326,89.65,284.55,160.232,284.361
	c68.361-0.182,123.809-55.182,123.881-123.397C284.188,90.186,225.691,37.323,161.109,36.975z M90.11,199.155
	c-14.706-26.381-13.723-60.054,5.28-86.137c26.048-35.757,76.094-43.708,111.775-17.763c10.052,7.31,17.894,16.53,23.39,26.804
	c0,0-12.085-5.299-21.815-5.021c-9.727,0.277-26.582,3.543-44.875,11.957c-12.05,6.201-23.379,11.957-42.774,28.677
	c-1.271,0.995-2.026,0.571-3.317,0.055c-1.288-0.518-4.533-1.439-7.442,0.775c-2.91,2.214-3.713,5.449-2.447,8.777
	c0.825,2.275,0.509,2.875,0.013,3.662c-0.495,0.786-5.672,7.249-7.09,9.149s-9.84,17.715-10.225,18.345
	C90.196,199.06,90.11,199.155,90.11,199.155z M110.965,215.723c-5.101-0.665-10.531-2.441-13.599-6.841
	c-3.292-4.573-2.955-10.734-1.273-15.863c2.275-7.186,7.194-13.037,11.306-19.208c0.77-1.055,1.517-2.344,2.869-2.704
	c1.8,0.196,3.532,1.11,5.374,0.851c3.475-0.31,6.386-3.423,6.563-6.896c0.152-1.676-0.536-3.245-1.062-4.793
	c11.9-9.791,25.492-17.842,40.346-22.198c8.739-2.442,18.165-4.308,27.098-1.706c4.253,1.25,8.075,4.373,9.45,8.694
	c1.808,5.55,0.229,11.512-1.88,16.745c-2.62,6.246-6.752,11.695-11.153,16.781c-12.688,14.808-29.367,26.07-47.745,32.516
	c-5.435,1.849-10.93,3.668-16.668,4.264C117.4,215.733,114.167,216.345,110.965,215.723z M224.613,206.98
	c-22.2,30.475-61.824,40.754-95.138,27.065c0,0,31.298-6.348,63.793-30.705c35.703-25.907,45.622-56.806,45.622-56.806
	C242.328,167.017,237.831,188.835,224.613,206.98z"/>
</svg>
