<?xml version="1.0" encoding="utf-8"?>
<!-- Generator: Adobe Illustrator 16.0.3, SVG Export Plug-In . SVG Version: 6.00 Build 0)  -->
<!DOCTYPE svg PUBLIC "-//W3C//DTD SVG 1.1//EN" "http://www.w3.org/Graphics/SVG/1.1/DTD/svg11.dtd">
<svg version="1.1" id="Layer_1" xmlns="http://www.w3.org/2000/svg" xmlns:xlink="http://www.w3.org/1999/xlink" x="0px" y="0px"
	 width="320px" height="320px" viewBox="0 0 320 320" enable-background="new 0 0 320 320" xml:space="preserve">
<path fill="#F70303" d="M220.654,160l90.973-90.973c11.164-11.164,11.164-29.263,0-40.436L291.408,8.373
	c-11.163-11.164-29.264-11.164-40.436,0L160,99.345L69.027,8.373c-11.164-11.164-29.263-11.164-40.436,0L8.373,28.591
	c-11.164,11.164-11.164,29.264,0,40.436L99.345,160L8.373,250.973c-11.164,11.163-11.164,29.263,0,40.436l20.218,20.219
	c11.164,11.164,29.272,11.164,40.436,0L160,220.654l90.973,90.973c11.163,11.164,29.272,11.164,40.436,0l20.219-20.219
	c11.164-11.163,11.164-29.264,0-40.436L220.654,160z"/>
</svg>
