<?xml version="1.0" encoding="utf-8"?>
<!-- Generator: Adobe Illustrator 16.0.3, SVG Export Plug-In . SVG Version: 6.00 Build 0)  -->
<!DOCTYPE svg PUBLIC "-//W3C//DTD SVG 1.1//EN" "http://www.w3.org/Graphics/SVG/1.1/DTD/svg11.dtd">
<svg version="1.1" id="Layer_1" xmlns="http://www.w3.org/2000/svg" xmlns:xlink="http://www.w3.org/1999/xlink" x="0px" y="0px"
	 width="320px" height="320px" viewBox="0 0 320 320" enable-background="new 0 0 320 320" xml:space="preserve">
<g>
	<path fill-rule="evenodd" clip-rule="evenodd" fill="none" d="M73.017,321.073c3.722-4.387,9.283-5.684,14.07-8.232
		c13.487-7.182,27.145-14.043,40.653-21.188c2.5-1.321,4.519-1.347,6.989-0.068c16.087,8.318,32.228,16.535,48.358,24.772
		c2.517,1.286,5.121,2.43,6.956,4.716"/>
	<path fill-rule="evenodd" clip-rule="evenodd" fill="none" d="M189.043,1c-2.88,3.407-7.21,4.065-11.021,5.505
		c-15.082,5.697-30.334,10.953-44.858,18.03c-1.477,0.72-2.792,0.728-4.266-0.001c-16.285-8.05-33.58-13.582-50.45-20.174
		C76.414,3.565,74.39,2.828,73.017,1C111.692,1,150.368,1,189.043,1z"/>
	<path fill-rule="evenodd" clip-rule="evenodd" fill="none" d="M1,285.065c8.621,10.479,21.711,13.696,32.846,20.063
		c7.339,4.196,15.09,7.676,22.665,11.459c2.384,1.189,4.78,2.347,6.504,4.486c-19.571,0-39.143-0.059-58.713,0.07"/>
	<path fill-rule="evenodd" clip-rule="evenodd" fill="#FFFFFF" d="M289.262,107.413c-7.412-3.354-15.163-6-22.874-8.637
		c-3.982-1.362-5.348-3.735-5.316-7.81c0.134-17.481,0.061-34.964,0.049-52.446c-0.007-9.759-2.913-13.967-12.283-17.578
		C234.399,15.378,219.94,9.865,205.48,4.358c-2.043-0.777-4.061-1.53-5.435-3.358c-3.668,0-7.335,0-11.003,0
		c-2.88,3.407-7.21,4.065-11.021,5.505c-15.082,5.697-30.334,10.953-44.858,18.03c-1.477,0.72-2.792,0.728-4.266-0.001
		c-16.285-8.05-33.58-13.582-50.45-20.174C76.414,3.565,74.39,2.828,73.017,1c-3.667,0-7.335,0-11.002,0
		c-3.359,3.619-8.163,4.317-12.436,6.005c-12.53,4.947-25.103,9.792-37.747,14.438C7.181,23.152,4.435,26.939,1,30.007
		c0,22.672,0,45.344,0,68.016c8.637,10.491,21.753,13.697,32.896,20.089c7.055,4.047,14.466,7.498,21.83,10.977
		c3.577,1.69,5.3,4.003,5.265,8.084c-0.137,15.798-0.113,31.597-0.013,47.396c0.023,3.684-1.392,5.754-4.896,7.063
		c-13.233,4.939-26.294,10.352-39.6,15.078C10.311,208.901,5.169,212.115,1,217.05c0,22.672,0,45.343,0,68.016
		c8.621,10.479,21.711,13.696,32.846,20.063c7.339,4.196,15.09,7.676,22.665,11.459c2.384,1.189,4.78,2.347,6.504,4.486
		c3.334,0,6.668,0,10.002,0c3.722-4.387,9.283-5.684,14.07-8.232c13.487-7.182,27.145-14.043,40.653-21.188
		c2.5-1.321,4.519-1.347,6.989-0.068c16.087,8.318,32.228,16.535,48.358,24.772c2.517,1.286,5.121,2.43,6.956,4.716
		c3.334,0,6.669,0,10.003,0c3.887-4.448,9.586-5.831,14.526-8.453c12.331-6.542,24.851-12.727,37.203-19.229
		c6.191-3.259,9.546-8.239,9.421-15.665c-0.255-15.133,0.064-30.273-0.15-45.407c-0.063-4.468,1.609-6.945,5.551-8.896
		c14.003-6.925,27.756-14.361,41.827-21.141c5.163-2.487,8.819-6.355,12.649-10.239c0-22.672,0-45.344,0-68.016
		C312.972,113.728,300.161,112.344,289.262,107.413z M248.369,55.06c-0.093,5.653-0.021,11.309-0.021,16.963
		c-0.025,0-0.052,0-0.077,0c0,5.655-0.219,11.323,0.081,16.962c0.185,3.483-0.914,5.702-4.037,7.178
		c-12.773,6.039-25.658,11.816-38.872,16.836c-3.553,1.349-4.901-0.062-4.779-3.73c0.39-11.634,0.814-23.275-0.4-34.894
		c-0.434-4.146,1.117-6.976,5.147-8.604C217.743,60.789,230,55.62,242.314,50.593C247.207,48.596,248.458,49.638,248.369,55.06z
		 M146.891,31.833c4.947-1.98,9.95-3.819,14.917-5.75c9.159-3.561,18.332-7.088,27.447-10.759c3.621-1.458,7.025-1.401,10.659,0.002
		c13.521,5.22,27.104,10.278,40.643,15.449c1.963,0.75,4.646,1.263,4.545,3.934c-0.095,2.508-2.856,2.421-4.603,3.151
		c-13.833,5.78-27.688,11.506-41.544,17.234c-1.374,0.568-2.785,1.043-4.453,1.662c-3.638-1.427-7.365-2.824-11.042-4.343
		c-12.16-5.025-24.299-10.099-36.452-15.142c-1.211-0.502-2.787-0.662-2.905-2.323C143.972,33.098,145.529,32.378,146.891,31.833z
		 M140.9,72.019c-0.053,0-0.106,0-0.16,0c0-5.657,0.071-11.314-0.021-16.969c-0.088-5.442,1.141-6.462,6.046-4.463
		c12.322,5.021,24.596,10.161,36.926,15.162c3.755,1.522,5.503,4.126,5.153,8.126c-1.102,12.625-1.036,25.247-0.142,37.883
		c0.302,4.26-1.153,5.217-4.969,3.417c-12.333-5.821-24.626-11.729-36.956-17.559c-4.324-2.044-6.678-4.808-6.015-10.136
		C141.396,82.398,140.9,77.177,140.9,72.019z M121.354,54.792c-0.062,5.82-0.015,11.641-0.015,17.462c-0.016,0-0.032,0-0.048,0
		c0,5.821-0.125,11.646,0.054,17.462c0.088,2.861-0.862,4.841-3.39,6.067c-13.015,6.31-26.228,12.169-39.759,17.29
		c-3.246,1.228-4.688-0.113-4.568-3.534c0.417-11.969,0.757-23.937-0.409-35.893c-0.369-3.775,1.36-6.303,4.92-7.756
		c12.469-5.09,24.888-10.299,37.359-15.382C120.099,48.633,121.408,49.706,121.354,54.792z M20.091,31.714
		c9.932-3.872,20.272-6.922,29.739-11.706c11.976-6.05,22.932-6.38,35.015-0.167c9.123,4.69,19.266,7.392,28.936,11.026
		c1.842,0.693,4.24,1.273,4.319,3.617c0.089,2.654-2.668,2.564-4.394,3.285c-13.989,5.843-27.999,11.637-42.011,17.426
		c-1.37,0.566-2.795,0.999-4.454,1.586c-5.958-2.457-11.953-4.923-17.943-7.401c-9.697-4.011-19.387-8.036-29.088-12.037
		c-1.355-0.559-3.202-0.696-3.147-2.647C17.113,32.953,18.709,32.252,20.091,31.714z M56.046,115.934
		c-11.88-6.023-23.729-12.114-35.683-17.988c-4.629-2.275-7.367-5.001-6.617-10.781c0.659-5.079,0.137-10.31,0.137-15.474
		c-0.075,0-0.15,0-0.225,0c0-5.827-0.013-11.655,0.004-17.482c0.013-4.428,1.421-5.507,5.474-3.862
		C31.785,55.48,44.382,60.74,57.016,65.911c3.576,1.463,5.123,4.104,4.801,7.861c-1.097,12.803-1.012,25.6-0.13,38.416
		C62.007,116.844,60.061,117.969,56.046,115.934z M61.737,260.884c-0.845,12.793-1.01,25.589-0.054,38.406
		c0.345,4.624-1.64,5.71-5.689,3.656c-11.88-6.025-23.729-12.114-35.687-17.983c-4.654-2.283-6.915-5.084-6.603-10.809
		c0.578-10.625,0.128-21.309-0.01-31.966c-0.073-5.658,1.101-6.582,6.425-4.408c12.174,4.974,24.309,10.047,36.493,14.992
		C60.348,254.288,62.178,256.828,61.737,260.884z M71.617,242.272c-1.368,0.562-2.794,0.98-4.395,1.536
		c-5.85-2.403-11.691-4.786-17.521-7.198c-9.837-4.07-19.665-8.165-29.504-12.229c-1.355-0.56-3.197-0.703-3.134-2.65
		c0.057-1.736,1.649-2.438,3.031-2.977c9.919-3.866,19.862-7.676,29.798-11.497c1.243-0.478,2.626-0.718,3.73-1.409
		c9.37-5.867,18.252-4.648,27.62,0.615c9.262,5.204,19.151,9.29,28.722,13.953c1.424,0.695,3.608,1.211,3.553,3.104
		c-0.064,2.198-2.466,2.454-4.072,3.125C96.854,231.899,84.236,237.086,71.617,242.272z M121.333,259.393
		c-0.022,0-0.044,0-0.067,0.001c0,5.654-0.199,11.318,0.076,16.96c0.161,3.292-0.999,5.509-3.766,6.931
		c-13.161,6.766-26.319,13.538-39.551,20.164c-3.101,1.553-5.096-0.245-4.641-4.482c0.696-6.482,0.501-12.96,0.537-19.442
		c0.033-5.984,0.174-11.971-0.654-17.936c-0.565-4.08,0.896-7.055,4.961-8.702c12.324-4.998,24.585-10.154,36.897-15.187
		c5.033-2.057,6.292-1.101,6.223,4.231C121.275,247.751,121.333,253.571,121.333,259.393z M121.823,167.713
		c-1.152,11.622-0.828,23.256-0.407,34.891c0.125,3.466-1.44,4.761-4.605,3.466c-13.08-5.35-26.114-10.809-39.161-16.237
		c-2.977-1.237-4.105-3.347-3.936-6.685c0.288-5.641,0.079-11.306,0.079-16.96c-0.041-0.001-0.081-0.001-0.121-0.001
		c0-5.986-0.012-11.972,0.004-17.958c0.011-4.428,1.414-5.507,5.463-3.864c12.632,5.126,25.211,10.383,37.83,15.541
		C120.53,161.36,122.196,163.954,121.823,167.713z M128.107,150.514c-3.192-0.166-5.345-1.564-7.629-2.51
		c-12.445-5.153-24.859-10.381-37.26-15.641c-1.128-0.479-2.891-0.691-2.707-2.453c0.134-1.279,1.562-1.62,2.57-2.132
		c13.203-6.716,26.704-12.783,40.352-18.533c3.096-1.305,6.072-1.257,9.188,0.006c13.713,5.563,27.463,11.037,41.187,16.576
		c1.663,0.671,3.865,1.23,3.767,3.435c-0.093,2.087-2.43,1.929-3.871,2.532c-13.965,5.832-27.95,11.618-41.937,17.399
		C130.398,149.76,128.978,150.203,128.107,150.514z M133.771,201.081c0.296-10.479,0.773-20.99-0.44-31.452
		c-0.536-4.623,0.489-8.04,5.319-9.96c12.222-4.858,24.323-10.02,36.5-14.994c5.041-2.06,6.283-1.104,6.211,4.262
		c-0.078,5.828-0.018,11.658-0.018,17.487c-0.058,0-0.116,0-0.175,0c0,4.998-0.512,10.063,0.136,14.977
		c0.736,5.593-1.874,8.354-6.391,10.404c-11.069,5.025-22.063,10.219-33.171,15.153C133.272,210.72,133.503,210.597,133.771,201.081
		z M188.767,260.872c-0.847,12.792-1.012,25.588-0.055,38.406c0.345,4.626-1.639,5.723-5.678,3.675
		c-11.881-6.025-23.729-12.114-35.686-17.984c-4.648-2.282-6.927-5.072-6.615-10.803c0.579-10.625,0.13-21.309-0.009-31.966
		c-0.074-5.666,1.098-6.595,6.414-4.424c12.174,4.974,24.308,10.046,36.493,14.991C187.363,254.282,189.205,256.813,188.767,260.872
		z M197.466,242.781c-0.91,0.375-1.904,0.546-3.197,0.906c-2.882-1.107-6.004-2.221-9.057-3.497
		c-12.271-5.132-24.521-10.312-36.775-15.484c-1.186-0.501-2.885-0.634-2.99-2.243c-0.12-1.823,1.59-2.408,2.92-3.002
		c13.968-6.241,28.073-12.156,42.366-17.615c2.271-0.868,4.578-0.891,6.816,0.074c13.593,5.86,27.047,12.021,40.16,18.896
		c1.238,0.648,3.103,1.096,2.84,3.013c-0.205,1.498-1.789,1.863-2.986,2.36C224.207,231.744,210.84,237.271,197.466,242.781z
		 M244.511,283.343c-13.161,6.765-26.318,13.539-39.557,20.151c-3.046,1.521-5.011-0.364-4.537-4.639
		c0.772-6.98,0.448-13.959,0.537-20.938c0.07-5.488,0.067-10.972-0.664-16.438c-0.55-4.11,1.016-7.002,5.063-8.639
		c12.329-4.986,24.586-10.151,36.899-15.181c4.955-2.022,6.201-1.02,6.121,4.374c-0.086,5.819-0.02,11.641-0.02,17.462
		c-0.018,0-0.035,0-0.053,0c0,5.654-0.192,11.318,0.073,16.961C248.53,279.771,247.251,281.936,244.511,283.343z M248.764,168.274
		c-1.02,11.177-0.777,22.648-0.326,34.116c0.148,3.765-1.435,4.999-4.864,3.593c-12.768-5.236-25.497-10.565-38.264-15.806
		c-3.588-1.472-4.655-3.887-4.551-7.807c0.293-10.97,0.135-21.954-0.01-32.93c-0.08-6.032,0.973-6.908,6.608-4.604
		c12.004,4.907,23.962,9.925,35.986,14.78C247.238,161.189,249.335,163.681,248.764,168.274z M255.307,150.483
		c-3.211-0.036-5.355-1.473-7.638-2.417c-12.305-5.084-24.582-10.235-36.838-15.434c-1.282-0.543-3.336-0.737-3.263-2.583
		c0.068-1.706,2.038-2,3.315-2.651c12.613-6.429,25.554-12.145,38.544-17.761c3.764-1.627,7.238-1.587,11.073-0.087
		c13.33,5.212,26.762,10.165,40.133,15.272c1.958,0.748,4.583,1.261,4.486,3.976c-0.081,2.286-2.574,2.259-4.185,2.929
		c-13.982,5.819-27.978,11.609-41.975,17.393C257.588,149.687,256.177,150.16,255.307,150.483z M308.373,166.396
		c-0.021,0-0.042,0-0.063,0c0,5.655-0.199,11.319,0.075,16.962c0.161,3.299-1.028,5.5-3.789,6.918
		c-13.161,6.765-26.319,13.539-39.553,20.161c-3.09,1.547-5.074-0.271-4.615-4.521c0.7-6.481,0.498-12.96,0.536-19.441
		c0.035-5.985,0.168-11.972-0.655-17.937c-0.563-4.085,0.916-7.039,4.982-8.686c12.328-4.993,24.587-10.153,36.899-15.184
		c5.029-2.054,6.271-1.096,6.199,4.265C308.313,154.754,308.373,160.575,308.373,166.396z"/>
</g>
</svg>
