<?xml version="1.0" encoding="utf-8"?>
<!-- Generator: Adobe Illustrator 16.0.3, SVG Export Plug-In . SVG Version: 6.00 Build 0)  -->
<!DOCTYPE svg PUBLIC "-//W3C//DTD SVG 1.1//EN" "http://www.w3.org/Graphics/SVG/1.1/DTD/svg11.dtd">
<svg version="1.1" id="Layer_1" xmlns="http://www.w3.org/2000/svg" xmlns:xlink="http://www.w3.org/1999/xlink" x="0px" y="0px"
	 width="320px" height="320px" viewBox="0 0 320 320" enable-background="new 0 0 320 320" xml:space="preserve">
<g>
	<g>
		<path fill="#FFFFFF" d="M220.697,86.317c-2.696-22.864-0.428-45.818-1.289-68.708c-0.245-6.544,3.188-7.118,8.345-7.056
			c16.526,0.201,33.07,0.443,49.585-0.084c9.439-0.303,11.254,4.862,5.403,9.663c-15.729,12.911-3.271,21.747,3.552,30.554
			c21.9,28.28,31.625,60.296,33.414,95.825c2.063,40.988-6.59,78.718-30.782,111.841c-23.901,32.727-55.143,54.438-96.274,59.467
			c-6.95,0.851-13.563,3.771-20.854,2.836c-4.625-0.592-7.518-2.309-8.014-7.184c-0.52-5.084,4.189-5.808,6.9-6.912
			c6.612-2.705,13.942,0.021,21.037-2.281c49.43-16.034,76.955-52.008,87.829-101.043c11.134-50.203-1.514-95.1-36.493-133.127
			c-0.844-0.917-1.961-1.579-2.888-2.307c-7.354,5.379-11.647,13.906-19.792,18.208C220.391,86.018,220.697,86.317,220.697,86.317z"
			/>
		<path fill="#FFFFFF" d="M2.397,193.79c-1.901-17.995-4.274-35.212-0.005-54.142c5.528-23.242,12.303-45.839,25.091-66.482
			C53.312,31.477,91.159,9.272,138.449,2.46c6.438-0.928,19.046-5.593,19.2,6.851c0.117,9.582-11.101,6.803-18.211,7.809
			c-28.18,3.982-50.333,19.038-67.847,40.626c-23.514,28.982-33.814,62.93-32.5,100.233c1.326,37.645,16.176,69.537,41.995,97.063
			c8.455-4.826,12.185-14.515,20.859-18.291c-0.01-0.008-0.332-0.306-0.34-0.315c2.36,22.854,0.44,45.793,1.111,68.685
			c0.152,5.17-1.724,7.086-7.007,7.006c-17.409-0.256-34.824-0.16-52.235-0.042c-7.042,0.048-10.01-1.878-4.25-8.154
			c8.632-9.412,9.846-17.184-0.05-27.875C17.921,253.088,9.154,223.727,2.397,193.79z"/>
		<g>
			<path fill="#FFFFFF" d="M101.934,236.744c-0.08-0.09-0.16-0.178-0.24-0.268c-0.033-0.019-0.066-0.033-0.1-0.053L101.934,236.744z
				"/>
			<path fill="#FFFFFF" d="M220.391,86.018c0.08,0.087,0.157,0.174,0.236,0.261c0.023,0.013,0.047,0.025,0.07,0.039L220.391,86.018z
				"/>
		</g>
	</g>
</g>
</svg>
