<?xml version="1.0" encoding="utf-8"?>
<!-- Generator: Adobe Illustrator 16.0.3, SVG Export Plug-In . SVG Version: 6.00 Build 0)  -->
<!DOCTYPE svg PUBLIC "-//W3C//DTD SVG 1.1//EN" "http://www.w3.org/Graphics/SVG/1.1/DTD/svg11.dtd">
<svg version="1.1" id="Layer_1" xmlns="http://www.w3.org/2000/svg" xmlns:xlink="http://www.w3.org/1999/xlink" x="0px" y="0px"
	 width="320px" height="320px" viewBox="0 0 320 320" enable-background="new 0 0 320 320" xml:space="preserve">
<g>
	<path fill-rule="evenodd" clip-rule="evenodd" fill="#00AEEF" d="M0,86c1.594,2,1.626,4,0,6C0,90,0,88,0,86z"/>
	<path fill-rule="evenodd" clip-rule="evenodd" fill="#00AEEF" d="M0.908,102.123l-0.468,0.032L0,102c0-1.667,0-3.333,0-5
		C1.762,98.48,1.147,100.331,0.908,102.123z"/>
	<path fill-rule="evenodd" clip-rule="evenodd" fill="#00AEEF" d="M320,97c-1.643-1-1.254-2,0-3C320,95,320,96,320,97z"/>
	<path fill-rule="evenodd" clip-rule="evenodd" fill="#00AEEF" d="M320,74c-1.141-4.491-2.04-8.982-5.21-12.847
		c-4.4-5.364-10.212-8.654-16.677-11.218c-27.815-11.034-55.688-21.943-83.643-32.658C198.597,11.192,183.325,3.543,166.4,0
		c-4.267,0-8.533,0-12.8,0c-3.307,1.173-6.915,1.071-10.233,2.381C102.919,18.334,62.366,34.05,21.877,49.914
		C10.159,54.505,1.73,61.528,0,74c0,4,0,8,0,12c0.866,2,0.866,4,0,6c0,1.666,0,3.333,0,5c1.11,1.62,0.295,3.42,0.547,5.119
		c-0.253,14.905,2.001,29.541,5.576,44.013c14.571,58.978,44.694,109.231,95.627,147.341c15.481,11.583,31.782,22.481,51.85,26.527
		c4.267,0,8.533,0,12.8,0c6.71-1.009,12.904-3.342,18.854-6.358c29.479-14.95,54.27-35.113,74.954-59.712
		c30.573-36.358,48.97-77.715,57.113-123.262c1.583-8.854,1.276-17.826,2.679-26.668c0-2.334,0-4.667,0-7c-0.798-1-0.798-2,0-3
		C320,87.333,320,80.666,320,74z M73.601,109.685c0-3.162,0.02-6.324-0.005-9.486c-0.029-3.714,2.079-5.563,5.87-5.617
		c6.922-0.098,13.847-0.1,20.769-0.004c3.56,0.05,5.631,1.855,5.66,5.291c0.055,6.49,0.048,12.98,0.001,19.47
		c-0.027,3.718-2.368,5.432-6.083,5.486c-6.566,0.098-13.137,0.093-19.704,0.011c-4.216-0.053-6.611-1.965-6.521-6.164
		C73.653,115.677,73.601,112.68,73.601,109.685z M105.918,219.956c-0.009,3.729-2.32,5.51-6.006,5.587
		c-6.745,0.141-13.499,0.165-20.243-0.007c-3.924-0.1-6.226-2.026-6.09-6.027c0.108-3.16,0.022-6.326,0.021-9.49
		c0-2.83,0.078-5.663-0.019-8.491c-0.142-4.137,2.045-6.273,6.319-6.351c6.569-0.12,13.143-0.073,19.713-0.016
		c4.023,0.035,6.308,1.896,6.317,5.813C105.944,207.303,105.934,213.629,105.918,219.956z M105.839,170.068
		c-0.07,3.433-2.235,5.03-5.892,4.971c-3.374-0.055-6.75-0.012-10.125-0.012c-3.375,0-6.75-0.03-10.125,0.008
		c-3.9,0.043-6.023-1.733-6.071-5.373c-0.084-6.494-0.097-12.989,0.007-19.482c0.054-3.367,2.043-5.188,5.7-5.199
		c6.928-0.021,13.855,0.013,20.783-0.018c3.709-0.016,5.691,1.736,5.743,5.127C105.96,156.748,105.974,163.409,105.839,170.068z
		 M246.399,214.188c-0.028,6.057-1.671,7.656-8.132,7.662c-27.874,0.021-55.747,0.01-83.619,0.01
		c-9.942,0-19.884,0.029-29.826-0.012c-6.418-0.026-7.877-1.387-7.981-7.279c-0.05-2.828-0.056-5.659,0.001-8.488
		c0.117-5.796,1.437-7.062,7.583-7.07c19.174-0.027,38.348-0.01,57.522-0.01c18.641,0,37.282-0.007,55.923,0.003
		c7.202,0.004,8.519,1.285,8.529,8.195C246.403,209.527,246.409,211.858,246.399,214.188z M231.444,171.242
		c-16.525-0.034-33.051-0.008-49.577-0.008c-19.015,0-38.028,0.019-57.042-0.01c-6.864-0.011-7.947-1.074-7.988-7.644
		c-0.101-16.323-0.962-14.818,15.807-14.817c34.829,0.003,69.657-0.003,104.485,0.003c8.55,0.002,9.228,0.663,9.277,8.401
		C246.508,172.255,247.39,171.274,231.444,171.242z M231.42,121.025c-16.688-0.112-33.375-0.025-50.064-0.025
		c-18.818,0-37.637,0.011-56.455-0.006c-6.807-0.006-7.991-1.146-8.063-7.63c-0.03-2.662-0.047-5.326,0.004-7.988
		c0.108-5.71,1.57-7.104,7.507-7.23c1.419-0.03,2.841-0.005,4.261-0.005c36.217,0,72.434-0.003,108.651,0.003
		c7.834,0.001,9.071,1.256,9.153,8.721C246.573,121.464,247.218,121.131,231.42,121.025z"/>
</g>
</svg>
