<?xml version="1.0" encoding="utf-8"?>
<!-- Generator: Adobe Illustrator 16.0.3, SVG Export Plug-In . SVG Version: 6.00 Build 0)  -->
<!DOCTYPE svg PUBLIC "-//W3C//DTD SVG 1.1//EN" "http://www.w3.org/Graphics/SVG/1.1/DTD/svg11.dtd">
<svg version="1.1" id="Layer_1" xmlns="http://www.w3.org/2000/svg" xmlns:xlink="http://www.w3.org/1999/xlink" x="0px" y="0px"
	 width="320px" height="320px" viewBox="0 0 320 320" enable-background="new 0 0 320 320" xml:space="preserve">
<g>
	<g>
		<path fill="#00AEEF" d="M55.933,14.594c6.023,4.696,12.552,8.081,18.863,12.028c6.259,3.917,7.471,7.654,4.529,15.596
			c-10.452,28.224-20.97,56.407-31.429,84.626c-4.788,12.917-9.451,25.909-14.26,38.813c-1.918,5.146-4.968,6.937-8.961,4.777
			c-6.878-3.717-13.64-7.805-20.372-11.948c-2.055-1.265-3.477-3.679-4.62-6.253c0-1.61,0-3.22,0-4.83
			c1.909-8.687,5.459-16.455,8.445-24.515c8.01-21.615,15.926-43.289,24.08-64.819c4.509-11.906,8.874-23.904,13.167-35.941
			c1.273-3.569,2.675-6.993,6.183-7.536C53.017,14.594,54.475,14.594,55.933,14.594z"/>
		<path fill="#00AEEF" d="M266.559,14.594c3.028,1.544,4.371,4.836,5.691,8.421c13.904,37.742,27.896,75.429,41.86,113.134
			c1.12,3.022,2.217,6.058,3.335,9.082c2.02,5.458,0.877,10.08-3.34,12.759c-6.323,4.02-12.662,8.007-19.066,11.802
			c-5.131,3.041-8.477,1.341-10.905-5.228c-15.157-40.977-30.317-81.95-45.446-122.945c-2.648-7.184-1.547-11.047,4.066-14.572
			c5.889-3.696,11.822-7.272,17.729-10.923c0.621-0.385,1.477-0.395,1.701-1.529C263.643,14.594,265.1,14.594,266.559,14.594z"/>
		<path fill="#00AEEF" d="M126.625,282.381c-6.206,8.895-11.29,10.471-18.442,6.1c-7.677-4.692-10.926-13.318-9.429-25.563
			c-6.795,6.131-13.395,5.348-19.663-0.721c-6.114-5.916-8.542-13.87-6.617-24.522c-6.32,5.944-12.24,5.854-18.296,1.556
			c-9.413-6.68-11.807-22.887-4.736-32.121c2.69-3.514,4.863-7.672,7.42-11.366c1.228-1.773,1.22-2.979,0.012-4.767
			c-3.274-4.85-6.32-9.955-9.62-14.771c-1.279-1.867-1.184-3.277-0.289-5.258c1.358-3.004,2.589-6.125,3.67-9.311
			c0.872-2.568,1.582-2.116,2.729-0.326c3.776,5.885,7.601,11.719,11.46,17.515c0.783,1.176,1.258,2.752,3.203,1.538
			c7.405-4.622,14.579-2.903,19.979,4.318c5.431,7.264,6.171,16.252,1.907,26.76c7.222-5.104,13.523-3.09,19.133,3.109
			c5.577,6.164,7.904,13.855,5.155,23.98c6.945-5.809,13.253-4.262,18.924,1.633c5.563,5.783,8.269,13.229,5.679,23.322
			c4.369-3.203,8.392-2.976,12.34-0.232c3.806,2.639,6.628,6.42,8.035,11.786c0.718,2.744,0.962,5.622-0.012,8.218
			c-0.775,2.063-0.142,2.771,1.038,3.786c3.896,3.34,7.986,5.062,12.62,2.974c1.704-0.768,3.127-2.146,4.264-3.941
			c2.251-3.555,2.126-5.6-0.69-8.344c-7.221-7.024-14.49-13.963-21.744-20.935c-1.25-1.204-2.547-2.333-3.753-3.604
			c-2.696-2.842-3.078-6.106-1.18-9.478c1.907-3.389,4.372-3.92,7.321-1.265c13.209,11.887,26.406,23.798,39.557,35.791
			c6.696,6.107,13.108,3.516,15.662-6.506c1.088-4.277-0.021-8.52-3.229-11.531c-10.923-10.258-21.882-20.45-32.823-30.67
			c-3.62-3.381-7.236-6.764-10.844-10.167c-3.131-2.954-3.904-6.931-2.063-10.409c1.666-3.145,5.473-3.861,8.372-1.219
			c14.349,13.07,28.646,26.238,42.962,39.367c2.965,2.716,5.866,5.564,8.932,8.082c3.642,2.988,8.371,2.468,11.33-0.92
			c2.972-3.402,3.927-9.154,2.392-13.951c-0.714-2.233-2.062-3.631-3.508-4.965c-17.921-16.537-35.835-33.082-53.75-49.627
			c-0.931-0.857-1.894-1.674-2.761-2.629c-3.021-3.32-3.789-7.837-1.916-10.976c1.828-3.063,5.638-3.394,8.764-0.585
			c4.773,4.29,9.495,8.682,14.229,13.044c14.883,13.71,29.741,27.461,44.651,41.12c5.365,4.915,12.228,2.916,16.74-4.659
			c3.459-5.799,2.521-13.333-2.386-18.83c-24.877-27.884-49.779-55.731-74.623-83.666c-3.603-4.049-6.998-8.414-10.369-12.786
			c-8.036-10.418-23.715-7.908-29.083,5.004c-1.274,3.065-1.255,6.977-2.11,10.384c-3.795,15.112-10.81,26.427-23.015,31.232
			c-4.717,1.857-9.571,2.166-14.416,0.615c-3.752-1.2-6.411-4.25-8.301-8.476c-0.993-2.22-1.266-4.87-0.355-6.971
			c4.7-10.859,6.137-22.744,6.268-34.818c0.085-7.811,2.411-14.206,5.275-20.608c3.274-7.321,3.253-7.332-3.318-7.326
			c-5.416,0.003-10.833-0.068-16.249,0.017c-1.937,0.029-2.43-0.443-1.368-2.881c2.132-4.898,3.173-11.432,6.31-14.515
			c3.073-3.02,8.232-0.726,12.471-0.812c8.746-0.179,17.496-0.066,26.244-0.002c1.287,0.008,2.417-0.236,3.562-1.066
			c18.403-13.376,37.753-14.439,57.693-7.14c11.91,4.361,23.777,8.98,36.319,9.009c1.969,0.006,2.425,1.69,3.039,3.334
			c5.948,15.934,11.876,31.88,17.808,47.823c7.278,19.565,14.518,39.155,21.874,58.673c1.177,3.119,1.636,5.897,0.064,8.941
			c-0.568,1.102-0.785,2.506-1.343,3.62c-3.451,6.901-3.447,12.729,0.224,20.421c8.028,16.824-0.271,39.973-16.876,41.59
			c-2.682,0.262-3.797,1.17-4.09,5.084c-1.184,15.92-8.366,24.26-20.82,24.317c-3.018,0.013-4.41,1.04-5.197,4.842
			c-0.972,4.685-2.988,8.858-5.66,12.331c-6.481,8.43-15.369,9.434-24.936,2.311c-2.756-2.051-3.688-1.477-5.383,1.688
			c-7.729,14.435-18.902,16.933-30.372,7.177c-4.568-3.884-4.635-3.959-8.152,1.315c-2.963,4.442-6.555,5.369-10.697,3.688
			C129.964,301.398,125.847,293.409,126.625,282.381z"/>
	</g>
</g>
</svg>
