<?xml version="1.0" encoding="utf-8"?>
<!-- Generator: Adobe Illustrator 16.0.3, SVG Export Plug-In . SVG Version: 6.00 Build 0)  -->
<!DOCTYPE svg PUBLIC "-//W3C//DTD SVG 1.1//EN" "http://www.w3.org/Graphics/SVG/1.1/DTD/svg11.dtd">
<svg version="1.1" id="Layer_1" xmlns="http://www.w3.org/2000/svg" xmlns:xlink="http://www.w3.org/1999/xlink" x="0px" y="0px"
	 width="320px" height="320px" viewBox="0 0 320 320" enable-background="new 0 0 320 320" xml:space="preserve">
<g>
	<path fill-rule="evenodd" clip-rule="evenodd" fill="#00AEEF" d="M320.13,152.158c0.212,0.014,0.424,0.027,0.636,0.037
		c0,5.476,0,10.952,0,16.429c-0.208,0.024-0.417,0.038-0.627,0.039C320.137,163.161,320.133,157.659,320.13,152.158z"/>
	<path fill-rule="evenodd" clip-rule="evenodd" fill="#00AEEF" d="M150.766,320.766c2.857-1.435,5.714-0.913,8.571,0
		C156.48,320.766,153.623,320.766,150.766,320.766z"/>
	<path fill-rule="evenodd" clip-rule="evenodd" fill="#00AEEF" d="M161.479,320.766c2.62-0.896,5.238-1.475,7.857,0
		C166.718,320.766,164.1,320.766,161.479,320.766z"/>
	<path fill-rule="evenodd" clip-rule="evenodd" fill="#00AEEF" d="M319.868,140.847c-1.789-17.946-7.025-34.964-14.997-51.058
		c-13.387-27.025-32.783-48.785-58.334-64.955c-17.799-11.264-37.076-18.719-57.772-22.577c-5.485-1.022-11.078-0.665-16.57-1.493
		c-8.334,0-16.667,0-25,0c-0.72,0.627-1.588,0.32-2.392,0.357c-6.532,0.305-13.013,0.926-19.398,2.452
		c-33.187,7.93-61.518,24.037-84.486,49.492c-17.395,19.279-29.271,41.43-36.062,66.431c-2.153,7.927-3.184,16.006-4.091,24.125
		c0,11.667,0,23.333,0,35c1.226,3.169,0.564,6.553,1.138,9.815c2.757,15.688,7.633,30.697,14.842,44.863
		c8.582,16.864,19.877,31.714,33.717,44.725c19.832,18.644,42.856,31.255,69.082,38.325c9.093,2.452,18.327,3.607,27.649,4.414
		c1.19,0,2.38,0,3.571,0c2.857-0.604,5.714-0.604,8.571,0c0.714,0,1.429,0,2.143,0c2.62-0.58,5.238-0.58,7.857,0
		c0.952,0,1.905,0,2.857,0c0.278-0.233,0.591-0.363,0.965-0.36c9.695,0.041,19.109-1.709,28.462-4.154
		c27.939-7.306,52.014-21.393,72.422-41.632c14.039-13.926,25.199-29.979,33.212-48.159c8.243-18.707,13.329-38.089,13.146-58.664
		c0-4.948,0-9.901-0.001-14.858C320.53,148.891,320.267,144.848,319.868,140.847z M160.362,298.404
		c-75.811,0.041-137.688-61.947-137.583-137.829C22.883,84.758,84.166,23.015,160.284,23.051
		c77.674,0.038,137.709,62.958,137.76,137.615C298.096,236.475,236.277,298.364,160.362,298.404z"/>
	<path fill-rule="evenodd" clip-rule="evenodd" fill="#00AEEF" d="M161.11,36.975C91.099,36.598,34.956,96.117,37.194,160.619
		C34.869,224.326,89.65,284.55,160.232,284.362c68.361-0.182,123.809-55.183,123.881-123.398
		C284.188,90.186,225.691,37.323,161.11,36.975z M209.111,189.126c-1.109,17.108-10.738,28.202-26.196,34.593
		c-3.277,1.354-6.748,2.332-10.216,3.099c-1.914,0.424-2.493,1.115-2.454,3.017c0.114,5.591-0.118,11.192,0.105,16.777
		c0.111,2.782-0.852,3.418-3.448,3.322c-5.23-0.19-10.474-0.117-15.708-0.021c-1.865,0.035-2.516-0.592-2.478-2.463
		c0.097-4.759-0.193-9.536,0.105-14.277c0.218-3.448-0.632-4.549-4.353-4.727c-10.515-0.501-20.62-3.064-30.247-7.474
		c-2.043-0.936-2.533-1.938-1.95-4.05c1.8-6.526,3.509-13.081,5.086-19.665c0.603-2.521,1.178-3.17,3.894-1.82
		c11.118,5.522,22.903,8.52,35.415,8.094c4.446-0.15,8.744-1.055,12.626-3.33c7.72-4.522,8.55-13.366,1.919-19.375
		c-4.783-4.336-10.61-6.66-16.565-8.721c-10.343-3.579-20.505-7.451-29.177-14.444c-18.239-14.707-15.173-41.573,0.268-54.407
		c6.277-5.217,13.438-8.464,21.297-10.186c2.275-0.499,2.895-1.406,2.847-3.555c-0.114-5.115,0.046-10.237-0.078-15.352
		c-0.049-2.063,0.669-2.723,2.677-2.62c2.73,0.141,5.473,0.035,8.21,0.035c2.5,0,5.01,0.145,7.495-0.042
		c2.423-0.181,3.381,0.512,3.259,3.119c-0.21,4.509,0.021,9.037-0.098,13.553c-0.052,1.983,0.587,2.632,2.608,2.751
		c9.179,0.542,18.106,2.278,26.649,5.847c2.068,0.864,2.593,1.732,1.931,3.977c-1.878,6.365-3.573,12.791-5.07,19.255
		c-0.589,2.538-1.395,2.596-3.542,1.601c-11.102-5.145-22.695-7.645-34.976-5.913c-2.854,0.402-5.547,1.271-7.873,3.061
		c-5.692,4.382-6.092,10.911-0.941,15.91c4.647,4.508,10.637,6.61,16.451,8.965c6.923,2.803,14.038,5.135,20.686,8.609
		C202.166,160.053,210.219,172.055,209.111,189.126z"/>
</g>
</svg>
