<?xml version="1.0" encoding="utf-8"?>
<!-- Generator: Adobe Illustrator 16.0.3, SVG Export Plug-In . SVG Version: 6.00 Build 0)  -->
<!DOCTYPE svg PUBLIC "-//W3C//DTD SVG 1.1//EN" "http://www.w3.org/Graphics/SVG/1.1/DTD/svg11.dtd">
<svg version="1.1" id="Layer_1" xmlns="http://www.w3.org/2000/svg" xmlns:xlink="http://www.w3.org/1999/xlink" x="0px" y="0px"
	 width="320px" height="217px" viewBox="0 0 320 217" enable-background="new 0 0 320 217" xml:space="preserve">
<g>
	<path fill-rule="evenodd" clip-rule="evenodd" fill="#00AEEF" d="M0.224,163.02c0-36.341,0-72.683,0-109.024
		c1.411-1.681,3.3-2.089,5.382-2.12c2.5-0.037,5-0.057,7.5-0.057c62.505-0.002,125.009,0.001,187.515-0.01
		c2.826,0,5.67,0.215,8.445-0.415c2.947-1.519,2.705-4.295,2.707-6.957c0.01-12.14-0.047-24.281,0.049-36.421
		c0.018-2.373-1.18-5.742,1.492-6.821c2.893-1.169,5.105,1.564,7.107,3.559c8.246,8.218,16.537,16.391,24.688,24.702
		c23.4,23.86,46.549,47.968,70.416,71.366c2.072,2.031,3.734,4.229,4.25,7.147c-0.008,3.235-1.65,5.636-3.852,7.818
		c-5.439,5.395-10.809,10.859-16.264,16.238c-26.434,26.076-51.609,53.396-78.266,79.253c-2.328,2.257-4.693,6.03-8.15,4.419
		c-2.924-1.364-1.377-5.467-1.41-8.338c-0.135-11.657-0.045-23.316-0.064-34.975c-0.004-2.649,0.291-5.464-2.842-6.841
		c-2.83-0.537-5.668-0.337-8.494-0.338c-63.446-0.013-126.891,0.011-190.337-0.053C6.718,165.15,2.993,166.114,0.224,163.02z"/>
</g>
</svg>
