<?xml version="1.0" encoding="iso-8859-1"?>
<!-- Generator: Adobe Illustrator 19.0.0, SVG Export Plug-In . SVG Version: 6.00 Build 0)  -->
<svg version="1.1" id="Capa_1" xmlns="http://www.w3.org/2000/svg" xmlns:xlink="http://www.w3.org/1999/xlink" x="0px" y="0px"
	 viewBox="0 0 335.658 335.658" style="enable-background:new 0 0 335.658 335.658;" xml:space="preserve">
<g>
	<g>
		<path d="M329.474,284.941c-0.844-1.152-1.764-2.247-2.754-3.276l-223.2-223.68l7.04,2.56c6.976,2.532,14.339,3.831,21.76,3.84
			h125.28c16.069,0.395,30.101-10.804,33.28-26.56c3.006-17.416-8.675-33.971-26.09-36.977c-1.951-0.337-3.93-0.492-5.91-0.463H32
			c-17.673,0-32,14.327-32,32v226.88c-0.096,17.673,14.153,32.077,31.826,32.173c1.936,0.011,3.868-0.155,5.774-0.493
			c15.692-3.246,26.81-17.261,26.4-33.28v-124.8c-0.013-6.571-1.039-13.101-3.04-19.36l-3.36-10.56l222.56,222.08
			c11.124,11.653,29.019,13.611,42.4,4.64C336.82,319.224,339.915,299.201,329.474,284.941z"/>
	</g>
</g>
<g>
</g>
<g>
</g>
<g>
</g>
<g>
</g>
<g>
</g>
<g>
</g>
<g>
</g>
<g>
</g>
<g>
</g>
<g>
</g>
<g>
</g>
<g>
</g>
<g>
</g>
<g>
</g>
<g>
</g>
</svg>
