<?xml version="1.0" encoding="utf-8"?>
<!-- Generator: Adobe Illustrator 16.0.3, SVG Export Plug-In . SVG Version: 6.00 Build 0)  -->
<!DOCTYPE svg PUBLIC "-//W3C//DTD SVG 1.1//EN" "http://www.w3.org/Graphics/SVG/1.1/DTD/svg11.dtd">
<svg version="1.1" id="Layer_1" xmlns="http://www.w3.org/2000/svg" xmlns:xlink="http://www.w3.org/1999/xlink" x="0px" y="0px"
	 width="320px" height="320px" viewBox="0 0 320 320" enable-background="new 0 0 320 320" xml:space="preserve">
<path fill="#F70808" d="M270,160H115V95.563c0-24.75,19.813-45.313,44.563-45.563c25-0.25,45.438,20.063,45.438,45v10
	c0,8.313,6.688,15,15,15h20c8.313,0,15-6.688,15-15V95c0-52.5-42.813-95.188-95.313-95S65,43.438,65,95.938V160H50
	c-16.563,0-30,13.438-30,30v100c0,16.563,13.438,30,30,30h220c16.563,0,30-13.438,30-30V190C300,173.438,286.563,160,270,160z
	 M185,255c0,13.813-11.188,25-25,25s-25-11.188-25-25v-30c0-13.813,11.188-25,25-25s25,11.188,25,25V255z"/>
</svg>
