<?xml version="1.0" encoding="utf-8"?>
<!-- Generator: Adobe Illustrator 16.0.3, SVG Export Plug-In . SVG Version: 6.00 Build 0)  -->
<!DOCTYPE svg PUBLIC "-//W3C//DTD SVG 1.1//EN" "http://www.w3.org/Graphics/SVG/1.1/DTD/svg11.dtd">
<svg version="1.1" id="Layer_1" xmlns="http://www.w3.org/2000/svg" xmlns:xlink="http://www.w3.org/1999/xlink" x="0px" y="0px"
	 width="320px" height="320px" viewBox="0 0 320 320" enable-background="new 0 0 320 320" xml:space="preserve">
<g>
	<path fill="#00AEEF" d="M320,167.135c-5.259,0.142-10.524,0.488-15.773,0.352c-3.314-0.086-4.386,0.815-4.28,3.961
		c0.24,7.274-0.206,14.573,0.185,21.839c0.216,4.021-2.045,3.736-4.971,3.834c-3.223,0.109-4.979-0.239-4.796-3.992
		c0.357-7.266-0.019-14.561,0.166-21.839c0.072-2.854-0.928-4.069-3.996-3.739c-0.772,0.083-1.568,0.06-2.346,0.003
		c-4.807-0.348-11.372,2.024-13.945-0.941c-2.429-2.798-0.89-8.661-0.895-13.177c-0.032-34.951,0.064-69.902-0.129-104.853
		c-0.023-4.079,0.999-5.333,5.427-5.048c5.017,0.323,11.808,1.631,14.695-0.76c3.383-2.799,0.818-9.232,1.101-14.078
		c0.158-2.723,0.025-5.461,0.029-8.191c0.01-5.214,2.308-6.673,7.812-5.406c2.469,0.569,1.689,2.122,1.701,3.371
		c0.075,7.281,0.147,14.565-0.021,21.843c-0.06,2.594,0.738,3.479,3.6,3.382c5.472-0.183,10.956-0.02,16.437,0
		C320,84.842,320,125.989,320,167.135z"/>
	<path fill="#00AEEF" d="M282.417,0c-18.584,13.148-37.164,26.304-55.773,39.423c-1.385,0.978-1.693,2.129-1.826,3.677
		c-1.077,12.424-11.188,19.859-24.521,17.77c-2.451-0.385-3.702,0.065-5.52,1.431c-17.244,12.954-34.7,25.661-51.873,38.692
		c-3.505,2.661-7.065,5.368-8.448,10.133c-2.245,7.726-10.128,12.285-19.278,12.313c-9.18,0.027-16.801-4.463-19.525-12.085
		c-1.037-2.9-2.764-5.006-5.375-6.357c-18.975-9.812-38.012-19.519-57.054-29.217c-2.177-1.11-4.275-1.606-7.079-0.979
		C14.252,77.464,2.338,70.584,0.647,60.483c-1.606-9.589,6.586-18.871,17.663-20.015c12.617-1.302,22.63,6.194,23.309,17.551
		c0.111,1.878,0.248,3.212,2.422,4.315c18.399,9.337,36.694,18.851,55.027,28.299c1.783,0.918,3.136,1.65,5.599,0.33
		c6.45-3.458,13.43-3.579,20.131-0.33c2.308,1.12,3.471,0.674,5.429-0.823c13.135-10.047,26.508-19.822,39.725-29.779
		c4.46-3.362,8.472-7.234,13.399-10.065c1.532-0.88,0.66-2.184,0.563-3.41c-1.04-13.181,11.155-23.184,24.869-19.869
		c3.842,0.927,6.334,0.585,9.253-1.543c10.8-7.873,21.728-15.599,32.576-23.415c0.563-0.406,0.854-1.145,1.271-1.729
		C262.061,0,272.238,0,282.417,0z"/>
	<path fill="#00AEEF" d="M179.065,174.531c0-19.113,0.125-38.229-0.105-57.341c-0.046-3.826,0.952-5.113,5.114-4.741
		c4.073,0.364,8.225-0.109,12.317,0.14c3.126,0.189,3.966-0.806,3.883-3.641c-0.209-7.095,0.24-14.213-0.184-21.292
		c-0.26-4.342,2.522-3.414,5.13-3.573c2.855-0.175,4.718-0.047,4.543,3.571c-0.339,7.085,0.05,14.199-0.172,21.292
		c-0.09,2.893,0.869,3.818,3.93,3.634c3.702-0.224,7.461,0.215,11.145-0.125c4.081-0.375,5.217,0.808,5.178,4.704
		c-0.221,22.025-0.107,44.052-0.107,66.078c0,16.203-0.092,32.405,0.074,48.605c0.036,3.493-0.438,5.354-4.944,5.053
		c-4.825-0.323-11.381-1.593-14.138,0.707c-3.242,2.706-0.798,8.896-1.031,13.569c-0.165,3.27-0.334,6.582,0.041,9.821
		c0.493,4.25-0.986,5.735-5.705,5.431c-3.126-0.202-3.962-1-3.888-3.791c0.186-6.912-0.163-13.843,0.149-20.747
		c0.171-3.799-0.508-5.479-5.247-5.232c-5.167,0.27-12.13,2.239-15.121-0.903c-2.563-2.696-0.833-8.998-0.846-13.706
		C179.04,206.206,179.065,190.369,179.065,174.531z"/>
	<path fill="#00AEEF" d="M0.552,194.521c0-19.103,0.105-38.206-0.091-57.307c-0.038-3.702,0.813-5.236,5.078-4.861
		c4.071,0.357,8.219-0.107,12.311,0.137c3.102,0.184,4-0.761,3.914-3.632c-0.216-7.09,0.124-14.196-0.155-21.281
		c-0.131-3.356,1.337-3.997,4.43-3.725c2.586,0.229,5.465-0.795,5.218,3.567c-0.392,6.895,0.069,13.828-0.181,20.732
		c-0.116,3.207,0.587,4.502,4.418,4.385c5.017-0.153,11.685-2.119,14.678,0.751c3.236,3.103,0.995,9.322,1.006,14.17
		c0.087,34.748-0.033,69.498,0.154,104.246c0.022,4.038-0.944,5.296-5.415,5.105c-4.773-0.201-11.179-2.132-13.966,0.856
		c-2.354,2.528-0.723,8.297-0.788,12.63c-0.054,3.639-0.185,7.289,0.04,10.913c0.204,3.291,0.005,5.216-4.711,5.171
		c-4.454-0.041-5.018-1.511-4.879-5.028c0.273-6.902-0.063-13.826,0.148-20.733c0.089-2.935-0.585-4.519-4.076-3.949
		c-0.379,0.062-0.783,0.029-1.172,0.005c-5.2-0.328-12.334,2.118-15.077-0.987c-2.62-2.966-0.853-9.347-0.866-14.228
		C0.525,225.813,0.552,210.167,0.552,194.521z"/>
	<path fill="#00AEEF" d="M89.809,228.311c0-19.296,0.105-38.594-0.095-57.887c-0.038-3.592,1.004-4.642,4.828-4.456
		c5.234,0.256,12.306,1.79,15.286-0.676c3.457-2.861,0.808-9.557,1.096-14.578c0.146-2.542,0.022-5.096,0.026-7.645
		c0.007-5.325,2.113-6.687,7.697-5.479c2.502,0.542,1.709,2.093,1.724,3.334c0.075,7.099,0.207,14.205-0.042,21.296
		c-0.109,3.138,0.971,4.331,4.248,3.837c0.191-0.028,0.391-0.015,0.587-0.002c5.009,0.31,11.687-2.002,14.553,1.024
		c2.456,2.591,0.748,8.654,0.752,13.184c0.022,34.768-0.066,69.539,0.111,104.307c0.022,4.237-0.606,6.244-5.875,5.89
		c-4.565-0.307-10.9-2.071-13.395,0.8c-2.332,2.688-0.804,8.307-0.887,12.637c-0.072,3.641-0.209,7.295,0.042,10.921
		c0.234,3.4-0.24,5.146-4.819,5.182c-4.731,0.04-4.855-1.933-4.755-5.224c0.196-6.366-0.185-12.754,0.146-19.11
		c0.209-4.015-0.643-6.027-5.563-5.425c-3.464,0.424-7.062-0.177-10.55,0.148c-4.083,0.381-5.263-0.848-5.217-4.736
		C89.933,266.54,89.809,247.425,89.809,228.311z"/>
</g>
</svg>
