<?xml version="1.0" encoding="iso-8859-1"?>
<!-- Generator: Adobe Illustrator 19.0.0, SVG Export Plug-In . SVG Version: 6.00 Build 0)  -->
<svg version="1.1" id="Capa_1" xmlns="http://www.w3.org/2000/svg" xmlns:xlink="http://www.w3.org/1999/xlink" x="0px" y="0px"
	 viewBox="0 0 488.221 488.221" style="enable-background:new 0 0 488.221 488.221;" xml:space="preserve">
<g>
	<g>
		<path d="M431.51,449.421v-213.2c0-21.4-17.3-38.7-38.7-38.7h-1v-47.1c0-82-67.1-151.8-149-150.4c-79.7,1.3-144,66.5-144,146.5v4.6
			c0,6.8,5.5,12.3,12.3,12.3h39.4c6.8,0,12.3-5.5,12.3-12.3v-1.3c0-44.1,33.2-82.8,77.1-85.5c47.8-3,87.7,35.1,87.7,82.3v51h-121.3
			v0.1H94.21c-20.8,0.6-37.5,17.6-37.5,38.6v213.2c0,21.4,17.3,38.7,38.7,38.7h297.5C414.21,488.121,431.51,470.821,431.51,449.421z
			 M261.71,348.421v14.4c0,1.7-0.7,3.3-1.8,4.5l-13.1,13.1c-0.4,0.4-0.4,1,0,1.4l9.8,9.8c0.6,0.6,0.6,1.5,0,2.1l-10.9,10.9
			c-0.4,0.4-0.4,1,0,1.4l9.2,9.2c0.9,0.9,1.4,2.1,1.4,3.4v3.6l-12.7,12.4c-1.1,1.1-2.8,1.1-3.9,0.1l-10.9-9.5
			c-1.8-1.6-2.9-3.9-2.9-6.4v-70.8l0,0c-10.7-6.3-17.9-17.9-17.9-31.2c0-20,16.2-36.3,36.3-36.3c20,0,36.3,16.2,36.3,36.3
			C280.41,330.321,272.81,342.221,261.71,348.421z"/>
	</g>
</g>
<g>
</g>
<g>
</g>
<g>
</g>
<g>
</g>
<g>
</g>
<g>
</g>
<g>
</g>
<g>
</g>
<g>
</g>
<g>
</g>
<g>
</g>
<g>
</g>
<g>
</g>
<g>
</g>
<g>
</g>
</svg>
