<?xml version="1.0" encoding="utf-8"?>
<!-- Generator: Adobe Illustrator 16.0.3, SVG Export Plug-In . SVG Version: 6.00 Build 0)  -->
<!DOCTYPE svg PUBLIC "-//W3C//DTD SVG 1.1//EN" "http://www.w3.org/Graphics/SVG/1.1/DTD/svg11.dtd">
<svg version="1.1" id="Layer_1" xmlns="http://www.w3.org/2000/svg" xmlns:xlink="http://www.w3.org/1999/xlink" x="0px" y="0px"
	 width="320px" height="320px" viewBox="0 0 320 320" enable-background="new 0 0 320 320" xml:space="preserve">
<path fill="#00ADEF" d="M234.013,80.826c-20.169-18.885-46.344-29.237-74.111-29.213c-49.973,0.044-93.115,34.309-105.026,81.839
	c-0.867,3.46-3.95,5.903-7.517,5.903h-36.97c-4.838,0-8.512-4.392-7.618-9.146C16.731,56.08,81.815,0,160,0
	c42.869,0,81.801,16.862,110.526,44.313l23.041-23.042C303.322,11.517,320,18.425,320,32.22v86.49
	c0,8.552-6.933,15.484-15.484,15.484h-86.489c-13.795,0-20.704-16.678-10.949-26.433L234.013,80.826z M15.484,185.807h86.49
	c13.794,0,20.703,16.677,10.949,26.434l-26.936,26.936c20.169,18.885,46.345,29.237,74.114,29.211
	c49.948-0.044,93.107-34.286,105.024-81.836c0.867-3.461,3.949-5.903,7.516-5.903h36.971c4.837,0,8.513,4.391,7.617,9.145
	C303.27,263.919,238.186,320,160,320c-42.87,0-81.8-16.862-110.526-44.313l-23.042,23.041C16.678,308.483,0,301.574,0,287.78v-86.49
	C0,192.739,6.933,185.807,15.484,185.807z"/>
</svg>
