<?xml version="1.0" encoding="utf-8"?>
<!-- Generator: Adobe Illustrator 16.0.3, SVG Export Plug-In . SVG Version: 6.00 Build 0)  -->
<!DOCTYPE svg PUBLIC "-//W3C//DTD SVG 1.1//EN" "http://www.w3.org/Graphics/SVG/1.1/DTD/svg11.dtd">
<svg version="1.1" id="Layer_1" xmlns="http://www.w3.org/2000/svg" xmlns:xlink="http://www.w3.org/1999/xlink" x="0px" y="0px"
	 width="479px" height="479px" viewBox="0 0 479 479" enable-background="new 0 0 479 479" xml:space="preserve">
<g>
	<path fill-rule="evenodd" clip-rule="evenodd" d="M226.052,480.109c-9.212-1.265-18.459-2.318-27.63-3.831
		c-42.425-6.999-79.805-24.972-112.868-52.24c-1.777-1.466-3.607-2.869-5.731-4.553c-13.012,11.951-25.802,23.698-39.308,36.102
		c0-32.374,0-63.605,0-95.188c34.169,0,68.201,0,103.136,0c-17.564,16.276-34.588,32.051-51.837,48.034
		c29.347,24.546,61.55,42.63,98.657,50.425c126.053,26.479,242.399-52.028,268.299-173.68c7.819-36.727,5.401-73.216-4.988-109.228
		c-0.368-1.279-0.792-2.544-1.112-3.835c-1.436-5.786,0.215-9.691,4.639-11.048c5.089-1.561,9.063,0.696,10.717,6.839
		c2.594,9.632,4.949,19.338,7.04,29.092c1.634,7.622,2.717,15.363,4.044,23.051c0,13.003,0,26.005,0,39.008
		c-1.415,8.667-2.769,17.346-4.257,26c-16.108,93.646-94.313,172.822-187.81,190.064c-10.284,1.896-20.654,3.336-30.984,4.986
		C246.057,480.109,236.054,480.109,226.052,480.109z"/>
	<path fill-rule="evenodd" clip-rule="evenodd" d="M258.059,1c7.847,1.236,15.71,2.381,23.539,3.723
		c42,7.198,79.117,24.926,111.875,52.018c1.786,1.478,3.609,2.913,5.845,4.714c13.008-11.933,25.92-23.775,39.452-36.188
		c0,32.355,0,63.733,0,95.436c-34.239,0-68.303,0-103.293,0c17.486-16.241,34.486-32.032,51.87-48.179
		c-2.624-2.198-4.955-4.253-7.39-6.177c-42.761-33.778-91.134-50.641-145.876-49.335C126.422,19.579,34.925,99.375,18.264,205.857
		c-5.209,33.297-1.886,66.085,7.083,98.416c0.534,1.923,1.216,3.823,1.546,5.78c0.941,5.585-1.004,9.053-5.513,10.15
		c-4.631,1.126-8.127-0.838-9.816-6.142c-1.764-5.54-3.339-11.174-4.488-16.87c-2.237-11.084-4.11-22.242-6.167-33.362
		c-0.175-0.948-0.6-1.849-0.909-2.771c0-13.67,0-27.339,0-41.009c0.348-1.243,0.799-2.466,1.026-3.731
		c2.028-11.292,3.479-22.717,6.102-33.868C27.841,94.395,103.475,22.31,192.18,5.811c8.945-1.664,17.913-3.21,26.871-4.811
		C232.053,1,245.056,1,258.059,1z"/>
	<path fill-rule="evenodd" clip-rule="evenodd" d="M366.463,170.708c-7.979-2.216-15.841-4.849-23.9-6.544
		c-16.064-3.38-31.84-0.319-47.451,3.347c-42.348,9.947-79.177,30.757-112.818,57.751c-2.079,1.668-4.237,3.262-6.159,5.098
		c-4.95,4.73-9.515,7.83-17.483,5.3c-8.56-2.717-16.838,7.533-13.914,16.461c1.635,4.989,0.733,8.548-2.575,12.205
		c-11.306,12.493-18.403,27.65-26.459,42.198c-0.786,1.419-1.634,2.804-2.535,4.343c-20.913-33.541-28.038-89.64-1.936-137.183
		c28.565-52.028,73.368-78.586,132.655-77.903C305.05,96.486,348.934,135.707,366.463,170.708z"/>
	<path fill-rule="evenodd" clip-rule="evenodd" d="M274.737,195.167c4.187,0.559,9.021,0.89,13.717,1.886
		c15.536,3.297,23.564,15.262,21.117,31.007c-2.352,15.142-9.785,27.812-19.179,39.516c-29.61,36.894-67.489,60.824-113.458,71.772
		c-10.853,2.586-21.888,3.969-33.098,0.938c-17.705-4.786-26.087-17.852-21.096-35.565c2.262-8.028,6.443-15.626,10.512-23.001
		c3.361-6.093,7.913-11.52,11.789-17.34c2.052-3.081,4.502-3.846,8.107-2.979c12.014,2.888,20.007-5.403,17.141-17.283
		c-0.377-1.559,0.462-4.252,1.687-5.232c26.24-21.017,55.123-36.604,88.699-42.216C265.095,195.929,269.599,195.702,274.737,195.167
		z"/>
	<path fill-rule="evenodd" clip-rule="evenodd" d="M186.368,375.152c85.249-27.214,156.369-72.039,196.035-156.316
		c8.11,39.286-5.396,96.803-51.956,134.499C285.258,389.923,225.724,392.622,186.368,375.152z"/>
</g>
</svg>
