<?xml version="1.0" encoding="utf-8"?>
<!-- Generator: Adobe Illustrator 16.0.3, SVG Export Plug-In . SVG Version: 6.00 Build 0)  -->
<!DOCTYPE svg PUBLIC "-//W3C//DTD SVG 1.1//EN" "http://www.w3.org/Graphics/SVG/1.1/DTD/svg11.dtd">
<svg version="1.1" id="Layer_1" xmlns="http://www.w3.org/2000/svg" xmlns:xlink="http://www.w3.org/1999/xlink" x="0px" y="0px"
	 width="300px" height="300px" viewBox="0 0 300 300" enable-background="new 0 0 300 300" xml:space="preserve">
<g>
	<path fill-rule="evenodd" clip-rule="evenodd" fill="#00AEEF" d="M289.283,46.729c-2.978-0.552-5.922-0.828-8.919-0.834
		c-11.83-0.027-23.672-0.309-35.487,0.115c-5.923,0.213-9.74-1.972-12.723-6.781c-3.947-6.365-8.548-12.307-12.604-18.594
		C213.335,11,206.343,2.622,194.044,1c-27.673,0-55.346,0-83.019,0c-10.911,0.895-18.933,6.385-24.681,15.501
		C81.201,24.66,75.088,32.155,69.94,40.297c-2.592,4.098-5.78,5.76-10.676,5.676c-13.469-0.233-26.947-0.25-40.418-0.008
		C9.105,46.141,3.92,49.783,1,58.013c0,4.667,0,9.335,0,14.003c2.306,4.952,6.632,5.266,11.344,5.253
		c7.982-0.021,8.428,0.52,8.438,8.593c0.034,29.826,0.001,59.652,0.016,89.479c0.016,32.658-0.139,65.317,0.077,97.976
		c0.093,14.019,9.474,24.556,23.333,26.783c1.003,0.161,1.952,0.403,2.802,0.968c70.016,0,140.032,0,210.048,0
		c3.536-1.866,7.778-1.387,11.253-3.718c9.249-6.204,14.066-14.394,14.038-25.856c-0.153-60.91-0.067-121.821-0.085-182.732
		c-0.003-11.944,0.08-11.606,11.039-11.572c3.403,0.011,6.28-0.727,7.765-4.174c0-5.668,0-11.336,0-17.004
		C299.274,50.204,294.95,47.778,289.283,46.729z M107.659,42.644c8.697-13.747,8.69-13.752,24.584-13.75
		c16.158,0.001,32.316,0.089,48.474-0.055c3.897-0.035,6.562,1.129,8.623,4.566c2.381,3.968,5.3,7.612,7.991,11.394
		c0.537,0.755,1.646,1.334,0.759,2.51c-0.656,0.869-1.468,0.973-2.584,0.966c-14.154-0.082-28.309-0.053-42.462-0.053
		c0-0.072,0-0.143,0-0.214c-14.16,0-28.319,0.015-42.478-0.023c-1.429-0.004-3.199,0.57-4.162-0.907
		C105.246,45.301,106.785,44.026,107.659,42.644z M249.075,174.061c0,30.497,0.006,60.995-0.004,91.492
		c-0.003,7.153-1.33,8.494-8.422,8.495c-59.495,0.007-118.991,0.008-178.486-0.001c-6.242-0.001-7.98-1.629-7.984-7.986
		c-0.036-61.828,0.004-123.657-0.086-185.485c-0.005-3.859,1.52-4.741,5.053-4.736c61.662,0.077,123.325,0.09,184.986-0.021
		c4.08-0.007,5.024,1.462,5.01,5.249C249.022,112.064,249.075,143.062,249.075,174.061z"/>
	<path fill-rule="evenodd" clip-rule="evenodd" fill="#00AEEF" d="M174.017,173.508c-0.001-20.146-0.015-40.294,0.008-60.441
		c0.007-6.046,1.92-7.957,8.049-8.046c4.662-0.069,9.324-0.035,13.986-0.012c6.168,0.031,8.921,2.798,8.972,9.172
		c0.063,7.659,0.017,15.318,0.017,22.978c0,32.469,0.005,64.938-0.005,97.406c-0.003,7.493-1.985,9.481-9.387,9.505
		c-4.495,0.014-8.991,0.045-13.486-0.01c-5.982-0.072-8.119-2.131-8.134-8.111C173.987,215.136,174.018,194.321,174.017,173.508z"/>
	<path fill-rule="evenodd" clip-rule="evenodd" fill="#00AEEF" d="M129.023,175.548c0,20.166,0.014,40.331-0.009,60.497
		c-0.007,6.092-1.877,7.938-8.089,8.014c-4.999,0.062-10,0.067-14.999-0.002c-4.971-0.069-7.243-2.189-7.766-7.113
		c-0.105-0.989-0.055-1.997-0.055-2.997c-0.002-39.332-0.035-78.663,0.053-117.994c0.008-3.649-0.846-8.381,3.861-9.8
		c7.572-2.284,15.47-1.719,23.132-0.351c3.761,0.672,3.884,4.46,3.881,7.749C129.015,134.217,129.023,154.882,129.023,175.548z"/>
</g>
</svg>
