<?xml version="1.0" encoding="utf-8"?>
<!-- Generator: Adobe Illustrator 16.0.3, SVG Export Plug-In . SVG Version: 6.00 Build 0)  -->
<!DOCTYPE svg PUBLIC "-//W3C//DTD SVG 1.1//EN" "http://www.w3.org/Graphics/SVG/1.1/DTD/svg11.dtd">
<svg version="1.1" id="Layer_1" xmlns="http://www.w3.org/2000/svg" xmlns:xlink="http://www.w3.org/1999/xlink" x="0px" y="0px"
	 width="320px" height="320px" viewBox="0 0 320 320" enable-background="new 0 0 320 320" xml:space="preserve">
<g>
	<path fill-rule="evenodd" clip-rule="evenodd" fill="#00AEEF" d="M55.933-0.317c6.023,3.646,12.552,6.275,18.863,9.34
		c6.259,3.041,7.471,5.943,4.529,12.11c-10.452,21.916-20.97,43.799-31.429,65.711c-4.788,10.029-9.451,20.118-14.26,30.137
		c-1.918,3.996-4.968,5.386-8.961,3.71c-6.878-2.886-13.64-6.06-20.372-9.278c-2.055-0.982-3.477-2.856-4.62-4.855
		c0-1.25,0-2.5,0-3.75c1.909-6.745,5.459-12.777,8.445-19.035c8.01-16.784,15.926-33.614,24.08-50.331
		c4.509-9.245,8.874-18.561,13.167-27.908c1.273-2.771,2.675-5.43,6.183-5.851C53.017-0.317,54.475-0.317,55.933-0.317z"/>
	<path fill-rule="evenodd" clip-rule="evenodd" fill="#00AEEF" d="M266.559-0.317c3.028,1.199,4.37,3.755,5.691,6.539
		c13.904,29.306,27.896,58.57,41.86,87.847c1.12,2.346,2.217,4.704,3.335,7.051c2.02,4.238,0.877,7.827-3.34,9.908
		c-6.323,3.121-12.661,6.217-19.066,9.164c-5.131,2.361-8.477,1.041-10.905-4.058c-15.158-31.818-30.318-63.634-45.446-95.466
		c-2.65-5.578-1.548-8.578,4.066-11.315c5.888-2.87,11.822-5.647,17.728-8.482c0.622-0.299,1.476-0.306,1.702-1.187
		C263.642-0.317,265.1-0.317,266.559-0.317z"/>
	<path fill-rule="evenodd" clip-rule="evenodd" fill="#00AEEF" d="M126.625,207.616c-6.206,6.905-11.29,8.129-18.442,4.736
		c-7.677-3.644-10.926-10.342-9.429-19.849c-6.795,4.761-13.395,4.152-19.663-0.559c-6.114-4.595-8.542-10.771-6.617-19.041
		c-6.32,4.614-12.24,4.544-18.296,1.207c-9.413-5.187-11.807-17.771-4.736-24.941c2.69-2.728,4.863-5.958,7.42-8.827
		c1.228-1.377,1.22-2.313,0.012-3.701c-3.274-3.765-6.32-7.729-9.62-11.47c-1.279-1.45-1.184-2.545-0.289-4.082
		c1.358-2.333,2.589-4.756,3.67-7.229c0.872-1.995,1.582-1.643,2.729-0.254c3.776,4.57,7.601,9.1,11.46,13.599
		c0.783,0.913,1.258,2.138,3.203,1.196c7.405-3.59,14.579-2.255,19.979,3.353c5.431,5.64,6.171,12.619,1.907,20.778
		c7.222-3.964,13.523-2.399,19.133,2.415c5.577,4.786,7.904,10.758,5.155,18.622c6.945-4.512,13.253-3.311,18.924,1.266
		c5.563,4.491,8.269,10.273,5.679,18.111c4.369-2.489,8.392-2.311,12.34-0.183c3.806,2.05,6.628,4.986,8.035,9.153
		c0.718,2.13,0.962,4.365-0.012,6.38c-0.775,1.603-0.142,2.153,1.038,2.94c3.896,2.594,7.986,3.93,12.62,2.309
		c1.705-0.596,3.127-1.666,4.264-3.06c2.251-2.761,2.126-4.349-0.691-6.478c-7.22-5.456-14.491-10.843-21.743-16.256
		c-1.25-0.934-2.547-1.811-3.753-2.799c-2.696-2.208-3.078-4.742-1.18-7.359c1.907-2.631,4.372-3.044,7.321-0.982
		c13.209,9.23,26.406,18.479,39.557,27.792c6.696,4.741,13.108,2.729,15.661-5.052c1.089-3.322-0.021-6.615-3.23-8.955
		c-10.921-7.965-21.881-15.878-32.823-23.814c-3.62-2.625-7.237-5.251-10.844-7.895c-3.13-2.294-3.904-5.381-2.062-8.083
		c1.667-2.44,5.473-2.997,8.373-0.946c14.349,10.149,28.645,20.374,42.962,30.568c2.965,2.11,5.866,4.322,8.932,6.276
		c3.64,2.321,8.371,1.916,11.33-0.715c2.97-2.641,3.925-7.107,2.39-10.833c-0.714-1.733-2.06-2.817-3.508-3.855
		c-17.92-12.84-35.835-25.687-53.75-38.533c-0.93-0.667-1.892-1.3-2.76-2.042c-3.021-2.578-3.789-6.084-1.915-8.522
		c1.828-2.379,5.636-2.635,8.762-0.454c4.775,3.331,9.495,6.741,14.23,10.129c14.883,10.645,29.741,21.323,44.651,31.929
		c5.365,3.816,12.227,2.263,16.74-3.618c3.459-4.503,2.521-10.353-2.385-14.622c-24.878-21.651-49.78-43.274-74.623-64.965
		c-3.602-3.144-6.998-6.533-10.37-9.928c-8.036-8.089-23.715-6.14-29.083,3.886c-1.274,2.38-1.255,5.418-2.11,8.063
		c-3.795,11.734-10.81,20.52-23.015,24.251c-4.717,1.442-9.571,1.682-14.416,0.478c-3.752-0.932-6.411-3.3-8.301-6.582
		c-0.993-1.724-1.266-3.781-0.355-5.413c4.7-8.432,6.137-17.66,6.268-27.036c0.085-6.065,2.411-11.03,5.275-16.002
		c3.274-5.684,3.253-5.692-3.318-5.688c-5.416,0.002-10.833-0.053-16.249,0.013c-1.937,0.023-2.43-0.344-1.368-2.237
		c2.132-3.803,3.173-8.877,6.31-11.27c3.073-2.345,8.232-0.564,12.471-0.631c8.746-0.139,17.496-0.051,26.244-0.002
		c1.287,0.007,2.417-0.183,3.562-0.828c18.403-10.386,37.753-11.212,57.692-5.544c11.911,3.386,23.778,6.973,36.32,6.996
		c1.969,0.004,2.425,1.312,3.039,2.589c5.948,12.372,11.876,24.754,17.808,37.134c7.278,15.192,14.518,30.403,21.874,45.558
		c1.176,2.423,1.635,4.58,0.064,6.944c-0.568,0.856-0.785,1.945-1.343,2.811c-3.45,5.359-3.447,9.885,0.224,15.857
		c8.029,13.063-0.27,31.037-16.876,32.293c-2.682,0.203-3.797,0.909-4.089,3.948c-1.184,12.362-8.367,18.838-20.821,18.882
		c-3.018,0.01-4.41,0.808-5.198,3.76c-0.971,3.637-2.988,6.878-5.66,9.575c-6.482,6.544-15.368,7.326-24.935,1.794
		c-2.756-1.594-3.688-1.146-5.383,1.311c-7.729,11.207-18.902,13.147-30.372,5.572c-4.568-3.016-4.635-3.074-8.152,1.022
		c-2.963,3.45-6.555,4.169-10.697,2.864C129.964,222.383,125.847,216.179,126.625,207.616z"/>
	<path fill-rule="evenodd" clip-rule="evenodd" fill="#00AEEF" d="M66.535,279.059c-3.263,6.793-6.387,13.295-9.507,19.798
		c-1.561,3.255-3.18,6.483-4.636,9.784c-0.537,1.216-1.186,1.7-2.525,1.692c-9.361-0.048-18.723-0.024-28.488-0.024
		c1.797-3.837,3.457-7.434,5.162-11.008c2.896-6.071,5.903-12.092,8.676-18.218c0.7-1.548,1.416-2.083,3.104-2.067
		C47.582,279.104,56.843,279.059,66.535,279.059z"/>
	<path fill-rule="evenodd" clip-rule="evenodd" fill="#00AEEF" d="M132.319,279.059c-1.391,3.133-2.572,5.976-3.901,8.747
		c-3.252,6.783-6.642,13.502-9.815,20.321c-0.743,1.596-1.467,2.258-3.315,2.233c-8.902-0.116-17.806-0.052-27.096-0.052
		c2.96-6.221,5.754-12.074,8.532-17.936c1.846-3.896,3.626-7.823,5.546-11.682c0.333-0.671,0.444-1.688,1.809-1.676
		C113.398,279.098,122.718,279.059,132.319,279.059z"/>
	<path fill-rule="evenodd" clip-rule="evenodd" fill="#00AEEF" d="M131.319,279.059c-1.391,3.133-2.572,5.976-3.901,8.747
		c-3.252,6.783-6.642,13.502-9.815,20.321c-0.743,1.596-1.467,2.258-3.315,2.233c-8.902-0.116-17.806-0.052-27.096-0.052
		c2.96-6.221,5.754-12.074,8.532-17.936c1.846-3.896,3.626-7.823,5.546-11.682c0.333-0.671,0.444-1.688,1.809-1.676
		C112.398,279.098,121.718,279.059,131.319,279.059z"/>
	<path fill-rule="evenodd" clip-rule="evenodd" fill="#00AEEF" d="M165.562,279.059c-4.868,10.27-9.493,20.04-14.139,29.801
		c-0.436,0.915-0.97,1.511-2.271,1.498c-9.137-0.093-18.275-0.049-27.778-0.049c2.438-5.223,4.736-10.192,7.077-15.142
		c2.273-4.806,4.583-9.593,6.893-14.38c0.472-0.979,0.867-1.8,2.37-1.782C146.851,279.111,155.989,279.059,165.562,279.059z"/>
	<path fill-rule="evenodd" clip-rule="evenodd" fill="#00AEEF" d="M154.373,310.309c3.105-6.381,6.06-12.38,8.947-18.412
		c1.772-3.704,3.406-7.476,5.18-11.18c0.393-0.82,0.668-1.727,2.108-1.711c9.223,0.103,18.445,0.053,27.954,0.053
		c-1.63,3.651-3.056,7.041-4.641,10.354c-3.03,6.336-6.144,12.633-9.242,18.937c-0.453,0.921-0.556,2.02-2.17,2.004
		C173.287,310.26,164.063,310.309,154.373,310.309z"/>
	<path fill-rule="evenodd" clip-rule="evenodd" fill="#00AEEF" d="M187.567,310.309c2.959-6.221,5.753-12.074,8.531-17.936
		c1.847-3.895,3.627-7.822,5.546-11.681c0.334-0.671,0.444-1.688,1.81-1.677c9.318,0.082,18.638,0.043,28.24,0.043
		c-1.392,3.132-2.571,5.975-3.901,8.746c-3.252,6.784-6.641,13.503-9.814,20.322c-0.742,1.595-1.466,2.258-3.314,2.233
		C205.762,310.244,196.857,310.309,187.567,310.309z"/>
	<path fill-rule="evenodd" clip-rule="evenodd" fill="#00AEEF" d="M55.318,310.309c3.086-6.379,6.105-12.59,9.097-18.815
		c1.693-3.521,3.35-7.061,5-10.603c0.437-0.938,0.738-1.855,2.096-1.85c9.13,0.036,18.26,0.019,27.671,0.019
		c-1.377,3.103-2.559,5.946-3.886,8.72c-3.294,6.886-6.698,13.721-9.953,20.625c-0.637,1.351-1.265,1.966-2.872,1.948
		C73.525,310.26,64.578,310.309,55.318,310.309z"/>
	<path fill-rule="evenodd" clip-rule="evenodd" fill="#00AEEF" d="M318.474,280.639c-0.798-5.389-7.601-11.002-12.531-10.999
		c-97.698,0.058-195.397,0.047-293.095,0.036c-6.502-0.001-12.328,6.271-12.489,12.54c-0.207,8.015-0.021,16.038-0.062,24.059
		c-0.021,4.208,1.929,7.099,5.125,9.792c2.459,2.072,5.352,2.419,8.012,3.617c97.5,0,195,0,292.5,0
		c0.093-0.17,0.167-0.473,0.283-0.488c8.659-1.216,12.336-7.655,12.677-14.677C319.278,296.596,319.651,288.594,318.474,280.639z
		 M248.79,310.357c-9.229-0.097-18.46-0.049-28.135-0.049c4.847-10.116,9.429-19.693,14.027-29.26
		c0.443-0.924,0.518-2.049,2.143-2.033c9.229,0.088,18.461,0.043,27.976,0.043c-1.611,3.625-3.036,7.013-4.609,10.33
		c-3.054,6.436-6.173,12.84-9.318,19.23C250.476,309.428,250.233,310.372,248.79,310.357z M280.897,310.352
		c-8.899-0.086-17.799-0.044-27.008-0.044c2.251-4.867,4.303-9.407,6.443-13.904c2.413-5.071,4.997-10.063,7.31-15.178
		c0.732-1.622,1.493-2.242,3.324-2.218c8.482,0.113,16.967,0.051,25.878,0.051c-2.821,5.879-5.468,11.359-8.081,16.856
		c-2.023,4.255-3.963,8.55-6.045,12.773C282.389,309.357,282.263,310.365,280.897,310.352z M309.136,304.016
		c-1.245,4.722-1.912,5.846-6.673,6.214c-4.445,0.344-8.938,0.077-13.41,0.079c-0.996,0-1.992,0-3.33,0
		c2.731-5.796,5.281-11.216,7.841-16.631c1.884-3.987,4.082-7.86,5.574-11.988c1.145-3.163,3.376-2.757,5.61-2.586
		c2.391,0.183,3.692,1.768,4.325,4.049c0.813,2.926,0.723,5.905,0.574,8.861C309.445,296.009,310.192,300.007,309.136,304.016z"/>
	<path fill-rule="evenodd" clip-rule="evenodd" fill="#00AEEF" d="M32.338,279.06c-1.533,3.372-2.89,6.464-4.335,9.513
		c-2.96,6.251-5.897,12.515-9.019,18.685c-0.573,1.133-0.498,3.505-2.687,2.962c-2.719-0.675-6.393-0.809-6.531-4.65
		c-0.27-7.474-0.209-14.967,0-22.444c0.065-2.302,1.872-3.956,4.256-4.016C20.02,278.96,26.024,279.06,32.338,279.06z"/>
</g>
</svg>
