<?xml version="1.0" encoding="utf-8"?>
<!-- Generator: Adobe Illustrator 16.0.3, SVG Export Plug-In . SVG Version: 6.00 Build 0)  -->
<!DOCTYPE svg PUBLIC "-//W3C//DTD SVG 1.1//EN" "http://www.w3.org/Graphics/SVG/1.1/DTD/svg11.dtd">
<svg version="1.1" id="Layer_1" xmlns="http://www.w3.org/2000/svg" xmlns:xlink="http://www.w3.org/1999/xlink" x="0px" y="0px"
	 width="320px" height="320px" viewBox="0 0 320 320" enable-background="new 0 0 320 320" xml:space="preserve">
<g>
	<path fill="#00AEEF" d="M320.13,152.158c0.212,0.014,0.424,0.027,0.636,0.037c0,5.476,0,10.952,0,16.429
		c-0.208,0.024-0.417,0.038-0.627,0.039C320.137,163.161,320.133,157.659,320.13,152.158z"/>
	<path fill="#00AEEF" d="M150.766,320.766c2.857-1.435,5.714-0.912,8.571,0C156.48,320.766,153.623,320.766,150.766,320.766z"/>
	<path fill="#00AEEF" d="M161.479,320.766c2.621-0.896,5.238-1.475,7.857,0C166.718,320.766,164.1,320.766,161.479,320.766z"/>
	<path fill="#00AEEF" d="M319.868,140.847c-1.789-17.946-7.025-34.964-14.997-51.058c-13.387-27.025-32.783-48.785-58.334-64.955
		C228.738,13.57,209.461,6.115,188.766,2.257c-5.486-1.022-11.078-0.665-16.57-1.493c-8.334,0-16.667,0-25,0
		c-0.72,0.627-1.588,0.32-2.392,0.357c-6.532,0.305-13.013,0.926-19.398,2.452C92.219,11.503,63.888,27.61,40.92,53.065
		c-17.395,19.279-29.271,41.43-36.062,66.431c-2.153,7.927-3.184,16.006-4.091,24.125c0,11.667,0,23.333,0,35
		c1.226,3.169,0.564,6.553,1.138,9.814c2.757,15.688,7.633,30.695,14.842,44.861c8.582,16.864,19.877,31.717,33.717,44.727
		c19.832,18.645,42.856,31.256,69.082,38.326c9.093,2.449,18.327,3.604,27.649,4.414c1.19,0,2.38,0,3.571,0
		c2.857-0.604,5.714-0.604,8.571,0c0.714,0,1.431,0,2.144,0c2.621-0.58,5.237-0.58,7.856,0c0.952,0,1.905,0,2.856,0
		c0.277-0.234,0.592-0.363,0.966-0.361c9.694,0.041,19.108-1.709,28.462-4.153c27.938-7.306,52.014-21.394,72.422-41.632
		c14.039-13.926,25.199-29.979,33.212-48.159c8.243-18.707,13.329-38.089,13.146-58.664c0-4.948,0-9.901-0.001-14.858
		C320.53,148.891,320.267,144.848,319.868,140.847z M160.362,298.404c-75.811,0.041-137.688-61.947-137.583-137.829
		c0.104-75.817,61.387-137.56,137.505-137.524c77.674,0.038,137.709,62.958,137.76,137.615
		C298.096,236.475,236.277,298.364,160.362,298.404z"/>
</g>
<path fill="#00AEEF" d="M161.109,36.975C91.099,36.598,34.956,96.117,37.194,160.619C34.869,224.326,89.65,284.55,160.232,284.361
	c68.361-0.182,123.809-55.182,123.881-123.397C284.188,90.186,225.691,37.323,161.109,36.975z M97.061,80.891
	c0.37-0.179,0.627-0.588,0.937-0.891c41.519,0,83.038,0,124.557,0c0.425,0.324,0.812,0.725,1.281,0.958
	c4.18,2.076,6.214,6.404,5.128,10.983c-0.962,4.058-4.753,6.976-9.214,6.977c-39.592,0.013-79.183,0.013-118.774,0.001
	c-4.453-0.001-8.295-3.065-9.217-7.231C90.777,87.258,92.934,82.9,97.061,80.891z M231.942,221.063
	c-7.18,7.354-15.108,13.806-24.857,17.613c-0.948,0.369-1.841,0.88-2.758,1.324c-3.826,0-7.651,0-11.477,0
	c-0.18-0.242-0.311-0.62-0.546-0.707c-7.452-2.712-11-8.58-12.587-15.869c-0.593-2.721-0.815-5.57-0.822-8.361
	c-0.06-26.268-0.037-52.535-0.038-78.802c0-0.716,0-1.432,0-2.179c-9.981,0-19.745,0-29.663,0c0,0.814-0.016,1.532,0.002,2.248
	c0.227,8.947,0.074,17.88-1.209,26.755c-2.536,17.545-8.239,33.794-19.863,47.528c-7.887,9.317-17.442,16.342-29.035,20.406
	c-5.447,1.91-10.456-0.086-12.604-4.906c-2.172-4.875,0.267-10.901,5.381-12.603c12.583-4.188,21.351-12.769,27.853-23.941
	c5.181-8.904,7.929-18.634,9.435-28.784c1.261-8.497,1.344-17.021,1.106-25.57c-0.009-0.331-0.058-0.659-0.111-1.233
	c-0.696,0-1.344,0-1.991,0c-9,0-18,0.063-26.998-0.031c-4.043-0.043-7.173-1.925-8.796-5.713c-1.549-3.614-1.021-7.069,1.604-10.062
	c1.925-2.195,4.409-3.131,7.346-3.129c33.748,0.022,67.496,0.014,101.244,0.014c5.682,0,11.362-0.014,17.043,0.004
	c5.484,0.019,9.646,4.037,9.712,9.336c0.063,5.142-4.232,9.503-9.584,9.562c-6.636,0.073-13.274,0.019-19.911,0.019
	c-0.604,0-1.208,0-2.032,0c0,0.832,0,1.487,0.001,2.142c0,26.548-0.013,53.097,0.028,79.645c0.003,1.819,0.404,3.637,0.68,5.96
	c2.119-0.926,4.026-1.399,5.499-2.471c4.626-3.361,9.205-6.811,13.577-10.496c3.185-2.685,6.487-3.985,10.521-2.533
	C234.168,208.418,236.444,216.451,231.942,221.063z"/>
</svg>
