<?xml version="1.0" encoding="utf-8"?>
<!-- Generator: Adobe Illustrator 16.0.3, SVG Export Plug-In . SVG Version: 6.00 Build 0)  -->
<!DOCTYPE svg PUBLIC "-//W3C//DTD SVG 1.1//EN" "http://www.w3.org/Graphics/SVG/1.1/DTD/svg11.dtd">
<svg version="1.1" id="Layer_1" xmlns="http://www.w3.org/2000/svg" xmlns:xlink="http://www.w3.org/1999/xlink" x="0px" y="0px"
	 width="320px" height="320px" viewBox="0 0 320 320" enable-background="new 0 0 320 320" xml:space="preserve">
<g>
	<path fill-rule="evenodd" clip-rule="evenodd" fill="#2AAAE1" d="M167.522,0.239c8.106,0.429,16.148,1.385,24.105,3.009
		c22.625,4.614,43.291,13.693,62.01,27.215c7.091,5.123,13.713,10.794,19.855,17.019c0.646,0.656,0.964,0.705,1.643-0.007
		c8.431-8.854,16.9-17.671,25.366-26.491c0.203-0.212,0.345-0.536,0.867-0.537c6.19,31.583,12.386,63.189,18.611,94.954
		c-31.473-5.384-62.859-10.755-94.438-16.158c2.391-2.494,4.667-4.869,6.941-7.244c5.514-5.757,11.016-11.525,16.556-17.256
		c0.624-0.646,0.593-0.996-0.015-1.617c-9.119-9.308-19.426-17.014-30.938-23.124c-11.989-6.363-24.69-10.65-38.072-12.804
		c-8.789-1.415-17.642-1.952-26.572-1.446c-10.914,0.618-21.563,2.494-31.955,5.844c-14.653,4.724-27.968,11.947-39.938,21.624
		c-14.305,11.564-25.546,25.607-33.67,42.1c-6.051,12.286-10.017,25.228-11.646,38.856c-0.211,1.769-0.702,3.546-0.613,5.298
		c0.258,5.087-0.381,10.161,0.018,15.255c0.286,3.652,0.477,7.313,0.921,10.954c0.829,6.786,2.253,13.441,4.215,19.988
		c4.568,15.252,11.821,29.105,21.708,41.576c10.768,13.58,23.82,24.442,39.09,32.635c11.963,6.417,24.67,10.706,38.047,12.928
		c9.146,1.52,18.362,1.959,27.643,1.431c13.291-0.756,26.089-3.636,38.464-8.461c2.823-1.101,5.571-2.401,8.317-3.686
		c0.726-0.341,1.057-0.252,1.485,0.407c6.115,9.412,12.241,18.816,18.418,28.188c0.642,0.973,0.085,1.141-0.556,1.47
		c-10.994,5.646-22.462,10.036-34.465,13.011c-7.008,1.737-14.086,3.042-21.271,3.816c-3.015,0.324-6.033,0.531-9.05,0.79
		c-1.444,0.03-2.908-0.313-4.326,0.224c-2.959,0-5.917,0-8.875,0c-1.322-0.548-2.699-0.175-4.051-0.238
		c-3.967-0.191-7.921-0.577-11.855-1.098c-11.868-1.57-23.432-4.38-34.677-8.527c-20.68-7.626-39.01-19.03-54.936-34.231
		c-21.054-20.095-35.643-44.159-43.677-72.147c-3.735-13.01-5.732-26.295-6.047-39.835c-0.107-4.619-0.23-9.258-0.111-13.853
		c0.216-8.287,1.597-16.486,3.398-24.596c2.697-12.146,6.716-23.838,12.168-35.015c11.098-22.743,26.674-41.87,46.742-57.293
		c19.57-15.042,41.489-24.99,65.672-29.927c7.962-1.625,16.013-2.588,24.129-3.003C157.279,0.237,162.4,0.238,167.522,0.239z"/>
	<path fill-rule="evenodd" clip-rule="evenodd" fill="#A8A7A7" d="M152.158,0.236c0.004-0.079,0.011-0.157,0.018-0.236
		c5.11,0,10.22,0,15.329,0c0.006,0.08,0.012,0.16,0.018,0.239C162.4,0.238,157.279,0.237,152.158,0.236z"/>
	<path fill-rule="evenodd" clip-rule="evenodd" fill="#A8A7A7" d="M164.278,320c1.418-0.536,2.882-0.193,4.326-0.224
		c0.011,0.076,0.003,0.151-0.023,0.224C167.146,320,165.712,320,164.278,320z"/>
	<path fill-rule="evenodd" clip-rule="evenodd" fill="#A8A7A7" d="M151.369,320c-0.011-0.08-0.016-0.158-0.017-0.238
		c1.352,0.063,2.729-0.31,4.051,0.238C154.059,320,152.714,320,151.369,320z"/>
	<path fill-rule="evenodd" clip-rule="evenodd" fill="#2AAAE1" d="M120.131,187.342c0.55,0.445,1.061,0.258,1.525,0.259
		c10.218,0.013,20.435,0.025,30.65-0.015c0.992-0.004,1.263,0.214,1.253,1.237c-0.056,5.869-0.055,11.738-0.001,17.608
		c0.01,1.017-0.256,1.236-1.25,1.234c-20.389-0.032-40.777-0.03-61.167-0.005c-0.937,0.001-1.314-0.129-1.302-1.211
		c0.063-5.376,0.042-10.753,0.014-16.131c-0.004-0.729,0.197-1.259,0.727-1.765c9.592-9.148,19.215-18.266,28.729-27.495
		c3.458-3.355,6.981-6.732,9.042-11.224c1.907-4.156,1.494-9.06-1.476-11.685c-3.39-2.997-7.332-2.98-11.347-1.608
		c-3.691,1.261-6.491,3.879-9.251,6.507c-0.844,0.803-1.685,1.614-2.452,2.488c-0.454,0.518-0.68,0.62-1.209,0.044
		c-4.277-4.646-8.59-9.255-12.898-13.87c-0.326-0.349-0.545-0.558-0.096-1.067c4.836-5.501,10.224-10.277,17.081-13.137
		c6.527-2.722,13.326-3.445,20.323-2.723c5.697,0.588,10.975,2.327,15.6,5.762c6.376,4.736,9.598,11.213,10.316,19.04
		c0.897,9.76-2.57,17.9-9.119,24.945c-6.777,7.289-14.333,13.77-21.467,20.688C121.629,185.926,120.89,186.619,120.131,187.342z"/>
	<path fill-rule="evenodd" clip-rule="evenodd" fill="#2AAAE1" d="M302.185,154.315c5.508,0,11.015,0.023,16.523-0.023
		c0.911-0.008,1.224,0.227,1.245,1.149c0.073,3.31,0.063,6.613-0.048,9.923c-0.278,8.218-1.211,16.355-2.706,24.438
		c-0.197,1.065-0.497,1.249-1.514,1c-10.577-2.587-21.163-5.138-31.755-7.661c-0.876-0.208-1.143-0.548-0.991-1.421
		c0.718-4.14,1.033-8.321,1.308-12.511c0.301-4.597,0.432-9.192,0.19-13.792c-0.054-1.022,0.359-1.126,1.225-1.12
		C291.169,154.333,296.677,154.315,302.185,154.315z"/>
	<path fill-rule="evenodd" clip-rule="evenodd" fill="#2AAAE1" d="M295.125,245.544c-5.011-3.893-9.949-7.729-14.889-11.568
		c-3.776-2.937-7.523-5.908-11.345-8.783c-1.016-0.765-1.134-1.303-0.497-2.445c3.329-5.973,5.976-12.271,8.507-18.612
		c0.419-1.052,0.733-1.298,1.845-0.856c10.017,3.98,20.057,7.898,30.098,11.813c0.731,0.285,1.252,0.448,0.864,1.453
		C305.807,226.642,301.012,236.284,295.125,245.544z"/>
	<path fill-rule="evenodd" clip-rule="evenodd" fill="#2AAAE1" d="M278.894,266.94c-0.229,0.275-0.391,0.486-0.569,0.683
		c-6.984,7.674-14.648,14.594-22.944,20.821c-0.627,0.47-0.844,0.286-1.199-0.261c-6.175-9.478-12.361-18.945-18.565-28.403
		c-0.353-0.538-0.286-0.769,0.221-1.154c5.455-4.17,10.54-8.752,15.212-13.782c0.524-0.563,0.78-0.666,1.449-0.102
		c8.485,7.161,17.01,14.273,25.523,21.402C278.315,266.392,278.59,266.662,278.894,266.94z"/>
	<path fill-rule="evenodd" clip-rule="evenodd" fill="#2AAAE1" d="M198.583,190.378c1.136-0.004,1.411,0.332,1.397,1.425
		c-0.058,4.749,0.021,9.5-0.055,14.248c-0.02,1.232,0.197,1.647,1.556,1.63c6.497-0.087,12.995-0.065,19.492-0.013
		c1.11,0.009,1.508-0.163,1.484-1.414c-0.092-4.792-0.002-9.589-0.063-14.382c-0.014-1.121,0.162-1.563,1.433-1.505
		c2.64,0.12,5.287,0.016,7.931,0.05c0.739,0.01,1.104-0.062,1.097-0.98c-0.05-5.422-0.04-10.844-0.008-16.265
		c0.006-0.818-0.219-1.081-1.055-1.066c-2.688,0.05-5.379-0.041-8.063,0.049c-1.067,0.036-1.337-0.241-1.332-1.303
		c0.043-9.005,0.024-18.009,0.024-27.013c-0.023,0-0.048,0-0.071,0c0-8.917-0.026-17.833,0.03-26.749
		c0.008-1.238-0.204-1.64-1.556-1.624c-6.854,0.082-13.713,0.068-20.566,0.008c-1.125-0.011-1.767,0.353-2.394,1.25
		c-8.245,11.8-16.534,23.568-24.795,35.354c-4.772,6.808-9.495,13.65-14.301,20.434c-0.685,0.967-0.807,1.844-0.605,2.951
		c0.818,4.511,1.593,10.106,2.331,14.632 M198.878,172.344c-5.465-0.059-10.931-0.022-16.396-0.037
		c-0.322-0.001-0.781,0.23-0.959-0.19c-0.162-0.379,0.256-0.63,0.447-0.91c4.31-6.309,8.615-12.62,12.952-18.908
		c1.554-2.252,3.192-4.444,4.792-6.664c0.122,0.025,0.244,0.049,0.365,0.075c0,2.258,0,4.516,0,6.773
		c0,6.182-0.018,12.365,0.021,18.546C200.106,171.972,199.957,172.356,198.878,172.344z"/>
</g>
</svg>
