<svg id="icon" viewBox="0 -18 416.212 416" xmlns="http://www.w3.org/2000/svg"><defs/><path d="M234.078 302.45H0v36.202C.027 360.457 16.926 378.52 38.684 380c.464-.066.933-.105 1.402-.11h210.5a62.257 62.257 0 01-16.508-42.273zm0 0"/><path d="M65.566 26.078l-1.75 256.371h180.262c5.524 0 10 4.48 10 10v45.172c0 21.766 17.363 40.328 38.676 42.274h3.41c.547.003 1.094.05 1.633.144 22.867-.777 41.004-19.539 41.008-42.418V29.266a47.735 47.735 0 019.933-29.16H91.996c-14.465-.11-26.285 11.511-26.43 25.972zm42.82 42.363h94.712c5.523 0 10 4.477 10 10 0 5.524-4.477 10-10 10h-94.711c-5.524 0-10-4.476-10-10 0-5.523 4.476-10 10-10zm0 71.5H285.06c5.523 0 10 4.477 10 10 0 5.524-4.477 10-10 10H108.387c-5.524 0-10-4.476-10-10 0-5.523 4.476-10 10-10zm0 71.5H285.06c5.523 0 10 4.477 10 10 0 5.524-4.477 10-10 10H108.387c-5.524 0-10-4.476-10-10 0-5.523 4.476-10 10-10zm0 0M387.508 1.02c-15.719-.106-28.559 12.527-28.703 28.246V167.71h57.406V29.266C416.066 13.546 403.227.91 387.508 1.02zm0 0"/></svg>