<?xml version="1.0" encoding="iso-8859-1"?>
<!-- Generator: Adobe Illustrator 19.0.0, SVG Export Plug-In . SVG Version: 6.00 Build 0)  -->
<svg version="1.1" id="Capa_1" xmlns="http://www.w3.org/2000/svg" xmlns:xlink="http://www.w3.org/1999/xlink" x="0px" y="0px"
	 viewBox="0 0 489.4 489.4" style="enable-background:new 0 0 489.4 489.4;" xml:space="preserve">
<g>
	<g>
		<path d="M461.6,89.6H27.8C12.5,89.6,0,102,0,117.4V372c0,15.3,12.4,27.8,27.8,27.8h433.8c15.3,0,27.8-12.4,27.8-27.8V117.4
			C489.3,102,476.9,89.6,461.6,89.6z M305.9,148c0-3.8,3.1-6.9,6.9-6.9h28.3c3.8,0,6.9,3.1,6.9,6.9v27.8c0,3.8-3.1,6.9-6.9,6.9
			h-28.3c-3.8,0-6.9-3.1-6.9-6.9V148z M271.5,223.5h28.3c3.8,0,6.9,3.1,6.9,6.9v27.8c0,3.8-3.1,6.9-6.9,6.9h-28.3
			c-3.8,0-6.9-3.1-6.9-6.9v-27.8C264.6,226.6,267.7,223.5,271.5,223.5z M223.7,148c0-3.8,3.1-6.9,6.9-6.9h28.3
			c3.8,0,6.9,3.1,6.9,6.9v27.8c0,3.8-3.1,6.9-6.9,6.9h-28.3c-3.8,0-6.9-3.1-6.9-6.9L223.7,148L223.7,148z M189.2,223.5h28.3
			c3.8,0,6.9,3.1,6.9,6.9v27.8c0,3.8-3.1,6.9-6.9,6.9h-28.3c-3.8,0-6.9-3.1-6.9-6.9v-27.8C182.3,226.6,185.4,223.5,189.2,223.5z
			 M141.4,148c0-3.8,3.1-6.9,6.9-6.9h28.3c3.8,0,6.9,3.1,6.9,6.9v27.8c0,3.8-3.1,6.9-6.9,6.9h-28.3c-3.8,0-6.9-3.1-6.9-6.9V148z
			 M58.7,148c0-3.8,3.1-6.9,6.9-6.9h28.3c3.8,0,6.9,3.1,6.9,6.9v27.8c0,3.8-3.1,6.9-6.9,6.9H65.6c-3.8,0-6.9-3.1-6.9-6.9V148z
			 M100.8,341.4c0,3.8-3.1,6.9-6.9,6.9H65.6c-3.8,0-6.9-3.1-6.9-6.9v-27.8c0-3.8,3.1-6.9,6.9-6.9h28.3c3.8,0,6.9,3.1,6.9,6.9V341.4z
			 M134.8,265.1h-28.3c-3.8,0-6.9-3.1-6.9-6.9v-27.8c0-3.8,3.1-6.9,6.9-6.9h28.3c3.8,0,6.9,3.1,6.9,6.9v27.8
			C141.7,262,138.6,265.1,134.8,265.1z M348,341.4c0,3.8-3.1,6.9-6.9,6.9h-8.5h-19.7H259h-28.3h-82.3c-3.8,0-6.9-3.1-6.9-6.9v-27.8
			c0-3.8,3.1-6.9,6.9-6.9h82.3H259h53.9h19.7h8.5c3.8,0,6.9,3.1,6.9,6.9V341.4z M382,265.1h-28.3c-3.8,0-6.9-3.1-6.9-6.9v-27.8
			c0-3.8,3.1-6.9,6.9-6.9H382c3.8,0,6.9,3.1,6.9,6.9v27.8C388.9,262,385.8,265.1,382,265.1z M430.7,341.4c0,3.8-3.1,6.9-6.9,6.9
			h-28.3c-3.8,0-6.9-3.1-6.9-6.9v-27.8c0-3.8,3.1-6.9,6.9-6.9h28.3c3.8,0,6.9,3.1,6.9,6.9V341.4z M430.7,175.8
			c0,3.8-3.1,6.9-6.9,6.9h-28.3c-3.8,0-6.9-3.1-6.9-6.9V148c0-3.8,3.1-6.9,6.9-6.9h28.3c3.8,0,6.9,3.1,6.9,6.9V175.8z"/>
	</g>
</g>
<g>
</g>
<g>
</g>
<g>
</g>
<g>
</g>
<g>
</g>
<g>
</g>
<g>
</g>
<g>
</g>
<g>
</g>
<g>
</g>
<g>
</g>
<g>
</g>
<g>
</g>
<g>
</g>
<g>
</g>
</svg>
