<?xml version="1.0" encoding="utf-8"?>
<!-- Generator: Adobe Illustrator 16.0.3, SVG Export Plug-In . SVG Version: 6.00 Build 0)  -->
<!DOCTYPE svg PUBLIC "-//W3C//DTD SVG 1.1//EN" "http://www.w3.org/Graphics/SVG/1.1/DTD/svg11.dtd">
<svg version="1.1" id="Layer_1" xmlns="http://www.w3.org/2000/svg" xmlns:xlink="http://www.w3.org/1999/xlink" x="0px" y="0px"
	 width="120px" height="120px" viewBox="0 0 120 120" enable-background="new 0 0 120 120" xml:space="preserve">
<g>
	<path fill="#00ADEF" d="M118.182,50.07c2.535,15.105-0.781,31.196-10.529,44.579c-16.373,22.474-45.596,30.055-70.165,19.961
		c0,0,23.083-4.682,47.047-22.646C110.866,72.857,118.182,50.07,118.182,50.07z"/>
	<path fill="#00ADEF" d="M8.456,88.877C-2.389,69.421-1.664,44.588,12.35,25.351C31.56-1.02,68.469-6.884,94.784,12.251
		c7.413,5.391,13.196,12.191,17.25,19.768c0,0-8.913-3.908-16.089-3.703c-7.174,0.204-19.604,2.613-33.096,8.818
		c-8.886,4.573-17.241,8.818-31.545,21.149c-0.937,0.734-1.494,0.421-2.446,0.04c-0.95-0.381-3.343-1.061-5.489,0.572
		c-2.146,1.632-2.738,4.018-1.804,6.473c0.608,1.678,0.375,2.12,0.009,2.7c-0.365,0.58-4.183,5.347-5.229,6.748
		c-1.046,1.402-7.257,13.065-7.541,13.529C8.52,88.807,8.456,88.877,8.456,88.877z"/>
	<g>
		<path fill="#00ADEF" d="M61.098,43.826c6.445-1.801,13.396-3.177,19.984-1.258c3.137,0.922,5.955,3.225,6.97,6.412
			c1.333,4.093,0.169,8.49-1.387,12.349c-1.933,4.606-4.979,8.625-8.226,12.376c-9.357,10.921-21.658,19.227-35.211,23.98
			c-4.008,1.364-8.061,2.705-12.293,3.145c-2.352,0.273-4.737,0.725-7.098,0.266c-3.762-0.49-7.766-1.801-10.029-5.045
			c-2.428-3.373-2.179-7.917-0.939-11.699c1.678-5.3,5.306-9.615,8.338-14.166c0.568-0.779,1.119-1.729,2.116-1.994
			c1.328,0.144,2.605,0.818,3.963,0.627c2.563-0.229,4.71-2.525,4.84-5.086c0.112-1.237-0.395-2.394-0.783-3.536
			C40.119,52.977,50.143,47.039,61.098,43.826"/>
	</g>
</g>
</svg>
