<?xml version="1.0" encoding="iso-8859-1"?>
<!-- Generator: Adobe Illustrator 19.0.0, SVG Export Plug-In . SVG Version: 6.00 Build 0)  -->
<svg version="1.1" id="Layer_1" xmlns="http://www.w3.org/2000/svg" xmlns:xlink="http://www.w3.org/1999/xlink" x="0px" y="0px"
	 viewBox="0 0 512 512" style="enable-background:new 0 0 512 512;" xml:space="preserve">
<g>
	<g>
		<path d="M231.024,0H43.707C19.568,0,0,19.568,0,43.707v187.317c0,3.448,2.796,6.244,6.244,6.244h224.781
			c3.448,0,6.244-2.796,6.244-6.244V6.244C237.268,2.796,234.472,0,231.024,0z M158.595,137.366h-21.229v21.229
			c0,10.345-8.387,18.732-18.732,18.732s-18.732-8.387-18.732-18.732v-21.229H78.673c-10.345,0-18.732-8.387-18.732-18.732
			s8.387-18.732,18.732-18.732h21.229V78.673c0-10.345,8.387-18.732,18.732-18.732s18.732,8.387,18.732,18.732v21.229h21.229
			c10.345,0,18.732,8.387,18.732,18.732S168.94,137.366,158.595,137.366z"/>
	</g>
</g>
<g>
	<g>
		<path d="M468.293,0H280.976c-3.448,0-6.244,2.796-6.244,6.244v224.781c0,3.448,2.796,6.244,6.244,6.244h224.781
			c3.448,0,6.244-2.796,6.244-6.244V43.707C512,19.568,492.432,0,468.293,0z M433.327,137.366h-79.922
			c-10.345,0-18.732-8.387-18.732-18.732s8.387-18.732,18.732-18.732h79.922c10.345,0,18.732,8.387,18.732,18.732
			S443.672,137.366,433.327,137.366z"/>
	</g>
</g>
<g>
	<g>
		<path d="M231.024,274.732H6.244c-3.448,0-6.244,2.796-6.244,6.244v187.317C0,492.432,19.568,512,43.707,512h187.317
			c3.448,0,6.244-2.796,6.244-6.244V280.976C237.268,277.528,234.472,274.732,231.024,274.732z M160.135,408.377
			c7.315,7.315,7.315,19.175,0,26.49c-7.315,7.314-19.175,7.315-26.49,0l-15.01-15.012l-15.012,15.012
			c-7.314,7.315-19.175,7.315-26.49,0c-7.315-7.315-7.315-19.175,0-26.49l15.012-15.012l-15.012-15.012
			c-7.315-7.315-7.315-19.175,0-26.49c7.315-7.314,19.176-7.314,26.49,0l15.012,15.012l15.012-15.012
			c7.314-7.315,19.175-7.315,26.49,0s7.315,19.175,0,26.49l-15.012,15.012L160.135,408.377z"/>
	</g>
</g>
<g>
	<g>
		<path d="M505.756,274.732H280.976c-3.448,0-6.244,2.796-6.244,6.244v224.781c0,3.448,2.796,6.244,6.244,6.244h187.317
			C492.432,512,512,492.432,512,468.293V280.976C512,277.528,509.204,274.732,505.756,274.732z M433.327,440.82h-79.922
			c-10.345,0-18.732-8.387-18.732-18.732c0-10.345,8.387-18.732,18.732-18.732h79.922c10.345,0,18.732,8.387,18.732,18.732
			C452.059,432.433,443.672,440.82,433.327,440.82z M433.327,383.376h-79.922c-10.345,0-18.732-8.387-18.732-18.732
			c0-10.345,8.387-18.732,18.732-18.732h79.922c10.345,0,18.732,8.387,18.732,18.732
			C452.059,374.989,443.672,383.376,433.327,383.376z"/>
	</g>
</g>
<g>
</g>
<g>
</g>
<g>
</g>
<g>
</g>
<g>
</g>
<g>
</g>
<g>
</g>
<g>
</g>
<g>
</g>
<g>
</g>
<g>
</g>
<g>
</g>
<g>
</g>
<g>
</g>
<g>
</g>
</svg>
