<svg xmlns="http://www.w3.org/2000/svg" viewBox="0 0 512 512"><path d="M132.825 99.902c-4.343-4.329-10.333-6.811-16.46-6.811-6.128 0-12.119 2.482-16.462 6.811-4.329 4.344-6.811 10.333-6.811 16.462s2.482 12.117 6.811 16.462c4.329 4.329 10.333 6.811 16.462 6.811 6.127 0 12.117-2.482 16.46-6.811 4.329-4.344 6.813-10.333 6.813-16.462s-2.484-12.118-6.813-16.462z"/><path d="M209.455 0H23.273C10.42 0 0 10.42 0 23.273v186.182c0 12.853 10.42 23.273 23.273 23.273h186.182c12.853 0 23.273-10.42 23.273-23.273V23.273C232.727 10.42 222.307 0 209.455 0zm-23.273 186.182H46.545V46.545h139.636v139.637zM412.084 99.902c-4.329-4.329-10.318-6.811-16.446-6.811s-12.133 2.482-16.462 6.811c-4.329 4.344-6.811 10.333-6.811 16.462s2.482 12.117 6.811 16.462c4.329 4.329 10.333 6.811 16.462 6.811a23.413 23.413 0 0016.446-6.811c4.344-4.344 6.827-10.333 6.827-16.462s-2.484-12.118-6.827-16.462z"/><path d="M488.727 0H302.545c-12.853 0-23.273 10.42-23.273 23.273v186.182c0 12.853 10.42 23.273 23.273 23.273h186.182c12.853 0 23.273-10.42 23.273-23.273V23.273C512 10.42 501.58 0 488.727 0zm-23.272 186.182H325.818V46.545h139.636v139.637zM132.825 379.175c-4.344-4.329-10.333-6.811-16.46-6.811-6.128 0-12.119 2.482-16.462 6.811-4.329 4.344-6.811 10.333-6.811 16.462s2.482 12.117 6.811 16.462c4.329 4.329 10.333 6.811 16.462 6.811 6.127 0 12.117-2.482 16.46-6.811 4.329-4.344 6.813-10.333 6.813-16.462s-2.484-12.118-6.813-16.462z"/><path d="M209.455 279.273H23.273C10.42 279.273 0 289.693 0 302.545v186.182C0 501.58 10.42 512 23.273 512h186.182c12.853 0 23.273-10.42 23.273-23.273V302.545c-.001-12.852-10.421-23.272-23.273-23.272zm-23.273 186.182H46.545V325.818h139.636v139.637zM411.151 372.364h-15.515c-12.853 0-23.273 10.42-23.273 23.273s10.42 23.273 23.273 23.273h15.515c12.853 0 23.273-10.42 23.273-23.273s-10.42-23.273-23.273-23.273zM488.727 418.909c-12.853 0-23.273 10.42-23.273 23.273v23.273h-54.303c-12.853 0-23.273 10.42-23.273 23.273s10.42 23.273 23.273 23.273h77.576C501.58 512 512 501.58 512 488.727v-46.545c0-12.853-10.42-23.273-23.273-23.273zM302.545 372.364c-12.853 0-23.273 10.42-23.273 23.273v31.03c0 12.853 10.42 23.273 23.273 23.273s23.273-10.42 23.273-23.273v-31.03c0-12.853-10.42-23.273-23.273-23.273zM411.151 279.273h-46.545c-12.853 0-23.273 10.42-23.273 23.273s10.42 23.273 23.273 23.273h46.545c12.853 0 23.273-10.42 23.273-23.273s-10.42-23.273-23.273-23.273z"/></svg>