<?xml version="1.0" encoding="utf-8"?>
<!-- Generator: Adobe Illustrator 16.0.3, SVG Export Plug-In . SVG Version: 6.00 Build 0)  -->
<svg version="1.2" baseProfile="tiny" id="Layer_1" xmlns="http://www.w3.org/2000/svg" xmlns:xlink="http://www.w3.org/1999/xlink"
	 x="0px" y="0px" width="320px" height="320px" viewBox="0 0 320 320" xml:space="preserve">
<path fill-rule="evenodd" fill="#00AEEF" d="M302.526,8.267c0.778-2.876,0.384-5.021-2.438-6.89
	c-2.961-1.96-5.914-1.574-9.386-0.412c-16.072,5.378-32.47,10.223-48.352,15.897c-10.099,3.608-20.14,5.646-31.413,5.371
	c-17.363-0.425-34.766-0.309-52.14-0.022c-8.504,0.141-16.249-1.223-23.987-3.728C118.049,13.06,101.097,7.97,84.248,2.698
	c-8.62-2.696-13.338-0.978-12.426,6.445c0.827,6.729,2.063,13.436,3.354,20.124c4.73,24.481,17.16,48.868,1.175,73.569
	c-1.784,2.759-3.219,5.797-3.807,8.816c-1.176,6.036-3.762,12.678,7.874,15.694c-18.687,12.39-36.561,24.415-54.727,36.184
	c-5.845,3.786-8.923,7.821-8.536,13.911c0.647,10.248,0.586,20.547,0.044,30.803c-0.292,5.509,2.23,10.094,5.845,14.384
	c20.276,24.058,40.849,47.974,61.137,72.025c4.183,4.963,9.186,8.374,16.987,10.054c21.143,4.553,42.082,9.651,63.109,14.518
	c6.347,1.471,11.62,0.829,17.979-1.771c9.622-3.931,17.518-9.602,27.229-13.363c25.975-10.057,25.868-10.216,25.868-32.637
	c0-3.708-0.244-7.428,0.06-11.123c0.344-4.212-1.786-6.979-6.797-8.885c-5.008-1.904-9.431-4.984-14.658-6.201
	c-11.137-2.594-9.876-7.029-6.326-13.729c10.496-19.817,19.737-40.013,30.086-59.877c6.293-12.08,9.365-25.759,27.654-32.343
	c9.748-3.508,18.541-8.495,28.037-12.445c7.66-3.187,9.19-7.824,6.861-13.581c-4.355-10.767-8.78-21.521-13.539-32.188
	c-1.12-2.514-2.025-4.854-1.351-7.45C291.052,51.837,296.641,30.029,302.526,8.267z M176.722,168.39
	c0.517-3.64,5.706-8.075,9.882-7.789c4.127,0.282,9.356,4.675,8.966,8.648c-0.372,3.793-6.145,5.784-10.494,9.029
	C182.648,174.205,176.177,172.255,176.722,168.39z M219.895,259.006c7.897,3.546,1.398,10.072,3.592,14.705
	c4.146,11.134-5.246,14.713-15.628,20.004c-24.019,12.24-47.011,12.745-73.204,4.098c-23.849-7.874-24.409-6.582-7.69-21.443
	c12.873-11.44,25.543-23.021,37.856-34.807c2.936-2.813,5.015-3.57,9.13-1.828C189.239,246.197,204.844,252.249,219.895,259.006z"/>
</svg>
