<?xml version="1.0" encoding="utf-8"?>
<!-- Generator: Adobe Illustrator 16.0.3, SVG Export Plug-In . SVG Version: 6.00 Build 0)  -->
<!DOCTYPE svg PUBLIC "-//W3C//DTD SVG 1.1//EN" "http://www.w3.org/Graphics/SVG/1.1/DTD/svg11.dtd">
<svg version="1.1" id="Layer_1" xmlns="http://www.w3.org/2000/svg" xmlns:xlink="http://www.w3.org/1999/xlink" x="0px" y="0px"
	 width="320px" height="320px" viewBox="0 0 320 320" enable-background="new 0 0 320 320" xml:space="preserve">
<g>
	<path fill-rule="evenodd" clip-rule="evenodd" fill="#2AAAE1" d="M320,80c-5.75,4.7-12.322,7.351-18.518,10.939
		c-5.436,3.149-10.901,6.225-16.383,9.253c-5.538,3.06-11.121,5.995-16.668,9.031c-4.381,2.397-8.746,4.842-13.099,7.314
		c-1.32,0.75-2.667,1.422-3.966,2.248c-1.523,0.969-2.17,0.382-2.651-1.576c-1.654-6.736-3.39-13.443-5.028-20.186
		c-1.572-6.468-3.016-12.982-4.605-19.443c-1.014-4.12-2.138-8.198-3.021-12.368c-0.54-2.555-0.322-3.32,1.704-4.203
		c6.882-3.002,13.785-5.937,20.648-8.999c6.801-3.034,13.543-6.266,20.354-9.268c3.665-1.616,7.354-3.144,10.974-4.915
		c1.33-0.65,2.261,0.084,3.133,1.415c8.525,13.027,17.092,26.017,25.667,38.996c0.37,0.56,0.588,1.515,1.459,1.314
		C320,79.703,320,79.851,320,80z"/>
	<path fill-rule="evenodd" clip-rule="evenodd" fill="#2AAAE1" d="M87.361,143.962c-0.109-0.484-0.094-0.906,0.429-0.944
		c0.489-0.036,0.981-0.027,1.472-0.027c47.122-0.002,94.244-0.002,141.366-0.002c2.794,0,2.976,0.326,1.72,3.394
		c-3.449,8.43-6.938,16.837-10.377,25.273c-2.958,7.257-5.85,14.553-8.808,21.81c-2.934,7.193-5.932,14.348-8.867,21.539
		c-2.526,6.188-4.978,12.421-7.512,18.603c-2.507,6.114-5.108,12.172-7.61,18.29c-2.481,6.064-4.866,12.188-7.337,18.26
		c-1.984,4.876-4.054,9.701-6.048,14.572c-2.073,5.063-4.091,10.161-6.153,15.233c-2.063,5.076-4.144,10.141-6.235,15.2
		c-0.674,1.631-1.406,3.227-2.112,4.838c-0.368,0-0.736,0-1.104,0c-3.33-8.001-6.641-16.013-9.994-23.998
		c-4.021-9.572-8.108-19.103-12.109-28.687c-2.982-7.142-5.837-14.36-8.818-21.503c-2.464-5.904-5.065-11.724-7.54-17.622
		c-2.063-4.918-4.01-9.909-6.05-14.844c-2.008-4.856-4.131-9.645-6.091-14.529c-2.385-5.942-5.174-11.638-7.288-17.742
		c0.954,0.116,1.354,0.837,1.476,1.918c0.057,0.503,0.099,1.091,0.334,1.469c2.352,3.769,3.579,8.257,5.415,12.354
		c1.185,2.642,2.254,5.359,3.384,8.037c1.129,2.674,2.288,5.33,3.4,8.016c1.111,2.684,2.156,5.408,3.273,8.088
		c1.606,3.855,3.269,7.677,4.877,11.531c1.53,3.665,2.895,7.443,4.571,11.005c1.289,2.736,2.354,5.598,3.561,8.377
		c1.655,3.813,2.998,7.836,4.758,11.573c1.768,3.756,3.243,7.69,4.922,11.496c1.612,3.656,3.078,7.46,4.608,11.183
		c1.983,4.826,4.106,9.599,6.118,14.41c2.506,5.994,5.107,11.936,7.467,18.157c0.943-0.883,1.487-1.879,1.93-3.041
		c1.453-3.812,2.931-7.611,4.48-11.365c1.618-3.925,3.362-7.774,4.992-11.692c1.246-2.998,2.376-6.066,3.602-9.077
		c1.019-2.501,2.14-4.941,3.147-7.449c1.563-3.886,3.035-7.824,4.604-11.706c1.651-4.083,3.387-8.116,5.056-12.189
		c1.134-2.766,2.197-5.574,3.33-8.342c1.634-3.992,3.307-7.959,4.953-11.943c1.182-2.861,2.333-5.742,3.522-8.601
		c1.055-2.535,2.326-4.964,3.166-7.597c0.945-2.961,2.107-5.812,3.335-8.556c2.221-4.965,4.033-10.162,6.222-15.14
		c1.763-4.011,3.363-8.126,5.021-12.204c1.115-2.741,2.168-5.52,3.314-8.24c1.103-2.612,2.096-5.296,3.203-7.891
		c1.271-2.979,2.537-5.957,3.702-9c1.016-2.655,2.046-5.303,3.146-7.905c0.323-0.766,1.146-1.346,0.786-2.328
		c-0.391-1.066-1.302-0.588-1.979-0.589c-43.067-0.022-86.135-0.027-129.203-0.019C96.313,143.815,91.838,143.91,87.361,143.962z"/>
	<path fill-rule="evenodd" clip-rule="evenodd" fill="#2AAAE1" d="M0,80.447c4.069-5.55,7.672-11.557,11.506-17.337
		c4.845-7.306,9.655-14.644,14.479-21.97c0.91-1.383,1.849-2.74,2.71-4.168c1.241-2.059,2.835-2.063,4.556-1.219
		c8.618,4.231,17.234,8.469,25.839,12.742c7.981,3.963,16.063,7.63,23.983,11.783c1.537,0.806,1.75,1.83,1.411,3.426
		c-2.11,9.93-4.444,19.798-6.296,29.799c-1.468,7.929-3.46,15.701-4.662,23.704c-0.357,2.384-1.461,3.092-3.269,2.148
		c-6.188-3.23-12.382-6.443-18.53-9.789c-7.813-4.252-15.76-8.145-23.621-12.271c-5.73-3.008-11.413-6.15-17.123-9.217
		C7.327,86.115,3.661,84.182,0,82.234C0,81.64,0,81.043,0,80.447z M31.254,36.112c-0.732-0.128-1.111,0.355-1.528,0.996
		c-1.685,2.589-3.457,5.093-5.146,7.678c-4.672,7.148-9.296,14.344-13.982,21.479c-2.947,4.487-5.98,8.892-8.957,13.352
		c-0.744,1.116-0.861,1.98,0.53,2.691c1.159,0.593,2.355,1.15,3.461,1.848c2.736,1.728,5.648,2.923,8.445,4.455
		c2.539,1.391,5.095,2.728,7.683,3.989c2.792,1.363,5.441,3.138,8.266,4.447c2.47,1.145,4.89,2.455,7.311,3.747
		c2.753,1.469,5.47,3.033,8.226,4.492c2.498,1.322,5.044,2.51,7.536,3.845c2.642,1.416,5.23,2.977,7.871,4.396
		c2.696,1.448,5.479,2.672,8.126,4.235c2.188,1.293,3.146,1.007,3.831-1.788c0.225-0.917,0.229-1.91,0.413-2.847
		c0.63-3.219,1.276-6.434,1.95-9.64c0.672-3.204,1.563-6.356,2.028-9.602c0.481-3.353,1.301-6.607,2.008-9.861
		c0.66-3.041,1.336-6.157,1.898-9.188c0.72-3.872,1.705-7.668,2.34-11.563c0.128-0.778,0.234-1.739-0.484-1.886
		c-1.39-0.285-2.357-1.57-3.671-1.961c-3.021-0.897-5.708-2.838-8.636-4.073c-2.933-1.237-5.745-2.96-8.662-4.323
		c-2.713-1.27-5.425-2.543-8.117-3.876c-2.802-1.388-5.573-2.868-8.37-4.273c-3.135-1.573-6.233-3.286-9.444-4.583
		C34.51,37.624,33.031,36.329,31.254,36.112z"/>
	<path fill-rule="evenodd" clip-rule="evenodd" fill="#2AAAE1" d="M221.312,0c0.81,0.912,1.837,0.359,2.749,0.597
		c5.81,1.514,11.478,3.502,17.007,6.232c7.634,3.77,14.869,8.556,22.443,12.461c2.171,1.119,4.271,2.428,6.566,3.162
		c0.68,0.218,1.255,0.584,1.28,1.607c0.024,0.995-0.507,1.438-1.146,1.795c-4.334,2.424-8.716,4.729-12.987,7.306
		c-4.234,2.554-8.559,4.833-12.953,6.93c-0.16,0.077-0.36,0.033-0.541,0.046c0.102-0.25,0.151-0.638,0.313-0.728
		c2.36-1.302,4.719-2.634,7.101-3.845c2.456-1.248,4.839-2.679,7.276-3.966c3.667-1.938,7.226-4.177,10.837-6.271
		c0.487-0.283,1.1-0.354,1.03-1.292c-0.061-0.829-0.6-0.85-1.066-0.952c-1.938-0.432-3.653-1.614-5.45-2.479
		c-2.686-1.293-5.229-3.017-7.848-4.524c-2.286-1.316-4.593-2.584-6.89-3.879c-2.5-1.409-4.945-2.984-7.51-4.195
		c-3.156-1.49-6.26-3.152-9.603-4.08c-3.845-1.067-7.595-2.669-11.598-2.693c-17.218-0.106-34.437,0.004-51.654-0.31
		c-11.376-0.207-22.762-0.275-34.136,0.009c-12.705,0.318-25.47-1.461-38.115,1.647c-2.745,0.674-5.471,1.481-8.14,2.394
		c-1.666,0.568-3.462,0.896-5.024,1.884c-1.724,1.089-3.63,1.513-5.418,2.39c-3.194,1.569-6.443,2.992-9.626,4.62
		c-2.612,1.337-5.234,2.65-7.87,3.922c-1.801,0.869-3.626,1.67-5.451,2.461c-2.386,1.035-4.743,2.199-7.28,2.615
		c0.772-1.284,2.075-1.396,3.142-1.823c4.257-1.703,8.399-3.764,12.57-5.73c5.074-2.393,10.065-5.047,15.157-7.384
		c3.514-1.613,7.078-3.083,10.724-4.245c4.404-1.402,8.782-2.923,13.353-3.331c0.068-0.006,0.124-0.228,0.185-0.349
		C142.263,0,181.787,0,221.312,0z"/>
	<path fill-rule="evenodd" clip-rule="evenodd" fill="#2AAAE1" d="M87.361,143.962c4.477-0.052,8.952-0.146,13.427-0.147
		c43.068-0.009,86.136-0.004,129.203,0.019c0.678,0.001,1.589-0.478,1.979,0.589c0.36,0.982-0.463,1.563-0.786,2.328
		c-1.101,2.603-2.131,5.25-3.146,7.905c-1.165,3.043-2.431,6.021-3.702,9c-1.107,2.595-2.101,5.278-3.203,7.891
		c-1.146,2.721-2.199,5.499-3.314,8.24c-1.658,4.078-3.259,8.193-5.021,12.204c-2.188,4.978-4.001,10.175-6.222,15.14
		c-1.228,2.744-2.39,5.595-3.335,8.556c-0.84,2.633-2.111,5.062-3.166,7.597c-1.189,2.858-2.341,5.739-3.522,8.601
		c-1.646,3.984-3.319,7.951-4.953,11.943c-1.133,2.768-2.196,5.576-3.33,8.342c-1.669,4.073-3.404,8.106-5.056,12.189
		c-1.569,3.882-3.042,7.82-4.604,11.706c-1.008,2.508-2.129,4.948-3.147,7.449c-1.226,3.011-2.355,6.079-3.602,9.077
		c-1.63,3.918-3.374,7.768-4.992,11.692c-1.55,3.754-3.027,7.554-4.48,11.365c-0.442,1.162-0.986,2.158-1.93,3.041
		c-2.359-6.222-4.961-12.163-7.467-18.157c-2.012-4.812-4.135-9.584-6.118-14.41c-1.53-3.723-2.996-7.526-4.608-11.183
		c-1.679-3.806-3.154-7.74-4.922-11.496c-1.76-3.737-3.103-7.76-4.758-11.573c-1.206-2.779-2.271-5.641-3.561-8.377
		c-1.677-3.562-3.041-7.34-4.571-11.005c-1.608-3.854-3.271-7.676-4.877-11.531c-1.117-2.68-2.162-5.404-3.273-8.088
		c-1.112-2.686-2.271-5.342-3.4-8.016c-1.13-2.678-2.199-5.396-3.384-8.037c-1.836-4.097-3.063-8.585-5.415-12.354
		c-0.235-0.378-0.277-0.966-0.334-1.469c-0.122-1.081-0.521-1.802-1.476-1.918c-0.041-0.153-0.083-0.306-0.124-0.458
		c0.849-0.836,0.034-1.406-0.238-2.035c-1.119-2.575-2.1-5.229-3.259-7.787c-1.679-3.699-2.981-7.646-4.605-11.383
		c-1.825-4.2-3.639-8.403-5.234-12.739c-0.297-0.807-0.691-1.396-1.461-1.479C87.368,144.783,87.365,144.373,87.361,143.962z"/>
	<path fill-rule="evenodd" clip-rule="evenodd" fill="#2AAAE1" d="M47.608,22.862c2.537-0.416,4.895-1.58,7.28-2.615
		c1.825-0.791,3.65-1.592,5.451-2.461c2.636-1.271,5.258-2.585,7.87-3.922c3.183-1.628,6.432-3.051,9.626-4.62
		c1.788-0.877,3.694-1.301,5.418-2.39c1.563-0.987,3.358-1.315,5.024-1.884c2.669-0.912,5.395-1.72,8.14-2.394
		c12.646-3.108,25.41-1.329,38.115-1.647c11.374-0.284,22.76-0.216,34.136-0.009c17.218,0.313,34.437,0.203,51.654,0.31
		c4.003,0.024,7.753,1.626,11.598,2.693c3.343,0.928,6.446,2.59,9.603,4.08c2.564,1.211,5.01,2.786,7.51,4.195
		c2.297,1.295,4.604,2.563,6.89,3.879c2.618,1.508,5.162,3.231,7.848,4.524c1.797,0.865,3.513,2.048,5.45,2.479
		c0.467,0.103,1.006,0.123,1.066,0.952c0.069,0.938-0.543,1.009-1.03,1.292c-3.611,2.095-7.17,4.334-10.837,6.271
		c-2.438,1.287-4.82,2.718-7.276,3.966c-2.382,1.211-4.74,2.543-7.101,3.845c-0.161,0.09-0.211,0.478-0.313,0.728
		c-0.235,0.13-0.471,0.261-0.706,0.391c-0.218-0.37-0.523-0.313-0.807-0.198c-2.044,0.827-4.094,1.634-6.114,2.536
		c-0.461,0.205-1.082,0.326-1.25,1.101c-0.222,0.047-0.444,0.094-0.666,0.141c-1.794-0.204-3.522-0.125-4.855,1.658
		c-0.224,0.043-0.446,0.087-0.668,0.13c-2.416-0.521-4.492,0.944-6.692,1.685c-0.347,0.039-0.692,0.077-1.039,0.115
		c-1.247-0.799-2.536-0.343-3.696,0.122c-1.469,0.59-3.164-0.26-4.463,1.145c-6.332-0.019-12.664-0.037-18.997-0.055
		c-1.406-0.966-2.81-1.021-4.208,0.025c-0.195,0.003-0.391,0.007-0.586,0.009c-0.375-1.065-1.163-0.627-1.766-0.636
		c-17.103-0.229-34.206,0.135-51.309-0.432c-13.662-0.451-27.34,0.362-41.002-0.51c-0.461-0.03-0.989-0.266-1.365,0.322
		c-0.223-0.028-0.445-0.058-0.669-0.086c-1.227-1.054-2.794-0.948-4.098-1.773c-0.441-0.279-1.016-0.543-1.492,0.067
		c-0.218-0.054-0.436-0.107-0.653-0.161c-0.918-1.7-2.35-1.637-3.769-1.612c-0.217-0.057-0.435-0.113-0.653-0.17
		c-1.236-1.898-3.136-1.856-4.825-2.43c-0.116-0.051-0.232-0.103-0.348-0.153c0.001-0.597-0.394-0.64-0.729-0.801
		c-1.442-0.691-2.89-1.373-4.315-2.112c-3.91-2.024-7.811-4.079-11.717-6.114c-0.333-0.173-0.689-0.34-0.976,0.13
		c-0.237-0.12-0.474-0.241-0.711-0.361c-0.024-0.869-0.63-1.009-1.114-1.251c-3.494-1.749-7.036-3.369-10.228-5.89
		C47.296,24.247,46.955,23.429,47.608,22.862z"/>
	<path fill-rule="evenodd" clip-rule="evenodd" fill="#2AAAE1" d="M85.491,223.417c-0.131-0.152-0.263-0.307-0.394-0.459
		c-0.165-1.18-0.403-2.285-1.635-2.392l-0.062-0.079c0.133-1.163-0.152-1.941-1.24-1.979l-0.011-0.014
		c-0.155-2.256-1.762-3.389-2.664-5.067c-0.419-0.779-0.715-1.761-1.72-1.639l-0.019-0.029c-0.006-0.928-0.059-1.812-1.12-1.735
		l-0.007-0.01c-0.543-1.902-1.36-3.541-2.914-4.475l-0.015-0.026c0.002-0.938-0.064-1.81-1.123-1.738
		c-0.119-0.163-0.236-0.326-0.355-0.491c-0.192-1.706-1.271-2.762-2.116-3.92c-0.587-0.804-0.628-2.379-1.933-2.304l-0.009-0.014
		c-0.361-1.684-1.151-2.929-2.501-3.602c-0.131-0.276-0.263-0.553-0.395-0.828c0.268-0.214,0.226-0.512,0.074-0.748
		c-1.361-2.133-2.733-4.256-4.107-6.376c-0.26-0.4-0.59-0.474-0.962-0.229l-0.067-0.083c-0.61-2.89-2.175-4.875-4.155-6.466
		l-0.021-0.029c-0.019-0.618-0.027-1.243-0.727-1.3c-0.133-0.151-0.265-0.303-0.397-0.453c-0.946-3.577-3.32-5.905-5.183-8.679
		c-0.056-0.082-0.33,0.053-0.503,0.087l-0.104-0.139c0.289-0.604,0.146-1.129-0.188-1.632c-1.478-2.23-2.95-4.465-4.427-6.695
		c-3.485-5.268-6.979-10.524-10.455-15.8c-3.305-5.016-6.589-10.05-9.888-15.071c-0.271-0.415-0.584-0.79-1.084-0.461l-0.089-0.12
		c0.332-0.729,0.032-1.208-0.369-1.757c-1.651-2.257-3.224-4.629-4.702-7.024c-2.755-4.46-5.826-8.614-8.455-13.18
		c-0.366-0.638-1.593-1-0.987-2.014c0.521-0.874,1.47-0.326,2.222-0.002c0.285,0.122,0.584,0.234,0.836,0.429
		c2.309,1.777,4.909,2.818,7.331,4.314c2.53,1.563,5.131,2.958,7.694,4.441c2.179,1.261,4.288,2.737,6.537,3.769
		c2.546,1.166,4.903,2.806,7.406,4.081c2.487,1.27,4.942,2.781,7.415,4.134c4.06,2.22,8.211,4.184,12.247,6.503
		c4.758,2.734,8.837,6.394,12.275,11.229c3.361,4.728,5.971,9.964,8.002,15.686c0.976,2.748,2.281,5.323,3.314,8.045
		c0.986,2.599,2.162,5.108,3.049,7.728c1.01,2.985,2.337,5.771,3.342,8.754c1.003,2.974,2.375,5.761,3.522,8.666
		c1.572,3.977,2.982,8.051,4.653,11.964c1.836,4.296,3.541,8.665,5.285,13.014c1.562,3.891,3.293,7.682,4.831,11.585
		c1.016,2.578,2.149,5.107,3.048,7.72c1.024,2.979,2.179,5.901,3.427,8.697c1.671,3.742,3.048,7.652,4.732,11.384
		c1.739,3.854,3.104,7.953,4.704,11.903c1.6,3.954,3.376,7.805,4.914,11.793c2.053,5.325,4.118,10.637,6.493,15.767
		c0.268,0.577,0.896,1.354,0.08,1.902c-0.604,0.406-1.122-0.153-1.577-0.738c-0.438-0.561-0.309-1.949-1.446-1.541l-0.071-0.099
		c0.178-1.195-0.166-1.915-1.228-1.979c-0.122-0.162-0.245-0.323-0.367-0.485c-0.176-1.942-1.483-3.069-2.303-4.529
		c-0.389-0.691-0.72-1.813-1.738-1.695l-0.013-0.022c0.099-1.313-0.489-1.953-1.473-2.203l-0.009-0.015
		c-0.539-2.524-2.201-4.159-3.455-6.063c-0.835-1.271-1.333-3.158-2.946-3.539l-0.04-0.047c-0.622-2.892-2.243-4.829-4.188-6.456
		l-0.027-0.032c0.041-1.567-0.898-2.592-1.632-3.538c-1.277-1.649-1.895-4.096-3.88-4.911l-0.018-0.025
		c-0.032-0.903-0.032-1.837-1.12-1.739l-0.007-0.008c-0.832-2.849-2.218-5.162-4.402-6.702l-0.009-0.015
		c-0.507-2.079-1.828-3.52-2.782-5.248c-0.321-0.579-0.621-1.079-1.269-0.986l-0.007-0.01c-0.908-2.672-2.561-4.745-3.952-7.008
		c-0.733-1.19-1.301-2.828-2.805-3.07l-0.031-0.037c0.058-1.1-0.202-1.905-1.246-1.982l-0.033-0.041
		c0.013-1.581-0.625-2.582-1.85-3.06l-0.013-0.021c-0.021-0.694-0.06-1.368-0.89-1.094l-0.038-0.05
		c0.085-1.12-0.164-1.934-1.24-1.986l-0.027-0.032c-0.036-0.599-0.013-1.246-0.72-1.297c-0.254-0.307-0.508-0.613-0.762-0.92
		C86.266,224.052,86.233,223.446,85.491,223.417z"/>
	<path fill-rule="evenodd" clip-rule="evenodd" fill="#2AAAE1" d="M159.939,119.741c-23.624,0-47.248,0.001-70.871,0
		c-2.874,0-3.167-0.602-2.44-3.942c1.625-7.48,3.122-15.001,4.724-22.49c1.449-6.777,2.872-13.566,4.487-20.287
		c1.158-4.814,4.086-7.226,8.294-7.236c12.395-0.035,24.789-0.056,37.185-0.062c26.263-0.012,52.524,0.018,78.787-0.069
		c1.954-0.006,2.806,0.667,3.262,3c1.735,8.898,3.556,17.775,5.399,26.639c1.514,7.276,2.85,14.615,4.608,21.819
		c0.39,1.597-0.208,2.445-1.461,2.598c-0.972,0.118-1.961,0.011-2.943,0.011c-23.01-0.001-46.021-0.001-69.03-0.001
		C159.939,119.728,159.939,119.734,159.939,119.741z M159.818,118.564c0,0.006,0,0.011,0,0.017c15.95,0,31.9,0,47.85,0
		c7.669,0,15.337,0.01,23.005-0.017c0.655-0.002,1.717,0.407,1.681-0.992c-0.038-1.537-0.168-3.162-0.625-4.574
		c-1.094-3.371-1.476-6.948-2.21-10.414c-0.661-3.126-1.475-6.209-1.927-9.43c-0.544-3.881-1.62-7.65-2.432-11.479
		c-0.166-0.782-0.005-1.724-0.295-2.403c-1.279-3.005-1.244-6.425-2.19-9.566c-0.925-3.071-0.603-3.213-3.354-3.208
		c-36.736,0.06-73.473-0.236-110.207,0.428c-1.656,0.03-3.318-0.086-4.968,0.043c-1.7,0.134-3.417,0.396-4.948,1.407
		c-1.639,1.082-2.065,3.001-2.521,5.067c-0.356,1.619-0.743,3.241-1.125,4.852c-0.603,2.549-1.045,5.151-1.699,7.668
		c-0.873,3.363-1.511,6.788-2.226,10.192c-0.629,2.993-1.229,6.003-1.846,8.991c-0.747,3.62-1.51,7.242-2.286,10.857
		c-0.555,2.584,0.425,2.593,2.02,2.59C112.949,118.552,136.384,118.564,159.818,118.564z"/>
	<path fill-rule="evenodd" clip-rule="evenodd" fill="#2AAAE1" d="M192.47,288.081c-1.24,1.913-2.508,3.803-3.712,5.748
		c-0.676,1.091-1.474,2.095-2.58,1.324c-1.123-0.781-0.773-2.392-0.375-3.43c2.459-6.404,5.033-12.742,7.588-19.092
		c2.415-6.005,4.827-12.012,7.288-17.988c2.056-4.991,4.209-9.922,6.267-14.913c2.087-5.063,4.083-10.182,6.166-15.247
		c2.407-5.854,4.886-11.665,7.298-17.518c2.113-5.13,4.151-10.306,6.27-15.433c2.091-5.063,4.272-10.069,6.358-15.134
		c1.947-4.73,3.756-9.546,5.743-14.25c2.953-6.989,5.394-14.329,9.793-20.325c3.116-4.247,6.789-7.497,11.015-9.809
		c6.792-3.714,13.654-7.234,20.334-11.255c5.044-3.036,10.169-5.875,15.238-8.848c4.306-2.522,8.596-5.083,12.861-7.7
		c0.706-0.434,1.385-0.533,2.116-0.529c0.607,0.004,1.312-0.097,1.587,0.771c0.252,0.793,0.151,1.57-0.322,2.292
		c-7.617,11.59-15.224,23.192-22.834,34.787c-0.114,0.174-0.262,0.313-0.395,0.469c-0.059-0.115-0.127-0.221-0.205-0.318
		c0.947-2.713,2.855-4.551,4.228-6.857c3.758-6.32,8.043-12.117,11.964-18.269c2.086-3.272,4.166-6.553,6.193-9.878
		c0.321-0.53,0.97-1.364,0.45-1.94c-0.538-0.597-1.356-0.306-2.062,0.154c-1.443,0.944-2.898,1.881-4.402,2.671
		c-2.381,1.252-4.73,2.618-7.039,4.02c-3.454,2.097-6.947,4.099-10.396,6.205c-2.301,1.406-4.602,2.819-6.936,4.145
		c-2.248,1.278-4.461,2.701-6.744,3.817c-3.527,1.726-6.92,3.802-10.416,5.605c-2.36,1.216-4.677,2.681-6.946,4.235
		c-4.003,2.742-6.969,6.653-9.475,11.094c-1.802,3.193-3.216,6.713-4.531,10.283c-1.521,4.13-3.356,8.088-5.027,12.139
		c-1.133,2.75-2.181,5.554-3.331,8.295c-1.563,3.726-3.371,7.318-4.737,11.145c-1.538,4.311-3.482,8.353-5.148,12.573
		c-1.437,3.641-3.017,7.195-4.501,10.809c-1.699,4.133-3.344,8.299-5.046,12.429c-1.488,3.609-3.057,7.169-4.532,10.785
		c-1.634,4.007-3.17,8.072-4.81,12.075c-1.588,3.874-3.284,7.682-4.877,11.552c-1.565,3.807-2.925,7.747-4.623,11.461
		c-1.818,3.976-3.31,8.13-4.933,12.209c-1.231,3.097-2.327,6.274-3.713,9.281c-0.412,0.895-0.705,2.055-0.021,2.633
		c0.75,0.633,1.187-0.499,1.688-1.154c1.352-1.766,2.179-4.101,3.964-5.39C192.29,287.909,192.377,288,192.47,288.081z"/>
	<path fill-rule="evenodd" clip-rule="evenodd" fill="#2AAAE1" d="M132.802,295.672c1.138-0.408,1.009,0.98,1.446,1.541
		c0.455,0.585,0.974,1.145,1.577,0.738c0.815-0.549,0.188-1.325-0.08-1.902c-2.375-5.13-4.44-10.441-6.493-15.767
		c-1.538-3.988-3.314-7.839-4.914-11.793c-1.6-3.95-2.965-8.05-4.704-11.903c-1.685-3.731-3.062-7.642-4.732-11.384
		c-1.248-2.796-2.402-5.718-3.427-8.697c-0.898-2.612-2.032-5.142-3.048-7.72c-1.538-3.903-3.27-7.694-4.831-11.585
		c-1.744-4.349-3.449-8.718-5.285-13.014c-1.671-3.913-3.081-7.987-4.653-11.964c-1.147-2.905-2.52-5.692-3.522-8.666
		c-1.005-2.983-2.332-5.769-3.342-8.754c-0.887-2.619-2.063-5.129-3.049-7.728c-1.033-2.722-2.339-5.297-3.314-8.045
		c-2.031-5.722-4.641-10.958-8.002-15.686c-3.438-4.835-7.518-8.494-12.275-11.229c-4.036-2.319-8.188-4.283-12.247-6.503
		c-2.473-1.353-4.928-2.864-7.415-4.134c-2.503-1.275-4.86-2.915-7.406-4.081c-2.249-1.031-4.358-2.508-6.537-3.769
		c-2.563-1.483-5.164-2.879-7.694-4.441c-2.422-1.496-5.022-2.537-7.331-4.314c-0.252-0.194-0.551-0.307-0.836-0.429
		c-0.752-0.324-1.701-0.872-2.222,0.002c-0.605,1.014,0.621,1.376,0.987,2.014c2.629,4.565,5.7,8.72,8.455,13.18
		c1.479,2.396,3.051,4.768,4.702,7.024c0.401,0.549,0.701,1.028,0.369,1.757c-4.943-7.445-9.882-14.896-14.837-22.329
		c-0.441-0.661-0.516-1.359-0.304-2.083c0.262-0.895,0.94-0.815,1.556-0.775c2.146,0.139,3.884,1.669,5.717,2.72
		c4.604,2.64,9.197,5.301,13.823,7.884c4.397,2.455,8.71,5.135,13.108,7.585c3.518,1.96,7.087,3.793,10.672,5.566
		c7.354,3.637,14.517,7.585,19.904,15.077c3.259,4.532,5.849,9.556,7.982,14.952c2.591,6.553,5.164,13.115,7.743,19.676
		c2.506,6.376,4.977,12.772,7.521,19.126c3.365,8.407,6.8,16.771,10.182,25.168c3.938,9.782,7.826,19.593,11.783,29.364
		c3.393,8.374,6.865,16.7,10.274,25.064c2.742,6.728,5.433,13.484,8.17,20.214c0.465,1.142,0.896,2.397-0.241,3.076
		c-0.969,0.577-1.868-0.092-2.373-1.344C133.42,296.771,133.09,296.233,132.802,295.672z"/>
	<path fill-rule="evenodd" clip-rule="evenodd" fill="#2AAAE1" d="M93.541,47.685c0.376-0.588,0.904-0.353,1.365-0.322
		c13.662,0.872,27.34,0.059,41.002,0.51c17.103,0.566,34.206,0.202,51.309,0.432c0.603,0.009,1.391-0.43,1.766,0.636
		c-1.826,0.394-3.666,0.141-5.498,0.14c-15.765-0.003-31.534,0.221-47.294-0.13c-12.812-0.285-25.62-0.115-38.429-0.33
		C96.33,48.594,94.879,48.452,93.541,47.685z"/>
	<path fill-rule="evenodd" clip-rule="evenodd" fill="#2AAAE1" d="M288.174,142.002c-10.791,16.804-21.735,33.459-32.773,50.024
		c-0.071-0.112-0.148-0.219-0.231-0.318c0.147-0.481,0.205-1.051,0.455-1.433c4.36-6.68,8.745-13.336,13.123-19.998
		c4.779-7.274,9.517-14.591,14.362-21.801c1.559-2.318,2.817-4.977,4.859-6.793C288.047,141.781,288.115,141.887,288.174,142.002z"
		/>
	<path fill-rule="evenodd" clip-rule="evenodd" fill="#2AAAE1" d="M229.314,231.768c-3.686,5.668-7.367,11.34-11.058,17.002
		c-4.397,6.746-8.794,13.493-13.209,20.222c-2.343,3.57-4.726,7.101-7.091,10.649c-0.065-0.113-0.139-0.219-0.219-0.318
		c0.031-0.523,0.124-1.006,0.41-1.441c3.839-5.834,7.664-11.681,11.5-17.518c4.804-7.311,9.579-14.65,14.441-21.903
		c1.591-2.373,2.892-5.068,4.958-6.947C229.129,231.61,229.217,231.695,229.314,231.768z"/>
	<path fill-rule="evenodd" clip-rule="evenodd" fill="#2AAAE1" d="M23.066,128.542c0.5-0.329,0.813,0.046,1.084,0.461
		c3.299,5.021,6.583,10.056,9.888,15.071c3.476,5.275,6.97,10.532,10.455,15.8c1.477,2.23,2.949,4.465,4.427,6.695
		c0.334,0.503,0.478,1.027,0.188,1.632c-3.109-3.936-5.673-8.412-8.494-12.633c-4.96-7.424-9.806-14.962-14.689-22.463
		C24.949,131.607,24.018,130.064,23.066,128.542z"/>
	<path fill-rule="evenodd" clip-rule="evenodd" fill="#2AAAE1" d="M87.371,145.194c0.77,0.082,1.164,0.672,1.461,1.479
		c1.596,4.336,3.409,8.539,5.234,12.739c1.624,3.737,2.927,7.684,4.605,11.383c1.159,2.558,2.14,5.212,3.259,7.787
		c0.272,0.629,1.087,1.199,0.238,2.035c-1.763-2.655-2.685-5.881-3.978-8.843c-3.17-7.257-6.143-14.642-9.14-22.008
		C88.445,148.275,87.571,146.911,87.371,145.194z"/>
	<path fill-rule="evenodd" clip-rule="evenodd" fill="#2AAAE1" d="M251.373,198.246c-6.893,10.579-13.782,21.161-20.683,31.733
		c-0.416,0.638-0.916,1.194-1.377,1.788c-0.097-0.072-0.185-0.157-0.266-0.255c0.147-0.733,0.437-1.363,0.828-1.961
		c2.412-3.682,4.933-7.254,7.272-11.013c3.367-5.41,6.839-10.73,10.422-15.931c1.105-1.604,1.943-3.577,3.539-4.653
		C251.191,198.058,251.28,198.155,251.373,198.246z"/>
	<path fill-rule="evenodd" clip-rule="evenodd" fill="#2AAAE1" d="M59.298,32.469c0.286-0.47,0.643-0.303,0.976-0.13
		c3.906,2.035,7.807,4.09,11.717,6.114c1.426,0.739,2.873,1.421,4.315,2.112c0.335,0.161,0.729,0.204,0.729,0.801
		c-3.155-0.553-5.822-2.704-8.756-3.993C65.201,36.021,62.285,34.126,59.298,32.469z"/>
	<path fill-rule="evenodd" clip-rule="evenodd" fill="#2AAAE1" d="M47.245,24.967c3.191,2.521,6.733,4.141,10.228,5.89
		c0.484,0.242,1.09,0.382,1.114,1.251c-3.482-1.264-6.653-3.455-10.042-5.007C47.897,26.804,47.076,26.211,47.245,24.967z"/>
	<path fill-rule="evenodd" clip-rule="evenodd" fill="#2AAAE1" d="M93.062,235.246c1.504,0.242,2.071,1.88,2.805,3.07
		c1.392,2.263,3.044,4.336,3.952,7.008C97.181,242.346,95.215,238.704,93.062,235.246z"/>
	<path fill-rule="evenodd" clip-rule="evenodd" fill="#2AAAE1" d="M119.199,275.042c1.613,0.381,2.111,2.269,2.946,3.539
		c1.254,1.904,2.916,3.539,3.455,6.063C123.173,281.732,121.166,278.407,119.199,275.042z"/>
	<path fill-rule="evenodd" clip-rule="evenodd" fill="#2AAAE1" d="M49.213,168.34c0.173-0.034,0.447-0.169,0.503-0.087
		c1.862,2.773,4.236,5.102,5.183,8.679C52.839,174.227,50.978,171.331,49.213,168.34z"/>
	<path fill-rule="evenodd" clip-rule="evenodd" fill="#2AAAE1" d="M109.432,260.058c1.985,0.815,2.603,3.262,3.88,4.911
		c0.733,0.946,1.673,1.971,1.632,3.538C112.88,265.908,111.119,263.019,109.432,260.058z"/>
	<path fill-rule="evenodd" clip-rule="evenodd" fill="#2AAAE1" d="M212.773,48.96c1.299-1.404,2.994-0.555,4.463-1.145
		c1.16-0.465,2.449-0.921,3.696-0.122C218.275,48.711,215.578,49.346,212.773,48.96z"/>
	<path fill-rule="evenodd" clip-rule="evenodd" fill="#2AAAE1" d="M60.266,185.263c0.372-0.244,0.702-0.171,0.962,0.229
		c1.374,2.12,2.746,4.243,4.107,6.376c0.151,0.236,0.193,0.534-0.074,0.748C63.271,190.49,61.794,187.85,60.266,185.263z"/>
	<path fill-rule="evenodd" clip-rule="evenodd" fill="#2AAAE1" d="M234.854,43.965c0.168-0.774,0.789-0.896,1.25-1.101
		c2.021-0.902,4.07-1.709,6.114-2.536c0.283-0.115,0.589-0.172,0.807,0.198C240.416,42.072,237.688,43.203,234.854,43.965z"/>
	<path fill-rule="evenodd" clip-rule="evenodd" fill="#2AAAE1" d="M103.885,251.583c2.185,1.54,3.57,3.854,4.402,6.702
		C106.43,256.428,105.306,253.862,103.885,251.583z"/>
	<path fill-rule="evenodd" clip-rule="evenodd" fill="#2AAAE1" d="M127.095,286.885c1.019-0.117,1.35,1.004,1.738,1.695
		c0.819,1.46,2.127,2.587,2.303,4.529C129.46,291.349,128.125,289.262,127.095,286.885z"/>
	<path fill-rule="evenodd" clip-rule="evenodd" fill="#2AAAE1" d="M255.4,192.026c-1.343,2.073-2.686,4.146-4.028,6.22
		c-0.092-0.091-0.181-0.188-0.263-0.291c0.85-2.564,2.385-4.473,4.06-6.247C255.252,191.808,255.329,191.914,255.4,192.026z"/>
	<path fill-rule="evenodd" clip-rule="evenodd" fill="#2AAAE1" d="M77.767,211.788c1.005-0.122,1.301,0.859,1.72,1.639
		c0.902,1.679,2.509,2.812,2.664,5.067C80.541,216.402,79.021,214.223,77.767,211.788z"/>
	<path fill-rule="evenodd" clip-rule="evenodd" fill="#2AAAE1" d="M99.825,245.334c0.647-0.093,0.947,0.407,1.269,0.986
		c0.954,1.729,2.275,3.169,2.782,5.248C102.267,249.738,100.847,247.728,99.825,245.334z"/>
	<path fill-rule="evenodd" clip-rule="evenodd" fill="#2AAAE1" d="M196.51,281.825c-1.347,2.085-2.693,4.17-4.04,6.256
		c-0.093-0.081-0.18-0.172-0.26-0.271c0.839-2.572,2.344-4.513,4.04-6.271C196.331,281.641,196.418,281.736,196.51,281.825z"/>
	<path fill-rule="evenodd" clip-rule="evenodd" fill="#2AAAE1" d="M221.972,47.578c2.2-0.74,4.276-2.205,6.692-1.685
		C226.488,46.781,224.364,47.967,221.972,47.578z"/>
	<path fill-rule="evenodd" clip-rule="evenodd" fill="#2AAAE1" d="M68.165,197.06c1.305-0.075,1.346,1.5,1.933,2.304
		c0.846,1.158,1.924,2.214,2.116,3.92C70.537,201.522,69.207,199.43,68.165,197.06z"/>
	<path fill-rule="evenodd" clip-rule="evenodd" fill="#2AAAE1" d="M56.043,178.714c1.98,1.591,3.545,3.576,4.155,6.466
		C58.746,183.088,57.222,181.063,56.043,178.714z"/>
	<path fill-rule="evenodd" clip-rule="evenodd" fill="#2AAAE1" d="M114.971,268.539c1.945,1.627,3.566,3.564,4.188,6.456
		C117.629,272.972,116.174,270.877,114.971,268.539z"/>
	<path fill-rule="evenodd" clip-rule="evenodd" fill="#2AAAE1" d="M87.282,45.893c0.477-0.61,1.051-0.347,1.492-0.067
		c1.304,0.825,2.871,0.72,4.098,1.773C90.821,47.938,89.061,46.871,87.282,45.893z"/>
	<path fill-rule="evenodd" clip-rule="evenodd" fill="#2AAAE1" d="M229.332,45.764c1.333-1.783,3.062-1.862,4.855-1.658
		C232.617,44.867,231.107,45.889,229.332,45.764z"/>
	<path fill-rule="evenodd" clip-rule="evenodd" fill="#2AAAE1" d="M73.707,205.539c1.554,0.934,2.371,2.572,2.914,4.475
		C75.371,208.79,74.323,207.371,73.707,205.539z"/>
	<path fill-rule="evenodd" clip-rule="evenodd" fill="#2AAAE1" d="M77.382,41.52c1.689,0.573,3.589,0.531,4.825,2.43
		C80.472,43.511,78.81,42.857,77.382,41.52z"/>
	<path fill-rule="evenodd" clip-rule="evenodd" fill="#2AAAE1" d="M82.86,44.119c1.419-0.024,2.851-0.088,3.769,1.612
		C85.175,45.875,84.059,44.857,82.86,44.119z"/>
	<path fill-rule="evenodd" clip-rule="evenodd" fill="#2AAAE1" d="M189.568,48.931c1.398-1.046,2.802-0.991,4.208-0.025
		C192.375,49.236,190.973,49.211,189.568,48.931z"/>
	<path fill-rule="evenodd" clip-rule="evenodd" fill="#2AAAE1" d="M65.655,193.444c1.35,0.673,2.14,1.918,2.501,3.602
		C66.987,196.188,66.319,194.817,65.655,193.444z"/>
	<path fill-rule="evenodd" clip-rule="evenodd" fill="#2AAAE1" d="M89.901,230.126c1.225,0.478,1.862,1.479,1.85,3.06
		C91.029,232.26,90.114,231.505,89.901,230.126z"/>
	<path fill-rule="evenodd" clip-rule="evenodd" fill="#2AAAE1" d="M83.463,220.566c1.231,0.106,1.47,1.212,1.635,2.392
		C84.205,222.511,83.976,221.396,83.463,220.566z"/>
	<path fill-rule="evenodd" clip-rule="evenodd" fill="#2AAAE1" d="M197.957,279.641c-0.482,0.729-0.965,1.457-1.447,2.185
		c-0.092-0.089-0.179-0.185-0.26-0.287c0.274-0.957,0.506-1.957,1.488-2.216C197.818,279.422,197.892,279.527,197.957,279.641z"/>
	<path fill-rule="evenodd" clip-rule="evenodd" fill="#2AAAE1" d="M125.609,284.659c0.983,0.25,1.571,0.89,1.473,2.203
		C126.392,286.325,125.718,285.77,125.609,284.659z"/>
	<path fill-rule="evenodd" clip-rule="evenodd" fill="#2AAAE1" d="M131.503,293.595c1.062,0.063,1.405,0.783,1.228,1.979
		C132.044,295.167,131.806,294.352,131.503,293.595z"/>
	<path fill-rule="evenodd" clip-rule="evenodd" fill="#2AAAE1" d="M82.161,218.508c1.088,0.038,1.373,0.816,1.24,1.979
		C82.73,220.065,82.48,219.255,82.161,218.508z"/>
	<path fill-rule="evenodd" clip-rule="evenodd" fill="#2AAAE1" d="M87.721,226.976c1.076,0.053,1.325,0.866,1.24,1.986
		C88.311,228.518,88.095,227.674,87.721,226.976z"/>
	<path fill-rule="evenodd" clip-rule="evenodd" fill="#2AAAE1" d="M91.784,233.227c1.044,0.077,1.304,0.883,1.246,1.982
		C92.38,234.766,92.155,233.928,91.784,233.227z"/>
	<path fill-rule="evenodd" clip-rule="evenodd" fill="#2AAAE1" d="M72.569,203.774c1.059-0.071,1.125,0.801,1.123,1.738
		C72.99,205.245,72.889,204.406,72.569,203.774z"/>
	<path fill-rule="evenodd" clip-rule="evenodd" fill="#2AAAE1" d="M76.628,210.023c1.062-0.076,1.114,0.808,1.12,1.735
		C77.086,211.454,76.926,210.675,76.628,210.023z"/>
	<path fill-rule="evenodd" clip-rule="evenodd" fill="#2AAAE1" d="M108.294,258.293c1.088-0.098,1.088,0.836,1.12,1.739
		C108.727,259.75,108.618,258.92,108.294,258.293z"/>
	<path fill-rule="evenodd" clip-rule="evenodd" fill="#2AAAE1" d="M55.296,177.385c0.699,0.057,0.708,0.682,0.727,1.3
		C55.457,178.518,55.3,178.014,55.296,177.385z"/>
	<path fill-rule="evenodd" clip-rule="evenodd" fill="#2AAAE1" d="M86.974,225.646c0.707,0.051,0.684,0.698,0.72,1.297
		C87.115,226.788,86.959,226.287,86.974,225.646z"/>
	<path fill-rule="evenodd" clip-rule="evenodd" fill="#2AAAE1" d="M85.491,223.417c0.742,0.029,0.774,0.635,0.721,1.31
		C85.668,224.536,85.504,224.038,85.491,223.417z"/>
	<path fill-rule="evenodd" clip-rule="evenodd" fill="#2AAAE1" d="M88.999,229.012c0.83-0.274,0.869,0.399,0.89,1.094
		C89.418,229.95,89.147,229.555,88.999,229.012z"/>
	<path fill-rule="evenodd" clip-rule="evenodd" fill="#2AAAE1" d="M31.254,36.112c1.777,0.217,3.256,1.512,4.924,2.186
		c3.211,1.297,6.31,3.01,9.444,4.583c2.797,1.405,5.568,2.886,8.37,4.273c2.692,1.333,5.404,2.606,8.117,3.876
		c2.917,1.363,5.729,3.086,8.662,4.323c2.928,1.235,5.615,3.176,8.636,4.073c1.313,0.391,2.281,1.676,3.671,1.961
		c0.719,0.146,0.612,1.107,0.484,1.886c-0.635,3.895-1.62,7.69-2.34,11.563c-0.563,3.031-1.238,6.147-1.898,9.188
		c-0.707,3.254-1.526,6.509-2.008,9.861c-0.465,3.245-1.356,6.397-2.028,9.602c-0.674,3.206-1.32,6.421-1.95,9.64
		c-0.184,0.937-0.188,1.93-0.413,2.847c-0.685,2.795-1.644,3.081-3.831,1.788c-2.647-1.563-5.43-2.787-8.126-4.235
		c-2.641-1.419-5.229-2.979-7.871-4.396c-2.492-1.335-5.038-2.522-7.536-3.845c-2.756-1.459-5.473-3.023-8.226-4.492
		c-2.421-1.292-4.841-2.603-7.311-3.747c-2.824-1.31-5.474-3.084-8.266-4.447c-2.588-1.262-5.144-2.599-7.683-3.989
		c-2.797-1.532-5.709-2.728-8.445-4.455C4.525,83.458,3.329,82.9,2.17,82.308c-1.392-0.711-1.274-1.575-0.53-2.691
		c2.977-4.46,6.01-8.864,8.957-13.352c4.687-7.135,9.311-14.33,13.982-21.479c1.689-2.585,3.462-5.089,5.146-7.678
		C30.143,36.468,30.521,35.984,31.254,36.112z"/>
	<path fill-rule="evenodd" clip-rule="evenodd" fill="#2AAAE1" d="M159.818,118.564c-23.435,0-46.869-0.013-70.303,0.028
		c-1.595,0.003-2.574-0.006-2.02-2.59c0.776-3.615,1.539-7.237,2.286-10.857c0.616-2.988,1.217-5.998,1.846-8.991
		c0.715-3.404,1.353-6.829,2.226-10.192c0.654-2.517,1.097-5.119,1.699-7.668c0.382-1.61,0.769-3.232,1.125-4.852
		c0.455-2.066,0.882-3.985,2.521-5.067c1.531-1.011,3.248-1.273,4.948-1.407c1.649-0.129,3.312-0.013,4.968-0.043
		c36.734-0.664,73.471-0.368,110.207-0.428c2.751-0.005,2.429,0.137,3.354,3.208c0.946,3.142,0.911,6.562,2.19,9.566
		c0.29,0.68,0.129,1.621,0.295,2.403c0.812,3.829,1.888,7.599,2.432,11.479c0.452,3.221,1.266,6.304,1.927,9.43
		c0.734,3.466,1.116,7.043,2.21,10.414c0.457,1.412,0.587,3.037,0.625,4.574c0.036,1.399-1.025,0.99-1.681,0.992
		c-7.668,0.026-15.336,0.017-23.005,0.017c-15.949,0-31.899,0-47.85,0C159.818,118.575,159.818,118.57,159.818,118.564z"/>
	<path fill-rule="evenodd" clip-rule="evenodd" fill="#2AAAE1" d="M197.738,279.322c-0.982,0.259-1.214,1.259-1.488,2.216
		c-1.696,1.759-3.201,3.699-4.04,6.271c-1.785,1.289-2.612,3.624-3.964,5.39c-0.502,0.655-0.938,1.787-1.688,1.154
		c-0.685-0.578-0.392-1.738,0.021-2.633c1.386-3.007,2.481-6.185,3.713-9.281c1.623-4.079,3.114-8.233,4.933-12.209
		c1.698-3.714,3.058-7.654,4.623-11.461c1.593-3.87,3.289-7.678,4.877-11.552c1.64-4.003,3.176-8.068,4.81-12.075
		c1.476-3.616,3.044-7.176,4.532-10.785c1.702-4.13,3.347-8.296,5.046-12.429c1.484-3.613,3.064-7.168,4.501-10.809
		c1.666-4.221,3.61-8.263,5.148-12.573c1.366-3.826,3.174-7.419,4.737-11.145c1.15-2.741,2.198-5.545,3.331-8.295
		c1.671-4.051,3.507-8.009,5.027-12.139c1.315-3.57,2.729-7.09,4.531-10.283c2.506-4.44,5.472-8.352,9.475-11.094
		c2.27-1.555,4.586-3.02,6.946-4.235c3.496-1.804,6.889-3.88,10.416-5.605c2.283-1.116,4.496-2.539,6.744-3.817
		c2.334-1.325,4.635-2.738,6.936-4.145c3.449-2.106,6.942-4.108,10.396-6.205c2.309-1.401,4.658-2.768,7.039-4.02
		c1.504-0.79,2.959-1.727,4.402-2.671c0.705-0.46,1.523-0.751,2.062-0.154c0.52,0.576-0.129,1.41-0.45,1.94
		c-2.027,3.325-4.107,6.605-6.193,9.878c-3.921,6.151-8.206,11.948-11.964,18.269c-1.372,2.307-3.28,4.145-4.228,6.857
		c-2.042,1.816-3.301,4.475-4.859,6.793c-4.846,7.21-9.583,14.526-14.362,21.801c-4.378,6.662-8.763,13.318-13.123,19.998
		c-0.25,0.382-0.308,0.951-0.455,1.433c-1.675,1.774-3.21,3.683-4.06,6.247c-1.596,1.076-2.434,3.05-3.539,4.653
		c-3.583,5.2-7.055,10.521-10.422,15.931c-2.34,3.759-4.86,7.331-7.272,11.013c-0.392,0.598-0.681,1.228-0.828,1.961
		c-2.066,1.879-3.367,4.574-4.958,6.947c-4.862,7.253-9.638,14.593-14.441,21.903c-3.836,5.837-7.661,11.684-11.5,17.518
		C197.862,278.316,197.77,278.799,197.738,279.322z"/>
</g>
</svg>
