<svg xmlns="http://www.w3.org/2000/svg" viewBox="0 0 296.477 296.477"><g fill="currentColor"><path d="M244.63 35.621c-21.771-18.635-47.382-29.855-73.767-33.902-48.992-7.516-100.64 9.702-135.241 50.128-53.236 62.198-45.972 155.773 16.226 209.01 21.771 18.634 47.381 29.853 73.766 33.901 48.991 7.517 100.641-9.703 135.241-50.13 53.236-62.197 45.971-155.772-16.225-209.007zm28.731 155.62l-45.305-15.618c6.102-17.803 6.028-37.107.014-54.724l45.257-15.575a132.754 132.754 0 016.74 32.741c1.422 18.309-.915 36.323-6.706 53.176zm2.544-87.183v-.008.008zm-27.97-42.586l-36.069 31.332a85.115 85.115 0 00-8.752-8.677 83.969 83.969 0 00-38.637-18.692l9.095-46.741c22.33 4.33 43.21 14.294 60.635 29.209a134.544 134.544 0 0113.728 13.569zM103.251 23.983a130.492 130.492 0 0119.71-5.388l9.087 46.843c-17.789 3.467-34.584 12.651-47.393 27.341L48.55 61.38a131.909 131.909 0 0154.701-37.397zm-80.127 81.253l45.297 15.617c-6.102 17.803-6.028 37.105-.015 54.723l-45.295 15.588a133.018 133.018 0 01-6.713-32.688c-1.422-18.325.922-36.366 6.726-53.24zm25.343 129.83l36.145-31.395a84.962 84.962 0 008.754 8.68A83.967 83.967 0 00132 231.042l-9.143 46.997c-22.325-4.348-43.185-14.422-60.604-29.333a133.868 133.868 0 01-13.786-13.64zm144.736 37.569a132.222 132.222 0 01-19.658 5.403l-9.117-47c17.789-3.467 34.585-12.651 47.394-27.342l36.121 31.409c-14.789 16.982-33.686 29.942-54.74 37.53z"/><circle cx="93.372" cy="53.498" r="8"/><circle cx="38.758" cy="148.382" r="8"/><circle cx="93.623" cy="243.123" r="8"/><circle cx="203.105" cy="242.977" r="8.001"/><circle cx="257.717" cy="148.091" r="8"/><circle cx="202.853" cy="53.351" r="8"/></g></svg>