<svg viewBox="0 0 511.333 511.333" xmlns="http://www.w3.org/2000/svg"><g fill="currentColor"><path d="M314.882 460.564a20.927 20.927 0 000-25.795c-1.349-1.73 2.694 2.442-44.366-44.618-8.201-8.201-21.498-8.201-29.699 0-8.2 8.201-8.2 21.498 0 29.698l6.818 6.817H213c-11.598 0-21 9.402-21 21s9.402 21 21 21h34.635l-6.818 6.817c-13.269 13.27-3.688 35.851 14.85 35.849a20.94 20.94 0 0014.85-6.151c47.439-47.438 43.103-42.998 44.365-44.617z"/><path d="M405 0H106.333c-11.598 0-21 9.402-21 21v426.667c0 11.598 9.402 21 21 21h21.333c11.598 0 21-9.402 21-21 0-59 48-107 107-107s107 48 107 107c0 11.598 9.402 21 21 21H405c11.598 0 21-9.402 21-21V21c0-11.598-9.403-21-21-21zM213 85.333h85.334c11.598 0 21 9.402 21 21s-9.402 21-21 21H213c-11.598 0-21-9.402-21-21s9.402-21 21-21zm106.667 127.334h-128c-11.598 0-21-9.402-21-21s9.402-21 21-21h128c11.598 0 21 9.402 21 21s-9.403 21-21 21z"/></g></svg>