<svg xmlns="http://www.w3.org/2000/svg" viewBox="0 0 890.5 890.5"><g fill="currentColor"><path d="M208.1 180.56l355-96.9-18.8-38c-12.3-24.7-42.3-34.9-67-22.6l-317.8 157.5h48.6zM673.3 86.46c-4.399 0-8.8.6-13.2 1.8l-83.399 22.8L322 180.56h415.1l-15.6-57.2c-6-22.3-26.2-36.9-48.2-36.9zM789.2 215.56H50.1c-15.8 0-29.9 7.3-39.1 18.8-4.2 5.3-7.4 11.4-9.2 18.1-1.1 4.2-1.8 8.6-1.8 13.1v557.1c0 27.601 22.4 50 50 50h739.1c27.601 0 50-22.399 50-50v-139.5H542.4c-46.9 0-85-38.1-85-85V486.96c0-23 9.199-43.899 24.1-59.199 13.2-13.601 30.9-22.801 50.7-25.101 3.3-.399 6.7-.6 10.1-.6h296.8v-136.5c.1-27.6-22.3-50-49.9-50z"/><path d="M874.2 449.86c-5-4.6-10.9-8.1-17.5-10.4-5.101-1.699-10.5-2.699-16.2-2.699H542.4c-27.601 0-50 22.399-50 50V598.06c0 27.6 22.399 50 50 50h298.1c5.7 0 11.1-1 16.2-2.7 6.6-2.2 12.5-5.8 17.5-10.4 10-9.1 16.3-22.3 16.3-36.899v-111.3c0-14.601-6.3-27.802-16.3-36.901zm-227.4 102.5c0 13.8-11.2 25-25 25h-16.6c-13.8 0-25-11.2-25-25v-16.6c0-8 3.7-15.101 9.6-19.601 4.3-3.3 9.601-5.399 15.4-5.399h16.6c13.8 0 25 11.199 25 25v16.6z"/></g></svg>